<?xml version="1.0" encoding="utf-8"?>
<!-- Generator: Adobe Illustrator 25.4.1, SVG Export Plug-In . SVG Version: 6.00 Build 0)  -->
<svg version="1.1" id="Layer_1" xmlns="http://www.w3.org/2000/svg" xmlns:xlink="http://www.w3.org/1999/xlink" x="0px" y="0px"
	 viewBox="0 0 1366 230" style="enable-background:new 0 0 1366 230;" xml:space="preserve">
<style type="text/css">
	.st0{fill:#FFFFFF;}
	.st1{fill:#ED1C24;}
</style>
<g>
	<path class="st0" d="M837.32,188.39c0-1-0.11-1.93-0.29-2.8c5.36,2.97,11.24,4.66,16.84,4.66c1.19,0,2.38-0.08,3.52-0.23
		c2.73-0.37,5.19-1.86,6.79-4.11c1.6-2.25,2.2-5.06,1.66-7.76l-0.27-1.35c-0.94-4.69-5.06-8.03-9.8-8.03c-0.14,0-0.27,0-0.41,0.01
		c-0.08,0-0.17,0.01-0.25,0.01c-3.48,0-7.99-2.77-10.95-6.73c-2.42-3.23-3.47-6.78-2.74-9.25c0.16-0.54,0.32-1.02,0.48-1.44
		c0.56,0.1,1.17,0.16,1.81,0.16c4.29,0,8.51-2.17,10.75-5.54c0.23-0.34,0.44-0.7,0.62-1.07c1.86-3.73,2.07-9.96-3.5-15.24
		c-0.03-0.03-0.06-0.06-0.1-0.09l-0.25-0.23c-1.38-1.28-3.94-3.65-8.55-6.95c-0.17-0.12-0.34-0.23-0.51-0.34
		c-0.78-0.49-1.6-0.87-2.45-1.16c-0.45-3.09-2.07-6.09-4.45-8.13c-0.16-0.14-0.33-0.27-0.5-0.4c-0.4-0.3-0.92-0.66-1.55-1.07
		c1.43-2.97,1.53-6.31,1.4-9.1c-0.12-2.93-0.38-9.74-0.53-18.06c1.48-0.72,2.96-1.4,4.46-2.01c0.12-0.05,0.24-0.1,0.36-0.15
		c0.44-0.2,0.52-0.2,0.66-0.2c4.19,0,8.09-2.3,10.18-6.01c1.14-2.03,3.32-7.5-1.01-14.59c-2.55-4.15-8.32-9.26-13.55-10.76
		c2.43-2.06,3.94-4.99,3.94-8.25c0-4.14-1.97-8.4-5.14-11.14c-2.32-2.04-6.75-5.1-14.81-8.25c-1.19-0.46-2.42-0.69-3.64-0.69
		c-3.02,0-5.95,1.37-7.89,3.85l-0.63,0.81c-2.82,3.62-2.82,8.69,0,12.31c0.26,0.33,0.54,0.69,0.84,1.06
		c1.52,1.89,3.61,4.49,3.61,6.37c0,3.18,0.02,7.27,0.04,11.75c0.02,3.57,0.03,7.46,0.04,11.33c-6.92,3.76-13.96,6.39-16.43,6.89
		c-2.98,0.6-5.53,2.51-6.92,5.21c-1.4,2.7-1.49,5.89-0.25,8.66l0.36,0.81c1.63,3.65,5.24,5.93,9.13,5.93c0.59,0,1.19-0.05,1.79-0.16
		c4.46-0.81,8.36-1.77,11.81-2.8c-0.03,0.28-0.06,0.53-0.09,0.74c-0.11,0.7-0.26,1.16-0.44,1.7c-0.21,0.64-0.5,1.52-0.65,2.6
		c-0.32,2.26,0.19,4.79,0.91,6.99c-0.37,0.25-0.73,0.51-1.07,0.81l-1.62,1.44c-2.36,2.1-3.59,5.19-3.32,8.33
		c0.27,3.09,1.95,5.87,4.55,7.55c0.21,0.19,1.34,1.33,1.75,3.9c0.94,5.78,0.28,40.61-0.02,45.07c-0.01,0.1-0.01,0.19-0.02,0.29
		c-0.04,1.03-0.09,1.71-0.14,2.14c-3.84,6.13-1.99,14.47,4.87,20.97c0.05,0.05,0.1,0.09,0.15,0.14c3.08,2.8,6.91,3.21,8.92,3.21
		C831.95,200,837.32,195.01,837.32,188.39z M831.19,154.96c0.01,0.19,0.02,0.38,0.03,0.58
		C831.21,155.34,831.19,155.15,831.19,154.96z M839.06,171.37c0.17,0.16,0.33,0.32,0.5,0.48
		C839.39,171.69,839.22,171.53,839.06,171.37z M839.04,175.07c-0.29-0.2-0.57-0.41-0.85-0.62
		C838.47,174.66,838.75,174.87,839.04,175.07z M838.58,170.89c-0.16-0.17-0.32-0.33-0.48-0.51
		C838.26,170.55,838.42,170.72,838.58,170.89z M837.65,169.88c-0.15-0.17-0.31-0.35-0.46-0.53
		C837.34,169.53,837.5,169.7,837.65,169.88z M836.76,168.82c-0.14-0.18-0.29-0.36-0.43-0.54
		C836.47,168.47,836.62,168.64,836.76,168.82z M835.93,167.74c-0.14-0.19-0.27-0.37-0.41-0.56
		C835.66,167.36,835.8,167.55,835.93,167.74z M835.16,166.62c-0.13-0.19-0.25-0.38-0.38-0.58
		C834.9,166.23,835.03,166.43,835.16,166.62z M834.44,165.46c-0.12-0.2-0.23-0.39-0.34-0.59
		C834.2,165.07,834.32,165.27,834.44,165.46z M833.78,164.28c-0.1-0.2-0.21-0.4-0.31-0.6C833.57,163.89,833.68,164.08,833.78,164.28
		z M833.19,163.08c-0.09-0.2-0.19-0.4-0.27-0.6C833,162.68,833.1,162.88,833.19,163.08z M832.67,161.85
		c-0.08-0.2-0.16-0.41-0.24-0.61C832.5,161.45,832.59,161.65,832.67,161.85z M832.22,160.61c-0.07-0.2-0.14-0.4-0.2-0.61
		C832.08,160.21,832.15,160.41,832.22,160.61z M831.84,159.36c-0.05-0.2-0.11-0.41-0.16-0.61
		C831.73,158.95,831.79,159.15,831.84,159.36z M831.55,158.09c-0.04-0.2-0.09-0.4-0.12-0.6
		C831.47,157.69,831.51,157.89,831.55,158.09z M831.34,156.82c-0.03-0.2-0.06-0.4-0.08-0.6
		C831.29,156.42,831.32,156.62,831.34,156.82z M831.19,154.24c0-0.18,0-0.37,0.01-0.55C831.19,153.88,831.2,154.06,831.19,154.24z
		 M831.26,152.95c0.02-0.17,0.02-0.34,0.04-0.51C831.29,152.61,831.28,152.78,831.26,152.95z M831.44,151.62
		c0.02-0.14,0.04-0.28,0.07-0.42C831.48,151.34,831.47,151.48,831.44,151.62z M827.16,152.18c-0.02,0.35-0.04,0.7-0.05,1.05
		C827.12,152.88,827.14,152.53,827.16,152.18z M827.77,147.9c-0.14,0.61-0.25,1.21-0.35,1.81
		C827.52,149.11,827.63,148.51,827.77,147.9z M827.35,150.3c-0.05,0.4-0.11,0.79-0.14,1.18C827.24,151.1,827.29,150.7,827.35,150.3z
		 M823.62,189.84c-0.03-0.01-0.07-0.02-0.1-0.03C823.55,189.83,823.59,189.84,823.62,189.84z M827.92,159.79
		c-0.08-0.29-0.14-0.57-0.21-0.86C827.78,159.21,827.85,159.5,827.92,159.79z M827.56,158.21c-0.06-0.3-0.11-0.6-0.15-0.9
		C827.45,157.61,827.5,157.91,827.56,158.21z M827.3,156.59c-0.04-0.31-0.06-0.62-0.09-0.93
		C827.23,155.97,827.26,156.28,827.3,156.59z M827.15,154.93c-0.02-0.32-0.02-0.65-0.02-0.98
		C827.13,154.28,827.13,154.61,827.15,154.93z M831.15,166.97c-0.16-0.25-0.32-0.5-0.47-0.75
		C830.83,166.47,830.99,166.72,831.15,166.97z M830.33,165.63c-0.14-0.25-0.29-0.51-0.42-0.77
		C830.05,165.12,830.19,165.38,830.33,165.63z M829.6,164.24c-0.13-0.26-0.25-0.52-0.37-0.79
		C829.35,163.72,829.47,163.98,829.6,164.24z M828.95,162.8c-0.11-0.27-0.22-0.54-0.32-0.81
		C828.73,162.26,828.84,162.53,828.95,162.8z M828.39,161.32c-0.09-0.28-0.18-0.56-0.27-0.84
		C828.21,160.76,828.29,161.04,828.39,161.32z M833.4,169.98c0.21,0.25,0.44,0.49,0.66,0.73
		C833.83,170.46,833.61,170.22,833.4,169.98z M834.43,171.11c0.26,0.27,0.53,0.53,0.79,0.79
		C834.95,171.65,834.69,171.38,834.43,171.11z M835.51,172.19c0.74,0.7,1.52,1.36,2.32,1.98
		C837.03,173.56,836.25,172.9,835.51,172.19z M833.01,169.5c-0.2-0.24-0.39-0.48-0.58-0.72
		C832.61,169.02,832.81,169.26,833.01,169.5z M832.04,168.26c-0.18-0.24-0.35-0.48-0.52-0.73
		C831.68,167.77,831.86,168.02,832.04,168.26z M839.5,175.38c0.26,0.17,0.51,0.35,0.77,0.51
		C840.02,175.73,839.76,175.56,839.5,175.38z M840.8,176.21c0.25,0.15,0.5,0.3,0.75,0.45C841.29,176.51,841.04,176.36,840.8,176.21z
		 M842.09,176.96c0.25,0.13,0.49,0.27,0.74,0.39C842.58,177.22,842.34,177.09,842.09,176.96z M843.4,177.63
		c0.24,0.12,0.49,0.23,0.73,0.34C843.89,177.86,843.64,177.74,843.4,177.63z M844.71,178.22c0.24,0.1,0.48,0.2,0.73,0.3
		C845.2,178.43,844.96,178.33,844.71,178.22z M846.03,178.74c0.24,0.09,0.48,0.17,0.72,0.26
		C846.51,178.92,846.27,178.83,846.03,178.74z M847.34,179.19c0.24,0.07,0.48,0.15,0.72,0.21
		C847.83,179.34,847.59,179.27,847.34,179.19z M848.66,179.56c0.24,0.06,0.47,0.12,0.71,0.17
		C849.13,179.68,848.89,179.62,848.66,179.56z M849.95,179.85c0.24,0.05,0.47,0.09,0.71,0.12
		C850.43,179.94,850.19,179.9,849.95,179.85z M851.23,180.07c0.24,0.03,0.47,0.06,0.7,0.08C851.7,180.12,851.47,180.1,851.23,180.07
		z M852.49,180.2c0.23,0.02,0.47,0.03,0.7,0.03C852.96,180.23,852.73,180.22,852.49,180.2z M853.72,180.25
		c0.27,0,0.53-0.01,0.79-0.02c-0.22,0.01-0.43,0.02-0.65,0.02C853.82,180.26,853.77,180.25,853.72,180.25z M854.89,180.22
		c0.38-0.02,0.76-0.06,1.14-0.11C855.66,180.17,855.28,180.2,854.89,180.22z M854.18,178.74c0.2,0.01,0.41,0.02,0.61,0.02
		C854.59,178.76,854.39,178.76,854.18,178.74z M846.17,176.51c-0.2-0.1-0.39-0.2-0.58-0.3
		C845.78,176.32,845.97,176.41,846.17,176.51z M853.54,178.7c-0.2-0.02-0.41-0.04-0.61-0.07
		C853.13,178.66,853.34,178.68,853.54,178.7z M852.29,178.54c-0.2-0.03-0.41-0.07-0.61-0.11
		C851.88,178.47,852.09,178.5,852.29,178.54z M851.05,178.29c-0.2-0.05-0.41-0.1-0.61-0.15
		C850.64,178.2,850.84,178.24,851.05,178.29z M849.81,177.96c-0.2-0.06-0.4-0.12-0.61-0.19C849.4,177.84,849.6,177.9,849.81,177.96z
		 M848.58,177.55c-0.2-0.07-0.4-0.15-0.6-0.23C848.18,177.41,848.38,177.48,848.58,177.55z M847.37,177.07
		c-0.2-0.09-0.4-0.17-0.59-0.27C846.97,176.9,847.17,176.98,847.37,177.07z M844.99,175.89c-0.19-0.11-0.39-0.22-0.58-0.33
		C844.61,175.67,844.8,175.78,844.99,175.89z M841.63,173.63c-0.18-0.14-0.36-0.28-0.54-0.43
		C841.27,173.35,841.45,173.49,841.63,173.63z M843.85,175.2c-0.19-0.12-0.38-0.24-0.57-0.37
		C843.47,174.95,843.66,175.08,843.85,175.2z M842.72,174.44c-0.19-0.13-0.37-0.26-0.55-0.4
		C842.35,174.18,842.54,174.31,842.72,174.44z M840.06,172.31c0.17,0.15,0.35,0.3,0.52,0.45
		C840.4,172.62,840.23,172.47,840.06,172.31z M836.6,130.39c-0.03-0.01-0.05-0.01-0.08-0.02
		C836.54,130.38,836.57,130.38,836.6,130.39z M836.37,130.35c-0.02,0-0.03,0-0.05,0c0.01,0,0.02-0.01,0.03-0.01
		C836.35,130.34,836.36,130.35,836.37,130.35z M836.07,130.44C836.06,130.44,836.06,130.44,836.07,130.44
		C836.06,130.44,836.06,130.44,836.07,130.44z M835.85,130.7c-0.01,0.02-0.02,0.03-0.03,0.05
		C835.83,130.73,835.84,130.71,835.85,130.7z M835.65,131.13c-0.01,0.03-0.02,0.06-0.03,0.09
		C835.63,131.19,835.64,131.16,835.65,131.13z M835.45,131.72c-0.05,0.17-0.11,0.36-0.18,0.55
		C835.34,132.08,835.4,131.89,835.45,131.72z M834.94,133.22c-0.09,0.23-0.19,0.47-0.3,0.72
		C834.75,133.69,834.85,133.45,834.94,133.22z M835.23,132.42c-0.07,0.21-0.15,0.43-0.23,0.66
		C835.08,132.85,835.16,132.63,835.23,132.42z M834.58,134.06c-0.12,0.26-0.26,0.52-0.42,0.79
		C834.32,134.58,834.45,134.32,834.58,134.06z M823.07,189.65c-0.03-0.01-0.05-0.02-0.07-0.04
		C823.02,189.63,823.04,189.64,823.07,189.65z M824.77,189.99c0.04,0,0.08,0,0.12,0c-0.02,0-0.03,0-0.05,0
		C824.81,190,824.79,189.99,824.77,189.99z M824.17,189.95c0.01,0,0.01,0,0.02,0C824.18,189.95,824.18,189.95,824.17,189.95z
		 M825.79,189.9c-0.02,0-0.03,0.01-0.04,0.01C825.76,189.91,825.77,189.9,825.79,189.9z M825.32,189.97c-0.04,0-0.09,0.01-0.13,0.01
		C825.23,189.98,825.28,189.98,825.32,189.97z M826.8,189.45c0.04-0.03,0.07-0.06,0.1-0.09
		C826.87,189.39,826.83,189.42,826.8,189.45z M826.13,189.8c0.04-0.01,0.08-0.03,0.12-0.05
		C826.21,189.77,826.18,189.79,826.13,189.8z M826.49,189.65c0.04-0.02,0.08-0.05,0.12-0.07
		C826.57,189.6,826.53,189.63,826.49,189.65z M827.05,189.2c0.03-0.03,0.05-0.07,0.08-0.11C827.1,189.13,827.07,189.16,827.05,189.2
		z M827.22,188.88c0.01-0.04,0.03-0.07,0.04-0.11C827.26,188.81,827.24,188.84,827.22,188.88z"/>
	<path class="st0" d="M784,95.13c-6.76-0.83-9.54-2.74-11.38-5.54c6.35-0.11,11.88-5.7,11.88-12.07c0-2.97-1.41-7.95-4.56-12.22
		c0.07-0.1,0.14-0.21,0.2-0.32c2.41-3.9,2.43-8.87,0.06-13.62c-0.09-0.19-0.19-0.37-0.3-0.55c-2.55-4.38-7.08-7.24-10.53-8.81
		c-0.05-4.14-2.05-8.37-5.25-11.08c-0.07-0.06-0.15-0.12-0.22-0.18l-0.07-0.06c-1.35-1.08-5.47-4.39-14.37-7.9
		c-1.19-0.47-2.44-0.7-3.67-0.7c-2.6,0-5.16,1.02-7.07,2.92l-0.72,0.72c-3.59,3.58-3.93,9.28-0.79,13.26
		c0.28,0.35,0.58,0.73,0.9,1.12c1.61,1.98,3.61,4.45,3.61,6.37c0,2.13,0.02,4.89,0.04,8.05c0.02,2.78,0.03,5.8,0.05,8.97
		c-3.97,2.56-8.26,4.77-12.08,6.17c-2.5,0.92-4.52,2.8-5.63,5.22c-1.11,2.42-1.21,5.18-0.27,7.67l0.54,1.44
		c1.49,3.98,5.28,6.49,9.36,6.49c0.84,0,1.69-0.11,2.54-0.33c1.85-0.49,3.66-1.02,5.42-1.6c-0.05,3.32-0.11,6.42-0.19,9
		c-5.35,3.16-9.71,8.83-12.87,13.46c-2.82,4.13-2.15,9.72,1.56,13.07l0.9,0.81c1.84,1.66,4.23,2.57,6.69,2.57
		c0.2,0,0.4-0.01,0.59-0.02c2.67-0.16,5.17-1.38,6.93-3.4c0.24-0.28,0.47-0.54,0.7-0.79c1.96,1.77,4.53,3.12,7.7,3.12
		c2.96,0,5.81-1.25,7.84-3.43c2.84-3.05,3.37-6.95,3.3-10.35c4.85,2.37,10.29,3.69,15.76,3.69c0.92,0,1.85-0.04,2.76-0.12
		c4.32-0.37,7.92-3.49,8.89-7.72l0.27-1.17c0.64-2.76,0.07-5.66-1.56-7.98C789.35,96.99,786.82,95.47,784,95.13z M757.36,85.81
		c-0.01,0.26-0.03,0.51-0.03,0.76C757.34,86.32,757.35,86.06,757.36,85.81z M742.59,109.47c-0.06,0.06-0.12,0.13-0.18,0.19
		C742.47,109.59,742.53,109.53,742.59,109.47z M748.26,109.18c-0.05,0-0.11,0.01-0.17,0.01
		C748.15,109.19,748.2,109.19,748.26,109.18z M749.61,109.68c-0.09-0.09-0.19-0.17-0.3-0.24
		C749.42,109.52,749.52,109.6,749.61,109.68z M749.28,105.17c0.04,0,0.07-0.01,0.11-0.01C749.35,105.16,749.32,105.16,749.28,105.17
		z M749.27,109.42c-0.11-0.07-0.24-0.12-0.38-0.16C749.03,109.3,749.15,109.36,749.27,109.42z M748.83,109.25
		c-0.14-0.04-0.3-0.06-0.47-0.06C748.53,109.19,748.69,109.21,748.83,109.25z M748.35,105.36c0.04-0.01,0.07-0.02,0.11-0.03
		C748.42,105.34,748.38,105.35,748.35,105.36z M748.88,105.23c0.03-0.01,0.06-0.01,0.1-0.02
		C748.95,105.22,748.91,105.22,748.88,105.23z M749.72,105.14C749.72,105.14,749.72,105.14,749.72,105.14c-0.01,0-0.02,0-0.03,0
		C749.69,105.14,749.71,105.14,749.72,105.14z M747.97,105.49c-0.05,0.02-0.1,0.04-0.15,0.06
		C747.87,105.53,747.92,105.51,747.97,105.49z M747.36,105.75c-0.03,0.01-0.05,0.02-0.07,0.03
		C747.31,105.77,747.33,105.76,747.36,105.75z M746.71,106.09c-0.05,0.03-0.11,0.07-0.16,0.1
		C746.6,106.15,746.66,106.12,746.71,106.09z M746.06,106.49c-0.06,0.04-0.12,0.08-0.19,0.12
		C745.94,106.57,746,106.53,746.06,106.49z M745.2,107.1c-0.02,0.01-0.03,0.03-0.05,0.04C745.16,107.13,745.18,107.12,745.2,107.1z
		 M744.46,107.7c-0.07,0.06-0.15,0.13-0.22,0.19C744.32,107.83,744.39,107.76,744.46,107.7z M743.63,108.44
		c-0.07,0.06-0.13,0.12-0.2,0.19C743.5,108.57,743.56,108.51,743.63,108.44z M750.83,105.32c0.06,0.02,0.1,0.03,0.14,0.03
		C750.94,105.35,750.89,105.34,750.83,105.32z M750.98,105.35c0.02,0,0.04-0.01,0.04-0.02C751.02,105.34,751,105.35,750.98,105.35z
		 M750.59,105.25c-0.01,0-0.02,0-0.03-0.01C750.57,105.25,750.58,105.25,750.59,105.25z M750.21,105.18c0,0-0.01,0-0.01,0
		C750.2,105.17,750.21,105.18,750.21,105.18z M765.51,70.95c0.12-0.14,0.22-0.29,0.31-0.45C765.73,70.65,765.63,70.81,765.51,70.95z
		 M765.84,70.45c0.08-0.15,0.16-0.32,0.22-0.48C766,70.14,765.93,70.3,765.84,70.45z M766.09,69.91c0.06-0.16,0.11-0.32,0.16-0.48
		C766.2,69.58,766.15,69.75,766.09,69.91z M766.28,69.34c0.05-0.17,0.1-0.33,0.14-0.48C766.37,69.01,766.33,69.17,766.28,69.34z
		 M766.54,68.43c0.01-0.02,0.01-0.04,0.02-0.05C766.56,68.39,766.55,68.41,766.54,68.43z M766.71,68.03
		c0.01-0.01,0.01-0.02,0.02-0.03C766.72,68.01,766.71,68.02,766.71,68.03z M766.92,67.76C766.92,67.76,766.92,67.76,766.92,67.76
		C766.92,67.76,766.92,67.76,766.92,67.76z M767.17,67.67c0.01,0,0.01-0.01,0.02-0.01c0,0,0.01,0,0.01,0
		C767.19,67.67,767.18,67.67,767.17,67.67z M768.04,77.33c-0.07-0.01-0.14-0.02-0.2-0.02C767.91,77.31,767.97,77.32,768.04,77.33z
		 M770.06,78.31c-0.03-0.03-0.06-0.06-0.1-0.09C769.99,78.24,770.03,78.27,770.06,78.31z M769.8,78.06
		c-0.04-0.03-0.09-0.07-0.14-0.1C769.7,78,769.75,78.03,769.8,78.06z M769.44,77.82c-0.06-0.03-0.12-0.07-0.18-0.1
		C769.32,77.76,769.38,77.79,769.44,77.82z M769.01,77.6c-0.07-0.03-0.13-0.06-0.2-0.08C768.88,77.54,768.95,77.57,769.01,77.6z
		 M768.54,77.43c-0.07-0.02-0.14-0.04-0.21-0.06C768.4,77.39,768.47,77.41,768.54,77.43z M770.2,78.52
		c-0.01-0.02-0.03-0.05-0.04-0.07C770.17,78.47,770.19,78.5,770.2,78.52z M757.77,82.65c-0.1,0.45-0.18,0.9-0.24,1.34
		C757.59,83.54,757.67,83.1,757.77,82.65z M757.48,84.42c-0.04,0.29-0.07,0.59-0.09,0.87C757.4,85,757.44,84.71,757.48,84.42z
		 M757.74,90.22c-0.05-0.21-0.09-0.43-0.13-0.65C757.65,89.79,757.69,90.01,757.74,90.22z M757.52,89.04
		c-0.03-0.22-0.06-0.45-0.08-0.68C757.46,88.59,757.48,88.81,757.52,89.04z M757.38,87.82c-0.02-0.24-0.02-0.47-0.03-0.71
		C757.36,87.34,757.36,87.58,757.38,87.82z M762.17,98.43c-0.15-0.16-0.3-0.32-0.44-0.49C761.87,98.11,762.02,98.27,762.17,98.43z
		 M761.39,97.54c-0.14-0.17-0.27-0.34-0.41-0.51C761.11,97.21,761.25,97.37,761.39,97.54z M760.66,96.61
		c-0.13-0.17-0.25-0.35-0.37-0.52C760.41,96.26,760.54,96.43,760.66,96.61z M760,95.63c-0.11-0.18-0.22-0.36-0.33-0.54
		C759.78,95.28,759.89,95.46,760,95.63z M759.41,94.62c-0.1-0.19-0.2-0.37-0.29-0.56C759.21,94.25,759.3,94.44,759.41,94.62z
		 M758.88,93.58c-0.09-0.19-0.17-0.39-0.26-0.58C758.7,93.19,758.79,93.39,758.88,93.58z M758.42,92.5c-0.08-0.2-0.15-0.4-0.21-0.6
		C758.28,92.09,758.35,92.3,758.42,92.5z M758.04,91.38c-0.06-0.21-0.12-0.42-0.17-0.63C757.92,90.96,757.98,91.17,758.04,91.38z
		 M767.21,102.51c-0.34-0.21-0.68-0.42-1.01-0.64C766.53,102.09,766.87,102.3,767.21,102.51z M765.88,101.64
		c-0.22-0.15-0.45-0.31-0.66-0.47C765.43,101.33,765.66,101.49,765.88,101.64z M764.85,100.89c-0.19-0.15-0.39-0.3-0.58-0.46
		C764.46,100.59,764.66,100.74,764.85,100.89z M763.9,100.11c-0.18-0.15-0.35-0.3-0.52-0.46C763.55,99.8,763.72,99.95,763.9,100.11z
		 M741.69,110.44c-0.09,0.1-0.18,0.21-0.28,0.31C741.5,110.65,741.59,110.54,741.69,110.44z M740.72,114.3
		c-0.17,0.18-0.36,0.37-0.54,0.56C740.37,114.66,740.55,114.47,740.72,114.3z M740.61,111.69c-0.06,0.07-0.11,0.13-0.17,0.21
		C740.5,111.82,740.56,111.76,740.61,111.69z M739.43,113.16c-0.09,0.11-0.18,0.24-0.27,0.35
		C739.26,113.39,739.35,113.27,739.43,113.16z M738.34,114.62c-0.11,0.14-0.21,0.29-0.32,0.44
		C738.13,114.9,738.24,114.76,738.34,114.62z M737.79,117.47c0.36-0.41,0.7-0.8,1.04-1.17
		C738.49,116.68,738.15,117.07,737.79,117.47z M739.8,115.25c-0.22,0.23-0.45,0.48-0.67,0.73
		C739.36,115.73,739.59,115.48,739.8,115.25z M741.11,113.91c0.16-0.16,0.32-0.32,0.48-0.47
		C741.43,113.59,741.27,113.75,741.11,113.91z M741.97,113.08c0.14-0.14,0.29-0.28,0.43-0.4
		C742.26,112.8,742.11,112.94,741.97,113.08z M742.76,112.35c0.13-0.12,0.27-0.24,0.39-0.35
		C743.03,112.11,742.89,112.23,742.76,112.35z M743.51,111.71c0.12-0.1,0.24-0.2,0.36-0.3
		C743.75,111.51,743.63,111.61,743.51,111.71z M744.19,111.16c0.11-0.09,0.22-0.17,0.33-0.25
		C744.42,110.98,744.3,111.07,744.19,111.16z M744.83,110.68c0.1-0.07,0.21-0.15,0.3-0.21
		C745.04,110.54,744.93,110.61,744.83,110.68z M745.97,109.96c0.09-0.05,0.18-0.1,0.26-0.14
		C746.14,109.86,746.05,109.91,745.97,109.96z M745.42,110.29c0.09-0.06,0.19-0.12,0.28-0.18
		C745.61,110.16,745.52,110.23,745.42,110.29z M747.92,109.21c-0.06,0.01-0.12,0.02-0.18,0.03
		C747.8,109.23,747.86,109.22,747.92,109.21z M747.55,109.29c-0.06,0.02-0.13,0.04-0.2,0.06
		C747.42,109.32,747.49,109.3,747.55,109.29z M747.15,109.41c-0.07,0.02-0.15,0.05-0.22,0.08
		C747,109.46,747.08,109.43,747.15,109.41z M746.71,109.58c-0.08,0.03-0.16,0.07-0.24,0.11
		C746.55,109.66,746.63,109.62,746.71,109.58z M750.26,110.92c0.02,0.07,0.03,0.13,0.04,0.17
		C750.29,111.04,750.28,110.98,750.26,110.92z M749.64,109.71c0.09,0.09,0.16,0.18,0.23,0.28
		C749.8,109.9,749.72,109.8,749.64,109.71z M749.88,110.02c0.07,0.1,0.12,0.2,0.17,0.3C750,110.22,749.95,110.12,749.88,110.02z
		 M750.06,110.34c0.05,0.1,0.08,0.2,0.12,0.29C750.14,110.54,750.11,110.44,750.06,110.34z M750.18,110.65
		c0.03,0.09,0.05,0.18,0.07,0.25C750.24,110.83,750.21,110.74,750.18,110.65z M762.53,98.82c0.16,0.16,0.32,0.32,0.48,0.47
		C762.84,99.13,762.68,98.98,762.53,98.82z M767.22,102.52c0.35,0.21,0.7,0.41,1.06,0.6C767.92,102.92,767.56,102.72,767.22,102.52z
		 M768.61,103.29c0.25,0.13,0.5,0.26,0.75,0.38C769.1,103.55,768.85,103.42,768.61,103.29z M769.78,103.86
		c0.23,0.1,0.45,0.21,0.68,0.31C770.23,104.07,770.01,103.97,769.78,103.86z M770.93,104.36c0.22,0.09,0.44,0.18,0.66,0.26
		C771.37,104.54,771.15,104.45,770.93,104.36z M772.09,104.8c0.22,0.08,0.43,0.15,0.65,0.22
		C772.52,104.95,772.31,104.88,772.09,104.8z M773.26,105.18c0.22,0.07,0.43,0.13,0.65,0.19
		C773.69,105.31,773.47,105.25,773.26,105.18z M774.44,105.51c0.21,0.05,0.43,0.11,0.64,0.16
		C774.86,105.62,774.65,105.56,774.44,105.51z M775.62,105.78c0.21,0.04,0.43,0.09,0.64,0.13
		C776.05,105.87,775.83,105.82,775.62,105.78z M776.8,106c0.21,0.03,0.43,0.07,0.64,0.09C777.23,106.06,777.02,106.03,776.8,106z
		 M777.99,106.15c0.21,0.02,0.43,0.04,0.64,0.06C778.42,106.2,778.21,106.18,777.99,106.15z M779.18,106.26
		c0.21,0.01,0.43,0.02,0.64,0.03C779.6,106.28,779.39,106.27,779.18,106.26z M780.36,106.3c0.15,0,0.31,0,0.46,0
		c-0.07,0-0.14,0.01-0.2,0.01C780.53,106.31,780.44,106.3,780.36,106.3z"/>
	<path class="st0" d="M627.32,188.39c0-1-0.11-1.93-0.29-2.8c5.36,2.97,11.24,4.66,16.84,4.66c1.19,0,2.38-0.08,3.52-0.23
		c2.73-0.37,5.19-1.86,6.79-4.11c1.6-2.25,2.2-5.06,1.66-7.76l-0.27-1.35c-0.94-4.69-5.06-8.03-9.8-8.03c-0.14,0-0.27,0-0.41,0.01
		c-0.08,0-0.17,0.01-0.25,0.01c-3.48,0-7.99-2.77-10.95-6.73c-2.42-3.23-3.47-6.78-2.74-9.25c0.16-0.54,0.32-1.02,0.48-1.44
		c0.56,0.1,1.17,0.16,1.81,0.16c4.29,0,8.51-2.17,10.75-5.54c0.23-0.34,0.44-0.7,0.62-1.07c1.86-3.73,2.07-9.96-3.5-15.24
		c-0.03-0.03-0.06-0.06-0.1-0.09l-0.25-0.23c-1.38-1.28-3.94-3.65-8.55-6.95c-0.17-0.12-0.34-0.23-0.51-0.34
		c-0.78-0.49-1.6-0.87-2.45-1.16c-0.45-3.09-2.07-6.09-4.45-8.13c-0.1-0.08-0.2-0.16-0.3-0.24c1.48-1.91,2.35-4.29,2.35-6.93
		c0-1-0.11-1.93-0.29-2.8c5.36,2.97,11.24,4.66,16.84,4.66c1.2,0,2.38-0.08,3.52-0.23c2.73-0.37,5.19-1.86,6.79-4.11
		c1.6-2.25,2.2-5.06,1.66-7.76L655.56,94c-0.94-4.69-5.06-8.03-9.8-8.03c-0.14,0-0.27,0-0.41,0.01c-0.08,0-0.17,0.01-0.25,0.01
		c-3.48,0-7.99-2.77-10.95-6.73c-2.41-3.22-3.46-6.76-2.74-9.23c0.16-0.55,0.33-1.03,0.48-1.46c0.56,0.1,1.17,0.16,1.81,0.16
		c4.28,0,8.5-2.17,10.74-5.52c0.24-0.35,0.45-0.72,0.64-1.1c1.86-3.73,2.05-9.96-3.52-15.23c-0.03-0.03-0.06-0.06-0.09-0.09
		l-0.25-0.23c-1.38-1.28-3.94-3.65-8.55-6.95c-0.17-0.12-0.34-0.23-0.51-0.34c-0.78-0.49-1.6-0.87-2.45-1.15
		c-0.45-3.08-2.06-6.08-4.44-8.12c-0.17-0.14-0.34-0.28-0.52-0.41c-1.95-1.46-6.51-4.36-15.12-7.38c-1.08-0.38-2.19-0.56-3.3-0.56
		c-2.41,0-4.78,0.87-6.64,2.52l-1.62,1.44c-2.36,2.1-3.59,5.19-3.32,8.33c0.27,3.09,1.95,5.87,4.55,7.55
		c0.21,0.2,1.34,1.33,1.75,3.9c0.94,5.78,0.28,40.61-0.02,45.07c-0.01,0.1-0.01,0.19-0.02,0.29c-0.04,1.03-0.09,1.71-0.14,2.14
		c-2.47,3.95-2.57,8.81-0.5,13.51c-0.24,0.17-0.47,0.36-0.69,0.56l-1.62,1.44c-2.36,2.1-3.59,5.19-3.32,8.33
		c0.27,3.09,1.95,5.87,4.55,7.55c0.21,0.19,1.34,1.33,1.75,3.9c0.94,5.78,0.28,40.61-0.02,45.07c-0.01,0.1-0.01,0.19-0.02,0.29
		c-0.04,1.03-0.09,1.71-0.14,2.14c-3.84,6.13-1.99,14.47,4.87,20.97c0.05,0.05,0.1,0.09,0.15,0.14c3.08,2.8,6.91,3.21,8.92,3.21
		C621.95,200,627.32,195.01,627.32,188.39z M621.19,154.96c0.01,0.19,0.02,0.38,0.03,0.58
		C621.21,155.34,621.19,155.15,621.19,154.96z M621.84,159.36c-0.05-0.2-0.11-0.41-0.16-0.61
		C621.73,158.95,621.79,159.15,621.84,159.36z M621.55,158.09c-0.04-0.2-0.09-0.4-0.12-0.6
		C621.47,157.69,621.51,157.89,621.55,158.09z M621.34,156.82c-0.03-0.2-0.06-0.4-0.08-0.6
		C621.29,156.42,621.32,156.62,621.34,156.82z M621.19,154.24c0-0.18,0-0.37,0.01-0.55C621.19,153.88,621.2,154.06,621.19,154.24z
		 M621.26,152.95c0.02-0.17,0.02-0.34,0.04-0.51C621.29,152.61,621.28,152.78,621.26,152.95z M621.44,151.62
		c0.02-0.14,0.04-0.28,0.07-0.42C621.48,151.34,621.47,151.48,621.44,151.62z M629.06,171.37c0.17,0.16,0.33,0.32,0.5,0.48
		C629.39,171.69,629.22,171.53,629.06,171.37z M629.04,175.07c-0.29-0.2-0.57-0.41-0.85-0.62
		C628.47,174.66,628.75,174.87,629.04,175.07z M628.58,170.89c-0.16-0.17-0.32-0.33-0.48-0.51
		C628.26,170.55,628.42,170.72,628.58,170.89z M627.65,169.88c-0.15-0.17-0.31-0.35-0.46-0.53
		C627.34,169.53,627.5,169.7,627.65,169.88z M626.76,168.82c-0.14-0.18-0.29-0.36-0.43-0.54
		C626.47,168.47,626.62,168.64,626.76,168.82z M625.93,167.74c-0.14-0.19-0.27-0.37-0.41-0.56
		C625.66,167.36,625.8,167.55,625.93,167.74z M625.16,166.62c-0.13-0.19-0.25-0.38-0.38-0.58
		C624.9,166.23,625.03,166.43,625.16,166.62z M624.44,165.46c-0.12-0.2-0.23-0.39-0.34-0.59
		C624.2,165.07,624.32,165.27,624.44,165.46z M623.78,164.28c-0.1-0.2-0.21-0.4-0.31-0.6C623.57,163.89,623.68,164.08,623.78,164.28
		z M623.19,163.08c-0.09-0.2-0.19-0.4-0.27-0.6C623,162.68,623.1,162.88,623.19,163.08z M622.67,161.85
		c-0.08-0.2-0.16-0.41-0.24-0.61C622.5,161.45,622.59,161.65,622.67,161.85z M622.22,160.61c-0.07-0.2-0.14-0.4-0.2-0.61
		C622.08,160.21,622.15,160.41,622.22,160.61z M624.16,134.85c0.16-0.27,0.3-0.53,0.42-0.79
		C624.45,134.32,624.32,134.58,624.16,134.85z M624.64,133.93c0.11-0.24,0.21-0.48,0.3-0.72
		C624.85,133.45,624.75,133.69,624.64,133.93z M625,133.08c0.08-0.23,0.16-0.45,0.23-0.66C625.16,132.63,625.08,132.85,625,133.08z
		 M625.27,132.28c0.06-0.19,0.12-0.38,0.18-0.55C625.4,131.9,625.34,132.08,625.27,132.28z M625.62,131.22
		c0.01-0.03,0.02-0.06,0.03-0.09C625.64,131.16,625.63,131.19,625.62,131.22z M625.82,130.75c0.01-0.02,0.02-0.03,0.03-0.05
		C625.84,130.71,625.83,130.73,625.82,130.75z M617.16,152.18c-0.02,0.35-0.04,0.7-0.05,1.05
		C617.12,152.88,617.14,152.53,617.16,152.18z M617.77,147.9c-0.14,0.61-0.25,1.21-0.35,1.81
		C617.52,149.11,617.63,148.51,617.77,147.9z M617.35,150.3c-0.05,0.4-0.11,0.79-0.14,1.18C617.24,151.1,617.29,150.7,617.35,150.3z
		 M617.27,105.97c-0.01,0.04-0.03,0.07-0.04,0.11C617.24,106.04,617.26,106.01,617.27,105.97z M617.12,106.29
		c-0.02,0.04-0.05,0.07-0.08,0.11C617.07,106.36,617.1,106.33,617.12,106.29z M616.9,106.56c-0.03,0.03-0.07,0.06-0.1,0.09
		C616.83,106.62,616.87,106.59,616.9,106.56z M616.61,106.78c-0.04,0.02-0.08,0.05-0.12,0.07
		C616.53,106.83,616.57,106.8,616.61,106.78z M616.25,106.95c-0.04,0.02-0.08,0.03-0.12,0.05
		C616.18,106.99,616.21,106.97,616.25,106.95z M617.12,71.15c0,0.33,0.01,0.66,0.02,0.98C617.13,71.81,617.13,71.48,617.12,71.15z
		 M617.21,72.86c0.03,0.31,0.05,0.62,0.09,0.93C617.26,73.48,617.23,73.17,617.21,72.86z M617.16,69.38
		c-0.02,0.35-0.04,0.7-0.05,1.04C617.12,70.08,617.14,69.73,617.16,69.38z M615.3,107.17c0.01,0,0.01,0,0.02,0
		C615.32,107.17,615.31,107.17,615.3,107.17C615.3,107.17,615.3,107.17,615.3,107.17z M615.79,107.1c-0.02,0-0.03,0.01-0.04,0.01
		C615.76,107.11,615.77,107.1,615.79,107.1z M624.43,88.32c0.26,0.27,0.52,0.53,0.78,0.78C624.95,88.84,624.68,88.58,624.43,88.32z
		 M620.68,83.42c0.15,0.25,0.31,0.5,0.47,0.75C620.99,83.92,620.83,83.67,620.68,83.42z M621.51,84.73
		c0.17,0.25,0.34,0.49,0.52,0.73C621.86,85.21,621.68,84.97,621.51,84.73z M622.42,85.98c0.19,0.24,0.38,0.48,0.58,0.72
		C622.81,86.46,622.61,86.23,622.42,85.98z M623.4,87.18c0.21,0.25,0.43,0.49,0.65,0.72C623.83,87.66,623.61,87.42,623.4,87.18z
		 M617.4,74.51c0.05,0.3,0.09,0.6,0.15,0.9C617.5,75.11,617.45,74.81,617.4,74.51z M617.71,76.12c0.07,0.29,0.13,0.58,0.21,0.86
		C617.85,76.7,617.78,76.41,617.71,76.12z M618.12,77.68c0.08,0.28,0.17,0.56,0.27,0.83C618.29,78.24,618.21,77.96,618.12,77.68z
		 M618.63,79.19c0.1,0.27,0.21,0.54,0.32,0.81C618.84,79.73,618.73,79.46,618.63,79.19z M619.23,80.65
		c0.12,0.27,0.24,0.53,0.37,0.79C619.47,81.18,619.35,80.92,619.23,80.65z M619.91,82.06c0.14,0.26,0.28,0.51,0.42,0.76
		C620.19,82.57,620.05,82.32,619.91,82.06z M621.19,72.16c0.01,0.19,0.02,0.39,0.03,0.58C621.21,72.54,621.19,72.35,621.19,72.16z
		 M629.05,88.57c0.16,0.16,0.33,0.32,0.5,0.48C629.39,88.89,629.22,88.73,629.05,88.57z M629.04,92.27
		c-0.28-0.2-0.56-0.41-0.84-0.61C628.48,91.86,628.75,92.07,629.04,92.27z M628.58,88.09c-0.16-0.17-0.32-0.33-0.48-0.51
		C628.26,87.75,628.42,87.92,628.58,88.09z M627.65,87.08c-0.15-0.18-0.31-0.35-0.46-0.53C627.34,86.73,627.5,86.9,627.65,87.08z
		 M626.77,86.03c-0.15-0.18-0.29-0.36-0.43-0.55C626.47,85.66,626.62,85.85,626.77,86.03z M625.93,84.94
		c-0.14-0.19-0.27-0.37-0.41-0.57C625.66,84.56,625.8,84.75,625.93,84.94z M625.16,83.82c-0.13-0.19-0.26-0.39-0.38-0.58
		C624.9,83.43,625.03,83.63,625.16,83.82z M624.44,82.67c-0.12-0.2-0.23-0.39-0.34-0.59C624.2,82.27,624.32,82.47,624.44,82.67z
		 M623.78,81.48c-0.1-0.2-0.21-0.4-0.31-0.6C623.57,81.08,623.68,81.28,623.78,81.48z M623.19,80.28c-0.09-0.2-0.19-0.4-0.27-0.6
		C623,79.88,623.1,80.08,623.19,80.28z M622.67,79.06c-0.08-0.2-0.16-0.41-0.24-0.61C622.5,78.65,622.59,78.85,622.67,79.06z
		 M622.22,77.81c-0.07-0.2-0.14-0.41-0.2-0.61C622.08,77.41,622.15,77.61,622.22,77.81z M621.85,76.56
		c-0.05-0.21-0.11-0.41-0.16-0.62C621.73,76.15,621.79,76.36,621.85,76.56z M621.55,75.3c-0.04-0.2-0.09-0.41-0.12-0.61
		C621.47,74.89,621.51,75.09,621.55,75.3z M621.34,74.02c-0.03-0.2-0.06-0.4-0.08-0.6C621.29,73.62,621.32,73.82,621.34,74.02z
		 M621.19,71.45c0-0.18,0-0.37,0.01-0.55C621.19,71.08,621.2,71.26,621.19,71.45z M621.26,70.15c0.02-0.17,0.02-0.34,0.04-0.51
		C621.29,69.81,621.28,69.98,621.26,70.15z M621.44,68.81c0.02-0.14,0.04-0.27,0.07-0.41C621.48,68.53,621.47,68.67,621.44,68.81z
		 M617.42,66.91c0.09-0.6,0.21-1.2,0.35-1.81C617.63,65.71,617.52,66.31,617.42,66.91z M617.2,68.69c0.03-0.39,0.09-0.78,0.14-1.18
		C617.29,67.9,617.24,68.3,617.2,68.69z M613.62,189.84c-0.03-0.01-0.07-0.02-0.1-0.03C613.55,189.83,613.59,189.84,613.62,189.84z
		 M617.92,159.79c-0.08-0.29-0.14-0.57-0.21-0.86C617.78,159.21,617.85,159.5,617.92,159.79z M617.56,158.21
		c-0.06-0.3-0.11-0.6-0.15-0.9C617.45,157.61,617.5,157.91,617.56,158.21z M617.3,156.59c-0.04-0.31-0.06-0.62-0.09-0.93
		C617.23,155.97,617.26,156.28,617.3,156.59z M617.15,154.93c-0.02-0.32-0.02-0.65-0.02-0.98
		C617.13,154.28,617.13,154.61,617.15,154.93z M621.15,166.97c-0.16-0.25-0.32-0.5-0.47-0.75
		C620.83,166.47,620.99,166.72,621.15,166.97z M620.33,165.63c-0.14-0.25-0.29-0.51-0.42-0.77
		C620.05,165.12,620.19,165.38,620.33,165.63z M619.6,164.24c-0.13-0.26-0.25-0.52-0.37-0.79
		C619.35,163.72,619.47,163.98,619.6,164.24z M618.95,162.8c-0.11-0.27-0.22-0.54-0.32-0.81
		C618.73,162.26,618.84,162.53,618.95,162.8z M618.39,161.32c-0.09-0.28-0.18-0.56-0.27-0.84
		C618.21,160.76,618.29,161.04,618.39,161.32z M623.4,169.98c0.21,0.25,0.44,0.49,0.66,0.73
		C623.83,170.46,623.61,170.22,623.4,169.98z M624.43,171.11c0.26,0.27,0.53,0.53,0.79,0.79
		C624.95,171.65,624.69,171.38,624.43,171.11z M625.51,172.19c0.74,0.7,1.52,1.36,2.32,1.98
		C627.03,173.56,626.25,172.9,625.51,172.19z M623.01,169.5c-0.2-0.24-0.39-0.48-0.58-0.72
		C622.61,169.02,622.81,169.26,623.01,169.5z M622.04,168.26c-0.18-0.24-0.35-0.48-0.52-0.73
		C621.68,167.77,621.86,168.02,622.04,168.26z M629.5,175.38c0.26,0.17,0.51,0.35,0.77,0.51
		C630.02,175.73,629.76,175.56,629.5,175.38z M630.8,176.21c0.25,0.15,0.5,0.3,0.75,0.45C631.29,176.51,631.04,176.36,630.8,176.21z
		 M632.09,176.96c0.25,0.13,0.49,0.27,0.74,0.39C632.58,177.22,632.34,177.09,632.09,176.96z M633.4,177.63
		c0.24,0.12,0.49,0.23,0.73,0.34C633.89,177.86,633.64,177.74,633.4,177.63z M634.71,178.22c0.24,0.1,0.48,0.2,0.73,0.3
		C635.2,178.43,634.96,178.33,634.71,178.22z M636.03,178.74c0.24,0.09,0.48,0.17,0.72,0.26
		C636.51,178.92,636.27,178.83,636.03,178.74z M637.34,179.19c0.24,0.07,0.48,0.15,0.72,0.21
		C637.83,179.34,637.59,179.27,637.34,179.19z M638.66,179.56c0.24,0.06,0.47,0.12,0.71,0.17
		C639.13,179.68,638.89,179.62,638.66,179.56z M639.95,179.85c0.24,0.05,0.47,0.09,0.71,0.12
		C640.43,179.94,640.19,179.9,639.95,179.85z M641.23,180.07c0.24,0.03,0.47,0.06,0.7,0.08C641.7,180.12,641.47,180.1,641.23,180.07
		z M642.49,180.2c0.23,0.02,0.47,0.03,0.7,0.03C642.96,180.23,642.73,180.22,642.49,180.2z M643.72,180.25
		c0.27,0,0.53-0.01,0.79-0.02c-0.22,0.01-0.43,0.02-0.65,0.02C643.82,180.26,643.77,180.25,643.72,180.25z M644.89,180.22
		c0.38-0.02,0.76-0.06,1.14-0.11C645.66,180.17,645.28,180.2,644.89,180.22z M644.18,178.74c0.2,0.01,0.41,0.02,0.61,0.02
		C644.59,178.76,644.39,178.76,644.18,178.74z M636.17,176.51c-0.2-0.1-0.39-0.2-0.58-0.3
		C635.78,176.32,635.97,176.41,636.17,176.51z M643.54,178.7c-0.2-0.02-0.41-0.04-0.61-0.07
		C643.13,178.66,643.34,178.68,643.54,178.7z M642.29,178.54c-0.2-0.03-0.41-0.07-0.61-0.11
		C641.88,178.47,642.09,178.5,642.29,178.54z M641.05,178.29c-0.2-0.05-0.41-0.1-0.61-0.15
		C640.64,178.2,640.84,178.24,641.05,178.29z M639.81,177.96c-0.2-0.06-0.4-0.12-0.61-0.19C639.4,177.84,639.6,177.9,639.81,177.96z
		 M638.58,177.55c-0.2-0.07-0.4-0.15-0.6-0.23C638.18,177.41,638.38,177.48,638.58,177.55z M637.37,177.07
		c-0.2-0.09-0.4-0.17-0.59-0.27C636.97,176.9,637.17,176.98,637.37,177.07z M634.99,175.89c-0.19-0.11-0.39-0.22-0.58-0.33
		C634.61,175.67,634.8,175.78,634.99,175.89z M631.63,173.63c-0.18-0.14-0.36-0.28-0.54-0.43
		C631.27,173.35,631.45,173.49,631.63,173.63z M633.85,175.2c-0.19-0.12-0.38-0.24-0.57-0.37
		C633.47,174.95,633.66,175.08,633.85,175.2z M632.72,174.44c-0.19-0.13-0.37-0.26-0.55-0.4
		C632.35,174.18,632.54,174.31,632.72,174.44z M630.06,172.31c0.17,0.15,0.35,0.3,0.52,0.45
		C630.4,172.62,630.23,172.47,630.06,172.31z M626.6,130.39c-0.03-0.01-0.05-0.01-0.08-0.02
		C626.54,130.38,626.57,130.38,626.6,130.39z M626.37,130.35c-0.02,0-0.03,0-0.05,0c0.01,0,0.02-0.01,0.03-0.01
		C626.35,130.34,626.36,130.35,626.37,130.35z M626.07,130.44C626.06,130.44,626.06,130.44,626.07,130.44
		C626.06,130.44,626.06,130.44,626.07,130.44z M625.51,89.4c0.74,0.7,1.52,1.36,2.31,1.98C627.03,90.76,626.25,90.1,625.51,89.4z
		 M629.51,92.59c0.26,0.17,0.51,0.35,0.77,0.51C630.02,92.93,629.76,92.76,629.51,92.59z M630.8,93.41c0.25,0.15,0.5,0.3,0.75,0.44
		C631.29,93.71,631.05,93.56,630.8,93.41z M632.1,94.16c0.24,0.13,0.49,0.27,0.73,0.39C632.58,94.42,632.34,94.29,632.1,94.16z
		 M633.4,94.83c0.24,0.12,0.49,0.23,0.73,0.34C633.89,95.06,633.64,94.95,633.4,94.83z M634.71,95.42c0.24,0.1,0.48,0.2,0.73,0.3
		C635.2,95.63,634.96,95.53,634.71,95.42z M636.03,95.94c0.24,0.09,0.48,0.17,0.72,0.25C636.51,96.12,636.27,96.03,636.03,95.94z
		 M637.35,96.39c0.24,0.07,0.48,0.14,0.72,0.21C637.82,96.54,637.59,96.47,637.35,96.39z M638.66,96.76
		c0.24,0.06,0.47,0.12,0.71,0.17C639.13,96.88,638.89,96.82,638.66,96.76z M639.95,97.05c0.24,0.05,0.47,0.09,0.7,0.12
		C640.42,97.14,640.19,97.1,639.95,97.05z M641.23,97.27c0.23,0.03,0.47,0.06,0.7,0.08C641.7,97.32,641.47,97.3,641.23,97.27z
		 M642.49,97.4c0.23,0.02,0.46,0.03,0.69,0.03C642.96,97.43,642.73,97.42,642.49,97.4z M643.72,97.45c0.26,0,0.52-0.01,0.78-0.02
		c-0.21,0.01-0.43,0.02-0.64,0.02C643.82,97.46,643.77,97.45,643.72,97.45z M644.89,97.42c0.38-0.02,0.76-0.06,1.14-0.11
		C645.66,97.37,645.28,97.4,644.89,97.42z M644.18,95.94c0.2,0.01,0.41,0.02,0.61,0.02C644.59,95.96,644.39,95.96,644.18,95.94z
		 M636.17,93.71c-0.2-0.1-0.39-0.2-0.59-0.3C635.78,93.52,635.97,93.61,636.17,93.71z M643.54,95.9c-0.2-0.02-0.41-0.04-0.61-0.07
		C643.13,95.86,643.34,95.88,643.54,95.9z M642.29,95.74c-0.2-0.03-0.41-0.07-0.61-0.11C641.88,95.67,642.09,95.7,642.29,95.74z
		 M641.04,95.49c-0.2-0.05-0.41-0.1-0.61-0.15C640.64,95.39,640.84,95.44,641.04,95.49z M639.81,95.16c-0.2-0.06-0.4-0.12-0.61-0.19
		C639.4,95.04,639.6,95.1,639.81,95.16z M638.58,94.75c-0.2-0.07-0.4-0.15-0.6-0.23C638.18,94.6,638.38,94.68,638.58,94.75z
		 M637.37,94.27c-0.2-0.09-0.4-0.17-0.6-0.27C636.97,94.1,637.17,94.18,637.37,94.27z M634.99,93.09c-0.19-0.11-0.39-0.22-0.58-0.33
		C634.61,92.87,634.8,92.98,634.99,93.09z M631.63,90.83c-0.18-0.14-0.36-0.28-0.54-0.43C631.27,90.55,631.45,90.69,631.63,90.83z
		 M633.84,92.4c-0.19-0.12-0.38-0.24-0.57-0.37C633.47,92.15,633.66,92.28,633.84,92.4z M632.72,91.64
		c-0.18-0.13-0.37-0.26-0.55-0.4C632.35,91.38,632.54,91.51,632.72,91.64z M630.06,89.51c0.17,0.15,0.35,0.3,0.52,0.45
		C630.4,89.82,630.23,89.67,630.06,89.51z M626.59,47.59c-0.03-0.01-0.05-0.01-0.08-0.02C626.54,47.58,626.57,47.58,626.59,47.59z
		 M626.37,47.55c-0.02,0-0.03,0-0.05,0c0.01,0,0.02-0.01,0.03-0.01C626.35,47.54,626.36,47.54,626.37,47.55z M626.07,47.64
		C626.06,47.64,626.06,47.64,626.07,47.64C626.06,47.64,626.06,47.64,626.07,47.64z M625.45,48.92c-0.06,0.18-0.12,0.37-0.18,0.58
		C625.33,49.29,625.4,49.1,625.45,48.92z M625.85,47.9c-0.01,0.02-0.02,0.03-0.03,0.05C625.83,47.93,625.84,47.91,625.85,47.9z
		 M625.65,48.33c-0.01,0.03-0.02,0.06-0.03,0.09C625.63,48.39,625.64,48.36,625.65,48.33z M624.94,50.42
		c-0.09,0.23-0.19,0.47-0.3,0.72C624.75,50.89,624.85,50.65,624.94,50.42z M625.23,49.62c-0.07,0.21-0.15,0.43-0.23,0.66
		C625.08,50.05,625.16,49.83,625.23,49.62z M624.58,51.26c-0.12,0.26-0.26,0.52-0.42,0.79C624.32,51.78,624.45,51.52,624.58,51.26z
		 M613.07,189.65c-0.03-0.01-0.05-0.02-0.07-0.04C613.02,189.63,613.04,189.64,613.07,189.65z M614.77,189.99c0.04,0,0.08,0,0.12,0
		c-0.02,0-0.03,0-0.05,0C614.81,190,614.79,189.99,614.77,189.99z M614.17,189.95c0.01,0,0.01,0,0.02,0
		C614.18,189.95,614.18,189.95,614.17,189.95z M615.79,189.9c-0.02,0-0.03,0.01-0.04,0.01C615.76,189.91,615.77,189.9,615.79,189.9z
		 M615.32,189.97c-0.04,0-0.09,0.01-0.13,0.01C615.23,189.98,615.28,189.98,615.32,189.97z M616.8,189.45
		c0.04-0.03,0.07-0.06,0.1-0.09C616.87,189.39,616.83,189.42,616.8,189.45z M616.13,189.8c0.04-0.01,0.08-0.03,0.12-0.05
		C616.21,189.77,616.18,189.79,616.13,189.8z M616.49,189.65c0.04-0.02,0.08-0.05,0.12-0.07
		C616.57,189.6,616.53,189.63,616.49,189.65z M617.05,189.2c0.03-0.03,0.05-0.07,0.08-0.11C617.1,189.13,617.07,189.16,617.05,189.2
		z M617.22,188.88c0.01-0.04,0.03-0.07,0.04-0.11C617.26,188.81,617.24,188.84,617.22,188.88z"/>
	<path class="st0" d="M574.03,93.59c-0.39-0.09-0.83-0.34-1.25-0.67c0.41-0.39,0.8-0.82,1.15-1.28c1.53-1.95,4.1-6.93,2.89-11.78
		c-0.04-0.18-0.09-0.35-0.15-0.52c-2.24-7.27-9.57-7.72-13.09-7.93c-0.2-0.01-0.44-0.03-0.67-0.04c-0.37-0.51-0.74-1.32-0.74-1.95
		c0-1.92,0.38-2.8,0.52-2.95c0.04-0.03,0.19-0.08,0.31-0.1c6.49-0.12,12.13-5.83,12.13-12.34c0-5.14-3.63-8.59-7.56-11.54
		c-3-2.26-5.34-3.47-7.19-4.1c-0.38-3.18-2.03-6.31-4.48-8.42c-0.17-0.14-0.34-0.28-0.51-0.41c-1.95-1.46-6.5-4.36-15.12-7.38
		c-1.08-0.38-2.19-0.56-3.3-0.56c-2.41,0-4.78,0.87-6.64,2.52l-1.62,1.44c-2.36,2.1-3.59,5.19-3.32,8.33
		c0.27,3.1,1.96,5.89,4.58,7.57c0.2,0.17,1.34,1.27,1.7,3.74c0.01,0.09,0.03,0.18,0.04,0.27c0.91,5.36,0.37,43.33,0.09,52.69
		c-5.93,2.96-10.31,9.17-13.36,14.18c-2.85,4.68-1.4,10.78,3.24,13.68l1.44,0.9c1.65,1.03,3.48,1.52,5.29,1.52
		c3.24,0,6.41-1.57,8.33-4.45c0.16-0.25,0.32-0.48,0.48-0.71c2.09,1.66,4.79,2.57,7.73,2.57c7.16,0,12.55-4.89,12.55-11.37
		c0-2.01-0.47-4.17-1.32-6.21c4.7,3.89,10.44,6.22,14.98,6.22c0.1,0,0.2,0,0.3,0c3.83-0.07,7.28-2.33,8.89-5.81l0.54-1.17
		c1.26-2.74,1.22-5.9-0.11-8.6C579.44,96.23,576.96,94.27,574.03,93.59z M558.92,96.54c-0.14-0.22-0.25-0.45-0.37-0.68
		C558.68,96.09,558.79,96.32,558.92,96.54z M560.58,98.74c-0.17-0.19-0.33-0.39-0.49-0.59C560.25,98.35,560.41,98.55,560.58,98.74z
		 M559.69,97.67c-0.16-0.21-0.29-0.42-0.43-0.64C559.4,97.25,559.54,97.46,559.69,97.67z M533.96,111.66
		c-0.2,0.18-0.4,0.37-0.61,0.58C533.56,112.03,533.76,111.84,533.96,111.66z M538.89,106.46c0.01,0,0.03,0,0.04,0
		c-0.03,0-0.05,0-0.08,0C538.86,106.46,538.87,106.46,538.89,106.46z M538.52,106.48c-0.01,0-0.02,0-0.02,0
		C538.5,106.48,538.51,106.48,538.52,106.48z M538.11,106.53c-0.04,0.01-0.08,0.01-0.12,0.02
		C538.03,106.54,538.07,106.54,538.11,106.53z M537.65,106.63c-0.04,0.01-0.07,0.02-0.11,0.03
		C537.58,106.64,537.61,106.64,537.65,106.63z M537.07,106.8c-0.03,0.01-0.07,0.03-0.11,0.04C537,106.83,537.04,106.82,537.07,106.8
		z M538.37,109.28c-0.1,0-0.19,0.01-0.3,0.02C538.18,109.28,538.28,109.28,538.37,109.28z M539.63,109.76
		c-0.06-0.08-0.14-0.15-0.25-0.22C539.49,109.6,539.57,109.68,539.63,109.76z M539.33,106.48c0.02,0,0.04,0,0.06,0.01
		C539.37,106.49,539.35,106.49,539.33,106.48z M539.36,109.52c-0.11-0.07-0.24-0.13-0.4-0.17
		C539.12,109.39,539.25,109.45,539.36,109.52z M538.96,109.35c-0.16-0.04-0.34-0.07-0.54-0.07
		C538.62,109.28,538.8,109.31,538.96,109.35z M540.19,106.61c-0.05,0-0.11-0.01-0.18-0.02C540.08,106.6,540.14,106.61,540.19,106.61
		z M539.98,106.59c-0.02,0-0.03-0.01-0.05-0.01C539.95,106.58,539.97,106.58,539.98,106.59z M539.78,106.55
		c-0.02,0-0.05-0.01-0.07-0.01C539.74,106.54,539.76,106.54,539.78,106.55z M540.3,106.58c-0.02,0.02-0.05,0.03-0.09,0.03
		C540.25,106.61,540.28,106.6,540.3,106.58z M536.55,107.02c-0.05,0.02-0.1,0.05-0.15,0.07
		C536.45,107.06,536.5,107.04,536.55,107.02z M535.86,107.37c-0.01,0-0.02,0.01-0.02,0.01
		C535.84,107.38,535.85,107.37,535.86,107.37z M532.98,109.62c-0.07,0.07-0.14,0.14-0.21,0.21
		C532.84,109.75,532.91,109.68,532.98,109.62z M535.24,107.75c-0.06,0.04-0.12,0.08-0.17,0.12
		C535.12,107.83,535.18,107.79,535.24,107.75z M534.56,108.24c-0.05,0.04-0.1,0.08-0.15,0.12
		C534.45,108.32,534.5,108.28,534.56,108.24z M533.72,108.93c-0.05,0.04-0.1,0.09-0.15,0.14
		C533.62,109.02,533.67,108.97,533.72,108.93z M532.01,110.62c0,0-0.01,0.01-0.01,0.01C532,110.63,532.01,110.62,532.01,110.62z
		 M531.19,111.57c-0.08,0.09-0.15,0.19-0.23,0.28C531.04,111.75,531.11,111.66,531.19,111.57z M530.28,112.71
		c-0.07,0.09-0.13,0.17-0.2,0.26C530.15,112.88,530.21,112.79,530.28,112.71z M529.19,114.18c-0.07,0.09-0.14,0.2-0.2,0.29
		C529.05,114.38,529.12,114.28,529.19,114.18z M528.23,115.59c-0.09,0.14-0.18,0.27-0.27,0.41
		C528.05,115.86,528.14,115.73,528.23,115.59z M529.25,117.25c-0.27,0.39-0.55,0.79-0.83,1.21
		C528.7,118.04,528.98,117.64,529.25,117.25z M533.3,112.29c-0.19,0.19-0.39,0.4-0.6,0.62C532.9,112.69,533.1,112.48,533.3,112.29z
		 M532.49,113.14c-0.16,0.18-0.33,0.37-0.5,0.57C532.16,113.51,532.33,113.32,532.49,113.14z M531.79,113.94
		c-0.24,0.28-0.47,0.56-0.72,0.87C531.31,114.51,531.55,114.22,531.79,113.94z M531.03,114.86c-0.23,0.29-0.48,0.61-0.72,0.93
		C530.55,115.47,530.8,115.16,531.03,114.86z M530.08,116.11c-0.19,0.26-0.39,0.53-0.58,0.8
		C529.69,116.63,529.89,116.37,530.08,116.11z M534.73,110.99c0.17-0.13,0.33-0.26,0.48-0.37
		C535.06,110.73,534.89,110.86,534.73,110.99z M534.13,111.5c0.14-0.13,0.29-0.25,0.42-0.37
		C534.42,111.25,534.28,111.37,534.13,111.5z M536.41,109.86c0.13-0.07,0.26-0.13,0.38-0.19
		C536.66,109.73,536.54,109.79,536.41,109.86z M535.27,110.58c0.17-0.13,0.34-0.24,0.51-0.34
		C535.61,110.34,535.45,110.45,535.27,110.58z M535.92,110.14c0.12-0.07,0.23-0.14,0.35-0.2C536.15,110,536.04,110.07,535.92,110.14
		z M536.84,109.65c0.14-0.06,0.27-0.11,0.4-0.16C537.12,109.54,536.98,109.59,536.84,109.65z M538.02,109.31
		c-0.09,0.01-0.18,0.03-0.28,0.05C537.84,109.33,537.93,109.32,538.02,109.31z M537.63,109.38c-0.09,0.02-0.18,0.05-0.27,0.08
		C537.45,109.43,537.54,109.4,537.63,109.38z M539.65,109.77c0.06,0.08,0.1,0.16,0.11,0.23
		C539.74,109.93,539.7,109.85,539.65,109.77z M544.05,115.76c-0.02-0.01-0.05-0.02-0.07-0.02
		C544,115.75,544.02,115.76,544.05,115.76z M543.7,115.63c-0.03-0.01-0.06-0.03-0.08-0.04C543.65,115.61,543.67,115.62,543.7,115.63
		z M544.88,115.87c0.04,0,0.08,0,0.12,0c-0.02,0-0.03,0-0.05,0C544.92,115.87,544.9,115.87,544.88,115.87z M544.44,115.84
		c0.03,0,0.07,0.01,0.1,0.01C544.5,115.84,544.47,115.84,544.44,115.84z M545.93,115.76c-0.04,0.01-0.08,0.02-0.12,0.03
		C545.85,115.78,545.89,115.77,545.93,115.76z M545.41,115.85c-0.02,0-0.03,0-0.05,0C545.38,115.85,545.39,115.85,545.41,115.85z
		 M546.21,115.69c0.04-0.01,0.08-0.03,0.13-0.04C546.3,115.66,546.25,115.68,546.21,115.69z M546.6,115.54
		c0.03-0.01,0.06-0.02,0.09-0.04C546.66,115.52,546.63,115.53,546.6,115.54z M546.99,115.33c0.02-0.01,0.03-0.03,0.05-0.04
		C547.03,115.3,547.01,115.31,546.99,115.33z M547.23,115.12c0.02-0.02,0.04-0.05,0.06-0.08
		C547.28,115.07,547.26,115.09,547.23,115.12z M547.41,114.86c0.01-0.03,0.03-0.05,0.04-0.08
		C547.43,114.81,547.42,114.84,547.41,114.86z M557.5,92.85c-0.07-0.43-0.11-0.86-0.11-1.3C557.4,91.99,557.44,92.43,557.5,92.85z
		 M558.29,95.35c-0.11-0.24-0.19-0.48-0.28-0.73C558.09,94.87,558.18,95.11,558.29,95.35z M557.81,94.12
		c-0.09-0.27-0.14-0.55-0.2-0.83C557.67,93.57,557.72,93.85,557.81,94.12z M561.03,99.2c0.18,0.18,0.35,0.37,0.53,0.54
		C561.37,99.57,561.2,99.39,561.03,99.2z M564.85,102.28c-0.2-0.12-0.4-0.26-0.6-0.4C564.46,102.02,564.65,102.15,564.85,102.28z
		 M563.72,101.52c-0.2-0.14-0.39-0.3-0.59-0.45C563.33,101.22,563.52,101.38,563.72,101.52z M562.61,100.67
		c-0.19-0.16-0.38-0.33-0.56-0.49C562.24,100.35,562.42,100.52,562.61,100.67z M571.16,104.52c-0.13,0-0.28-0.02-0.42-0.03
		c0.17,0.01,0.35,0.03,0.52,0.03C571.22,104.52,571.19,104.52,571.16,104.52z M565.4,102.59c0.2,0.12,0.4,0.24,0.6,0.34
		C565.8,102.83,565.6,102.71,565.4,102.59z M566.55,103.2c0.2,0.1,0.4,0.2,0.59,0.29C566.95,103.4,566.75,103.3,566.55,103.2z
		 M567.68,103.71c0.19,0.08,0.39,0.16,0.58,0.23C568.07,103.87,567.87,103.78,567.68,103.71z M568.77,104.09
		c0.18,0.06,0.37,0.12,0.55,0.16C569.14,104.21,568.95,104.15,568.77,104.09z M569.79,104.35c0.17,0.03,0.35,0.08,0.51,0.1
		C570.14,104.43,569.97,104.39,569.79,104.35z"/>
</g>
<g>
	<g>
		<path d="M827.41,38.55c1.17,0.99,1.71,2.61,1.71,3.6c0,0.54-1.17,1.26-2.34,1.26s-2.16,0.54-2.61,6.75
			c-0.27,5.31-0.36,14.13-0.27,23.58c3.87-2.7,7.11-5.58,9-8.46c1.26-1.71,0-3.6-1.62-4.86l0.99-0.45c2.07,0.45,6.21,3.6,7.92,6.39
			c2.25,3.69,0.63,5.4-0.63,5.4c-1.53,0-2.97,0.27-4.77,1.08c-3.78,1.53-7.2,3.33-10.8,5.22c0.09,9,0.36,18.09,0.63,24.57
			c0.18,3.78-0.45,4.86-1.08,4.86c-0.63,0-2.07-1.44-2.61-2.7s-1.26-3.6-1.17-4.23c0.09-0.63,0.72-1.89,1.08-4.23
			c0.45-3.06,0.63-9.54,0.72-17.1c-6.12,2.97-13.23,5.85-24.12,7.83l-0.36-0.81c4.5-0.9,15.57-5.31,24.48-10.98
			c0-10.35-0.09-21.78-0.09-28.8c0-6.03-4.32-10.71-6.57-13.59l0.63-0.81C823.36,35.13,826.6,37.83,827.41,38.55z"/>
		<path d="M828.76,120.36c0.63,0.54,1.08,1.53,1.08,2.25c0,1.26-1.08,1.8-2.07,1.89c-0.99,0.09-2.97,0.99-3.15,5.67
			c-0.54,10.8-1.44,35.37-0.99,44.01c0.36,6.93,1.62,9.99,2.25,10.89c1.08,1.44,1.44,2.34,1.44,3.33c0,1.98-3.69,1.89-4.68,0.99
			c-3.42-3.24-4.59-6.93-2.97-8.82c0.63-0.9,1.17-1.89,1.35-6.66c0.27-4.05,1.08-40.14-0.09-47.34c-0.99-6.12-4.32-9.54-6.21-10.71
			l1.62-1.44C823.54,116.94,827.32,119.28,828.76,120.36z M834.16,134.85c1.62-2.7,1.26-5.22,2.7-4.32
			c4.41,3.15,6.66,5.31,7.83,6.39c1.71,1.62,1.71,2.97,1.44,3.51c-0.36,0.54-1.44,1.08-2.43,1.08c-0.63,0-2.25-1.71-4.32-1.71
			c-2.34,0-5.4,2.97-7.56,10.17c-3.87,13.14,10.53,29.34,23.94,28.8l0.27,1.35c-12.51,1.71-32.85-12.15-28.26-32.22
			C829.48,140.25,833.62,135.84,834.16,134.85z"/>
		<path class="st1" d="M757.68,38.55c1.17,0.99,1.71,2.61,1.71,3.6c0,0.54-1.17,1.26-2.43,1.26c-1.17,0-2.16,0.54-2.52,6.66
			c-0.27,3.6-0.36,9.72-0.36,16.83c4.32-3.51,7.74-7.29,9.54-10.98c0.72-1.35,0-2.88-1.44-4.23l1.08-1.35
			c1.8,0.45,6.39,2.7,8.01,5.49c1.35,2.7,0.54,4.5-0.63,4.5c-1.35,0-3.42,1.62-4.77,2.7c-3.51,2.61-7.11,5.67-11.79,8.73
			c0,14.31,0.36,31.05,0.72,39.78c0.27,3.78-0.36,4.86-1.08,4.86c-0.63,0-1.98-1.35-2.52-2.7c-0.36-0.72-0.72-1.71-0.9-2.61
			c-0.18-0.72-1.26-6.48-12.51,6.39l-0.9-0.81c10.08-14.76,14.04-10.98,14.13-11.34c0.63-4.41,0.72-18.45,0.81-32.22
			c-4.77,2.79-10.53,5.4-18.09,7.38l-0.54-1.44c5.85-2.16,12.78-5.94,18.63-10.35c0-8.91-0.09-17.28-0.09-22.23
			c0-6.12-4.32-10.71-6.66-13.68l0.72-0.72C753.54,35.13,756.78,37.83,757.68,38.55z M765.51,70.95c1.08-1.26,0.81-3.6,1.89-3.24
			c5.22,1.8,7.11,8.46,7.11,9.81c0,0.9-1.08,2.07-2.07,2.07c-0.63,0-2.7-0.36-2.25-0.9c0.27-0.36-1.53-1.62-2.79-1.35
			c-3.96,0.54-8.01,8.82-3.96,16.38c4.14,7.29,10.53,10.26,19.35,11.34l-0.27,1.17c-12.6,1.08-27.99-8.82-24.75-23.58
			C758.94,77.07,764.34,72.39,765.51,70.95z"/>
		<path d="M618.76,37.56c0.63,0.54,1.08,1.53,1.08,2.25c0,1.26-1.08,1.8-2.07,1.89s-2.97,0.99-3.15,5.67
			c-0.54,10.8-1.44,35.37-0.99,44.01c0.36,6.93,1.62,9.99,2.25,10.89c1.08,1.44,1.44,2.34,1.44,3.33c0,1.98-3.69,1.89-4.68,0.99
			c-3.42-3.24-4.59-6.93-2.97-8.82c0.63-0.9,1.17-1.89,1.35-6.66c0.27-4.05,1.08-40.14-0.09-47.34c-0.99-6.12-4.32-9.54-6.21-10.71
			l1.62-1.44C613.54,34.14,617.32,36.48,618.76,37.56z M624.16,52.05c1.62-2.7,1.26-5.22,2.7-4.32c4.41,3.15,6.66,5.31,7.83,6.39
			c1.71,1.62,1.71,2.97,1.44,3.51c-0.36,0.54-1.44,1.08-2.43,1.08c-0.63,0-2.25-1.71-4.32-1.71c-2.34,0-5.4,2.97-7.56,10.17
			c-3.87,13.14,10.53,29.34,23.94,28.8l0.27,1.35c-12.51,1.71-32.85-12.15-28.26-32.22C619.48,57.45,623.62,53.04,624.16,52.05z"/>
		<path d="M618.76,120.36c0.63,0.54,1.08,1.53,1.08,2.25c0,1.26-1.08,1.8-2.07,1.89c-0.99,0.09-2.97,0.99-3.15,5.67
			c-0.54,10.8-1.44,35.37-0.99,44.01c0.36,6.93,1.62,9.99,2.25,10.89c1.08,1.44,1.44,2.34,1.44,3.33c0,1.98-3.69,1.89-4.68,0.99
			c-3.42-3.24-4.59-6.93-2.97-8.82c0.63-0.9,1.17-1.89,1.35-6.66c0.27-4.05,1.08-40.14-0.09-47.34c-0.99-6.12-4.32-9.54-6.21-10.71
			l1.62-1.44C613.54,116.94,617.32,119.28,618.76,120.36z M624.16,134.85c1.62-2.7,1.26-5.22,2.7-4.32
			c4.41,3.15,6.66,5.31,7.83,6.39c1.71,1.62,1.71,2.97,1.44,3.51c-0.36,0.54-1.44,1.08-2.43,1.08c-0.63,0-2.25-1.71-4.32-1.71
			c-2.34,0-5.4,2.97-7.56,10.17c-3.87,13.14,10.53,29.34,23.94,28.8l0.27,1.35c-12.51,1.71-32.85-12.15-28.26-32.22
			C619.48,140.25,623.62,135.84,624.16,134.85z"/>
		<path class="st1" d="M549.39,37.56c0.63,0.54,1.08,1.53,1.08,2.25c0,1.26-1.08,1.8-2.07,1.89c-0.99,0.09-2.88,0.99-3.15,5.67
			c-0.54,10.8-1.35,44.19-0.99,52.83c0.36,6.93,0.99,9.18,1.62,10.08c1.08,1.35,1.62,3.24,1.62,4.23c0,1.35-3.24,1.8-4.14,0.9
			c-1.89-1.8-3.15-3.6-3.6-5.4c-0.18-0.9-3.78-2.88-11.34,8.46l-1.44-0.9c8.55-14.04,12.96-10.62,13.32-10.98
			c0.63-0.9,1.17-1.8,1.44-6.57c0.18-4.14,1.08-49.05-0.18-56.25c-0.9-6.12-4.32-9.54-6.21-10.71l1.62-1.44
			C544.17,34.14,547.95,36.48,549.39,37.56z M554.7,51.6c0.81-0.99,1.35-3.87,1.8-3.87c1.98,0,8.64,5.22,8.64,6.3
			s-1.26,2.34-2.34,2.34c-1.89,0-10.62,1.08-10.62,13.05c0,4.59,2.88,9.63,6.93,11.43c1.71,0.81,7.65,0.27,8.01,1.44
			c0.18,0.72-0.81,3.69-1.8,3.69c-0.9,0-4.32,0.63-4.32,5.85c0,3.33,4.5,10.08,10.8,11.52l-0.54,1.17
			c-4.5,0.09-13.86-5.94-13.86-12.96c0-3.51,0.9-5.13,1.35-7.29c0.27-0.9-0.45-1.35-1.17-1.98c-6.3-5.4-8.1-8.19-8.1-15.03
			C549.48,59.07,552.36,54.39,554.7,51.6z"/>
	</g>
</g>
</svg>
