<?xml version="1.0" encoding="utf-8"?>
<!-- Generator: Adobe Illustrator 25.4.1, SVG Export Plug-In . SVG Version: 6.00 Build 0)  -->
<svg version="1.1" id="Layer_1" xmlns="http://www.w3.org/2000/svg" xmlns:xlink="http://www.w3.org/1999/xlink" x="0px" y="0px"
	 viewBox="0 0 1366 230" style="enable-background:new 0 0 1366 230;" xml:space="preserve">
<style type="text/css">
	.st0{fill:#FFFFFF;}
	.st1{fill:#ED1C24;}
</style>
<g>
	<path class="st0" d="M978.2,82.24c-1.39-2.59-3.86-4.43-6.73-5.04c-0.69-0.15-1.38-0.22-2.07-0.22c-2.2,0-4.36,0.73-6.12,2.1
		c-1.27,0.96-6.09,2.31-8.9,2.31c-5.79,0-11.6-4.05-17.21-7.97c-0.22-0.16-0.45-0.31-0.67-0.47c2.67-3.54,5.1-7.64,7.23-12.24
		c3.35-2.21,4.63-5.73,4.63-8.56c0-2.82-1.07-5.51-2.86-7.75c2.34-2.36,3.43-5.75,2.82-9.11c-1.19-6.55-8.15-9.78-10.73-10.57
		l0-0.01c-0.93-0.26-1.89-0.4-2.86-0.4c-3.8,0-7,1.8-15.9,7.38c-0.35,0.22-0.7,0.44-1.03,0.64c-1.3-0.55-2.71-0.84-4.15-0.84
		c-6.48,0-12.39,6.03-12.39,12.64c0,3.28,1.45,6.31,5.02,10.44c1.53,1.77,3.18,3.48,5.11,4.69c0.77,1.97,1.91,3.39,2.8,4.29
		c-0.88,0.88-1.86,1.75-2.94,2.58c-2.33,0.62-4.26,1.47-5.75,2.24c-1.01-0.32-2.08-0.5-3.18-0.5c-7.69,0-11.95,7.78-11.95,13.16
		c0,1.71,0.34,4.48,3.26,8.71c1.12,1.61,4.51,6.51,10.52,6.51c1.86,0,6.04,0,11.93-7.52c1.98,1.17,4.96,3.73,7.04,5.53
		c-0.2-0.05-0.39-0.09-0.6-0.14c-0.72-0.16-1.45-0.24-2.17-0.24c-2.62,0-5.18,1.03-7.07,2.93l-0.99,0.99
		c-1.88,1.88-2.93,4.42-2.93,7.07c0,2.65,1.05,5.2,2.93,7.07c0.77,0.77,1.48,1.44,2.1,2.03c0.5,0.48,1.09,1.03,1.49,1.44
		c0.03,0.38,0.06,0.83,0.08,1.36c-1.76,0.35-3.33,1.04-4.68,2.06c-0.13,0.1-0.31,0.23-0.52,0.38c-1.34,1-2.41,1.76-3.24,2.36
		c-1.05-0.35-2.16-0.54-3.29-0.54c-6.27,0-10.99,5.32-10.99,12.37c0,4.14,1.72,7.88,4.48,10.51c0.12,0.64,0.29,1.27,0.53,1.88
		c0.15,0.39,0.33,0.77,0.53,1.13c-1.65,1.83-3.15,2.97-4.18,3.29c-3.28,1.02-5.81,3.65-6.7,6.97c-0.89,3.32-0.01,6.87,2.33,9.38
		l1.17,1.26c1.92,2.07,4.59,3.2,7.33,3.2c1.04,0,2.08-0.16,3.1-0.49c6.06-1.98,10.85-5.27,14.53-8.75c0,0.54,0,1.32,0,2.17
		c-3.78,4.64-2.53,11.52,0.65,16.54c4.2,6.61,9.21,7.99,12.68,7.99c1.12,0,2.8,0,4.65-0.52c4.87-1.38,8.14-5.65,8.14-10.65
		c0-1.22,0-4.06-1.84-7.58c-0.5-0.98-1.06-1.75-1.5-2.31c0-0.03,0-0.06,0-0.09c5.4,3.15,11.73,4.94,18.08,4.94
		c0.92,0,1.85-0.04,2.76-0.12c4.32-0.37,7.92-3.49,8.89-7.72l0.27-1.17c0.64-2.76,0.07-5.66-1.56-7.98s-4.16-3.84-6.97-4.19
		c-6.2-0.76-9.06-2.45-10.94-4.93c6.42-0.36,11.53-5.51,11.53-11.78c0-5.35-4.09-16.77-13.94-20.16c-0.03-0.01-0.07-0.02-0.11-0.04
		c-0.84-0.28-1.71-0.45-2.58-0.52c0.03-0.29,0.05-0.59,0.06-0.88c0.12-2.34-0.34-4.51-1.34-6.48c1.13,0.19,2.3,0.3,3.5,0.3
		c11.32,0,24.59-6.36,29.82-10.95c3.5-3.07,4.41-8.15,2.21-12.25L978.2,82.24z M926.22,54.67c0.06-0.01,0.12-0.02,0.18-0.04
		C926.34,54.65,926.28,54.66,926.22,54.67z M926.87,54.51c0.06-0.02,0.12-0.04,0.18-0.06C926.99,54.47,926.93,54.49,926.87,54.51z
		 M927.61,54.2c0.01-0.01,0.02-0.01,0.04-0.02C927.64,54.19,927.63,54.19,927.61,54.2z M928.22,53.84c0.05-0.04,0.11-0.07,0.16-0.11
		C928.33,53.77,928.28,53.8,928.22,53.84z M928.79,53.43c0.05-0.04,0.1-0.08,0.15-0.12C928.89,53.35,928.84,53.39,928.79,53.43z
		 M928.95,55.47c-0.06,0.04-0.12,0.08-0.18,0.12C928.83,55.56,928.89,55.52,928.95,55.47z M928.3,55.89
		c-0.06,0.04-0.13,0.08-0.19,0.11C928.17,55.96,928.23,55.93,928.3,55.89z M927.46,56.33c-0.01,0-0.02,0.01-0.03,0.01
		C927.44,56.34,927.45,56.34,927.46,56.33z M926.73,56.63c-0.07,0.03-0.14,0.05-0.21,0.07C926.59,56.68,926.66,56.66,926.73,56.63z
		 M926,56.88c-0.07,0.02-0.14,0.04-0.21,0.06C925.85,56.92,925.93,56.9,926,56.88z M925.07,54.68c0.17,0.02,0.34,0.05,0.5,0.05
		C925.41,54.73,925.24,54.7,925.07,54.68z M924.04,54.4c0.26,0.11,0.52,0.19,0.78,0.25C924.56,54.6,924.3,54.52,924.04,54.4z
		 M925.12,57.1c-0.02,0-0.03,0.01-0.05,0.01C925.09,57.11,925.11,57.1,925.12,57.1z M924.38,57.22c-0.07,0.01-0.13,0.01-0.19,0.02
		C924.26,57.23,924.32,57.22,924.38,57.22z M923.7,57.26c-0.04,0-0.08,0.01-0.12,0.01c-0.03,0-0.05,0-0.07,0
		C923.57,57.26,923.64,57.26,923.7,57.26z M921.72,56.85c0.04,0.02,0.09,0.05,0.13,0.07C921.8,56.89,921.76,56.87,921.72,56.85z
		 M922.2,57.06c0.05,0.02,0.09,0.03,0.14,0.05C922.29,57.09,922.25,57.08,922.2,57.06z M922.89,57.22c0.01,0,0.03,0,0.04,0
		C922.92,57.22,922.91,57.22,922.89,57.22z M932.88,48.39c0.21,0,0.42,0.01,0.62,0.03c-0.21-0.02-0.42-0.03-0.64-0.03
		C932.87,48.39,932.88,48.39,932.88,48.39z M932.41,48.41c-0.08,0.01-0.17,0.01-0.25,0.01C932.24,48.42,932.32,48.42,932.41,48.41z
		 M926.41,42.79c0.01-0.05,0.02-0.1,0.02-0.13C926.43,42.7,926.42,42.74,926.41,42.79z M926.41,42.61
		c-0.01-0.03-0.02-0.05-0.03-0.07C926.4,42.56,926.4,42.58,926.41,42.61z M926.33,42.51c-0.02-0.01-0.05-0.02-0.08-0.02
		C926.29,42.49,926.31,42.5,926.33,42.51z M926.4,42.86c-0.02,0.08-0.06,0.18-0.11,0.29C926.34,43.04,926.38,42.95,926.4,42.86z
		 M933.68,48.44c0.15,0.02,0.29,0.04,0.43,0.07C933.97,48.48,933.82,48.46,933.68,48.44z M934.33,48.56
		c0.12,0.03,0.24,0.06,0.36,0.1C934.57,48.62,934.45,48.59,934.33,48.56z M934.91,48.73c0.11,0.04,0.22,0.08,0.33,0.12
		C935.13,48.81,935.02,48.77,934.91,48.73z M935.45,48.94c0.11,0.05,0.21,0.1,0.31,0.15C935.66,49.04,935.55,48.99,935.45,48.94z
		 M935.94,49.19c0.11,0.06,0.21,0.12,0.31,0.18C936.15,49.31,936.05,49.24,935.94,49.19z M937.18,50.09
		c-0.12-0.11-0.24-0.22-0.37-0.32C936.94,49.87,937.07,49.98,937.18,50.09z M936.77,49.73c-0.12-0.09-0.24-0.18-0.37-0.27
		C936.53,49.55,936.65,49.64,936.77,49.73z M929.94,36.62c0.18-0.11,0.37-0.22,0.55-0.32C930.3,36.4,930.12,36.51,929.94,36.62z
		 M930.96,36.03c0.17-0.1,0.34-0.19,0.51-0.29C931.3,35.83,931.13,35.93,930.96,36.03z M931.91,35.5c0.16-0.09,0.32-0.17,0.47-0.25
		C932.23,35.33,932.07,35.41,931.91,35.5z M932.77,35.05c0.14-0.07,0.28-0.14,0.41-0.2C933.05,34.91,932.91,34.98,932.77,35.05z
		 M926.73,38.55c0.18-0.11,0.36-0.22,0.54-0.33C927.09,38.33,926.91,38.44,926.73,38.55z M927.79,37.9
		c0.19-0.12,0.39-0.24,0.58-0.35C928.18,37.66,927.98,37.78,927.79,37.9z M928.87,37.25c0.19-0.12,0.38-0.23,0.57-0.34
		C929.25,37.02,929.06,37.13,928.87,37.25z M922.76,44.9c-0.18,0.16-0.35,0.33-0.52,0.5C922.41,45.23,922.58,45.07,922.76,44.9z
		 M922.53,41.17c0.05-0.03,0.12-0.07,0.18-0.11C922.65,41.09,922.59,41.14,922.53,41.17z M923.33,40.68
		c0.15-0.09,0.31-0.19,0.46-0.29C923.64,40.48,923.47,40.58,923.33,40.68z M924.73,39.8c0.14-0.09,0.27-0.17,0.41-0.26
		C925,39.63,924.87,39.71,924.73,39.8z M925.67,39.21c0.18-0.11,0.35-0.22,0.53-0.33C926.02,38.99,925.85,39.1,925.67,39.21z
		 M926.2,42.5c-0.06,0-0.13,0.02-0.21,0.05C926.07,42.52,926.14,42.5,926.2,42.5z M925.93,42.56c-0.1,0.04-0.21,0.09-0.34,0.16
		C925.72,42.65,925.83,42.6,925.93,42.56z M925.5,42.77c-0.11,0.06-0.22,0.13-0.34,0.21C925.28,42.9,925.4,42.83,925.5,42.77z
		 M925.07,43.04c-0.15,0.1-0.3,0.21-0.46,0.32C924.76,43.24,924.92,43.14,925.07,43.04z M924.5,43.44c-0.14,0.1-0.28,0.21-0.42,0.32
		C924.23,43.65,924.37,43.54,924.5,43.44z M923.95,43.86c-0.17,0.14-0.35,0.28-0.52,0.44C923.61,44.15,923.78,44,923.95,43.86z
		 M923.36,44.36c-0.16,0.14-0.31,0.28-0.47,0.42C923.05,44.64,923.2,44.5,923.36,44.36z M917.35,51.07c-0.04,0-0.08-0.02-0.12-0.03
		c0.05,0.01,0.11,0.03,0.15,0.03C917.37,51.07,917.36,51.07,917.35,51.07z M915.66,49.95c0.08,0.08,0.16,0.16,0.24,0.23
		C915.83,50.1,915.74,50.02,915.66,49.95z M916.13,50.35c0.08,0.07,0.16,0.14,0.23,0.19C916.28,50.49,916.2,50.42,916.13,50.35z
		 M916.55,50.69c0.07,0.05,0.14,0.1,0.21,0.15C916.69,50.79,916.62,50.74,916.55,50.69z M916.92,50.92
		c0.06,0.03,0.12,0.07,0.17,0.09C917.05,50.99,916.98,50.95,916.92,50.92z M915.17,49.46c0.08,0.08,0.17,0.17,0.25,0.25
		C915.34,49.64,915.25,49.55,915.17,49.46z M937.28,50.19c0.08,0.08,0.15,0.15,0.22,0.23C937.43,50.34,937.36,50.27,937.28,50.19z
		 M937.61,50.55c0.06,0.07,0.11,0.14,0.17,0.21C937.73,50.69,937.67,50.62,937.61,50.55z M937.87,50.9c0.05,0.07,0.09,0.14,0.13,0.2
		C937.96,51.03,937.92,50.96,937.87,50.9z M938.08,51.23c0.04,0.07,0.07,0.14,0.1,0.2C938.14,51.37,938.11,51.3,938.08,51.23z
		 M938.23,51.56c0.03,0.07,0.05,0.14,0.06,0.21C938.27,51.7,938.25,51.63,938.23,51.56z M938.32,51.87c0.02,0.1,0.03,0.19,0.03,0.28
		C938.35,52.06,938.34,51.97,938.32,51.87z M934.84,34.33c-0.06-0.02-0.15,0-0.24,0.01c0.04,0,0.09-0.02,0.12-0.02
		C934.77,34.32,934.81,34.32,934.84,34.33z M933.52,34.7c0.12-0.05,0.24-0.1,0.34-0.15C933.76,34.59,933.64,34.64,933.52,34.7z
		 M934.14,34.45c0.09-0.03,0.18-0.06,0.26-0.08C934.32,34.39,934.23,34.42,934.14,34.45z M922.04,41.47
		c-0.06,0.04-0.13,0.08-0.18,0.11C921.91,41.55,921.98,41.51,922.04,41.47z M918.97,42.74c-0.21,0.05-0.41,0.1-0.62,0.13
		C918.56,42.84,918.77,42.79,918.97,42.74z M921.34,41.89c-0.31,0.16-0.63,0.3-0.96,0.43C920.71,42.2,921.03,42.05,921.34,41.89z
		 M920.05,42.44c-0.22,0.08-0.44,0.16-0.67,0.22C919.6,42.59,919.82,42.51,920.05,42.44z M917.93,42.9
		c-0.2,0.02-0.39,0.04-0.58,0.04C917.54,42.94,917.73,42.92,917.93,42.9z M916.82,42.91c-0.14-0.01-0.27-0.01-0.41-0.03
		C916.54,42.9,916.68,42.9,916.82,42.91z M915.9,42.76c-0.12-0.03-0.24-0.05-0.35-0.09C915.66,42.71,915.78,42.73,915.9,42.76z
		 M915.04,42.42c-0.09-0.05-0.18-0.08-0.26-0.14C914.86,42.34,914.96,42.37,915.04,42.42z M913.65,41.5c0.02,0,0.03,0.01,0.04,0.01
		c-0.02,0-0.05,0-0.07,0C913.63,41.5,913.64,41.5,913.65,41.5z M913.94,41.57c-0.02-0.01-0.05-0.02-0.07-0.02
		C913.89,41.55,913.91,41.56,913.94,41.57z M913.3,41.57c-0.02,0.01-0.04,0.02-0.06,0.03C913.26,41.58,913.28,41.58,913.3,41.57z
		 M912.88,41.77C912.88,41.77,912.88,41.77,912.88,41.77C912.88,41.77,912.88,41.77,912.88,41.77z M912.52,42.05
		c-0.02,0.02-0.04,0.04-0.06,0.06C912.47,42.08,912.49,42.07,912.52,42.05z M912.12,42.43c-0.02,0.02-0.04,0.04-0.06,0.07
		C912.09,42.47,912.1,42.45,912.12,42.43z M911.77,42.87C911.77,42.88,911.77,42.88,911.77,42.87
		C911.77,42.88,911.77,42.88,911.77,42.87z M911.53,43.27c-0.01,0.02-0.03,0.05-0.04,0.07C911.5,43.32,911.51,43.3,911.53,43.27z
		 M911.34,43.72c-0.01,0.02-0.01,0.04-0.02,0.07C911.32,43.76,911.33,43.74,911.34,43.72z M911.37,44.53
		c0.03,0.08,0.06,0.16,0.11,0.25C911.43,44.69,911.4,44.61,911.37,44.53z M911.26,44.14c0,0.07,0.02,0.16,0.06,0.27
		C911.28,44.31,911.26,44.22,911.26,44.14z M914.13,48.36c0.08,0.09,0.17,0.19,0.25,0.28C914.3,48.55,914.22,48.46,914.13,48.36z
		 M911.58,44.96c0.05,0.08,0.09,0.16,0.14,0.25C911.67,45.13,911.62,45.05,911.58,44.96z M911.87,45.45
		c0.06,0.09,0.11,0.17,0.17,0.27C911.98,45.63,911.93,45.54,911.87,45.45z M912.23,45.98c0.07,0.1,0.13,0.19,0.21,0.29
		C912.36,46.17,912.3,46.08,912.23,45.98z M912.65,46.55c0.08,0.1,0.15,0.2,0.23,0.31C912.8,46.76,912.72,46.66,912.65,46.55z
		 M913.13,47.17c0.08,0.1,0.15,0.19,0.23,0.29C913.28,47.36,913.2,47.27,913.13,47.17z M913.63,47.78c0.08,0.09,0.16,0.19,0.24,0.28
		C913.78,47.97,913.71,47.87,913.63,47.78z M914.91,49.21c-0.09-0.09-0.17-0.19-0.26-0.28C914.73,49.02,914.82,49.12,914.91,49.21z
		 M905.55,79.25c-0.14,0.01-0.28,0.02-0.41,0.02C905.27,79.27,905.41,79.26,905.55,79.25z M906.4,79.15
		c-0.23,0.04-0.45,0.06-0.65,0.09C905.96,79.21,906.17,79.19,906.4,79.15z M903.08,78.58c-0.16-0.14-0.31-0.31-0.46-0.51
		C902.76,78.27,902.92,78.43,903.08,78.58z M904.97,79.27c-0.18,0-0.35-0.02-0.52-0.04C904.62,79.25,904.79,79.26,904.97,79.27z
		 M904.3,79.2c-0.2-0.04-0.39-0.1-0.57-0.18C903.91,79.1,904.1,79.16,904.3,79.2z M903.64,78.97c-0.15-0.08-0.29-0.17-0.43-0.28
		C903.35,78.8,903.49,78.89,903.64,78.97z M902.49,77.94c-0.02-0.01-0.03-0.01-0.05-0.02C902.46,77.92,902.48,77.92,902.49,77.94z
		 M902.34,77.89c-0.02,0-0.03,0-0.05,0c0.01,0,0.02-0.01,0.03-0.01C902.33,77.88,902.33,77.89,902.34,77.89z M901.75,78.19
		c-0.01,0.01-0.03,0.03-0.04,0.04C901.72,78.22,901.73,78.21,901.75,78.19z M902.04,77.97c0,0-0.01,0.01-0.01,0.01
		C902.03,77.97,902.03,77.97,902.04,77.97z M901.42,78.55c-0.02,0.02-0.04,0.05-0.05,0.07C901.38,78.59,901.4,78.57,901.42,78.55z
		 M901.09,79.01c-0.01,0.02-0.02,0.04-0.03,0.06C901.07,79.05,901.08,79.03,901.09,79.01z M900.82,79.5
		c-0.01,0.02-0.02,0.03-0.02,0.05C900.8,79.53,900.81,79.52,900.82,79.5z M900.6,80.01c-0.01,0.03-0.02,0.06-0.03,0.09
		C900.58,80.07,900.59,80.04,900.6,80.01z M900.44,80.54c-0.01,0.02-0.01,0.05-0.01,0.07C900.43,80.59,900.43,80.57,900.44,80.54z
		 M933.98,141.71c-0.01,0.26-0.03,0.52-0.03,0.78C933.96,142.23,933.97,141.97,933.98,141.71z M944.9,159.1
		c-0.72-0.39-1.41-0.81-2.09-1.26C943.49,158.29,944.18,158.71,944.9,159.1z M942.56,157.66c-0.25-0.17-0.49-0.34-0.73-0.52
		C942.07,157.32,942.32,157.49,942.56,157.66z M941.51,156.89c-0.21-0.16-0.42-0.33-0.62-0.5
		C941.09,156.57,941.3,156.73,941.51,156.89z M940.55,156.1c-0.19-0.16-0.38-0.33-0.56-0.49
		C940.17,155.78,940.36,155.94,940.55,156.1z M946.87,134.82c-0.01-0.03-0.02-0.06-0.03-0.08
		C946.85,134.77,946.86,134.8,946.87,134.82z M946.76,134.55c-0.02-0.04-0.04-0.08-0.06-0.12
		C946.72,134.47,946.75,134.51,946.76,134.55z M946.59,134.24c-0.03-0.04-0.07-0.09-0.1-0.13
		C946.52,134.16,946.56,134.2,946.59,134.24z M946.33,133.93c-0.04-0.04-0.09-0.08-0.14-0.12
		C946.24,133.85,946.28,133.89,946.33,133.93z M945.97,133.65c-0.06-0.04-0.12-0.07-0.18-0.11
		C945.86,133.58,945.92,133.61,945.97,133.65z M945.52,133.43c-0.07-0.03-0.14-0.05-0.22-0.07
		C945.38,133.38,945.45,133.4,945.52,133.43z M944.95,133.3c-0.08-0.01-0.16-0.02-0.25-0.03
		C944.78,133.28,944.86,133.29,944.95,133.3z M938.8,154.42c-0.16-0.17-0.31-0.34-0.46-0.51
		C938.49,154.08,938.65,154.25,938.8,154.42z M938.02,153.52c-0.14-0.17-0.29-0.35-0.42-0.53
		C937.73,153.17,937.88,153.34,938.02,153.52z M937.29,152.58c-0.13-0.18-0.26-0.36-0.38-0.55
		C937.03,152.22,937.16,152.4,937.29,152.58z M936.63,151.6c-0.12-0.19-0.23-0.37-0.34-0.56
		C936.4,151.23,936.51,151.41,936.63,151.6z M936.03,150.58c-0.1-0.19-0.2-0.38-0.3-0.58C935.83,150.2,935.93,150.39,936.03,150.58z
		 M935.5,149.53c-0.09-0.2-0.18-0.4-0.26-0.6C935.32,149.13,935.41,149.33,935.5,149.53z M935.04,148.44
		c-0.08-0.2-0.15-0.41-0.22-0.62C934.89,148.03,934.97,148.24,935.04,148.44z M934.66,147.32c-0.06-0.21-0.12-0.43-0.18-0.64
		C934.54,146.89,934.6,147.11,934.66,147.32z M934.15,139.88c0.06-0.44,0.15-0.89,0.24-1.34
		C934.29,138.99,934.21,139.44,934.15,139.88z M934.36,146.16c-0.05-0.22-0.09-0.44-0.13-0.66
		C934.27,145.72,934.31,145.94,934.36,146.16z M934.14,144.97c-0.03-0.23-0.06-0.46-0.08-0.69
		C934.08,144.51,934.1,144.74,934.14,144.97z M934,143.74c-0.02-0.24-0.02-0.48-0.03-0.72C933.98,143.26,933.98,143.5,934,143.74z
		 M934,141.2c0.02-0.29,0.06-0.59,0.09-0.88C934.06,140.61,934.02,140.91,934,141.2z M933.86,113.14c0.09-0.01,0.17-0.03,0.24-0.05
		C934.02,113.11,933.94,113.13,933.86,113.14z M934.17,113.07c0.09-0.03,0.17-0.06,0.24-0.1
		C934.34,113.01,934.26,113.05,934.17,113.07z M934.44,112.95c0.06-0.04,0.1-0.09,0.14-0.14
		C934.54,112.87,934.49,112.91,934.44,112.95z M934.6,112.76c0.03-0.07,0.06-0.14,0.06-0.23
		C934.66,112.62,934.64,112.69,934.6,112.76z M933.79,113.15c-0.11,0.01-0.22,0.02-0.33,0.02
		C933.57,113.17,933.68,113.16,933.79,113.15z M920.82,126.69c0.03,0,0.05,0.01,0.08,0.01C920.87,126.7,920.85,126.7,920.82,126.69z
		 M921.48,126.82c0.05,0.01,0.09,0.02,0.14,0.03C921.57,126.84,921.53,126.82,921.48,126.82z M922.58,127.1
		c0.02,0.01,0.04,0.02,0.07,0.02C922.62,127.12,922.6,127.11,922.58,127.1z M922.03,126.94c0.04,0.01,0.08,0.02,0.12,0.03
		C922.11,126.96,922.07,126.95,922.03,126.94z M922.97,127.26c-0.02-0.01-0.04-0.02-0.07-0.03
		C922.93,127.24,922.95,127.25,922.97,127.26z M924.89,169.96c0.01,0,0.02,0,0.03,0c-0.06,0-0.13,0.01-0.19,0.02
		C924.78,169.97,924.84,169.96,924.89,169.96z M924.63,170c-0.1,0.03-0.21,0.07-0.32,0.13C924.42,170.06,924.52,170.02,924.63,170z
		 M925.23,170.01c-0.01,0-0.03,0-0.04-0.01C925.2,170,925.22,170,925.23,170.01z M925.95,170.24c-0.04,0-0.09-0.01-0.13-0.03
		C925.87,170.23,925.91,170.23,925.95,170.24z M925.74,170.19c-0.07-0.02-0.14-0.05-0.22-0.08
		C925.6,170.13,925.67,170.16,925.74,170.19z M926.09,170.22c-0.01,0.01-0.03,0.01-0.04,0.01
		C926.06,170.23,926.07,170.23,926.09,170.22z M920.29,126.62c-0.06-0.01-0.11-0.01-0.17-0.02
		C920.18,126.6,920.23,126.61,920.29,126.62z M919.56,126.54c-0.02,0-0.04,0-0.07-0.01C919.52,126.54,919.54,126.54,919.56,126.54z
		 M918.92,126.51c-0.06,0-0.12,0-0.17,0c0.04,0,0.07,0,0.11,0C918.87,126.51,918.89,126.51,918.92,126.51z M917.88,126.6
		c0.05-0.01,0.1-0.02,0.15-0.03C917.97,126.58,917.92,126.59,917.88,126.6z M918.28,126.54c0.06-0.01,0.11-0.01,0.17-0.01
		C918.39,126.53,918.34,126.53,918.28,126.54z M917.65,126.66c-0.04,0.01-0.07,0.02-0.11,0.03
		C917.57,126.68,917.61,126.67,917.65,126.66z M916.64,132.13c0-0.04,0-0.07,0-0.11C916.64,132.06,916.64,132.09,916.64,132.13z
		 M916.62,131.87c0-0.03-0.01-0.06-0.01-0.08C916.61,131.81,916.62,131.84,916.62,131.87z M916.57,131.67
		c-0.01-0.01-0.01-0.03-0.02-0.04C916.56,131.64,916.56,131.66,916.57,131.67z M916.46,131.53c-0.01,0-0.02,0-0.02-0.01
		C916.45,131.52,916.46,131.52,916.46,131.53z M916.34,131.5c-0.03,0-0.08,0.02-0.12,0.03C916.26,131.52,916.31,131.5,916.34,131.5z
		 M916.16,131.55c-0.07,0.03-0.14,0.08-0.22,0.14C916.02,131.63,916.1,131.59,916.16,131.55z M907.6,132.72
		c0.06,0.01,0.13,0.01,0.19,0.01C907.73,132.73,907.67,132.72,907.6,132.72z M905.01,131.66c0.03,0.03,0.07,0.05,0.1,0.08
		C905.08,131.71,905.04,131.69,905.01,131.66z M905.36,131.91c0.05,0.03,0.1,0.06,0.15,0.09
		C905.46,131.97,905.41,131.94,905.36,131.91z M905.82,132.16c0.05,0.03,0.11,0.05,0.16,0.08
		C905.92,132.22,905.87,132.19,905.82,132.16z M906.41,132.42c0.03,0.01,0.06,0.03,0.09,0.04
		C906.47,132.44,906.44,132.43,906.41,132.42z M907.05,132.62c0.05,0.01,0.1,0.02,0.16,0.03
		C907.15,132.64,907.1,132.63,907.05,132.62z M915.96,136.14c-0.02,0.07-0.03,0.15-0.05,0.22
		C915.93,136.29,915.94,136.22,915.96,136.14z M915.79,136.89c-0.01,0.06-0.03,0.13-0.04,0.19
		C915.76,137.02,915.78,136.96,915.79,136.89z M916.64,132.32c0,0.04,0,0.08-0.01,0.13C916.63,132.4,916.64,132.36,916.64,132.32z
		 M916.61,132.67c0,0.05-0.01,0.09-0.01,0.14C916.6,132.77,916.61,132.72,916.61,132.67z M916.56,133.11
		c-0.01,0.04-0.01,0.08-0.02,0.13C916.55,133.19,916.55,133.16,916.56,133.11z M916.46,133.71c-0.01,0.04-0.01,0.08-0.02,0.12
		C916.45,133.79,916.46,133.75,916.46,133.71z M916.36,134.24c-0.01,0.07-0.03,0.15-0.04,0.22
		C916.34,134.38,916.35,134.31,916.36,134.24z M916.25,134.81c-0.02,0.08-0.04,0.17-0.05,0.25
		C916.21,134.98,916.23,134.9,916.25,134.81z M916.11,135.45c-0.02,0.08-0.04,0.17-0.05,0.25
		C916.08,135.61,916.1,135.53,916.11,135.45z M908.15,132.73c0.05,0,0.1-0.01,0.15-0.01C908.25,132.72,908.2,132.73,908.15,132.73z
		 M904.51,131.14C904.51,131.13,904.51,131.13,904.51,131.14C904.51,131.13,904.51,131.13,904.51,131.14z M904.24,131.04
		C904.24,131.04,904.24,131.04,904.24,131.04C904.24,131.04,904.24,131.04,904.24,131.04C904.24,131.04,904.24,131.04,904.24,131.04
		z M903.87,131.23C903.86,131.23,903.86,131.23,903.87,131.23C903.86,131.23,903.86,131.23,903.87,131.23z M904.07,131.08
		c-0.01,0.01-0.03,0.01-0.04,0.02C904.04,131.1,904.05,131.09,904.07,131.08z M903.71,131.43c-0.01,0.02-0.02,0.04-0.03,0.06
		C903.69,131.46,903.7,131.45,903.71,131.43z M903.55,131.74C903.55,131.74,903.55,131.74,903.55,131.74
		C903.55,131.74,903.55,131.74,903.55,131.74z M903.44,132.06c-0.01,0.03-0.02,0.06-0.02,0.08
		C903.42,132.11,903.43,132.08,903.44,132.06z M903.33,132.49C903.33,132.49,903.33,132.5,903.33,132.49
		C903.33,132.5,903.33,132.49,903.33,132.49z M903.28,132.89c0,0.03-0.01,0.07-0.01,0.1C903.27,132.95,903.28,132.92,903.28,132.89z
		 M932.23,113.16c0.16,0,0.34,0,0.52,0.01C932.57,113.16,932.39,113.16,932.23,113.16z M933.11,113.17c0.08,0,0.17,0,0.25,0
		c-0.05,0-0.1,0-0.15,0C933.18,113.18,933.15,113.17,933.11,113.17z M939.14,154.78c0.17,0.17,0.34,0.34,0.51,0.5
		C939.48,155.11,939.3,154.95,939.14,154.78z M945.15,159.23c0.27,0.14,0.55,0.29,0.83,0.42
		C945.7,159.52,945.43,159.37,945.15,159.23z M946.36,159.82c0.24,0.11,0.48,0.22,0.73,0.33
		C946.84,160.05,946.6,159.94,946.36,159.82z M947.53,160.33c0.23,0.09,0.46,0.19,0.69,0.27
		C947.99,160.52,947.76,160.43,947.53,160.33z M948.69,160.78c0.22,0.08,0.45,0.16,0.67,0.23
		C949.14,160.93,948.92,160.85,948.69,160.78z M949.87,161.16c0.22,0.07,0.44,0.13,0.66,0.19
		C950.31,161.29,950.09,161.23,949.87,161.16z M951.05,161.49c0.22,0.06,0.44,0.11,0.66,0.16
		C951.48,161.6,951.26,161.54,951.05,161.49z M952.23,161.76c0.22,0.04,0.44,0.09,0.65,0.13
		C952.67,161.85,952.45,161.81,952.23,161.76z M953.42,161.98c0.22,0.03,0.43,0.07,0.65,0.09
		C953.85,162.04,953.64,162.01,953.42,161.98z M954.61,162.14c0.21,0.02,0.43,0.04,0.64,0.06
		C955.04,162.18,954.83,162.16,954.61,162.14z M955.8,162.24c0.21,0.01,0.43,0.02,0.64,0.03
		C956.22,162.26,956.01,162.25,955.8,162.24z M956.98,162.28c0.15,0,0.31,0,0.46,0c-0.07,0-0.14,0.01-0.2,0.01
		C957.15,162.29,957.06,162.28,956.98,162.28z M943.82,123.65c-0.01,0-0.02,0-0.03,0c0.01,0,0.01-0.01,0.02-0.01
		C943.81,123.65,943.81,123.65,943.82,123.65z M943.53,123.74C943.53,123.74,943.53,123.74,943.53,123.74
		C943.53,123.74,943.53,123.74,943.53,123.74z M942.13,126.93c0.12-0.15,0.22-0.31,0.31-0.47
		C942.35,126.62,942.25,126.78,942.13,126.93z M942.46,126.41c0.08-0.16,0.15-0.32,0.22-0.49
		C942.62,126.09,942.55,126.25,942.46,126.41z M942.71,125.85c0.06-0.16,0.11-0.32,0.16-0.48
		C942.82,125.53,942.77,125.69,942.71,125.85z M942.9,125.28c0.05-0.16,0.09-0.32,0.14-0.48
		C942.99,124.96,942.95,125.11,942.9,125.28z M943.16,124.38c0.01-0.02,0.01-0.03,0.02-0.05
		C943.18,124.35,943.17,124.37,943.16,124.38z M943.33,123.99c0-0.01,0.01-0.01,0.01-0.02
		C943.34,123.98,943.33,123.99,943.33,123.99z"/>
	<path class="st0" d="M885.73,38.46c0-3.07-1.34-7.56-7.73-11.47c-2.07-1.27-6.26-3.39-11-3.39c-2.81,0-6.77,1.05-9.63,6.04
		c-0.03,0.06-0.07,0.13-0.11,0.19c-0.25,0.14-0.98,0.49-2.5,0.8c-1.92-2.52-4.89-4.03-8.13-4.03c-7.16,0-11.59,7-11.59,13.48
		c0,3.67,1.74,6.85,5.99,10.99c0.48,0.46,0.95,0.9,1.41,1.3c-5.61,10.08-1.17,16.75,1.06,19.2c0.1,0.11,0.2,0.22,0.3,0.33
		c-6.28,3.58-12.1,8.86-15.1,14.97c-3.8,7.73-2.93,16.13,2.39,23.04c2.25,2.92,5.75,4.59,9.6,4.59c7.73,0,17.36-7.22,25.27-18.42
		c1.2,0.58,2.65,0.99,4.38,0.99c1.73,0,4.05-0.34,8.06-2.86c1.7-1.07,6.89-4.32,6.89-10.47c0-1.03-0.28-7.84-7.37-12.47
		c0.38-0.72,1.25-1.74,1.76-2.32c1.45-1.67,3.63-4.2,3.63-8.25c0-3.55-1.59-7.71-4.65-10.58C882.88,47.71,885.73,42.83,885.73,38.46
		z M862.77,60.06c-0.21,0.17-0.43,0.33-0.64,0.5C862.34,60.39,862.56,60.22,862.77,60.06z M854.19,66.89
		c-0.21-0.04-0.41-0.1-0.62-0.17C853.77,66.79,853.98,66.84,854.19,66.89z M853.55,66.71c-0.21-0.07-0.42-0.17-0.62-0.27
		C853.13,66.54,853.34,66.64,853.55,66.71z M852.73,66.33c-0.15-0.08-0.29-0.17-0.43-0.27C852.44,66.16,852.59,66.25,852.73,66.33z
		 M852.09,65.92c-0.14-0.1-0.28-0.22-0.42-0.34C851.81,65.7,851.95,65.81,852.09,65.92z M851.48,65.42c-0.2-0.18-0.4-0.38-0.59-0.59
		C851.09,65.04,851.28,65.24,851.48,65.42z M854.84,66.98c-0.15-0.01-0.3-0.03-0.45-0.06C854.54,66.95,854.69,66.97,854.84,66.98z
		 M855.42,66.99c-0.06,0-0.12,0.01-0.18,0.01c-0.06,0-0.11-0.01-0.16-0.01C855.19,66.99,855.31,66.99,855.42,66.99z M856.26,66.9
		c-0.1,0.02-0.2,0.03-0.31,0.04C856.06,66.93,856.16,66.92,856.26,66.9z M855.73,62.89c0.04,0.02,0.08,0.03,0.12,0.05
		C855.81,62.92,855.77,62.91,855.73,62.89z M856.1,63.04c0.05,0.02,0.1,0.02,0.16,0.04C856.2,63.06,856.15,63.06,856.1,63.04z
		 M856.48,63.12c0.06,0.01,0.12,0.01,0.17,0.01C856.6,63.13,856.54,63.13,856.48,63.12z M857.11,66.7
		c-0.09,0.03-0.18,0.05-0.27,0.07C856.93,66.75,857.02,66.73,857.11,66.7z M856.88,63.14c0.19,0,0.39-0.02,0.59-0.06
		C857.27,63.12,857.07,63.14,856.88,63.14z M862.12,63.9c-0.1,0.08-0.21,0.15-0.31,0.23C861.91,64.05,862.01,63.98,862.12,63.9z
		 M861.13,64.62c-0.12,0.08-0.24,0.16-0.36,0.24C860.89,64.78,861.01,64.7,861.13,64.62z M860.15,65.25
		c-0.12,0.07-0.23,0.15-0.35,0.21C859.92,65.4,860.04,65.33,860.15,65.25z M859.17,65.83c-0.1,0.05-0.19,0.11-0.29,0.16
		C858.97,65.93,859.07,65.88,859.17,65.83z M857.98,66.4c-0.01,0-0.02,0.01-0.03,0.01C857.96,66.4,857.97,66.4,857.98,66.4z
		 M857.6,63.05c0.18-0.04,0.36-0.09,0.55-0.15C857.96,62.96,857.78,63.01,857.6,63.05z M858.27,62.86c0.21-0.08,0.43-0.17,0.65-0.27
		C858.7,62.7,858.48,62.79,858.27,62.86z M859.07,62.52c0.2-0.1,0.4-0.2,0.6-0.31C859.46,62.32,859.27,62.42,859.07,62.52z
		 M859.76,62.16c0.23-0.13,0.45-0.27,0.68-0.41C860.21,61.89,859.99,62.03,859.76,62.16z M860.6,61.64
		c0.21-0.14,0.42-0.28,0.63-0.43C861.02,61.36,860.81,61.5,860.6,61.64z M861.29,61.17c0.23-0.16,0.45-0.33,0.68-0.49
		C861.74,60.85,861.51,61.01,861.29,61.17z M868.26,56.29c0.07,0.01,0.14,0.02,0.2,0.02C868.4,56.31,868.33,56.3,868.26,56.29z
		 M869.12,56.41c0.02,0,0.04,0.01,0.06,0.01C869.16,56.42,869.14,56.41,869.12,56.41z M869.72,56.52c0.06,0.01,0.12,0.02,0.17,0.04
		C869.84,56.54,869.78,56.53,869.72,56.52z M870.28,56.64c0.05,0.01,0.1,0.03,0.15,0.04C870.38,56.67,870.33,56.66,870.28,56.64z
		 M870.78,41.07c-0.11-0.02-0.22-0.03-0.33-0.03C870.56,41.03,870.67,41.05,870.78,41.07z M868.65,41.66
		c-0.15,0.1-0.28,0.21-0.39,0.31C868.37,41.86,868.5,41.76,868.65,41.66z M870.41,41.04c-0.17,0-0.35,0.03-0.52,0.07
		C870.06,41.07,870.24,41.04,870.41,41.04z M869.81,41.12c-0.18,0.05-0.36,0.11-0.53,0.19C869.46,41.23,869.63,41.17,869.81,41.12z
		 M869.19,41.35c-0.17,0.08-0.33,0.17-0.47,0.26C868.86,41.52,869.02,41.43,869.19,41.35z M867.76,56.23
		c-0.07-0.01-0.15-0.01-0.22-0.02C867.61,56.22,867.69,56.23,867.76,56.23z M866.96,56.17c-0.04,0-0.08-0.01-0.13-0.01
		C866.88,56.16,866.92,56.16,866.96,56.17z M866.15,56.12c-0.06,0-0.12,0-0.18-0.01C866.03,56.12,866.09,56.12,866.15,56.12z
		 M865.48,56.11c-0.07,0-0.14,0-0.2,0c0.03,0,0.06,0,0.08,0C865.4,56.1,865.44,56.11,865.48,56.11z M864.75,56.12
		c-0.03,0-0.06,0-0.09,0C864.69,56.12,864.72,56.12,864.75,56.12z M864.12,56.16c-0.04,0-0.08,0.01-0.13,0.02
		C864.03,56.17,864.07,56.17,864.12,56.16z M863.65,56.24c-0.04,0.01-0.08,0.02-0.11,0.02C863.57,56.25,863.61,56.24,863.65,56.24z
		 M852.83,40.86c0.11,0.02,0.22,0.03,0.32,0.04C853.04,40.89,852.94,40.88,852.83,40.86z M852.05,40.67
		c0.12,0.04,0.24,0.07,0.36,0.1C852.29,40.74,852.17,40.71,852.05,40.67z M847.64,37.68c0.09,0.1,0.19,0.19,0.29,0.28
		C847.83,37.87,847.73,37.78,847.64,37.68z M848.5,38.52c0.12,0.1,0.24,0.2,0.36,0.3C848.74,38.71,848.61,38.62,848.5,38.52z
		 M849.4,39.24c0.13,0.1,0.26,0.18,0.39,0.27C849.65,39.42,849.53,39.34,849.4,39.24z M850.31,39.85c0.13,0.08,0.26,0.15,0.39,0.22
		C850.57,40,850.44,39.93,850.31,39.85z M851.2,40.33c0.13,0.06,0.26,0.11,0.38,0.16C851.45,40.44,851.33,40.39,851.2,40.33z
		 M842.91,98.51c0.08,0.01,0.17,0.02,0.25,0.02C843.08,98.53,843,98.52,842.91,98.51z M844.7,98.17c-0.26,0.11-0.51,0.2-0.76,0.26
		C844.19,98.37,844.44,98.28,844.7,98.17z M843.93,98.44c-0.24,0.06-0.47,0.09-0.69,0.09C843.46,98.52,843.69,98.49,843.93,98.44z
		 M842.79,98.49c-0.12-0.02-0.24-0.05-0.36-0.1C842.54,98.44,842.66,98.47,842.79,98.49z M841.66,104.37
		c-0.05,0.01-0.11,0.02-0.16,0.03C841.55,104.4,841.6,104.38,841.66,104.37z M842.63,104.1c-0.03,0.01-0.06,0.02-0.09,0.03
		C842.57,104.12,842.6,104.11,842.63,104.1z M847.6,101.24c-0.02,0.02-0.05,0.04-0.07,0.05
		C847.55,101.28,847.57,101.26,847.6,101.24z M846.32,102.16c-0.06,0.04-0.12,0.08-0.18,0.12
		C846.2,102.24,846.26,102.2,846.32,102.16z M845,102.98c-0.07,0.04-0.14,0.08-0.21,0.12C844.86,103.06,844.93,103.02,845,102.98z
		 M843.73,103.65c-0.05,0.02-0.09,0.04-0.13,0.06C843.64,103.69,843.68,103.68,843.73,103.65z M844.76,98.14
		c0.25-0.11,0.52-0.25,0.78-0.41C845.27,97.89,845.01,98.03,844.76,98.14z M845.64,97.67c0.26-0.16,0.53-0.34,0.8-0.54
		C846.17,97.33,845.9,97.51,845.64,97.67z M846.57,97.03c0.27-0.2,0.55-0.43,0.83-0.67C847.12,96.61,846.84,96.83,846.57,97.03z
		 M847.54,96.25c0.28-0.25,0.57-0.51,0.86-0.79C848.11,95.74,847.83,96,847.54,96.25z M848.54,95.33c0.3-0.29,0.6-0.59,0.9-0.91
		C849.14,94.73,848.84,95.04,848.54,95.33z M858.54,81.39c-0.28,0.52-0.56,1.03-0.86,1.54C857.97,82.42,858.26,81.9,858.54,81.39z
		 M857.61,83.06c-0.28,0.49-0.56,0.97-0.85,1.45C857.05,84.03,857.33,83.54,857.61,83.06z M856.64,84.7
		c-0.28,0.47-0.57,0.93-0.86,1.38C856.07,85.63,856.36,85.17,856.64,84.7z M855.64,86.31c-0.29,0.45-0.58,0.9-0.88,1.33
		C855.05,87.2,855.35,86.76,855.64,86.31z M854.61,87.86c-0.3,0.44-0.6,0.87-0.9,1.29C854.01,88.73,854.31,88.3,854.61,87.86z
		 M853.57,89.34c-0.31,0.43-0.62,0.85-0.93,1.26C852.95,90.19,853.26,89.77,853.57,89.34z M852.54,90.74
		c-0.32,0.42-0.65,0.84-0.97,1.23C851.89,91.57,852.22,91.16,852.54,90.74z M851.53,92.02c-0.33,0.4-0.65,0.79-0.98,1.16
		C850.87,92.81,851.2,92.42,851.53,92.02z M850.5,93.25c-0.32,0.37-0.63,0.71-0.95,1.05C849.86,93.96,850.18,93.61,850.5,93.25z
		 M859.99,86.96c-0.09,0.14-0.17,0.27-0.26,0.41C859.82,87.24,859.91,87.1,859.99,86.96z M846.75,36.64
		c-0.01-0.01-0.02-0.01-0.04-0.02C846.73,36.63,846.74,36.63,846.75,36.64z M846.64,36.6c-0.01,0-0.02,0-0.03,0
		c0.01,0,0.01-0.01,0.02-0.01C846.63,36.6,846.64,36.6,846.64,36.6z M846.41,36.67C846.41,36.67,846.41,36.68,846.41,36.67
		C846.41,36.68,846.41,36.67,846.41,36.67z M846.18,36.87c-0.01,0.01-0.02,0.02-0.04,0.04C846.15,36.9,846.17,36.89,846.18,36.87z
		 M845.91,37.2c-0.01,0.02-0.03,0.04-0.04,0.06C845.88,37.25,845.9,37.23,845.91,37.2z M845.64,37.66
		c-0.01,0.02-0.02,0.03-0.02,0.05C845.63,37.69,845.63,37.68,845.64,37.66z M845.42,38.16c-0.01,0.02-0.02,0.04-0.02,0.05
		C845.4,38.19,845.41,38.18,845.42,38.16z M845.23,38.73c-0.01,0.03-0.02,0.07-0.03,0.1C845.21,38.8,845.22,38.76,845.23,38.73z
		 M845.09,39.38c0,0.03-0.01,0.06-0.01,0.1C845.09,39.45,845.09,39.41,845.09,39.38z M839.8,104.35c-0.05-0.02-0.1-0.04-0.15-0.06
		C839.7,104.31,839.75,104.33,839.8,104.35z M839.41,104.15c-0.04-0.02-0.08-0.04-0.11-0.07
		C839.33,104.11,839.37,104.13,839.41,104.15z M840.56,104.48c0.06,0,0.11,0.01,0.17,0c-0.02,0-0.04,0.01-0.05,0.01
		C840.64,104.49,840.61,104.48,840.56,104.48z M840.07,104.42c0.06,0.01,0.12,0.02,0.18,0.03
		C840.19,104.44,840.13,104.43,840.07,104.42z M848.88,100.21c0.08-0.07,0.16-0.13,0.24-0.2
		C849.04,100.08,848.96,100.14,848.88,100.21z M850.42,98.85c0.08-0.07,0.16-0.15,0.24-0.23C850.58,98.7,850.5,98.78,850.42,98.85z
		 M852.03,97.28c0.02-0.03,0.05-0.05,0.07-0.08C852.08,97.22,852.06,97.25,852.03,97.28z M858.37,89.46
		c-0.05,0.07-0.09,0.13-0.14,0.2C858.28,89.59,858.32,89.52,858.37,89.46z M856.89,91.53c-0.06,0.08-0.12,0.16-0.18,0.24
		C856.77,91.7,856.83,91.61,856.89,91.53z M855.32,93.55c-0.09,0.11-0.18,0.22-0.27,0.33C855.14,93.77,855.23,93.66,855.32,93.55z
		 M853.68,95.49c-0.07,0.08-0.14,0.16-0.21,0.24C853.54,95.65,853.61,95.57,853.68,95.49z M861.3,84.77
		c0.07-0.13,0.15-0.26,0.22-0.39C861.45,84.51,861.38,84.64,861.3,84.77z"/>
	<path class="st0" d="M764.65,167.18c-1.29-2.46-3.55-4.27-6.23-4.99c-0.86-0.23-1.74-0.35-2.62-0.35c-1.85,0-3.68,0.51-5.28,1.51
		l-0.73,0.46c-2.14,1.34-4.56,2.86-6.29,2.98c-2.04-0.68-5.78-5.3-5.78-8.44c0-1.96,0.31-3.96,0.67-6.28
		c0.45-2.91,0.95-6.2,0.95-10.1c0-7.24-2.21-13.38-6.31-17.73c0.59-0.66,1.16-1.33,1.7-2.02c6.18-2.7,6.68-8.19,6.68-9.86
		c0-0.48-0.04-0.93-0.09-1.37c13.04-2,21.79-13.79,23.65-18.34c1.01-2.47,0.99-5.24-0.05-7.69c-1.04-2.45-3.02-4.39-5.5-5.38
		l-0.9-0.36c-1.2-0.48-2.46-0.71-3.71-0.71c-2.53,0-5.02,0.96-6.92,2.78c-1.42,1.36-4.64,3.52-7.21,3.52
		c-1.34,0-3.22-2.27-5.74-5.47c-1.35-1.71-2.94-3.73-4.86-5.64c2.88-1.8,5.78-4.23,7.96-8.06c0.02-0.03,0.04-0.07,0.06-0.1
		c2.58-4.67,2.81-10,0.63-14.64c-0.65-1.38-1.49-2.64-2.49-3.77c0.14-0.3,0.27-0.6,0.39-0.91c1.55-4.06,0.88-8.48-1.8-11.84
		c-0.03-0.04-0.06-0.07-0.09-0.11c-3.42-4.15-12.32-8.59-18.96-10.66c-0.98-0.31-1.99-0.45-2.98-0.45c-3.44,0-6.73,1.78-8.58,4.86
		l-0.81,1.35c-1.45,2.42-1.81,5.35-0.99,8.05c0.27,0.89,0.66,1.74,1.16,2.51c-2.51,2.18-4.94,5.3-5.57,9.8
		c-7.03,0.9-10.69,8.79-10.69,13.13c0,2.09,0.44,4.78,3.63,10.2c0.03,0.06,0.07,0.12,0.1,0.17c0.58,0.94,1.36,2.2,2.38,3.49
		c-2.11,3.16-3.88,6.37-5.23,9.56c-1.07,1.09-2.49,2.95-3.03,5.67c-0.06,0.31-0.11,0.63-0.14,0.95c-0.68,6.74,5.43,12.36,6.97,13.65
		l0.12,0.11c1.02,0.92,3.71,3.36,8.08,3.36c5.59,0,11.62-4.79,11.62-12.52c0-1.54,0.4-3.26,0.94-4.7c0.77,1.83,1.77,4.16,3.22,6.54
		c-1.37,1.03-2.5,2.39-3.2,4.04l-1.08,2.52c-1.11,2.6-1.07,5.52,0.08,8.06c-1.43,1.81-3.69,4.34-7.23,7.71
		c-0.19,0.18-0.45,0.38-0.79,0.63c-1.52,1.13-4.63,3.44-5.9,8.05c-0.88,0.33-1.72,0.79-2.49,1.36l-1.8,1.35
		c-2.29,1.72-3.74,4.34-3.97,7.19c-0.19,2.31,0.43,4.59,1.72,6.47c-0.14,0.28-0.27,0.57-0.38,0.87c-0.93,2.44-1.99,4.64-2.71,6
		c-0.9,0.53-1.9,1.3-2.82,2.39c-3.67,4.41-3.29,12.06-0.67,16.19c0.42,0.67,0.91,1.28,1.44,1.83c-0.83,1.68-1.17,3.58-0.97,5.48
		c0.3,2.75,1.72,5.26,3.93,6.92l0.72,0.54c1.79,1.34,3.9,2.01,6.01,2.01c2.36,0,4.72-0.83,6.6-2.49c5.52-4.85,9.37-9.72,11.87-15.13
		c3.7,10.19,12.76,20.5,24.91,20.5c11.95,0,19.85-7.03,24.1-10.8c3.44-3.06,4.35-8.06,2.21-12.13L764.65,167.18z M709.1,153.85
		c0.02,0,0.05-0.01,0.07-0.01c0.16,0,0.32,0.02,0.48,0.02C709.46,153.86,709.28,153.85,709.1,153.85z M710.09,160.21
		c-0.15-0.02-0.28-0.03-0.4-0.03C709.81,160.18,709.94,160.19,710.09,160.21z M701.47,159.58c-0.19,0.09-0.38,0.18-0.56,0.26
		C701.09,159.75,701.28,159.67,701.47,159.58z M700.63,159.96c-0.18,0.08-0.35,0.15-0.51,0.21
		C700.29,160.11,700.45,160.04,700.63,159.96z M699.93,160.25c-0.21,0.08-0.41,0.16-0.58,0.22
		C699.52,160.41,699.72,160.34,699.93,160.25z M699.28,160.49c-0.15,0.05-0.28,0.09-0.41,0.13
		C698.99,160.59,699.13,160.54,699.28,160.49z M698.74,160.65c-0.09,0.02-0.17,0.04-0.25,0.06
		C698.57,160.7,698.65,160.68,698.74,160.65z M698.38,160.73c-0.07,0.01-0.13,0.02-0.18,0.02
		C698.25,160.74,698.31,160.74,698.38,160.73z M698.12,160.75c-0.09,0-0.16-0.01-0.22-0.04
		C697.96,160.73,698.03,160.75,698.12,160.75z M697.88,160.7c-0.04-0.02-0.07-0.05-0.09-0.09
		C697.8,160.64,697.83,160.67,697.88,160.7z M697.77,160.44c-0.01,0.05-0.01,0.1,0.01,0.15
		C697.76,160.55,697.76,160.5,697.77,160.44z M697.78,160.4c0.01-0.06,0.03-0.12,0.06-0.18
		C697.81,160.29,697.79,160.35,697.78,160.4z M702.82,158.92c0.36-0.18,0.74-0.37,1.14-0.59
		C703.55,158.55,703.17,158.74,702.82,158.92z M701.8,159.42c0.21-0.1,0.44-0.21,0.68-0.33
		C702.24,159.21,702.01,159.32,701.8,159.42z M695.48,167c0.04-0.03,0.09-0.06,0.13-0.1C695.56,166.94,695.52,166.97,695.48,167z
		 M720.17,55.85c0.2,0.02,0.4,0.05,0.59,0.1C720.56,55.9,720.37,55.87,720.17,55.85c-0.2-0.02-0.41-0.03-0.61-0.03
		C719.76,55.82,719.96,55.83,720.17,55.85z M720.2,51.71c0.04-0.01,0.09-0.01,0.13-0.02C720.29,51.7,720.24,51.71,720.2,51.71z
		 M721.52,51.5c0.14-0.02,0.28-0.03,0.41-0.04C721.8,51.47,721.66,51.48,721.52,51.5z M722.14,56.46c-0.2-0.11-0.39-0.2-0.59-0.27
		C721.75,56.26,721.94,56.35,722.14,56.46z M721.37,56.12c-0.15-0.05-0.29-0.1-0.44-0.13C721.08,56.03,721.23,56.07,721.37,56.12z
		 M718.73,55.85c-0.21,0.02-0.41,0.04-0.63,0.06c-0.22,0.03-0.45,0.06-0.68,0.1c0.23-0.03,0.46-0.07,0.68-0.1
		C718.31,55.89,718.52,55.87,718.73,55.85z M718.42,52.13c0.15-0.04,0.29-0.08,0.44-0.11C718.71,52.06,718.57,52.1,718.42,52.13z
		 M719.37,55.82c-0.15,0-0.3,0.01-0.46,0.02C719.07,55.83,719.22,55.82,719.37,55.82z M722.87,51.4c0.09,0,0.18-0.02,0.27-0.02
		c0.09,0,0.18,0.01,0.28,0.01C723.24,51.39,723.06,51.4,722.87,51.4z M717.47,52.39c-0.25,0.07-0.5,0.14-0.74,0.2
		C716.98,52.52,717.22,52.46,717.47,52.39z M711.74,53.36c-0.03-0.01-0.06-0.02-0.08-0.03C711.69,53.34,711.71,53.35,711.74,53.36z
		 M711.22,53.11c-0.02-0.01-0.04-0.03-0.06-0.05C711.19,53.08,711.21,53.09,711.22,53.11z M710.84,52.68
		c-0.01-0.02-0.01-0.03-0.02-0.05C710.83,52.65,710.84,52.67,710.84,52.68z M715.93,52.82c-0.4,0.11-0.8,0.22-1.17,0.31
		C715.13,53.03,715.52,52.93,715.93,52.82z M714.56,53.17c-0.29,0.07-0.58,0.13-0.85,0.17C713.98,53.3,714.26,53.24,714.56,53.17z
		 M713.39,53.39c-0.23,0.03-0.44,0.05-0.65,0.06C712.95,53.44,713.17,53.42,713.39,53.39z M712.38,53.45c-0.03,0-0.06,0-0.1,0
		C712.32,53.45,712.35,53.45,712.38,53.45z M717.15,56.05c-0.18,0.03-0.37,0.06-0.56,0.09C716.79,56.11,716.97,56.08,717.15,56.05z
		 M714.12,56.43c0.08,0,0.16-0.01,0.23-0.02C714.28,56.42,714.2,56.43,714.12,56.43z M714.92,56.37c0.07-0.01,0.14-0.01,0.22-0.02
		C715.06,56.35,714.99,56.36,714.92,56.37z M723.69,51.41c0.33,0.02,0.65,0.05,0.97,0.1C724.34,51.45,724.02,51.42,723.69,51.41z
		 M700.06,68.78c0.04,0.07,0.09,0.14,0.13,0.21C700.14,68.92,700.1,68.85,700.06,68.78z M700.62,69.64
		c0.03,0.04,0.05,0.08,0.08,0.12C700.68,69.71,700.65,69.67,700.62,69.64z M701.19,70.41c0.04,0.05,0.08,0.1,0.12,0.16
		C701.27,70.51,701.23,70.46,701.19,70.41z M701.71,71.03c0.04,0.04,0.07,0.08,0.11,0.12C701.78,71.11,701.75,71.07,701.71,71.03z
		 M702.3,71.6c0.04,0.03,0.07,0.06,0.11,0.09C702.38,71.66,702.34,71.63,702.3,71.6z M702.82,71.97c0.04,0.03,0.08,0.05,0.13,0.08
		C702.9,72.02,702.86,71.99,702.82,71.97z M703.46,72.26c0.03,0.01,0.06,0.01,0.09,0.02C703.51,72.27,703.48,72.27,703.46,72.26z
		 M704,72.34c0.05,0,0.11,0,0.16,0c-0.03,0-0.06,0.01-0.08,0.01C704.05,72.35,704.03,72.34,704,72.34z M704.43,72.31
		c0.06-0.01,0.13-0.02,0.19-0.03C704.56,72.29,704.49,72.3,704.43,72.31z M704.91,72.19c0.06-0.02,0.12-0.04,0.19-0.07
		C705.04,72.15,704.97,72.16,704.91,72.19z M705.43,71.95c0.06-0.03,0.11-0.06,0.17-0.09C705.54,71.89,705.49,71.92,705.43,71.95z
		 M706.36,80.67c0.02,0,0.04-0.01,0.06-0.02C706.4,80.66,706.38,80.66,706.36,80.67z M707.82,79.66c-0.1,0.07-0.19,0.14-0.28,0.2
		C707.63,79.8,707.72,79.73,707.82,79.66z M707.38,79.98c-0.12,0.09-0.24,0.18-0.34,0.25C707.14,80.16,707.25,80.07,707.38,79.98z
		 M706.88,80.35c-0.05,0.04-0.1,0.07-0.15,0.1C706.78,80.42,706.82,80.39,706.88,80.35z M706.61,80.54
		c-0.04,0.02-0.07,0.04-0.1,0.06C706.54,80.58,706.57,80.56,706.61,80.54z M711.41,77.56c-0.13,0.06-0.26,0.11-0.39,0.17
		C711.15,77.67,711.28,77.61,711.41,77.56z M710.71,77.88c-0.12,0.06-0.25,0.12-0.36,0.18C710.47,78,710.59,77.94,710.71,77.88z
		 M710.05,78.23c-0.12,0.06-0.23,0.13-0.35,0.2C709.82,78.36,709.93,78.29,710.05,78.23z M709.43,78.59
		c-0.11,0.07-0.22,0.13-0.33,0.2C709.2,78.73,709.31,78.66,709.43,78.59z M708.84,78.96c-0.1,0.07-0.21,0.14-0.31,0.2
		C708.63,79.1,708.74,79.03,708.84,78.96z M708.3,79.32c-0.1,0.07-0.2,0.14-0.29,0.2C708.11,79.46,708.21,79.39,708.3,79.32z
		 M713.67,76.89c-0.16,0.03-0.33,0.05-0.49,0.08C713.34,76.93,713.5,76.91,713.67,76.89z M712.88,77.05
		c-0.15,0.04-0.29,0.07-0.44,0.12C712.59,77.12,712.73,77.09,712.88,77.05z M712.13,77.28c-0.14,0.05-0.28,0.09-0.41,0.15
		C711.86,77.37,712,77.32,712.13,77.28z M714.67,76.8c-0.25,0-0.5,0.02-0.75,0.05C714.17,76.81,714.42,76.8,714.67,76.8z
		 M714.43,79.99c-0.15-0.02-0.31-0.02-0.47-0.03C714.11,79.97,714.28,79.98,714.43,79.99z M718.14,81.85
		c-0.1-0.1-0.21-0.2-0.31-0.29C717.94,81.66,718.04,81.75,718.14,81.85z M717.53,81.29c-0.11-0.09-0.22-0.17-0.34-0.25
		C717.31,81.12,717.42,81.2,717.53,81.29z M716.86,80.82c-0.12-0.07-0.24-0.13-0.37-0.2C716.62,80.68,716.74,80.74,716.86,80.82z
		 M716.12,80.44c-0.13-0.05-0.26-0.1-0.4-0.14C715.86,80.34,716,80.38,716.12,80.44z M715.32,80.16c-0.14-0.04-0.29-0.06-0.44-0.09
		C715.03,80.1,715.18,80.12,715.32,80.16z M723.38,92.11c-0.09-0.19-0.19-0.39-0.28-0.58C723.19,91.72,723.28,91.91,723.38,92.11z
		 M722.92,91.13c-0.09-0.21-0.19-0.41-0.28-0.62C722.73,90.72,722.82,90.92,722.92,91.13z M722.5,90.19
		c-0.1-0.24-0.21-0.48-0.31-0.71C722.29,89.71,722.4,89.95,722.5,90.19z M722.18,89.44c-0.36-0.85-0.7-1.68-1.04-2.48
		C721.48,87.76,721.82,88.6,722.18,89.44z M721.01,86.66c-0.09-0.2-0.17-0.38-0.26-0.58C720.84,86.27,720.92,86.46,721.01,86.66z
		 M720.59,85.72c-0.08-0.17-0.16-0.34-0.25-0.51C720.42,85.38,720.51,85.55,720.59,85.72z M720.15,84.83
		c-0.08-0.16-0.17-0.31-0.25-0.47C719.99,84.52,720.07,84.67,720.15,84.83z M719.7,83.99c-0.08-0.15-0.17-0.28-0.26-0.42
		C719.53,83.71,719.62,83.85,719.7,83.99z M719.22,83.21c-0.09-0.13-0.18-0.26-0.27-0.38C719.04,82.96,719.13,83.08,719.22,83.21z
		 M718.7,82.5c-0.09-0.12-0.19-0.23-0.29-0.34C718.51,82.27,718.61,82.38,718.7,82.5z M734.34,101.03c0.32,0.05,0.66,0.08,0.99,0.12
		C734.99,101.12,734.65,101.08,734.34,101.03z M735.87,101.21c0.53,0.04,1.09,0.06,1.66,0.06
		C736.95,101.28,736.4,101.25,735.87,101.21z M726.7,97.13c0.14,0.15,0.29,0.28,0.43,0.42C726.98,97.41,726.83,97.27,726.7,97.13z
		 M727.51,97.91c0.15,0.13,0.32,0.26,0.48,0.39C727.83,98.17,727.66,98.05,727.51,97.91z M732.93,100.74
		c0.27,0.07,0.55,0.12,0.83,0.17C733.48,100.86,733.2,100.81,732.93,100.74z M715.68,127.58c0,0.02,0,0.03,0,0.04
		C715.67,127.6,715.67,127.59,715.68,127.58z M716.03,126.97c-0.03,0.03-0.05,0.06-0.07,0.09
		C715.98,127.03,716.01,127,716.03,126.97z M715.78,127.33c-0.01,0.01-0.02,0.02-0.02,0.04
		C715.77,127.35,715.78,127.34,715.78,127.33z M715.69,127.73c0,0.01,0,0.02,0.01,0.02C715.7,127.74,715.69,127.74,715.69,127.73z
		 M716.12,130.1c-0.07,0-0.15,0-0.22,0.01C715.98,130.11,716.05,130.11,716.12,130.1z M715.81,127.81c0.01,0,0.02,0,0.04,0
		C715.83,127.82,715.82,127.82,715.81,127.81z M715.96,127.82c0.06,0,0.12-0.01,0.19-0.03C716.07,127.8,716.01,127.82,715.96,127.82
		z M713.35,131.29c-0.05,0.04-0.09,0.08-0.14,0.13C713.26,131.37,713.31,131.34,713.35,131.29z M711.73,154.22
		c-0.29-0.08-0.58-0.15-0.88-0.2C711.15,154.07,711.44,154.14,711.73,154.22z M710.65,153.98c-0.23-0.04-0.45-0.07-0.68-0.1
		C710.2,153.91,710.42,153.95,710.65,153.98z M712.59,154.49c-0.21-0.07-0.42-0.14-0.63-0.2
		C712.17,154.35,712.38,154.41,712.59,154.49z M717.38,130.21c0.33,0.06,0.67,0.15,1.02,0.26
		C718.05,130.36,717.71,130.27,717.38,130.21z M718.02,158.11c-0.01-0.05-0.03-0.1-0.06-0.15
		C717.99,158.01,718,158.06,718.02,158.11z M717.88,157.84c-0.04-0.06-0.08-0.11-0.13-0.18
		C717.8,157.73,717.84,157.78,717.88,157.84z M717.63,157.53c-0.06-0.06-0.12-0.13-0.19-0.2
		C717.51,157.4,717.57,157.46,717.63,157.53z M716.34,130.1c0.31,0,0.62,0.04,0.94,0.09C716.96,130.14,716.65,130.1,716.34,130.1z
		 M717.27,157.17c-0.08-0.07-0.16-0.14-0.24-0.21C717.11,157.03,717.19,157.1,717.27,157.17z M716.81,156.79
		c-0.09-0.07-0.19-0.15-0.29-0.22C716.62,156.64,716.72,156.71,716.81,156.79z M716.27,156.38c-0.11-0.08-0.22-0.15-0.34-0.23
		C716.05,156.23,716.16,156.3,716.27,156.38z M715.65,155.97c-0.12-0.08-0.25-0.15-0.38-0.23
		C715.4,155.82,715.52,155.89,715.65,155.97z M714.96,155.56c-0.14-0.08-0.28-0.15-0.42-0.22
		C714.68,155.41,714.82,155.49,714.96,155.56z M714.21,155.17c-0.15-0.07-0.31-0.14-0.46-0.21
		C713.91,155.03,714.06,155.1,714.21,155.17z M713.42,154.81c-0.17-0.07-0.34-0.14-0.51-0.2
		C713.08,154.67,713.25,154.74,713.42,154.81z M713.64,131.04c0.06-0.05,0.12-0.08,0.17-0.13
		C713.76,130.96,713.7,130.99,713.64,131.04z M714.08,130.73c0.06-0.04,0.13-0.07,0.19-0.11
		C714.21,130.66,714.15,130.69,714.08,130.73z M714.53,130.48c0.07-0.03,0.13-0.06,0.2-0.08
		C714.66,130.43,714.59,130.45,714.53,130.48z M714.98,130.3c0.07-0.02,0.14-0.04,0.21-0.06
		C715.11,130.26,715.05,130.28,714.98,130.3z M715.44,130.18c0.07-0.01,0.14-0.02,0.21-0.03
		C715.58,130.16,715.51,130.17,715.44,130.18z M716.23,127.77c0.1-0.03,0.21-0.07,0.33-0.12
		C716.44,127.7,716.34,127.74,716.23,127.77z M718.44,127.32c0.08,0,0.16,0.01,0.23,0.01c-0.14-0.01-0.27,0-0.4,0
		C718.33,127.33,718.38,127.32,718.44,127.32z M717.64,127.39c-0.09,0.01-0.17,0.02-0.26,0.04
		C717.47,127.41,717.56,127.4,717.64,127.39z M723.94,129.54c-0.4-0.27-0.77-0.5-1.13-0.72
		C723.17,129.04,723.54,129.27,723.94,129.54z M722.53,128.66c-0.32-0.18-0.63-0.35-0.93-0.49
		C721.89,128.31,722.2,128.47,722.53,128.66z M721.52,128.12c-0.32-0.15-0.61-0.27-0.9-0.37
		C720.91,127.85,721.2,127.97,721.52,128.12z M720.4,127.67c-0.25-0.08-0.48-0.15-0.71-0.2
		C719.92,127.52,720.16,127.59,720.4,127.67z M719.58,127.44c-0.26-0.05-0.5-0.09-0.74-0.1
		C719.08,127.36,719.33,127.39,719.58,127.44z M726.35,96.74c-0.13-0.15-0.27-0.3-0.39-0.45C726.08,96.44,726.22,96.59,726.35,96.74
		z M725.64,95.88c-0.12-0.16-0.25-0.32-0.36-0.48C725.4,95.56,725.52,95.72,725.64,95.88z M725,94.98
		c-0.11-0.17-0.23-0.33-0.33-0.51C724.77,94.64,724.89,94.81,725,94.98z M724.41,94.04c-0.1-0.18-0.21-0.35-0.31-0.53
		C724.2,93.69,724.31,93.86,724.41,94.04z M723.87,93.08c-0.1-0.18-0.2-0.37-0.29-0.55C723.68,92.71,723.78,92.9,723.87,93.08z
		 M699.33,59.64c-0.02,0-0.04,0-0.06,0c0.02,0,0.03-0.01,0.05-0.01C699.33,59.63,699.33,59.64,699.33,59.64z M699.22,59.65
		c-0.03,0.01-0.05,0.03-0.08,0.04C699.16,59.68,699.19,59.66,699.22,59.65z M699.08,59.73c-0.03,0.02-0.07,0.05-0.1,0.08
		C699.01,59.78,699.05,59.75,699.08,59.73z M698.92,59.86c-0.05,0.04-0.1,0.09-0.14,0.15C698.83,59.95,698.88,59.9,698.92,59.86z
		 M698.76,60.03c-0.06,0.06-0.11,0.13-0.17,0.21C698.64,60.16,698.7,60.09,698.76,60.03z M698.53,60.31
		c-0.04,0.05-0.08,0.11-0.12,0.17C698.45,60.42,698.49,60.36,698.53,60.31z M698.34,60.57c-0.04,0.05-0.07,0.11-0.11,0.16
		C698.27,60.68,698.3,60.63,698.34,60.57z M698.16,60.85c-0.03,0.05-0.07,0.11-0.1,0.16C698.09,60.96,698.13,60.9,698.16,60.85z
		 M697.32,62.68c-0.01,0.06-0.02,0.12-0.02,0.17C697.3,62.8,697.31,62.74,697.32,62.68z M697.99,61.13
		c-0.03,0.05-0.06,0.11-0.09,0.16C697.93,61.24,697.96,61.19,697.99,61.13z M697.83,61.42c-0.03,0.05-0.06,0.11-0.08,0.16
		C697.77,61.53,697.8,61.47,697.83,61.42z M697.68,61.71c-0.03,0.05-0.05,0.11-0.07,0.16C697.63,61.81,697.66,61.76,697.68,61.71z
		 M697.56,61.98c-0.02,0.05-0.04,0.1-0.06,0.15C697.51,62.08,697.53,62.03,697.56,61.98z M697.45,62.24
		c-0.02,0.05-0.03,0.1-0.05,0.14C697.42,62.34,697.43,62.29,697.45,62.24z M697.37,62.47c-0.01,0.05-0.02,0.09-0.03,0.14
		C697.35,62.57,697.36,62.52,697.37,62.47z M695.22,167.18c-0.05,0.03-0.11,0.05-0.16,0.08
		C695.11,167.24,695.16,167.21,695.22,167.18z M693.16,166.79c0.07,0.12,0.16,0.22,0.25,0.3
		C693.32,167.01,693.24,166.91,693.16,166.79z M694.2,167.43c0.07,0.01,0.13,0.01,0.2,0c-0.03,0-0.05,0.01-0.08,0.01
		C694.28,167.45,694.24,167.43,694.2,167.43z M693.51,167.17c0.07,0.05,0.13,0.1,0.2,0.13
		C693.65,167.27,693.58,167.22,693.51,167.17z M693.85,167.35c0.07,0.03,0.14,0.05,0.21,0.06
		C693.98,167.4,693.91,167.38,693.85,167.35z M694.81,167.36c-0.06,0.02-0.11,0.03-0.17,0.04
		C694.7,167.39,694.75,167.38,694.81,167.36z M709.6,160.18c-0.13,0-0.24,0.01-0.33,0.05C709.36,160.19,709.47,160.18,709.6,160.18z
		 M710.1,160.21c0.15,0.02,0.32,0.05,0.49,0.09C710.41,160.26,710.25,160.23,710.1,160.21z M710.72,160.33
		c0.15,0.03,0.31,0.07,0.47,0.11C711.03,160.4,710.88,160.36,710.72,160.33z M711.26,160.45c0.21,0.05,0.42,0.1,0.63,0.16
		C711.68,160.56,711.47,160.5,711.26,160.45z M712.39,160.73c0.04,0.01,0.09,0.02,0.13,0.03
		C712.48,160.76,712.44,160.75,712.39,160.73z M713.07,160.89c0.04,0.01,0.08,0.01,0.11,0.02
		C713.14,160.9,713.1,160.9,713.07,160.89z M713.59,160.98c0.04,0.01,0.08,0.01,0.12,0.02C713.67,161,713.63,160.99,713.59,160.98z
		 M714.13,161.03c0.02,0,0.04,0,0.07,0c-0.02,0-0.03,0.01-0.04,0.01C714.15,161.03,714.14,161.03,714.13,161.03z M714.47,161
		c0.03-0.01,0.05-0.01,0.08-0.02C714.52,160.99,714.49,160.99,714.47,161z M718,158.34c0.04-0.04,0.05-0.09,0.04-0.16
		C718.05,158.24,718.04,158.3,718,158.34z M719.64,130.91c0.4,0.16,0.81,0.33,1.24,0.52C720.45,131.24,720.04,131.07,719.64,130.91z
		 M718.48,130.49c0.36,0.11,0.73,0.25,1.12,0.4C719.21,130.74,718.84,130.61,718.48,130.49z"/>
	<path class="st0" d="M668.23,58.16c2.69-0.75,6.12-2.87,7.87-8.64c0.29-0.96,0.97-3.44,0.97-5.66c0-3.02-0.99-6.84-8.3-12.26
		c-2.98-2.21-7.9-5.26-14.38-7.28c-0.97-0.3-1.97-0.45-2.97-0.45c-1.95,0-3.89,0.57-5.55,1.68l-1.62,1.08
		c-2.39,1.59-3.98,4.14-4.36,6.98c-0.07,0.54-0.1,1.07-0.09,1.61c-4.12,2.94-8.63,7.46-10.8,14.39c-1.58,4.99-0.91,10.39,1.91,15.17
		c0.14,0.24,0.29,0.47,0.43,0.71c-0.13,0-0.26-0.01-0.39-0.01c-4.69,0-8.59,3.19-10.43,6.42c-2.85,4.9-1.6,10.42-0.04,14.2
		c2.61,6.26,8.04,9.97,14.56,9.97c1.23,0,2.36-0.2,3.41-0.55c0.13,0.22,0.27,0.43,0.41,0.63c-4.25,2.13-9.06,2.68-12.91,2.68
		c-2.88,0-5.62,1.24-7.51,3.4s-2.77,5.04-2.4,7.89l0.27,2.07c0.58,4.49,4.11,8.02,8.6,8.62c2.19,0.29,4.39,0.44,6.54,0.44
		c18.24,0,34.32-10.72,43.02-28.67c3.02-6.29,6.55-15.66,2.49-24.69C675,63.57,671.8,60.45,668.23,58.16z M645.06,52.36
		c0.07-0.11,0.14-0.23,0.22-0.34C645.2,52.13,645.13,52.24,645.06,52.36z M644.44,53.51c0.06-0.12,0.12-0.24,0.18-0.35
		C644.55,53.27,644.49,53.39,644.44,53.51z M659.71,46.84c-0.1-0.02-0.22-0.04-0.32-0.06C659.49,46.8,659.6,46.82,659.71,46.84z
		 M658.73,46.66c-0.13-0.02-0.28-0.03-0.41-0.05C658.45,46.63,658.59,46.64,658.73,46.66z M657.67,46.56
		c-0.15-0.01-0.31-0.01-0.46-0.02C657.37,46.55,657.52,46.55,657.67,46.56z M656.53,46.54c-0.12,0-0.24,0.01-0.35,0.01
		C656.3,46.54,656.41,46.54,656.53,46.54z M655.38,46.6c-0.11,0.01-0.21,0.02-0.32,0.03C655.17,46.62,655.27,46.61,655.38,46.6z
		 M653.94,46.79c-0.04,0.01-0.09,0.02-0.13,0.03C653.85,46.81,653.89,46.79,653.94,46.79z M652.8,47.04
		c-0.11,0.03-0.23,0.06-0.34,0.09C652.58,47.1,652.69,47.07,652.8,47.04z M651.65,47.38c-0.12,0.04-0.23,0.08-0.34,0.12
		C651.42,47.46,651.53,47.42,651.65,47.38z M650.34,47.89c-0.05,0.02-0.09,0.04-0.14,0.06C650.24,47.93,650.29,47.91,650.34,47.89z
		 M649.14,48.49c-0.09,0.05-0.18,0.11-0.28,0.17C648.95,48.61,649.04,48.55,649.14,48.49z M648.12,49.15
		c-0.11,0.07-0.21,0.15-0.31,0.23C647.91,49.29,648.01,49.22,648.12,49.15z M647.1,49.95c-0.08,0.07-0.15,0.13-0.23,0.2
		C646.94,50.08,647.02,50.02,647.1,49.95z M646.02,51.03c-0.05,0.06-0.1,0.13-0.15,0.19C645.92,51.16,645.97,51.09,646.02,51.03z
		 M651.93,86.87c-0.12-0.02-0.23-0.05-0.33-0.08C651.7,86.82,651.81,86.85,651.93,86.87z M658.91,73.28
		c0.14,0.01,0.27,0.02,0.41,0.04C659.18,73.3,659.05,73.3,658.91,73.28z M657.43,73.24c0.14,0,0.27-0.02,0.41-0.02
		c0.06,0,0.13,0.01,0.19,0.01C657.83,73.23,657.63,73.23,657.43,73.24z M657.85,75.57c-0.05-0.01-0.11-0.01-0.17-0.01
		C657.74,75.56,657.79,75.57,657.85,75.57z M653.01,74.24c0.21-0.09,0.42-0.17,0.63-0.25C653.43,74.07,653.22,74.15,653.01,74.24z
		 M653.99,73.86c0.27-0.09,0.54-0.17,0.81-0.24C654.52,73.7,654.25,73.77,653.99,73.86z M654.98,73.57c0.34-0.08,0.68-0.15,1.02-0.2
		C655.66,73.42,655.32,73.49,654.98,73.57z M656.3,73.33c0.25-0.03,0.5-0.06,0.75-0.08C656.79,73.27,656.55,73.3,656.3,73.33z
		 M657.1,75.59c-0.08,0.01-0.15,0.01-0.23,0.02C656.94,75.59,657.02,75.6,657.1,75.59z M656.02,75.82
		c-0.04,0.01-0.08,0.03-0.12,0.05C655.94,75.85,655.98,75.83,656.02,75.82z M655.14,76.19c-0.1,0.05-0.2,0.11-0.29,0.16
		C654.95,76.3,655.05,76.24,655.14,76.19z M654.27,76.69c-0.11,0.07-0.21,0.15-0.32,0.22C654.05,76.84,654.16,76.77,654.27,76.69z
		 M653.4,77.33c-0.1,0.08-0.21,0.17-0.31,0.26C653.2,77.5,653.3,77.42,653.4,77.33z M652.07,74.68c0.19-0.1,0.39-0.2,0.58-0.29
		C652.46,74.49,652.26,74.58,652.07,74.68z M652.56,78.11c-0.08,0.09-0.17,0.17-0.25,0.25C652.39,78.27,652.47,78.19,652.56,78.11z
		 M651.14,75.22c0.19-0.12,0.38-0.24,0.58-0.35C651.53,74.98,651.33,75.1,651.14,75.22z M649.23,76.65
		c0.25-0.23,0.51-0.44,0.78-0.65C649.74,76.21,649.48,76.43,649.23,76.65z M650.17,75.88c0.22-0.16,0.44-0.32,0.67-0.48
		C650.61,75.56,650.39,75.72,650.17,75.88z M646.11,80.94c0.13-0.29,0.27-0.58,0.42-0.87C646.38,80.35,646.24,80.64,646.11,80.94z
		 M646.69,79.8c0.11-0.19,0.22-0.38,0.34-0.57C646.91,79.41,646.8,79.61,646.69,79.8z M647.24,78.92c0.12-0.17,0.24-0.34,0.37-0.51
		C647.48,78.58,647.36,78.75,647.24,78.92z M647.84,78.11c0.14-0.17,0.28-0.33,0.42-0.49C648.12,77.79,647.98,77.95,647.84,78.11z
		 M648.51,77.36c0.17-0.18,0.34-0.35,0.52-0.52C648.85,77.01,648.68,77.18,648.51,77.36z M650.45,92.81
		c-0.29-0.04-0.57-0.09-0.83-0.17C649.88,92.72,650.16,92.77,650.45,92.81z M651.37,92.84c-0.07,0-0.14,0.01-0.21,0.01
		c-0.15,0-0.28-0.02-0.42-0.03C650.94,92.84,651.15,92.85,651.37,92.84z M652.36,92.75c-0.23,0.03-0.45,0.06-0.67,0.07
		C651.91,92.81,652.13,92.79,652.36,92.75z M652.06,86.88c0.09,0.01,0.18,0.02,0.27,0.02C652.23,86.9,652.15,86.89,652.06,86.88z
		 M659.04,83.47c-0.29,0.3-0.58,0.57-0.88,0.83C658.45,84.04,658.75,83.77,659.04,83.47z M657.98,84.45
		c-0.3,0.25-0.61,0.49-0.92,0.7C657.37,84.94,657.67,84.7,657.98,84.45z M656.96,85.21c-0.3,0.2-0.6,0.38-0.89,0.55
		C656.36,85.6,656.66,85.41,656.96,85.21z M655.95,85.83c-0.3,0.16-0.6,0.3-0.89,0.43C655.35,86.13,655.65,85.99,655.95,85.83z
		 M654.89,86.32c-0.29,0.12-0.56,0.22-0.83,0.3C654.33,86.54,654.6,86.44,654.89,86.32z M653.93,86.66
		c-0.27,0.08-0.52,0.14-0.76,0.18C653.41,86.79,653.66,86.73,653.93,86.66z M653.13,86.84c-0.24,0.04-0.47,0.06-0.68,0.06
		C652.67,86.9,652.89,86.88,653.13,86.84z M660.06,82.29c-0.28,0.37-0.57,0.7-0.87,1.02C659.48,82.99,659.78,82.65,660.06,82.29z
		 M652.19,104.51c-0.21,0.15-0.41,0.3-0.62,0.44C651.78,104.81,651.99,104.66,652.19,104.51z M651.04,105.31
		c-0.21,0.14-0.43,0.28-0.65,0.42C650.61,105.6,650.83,105.46,651.04,105.31z M657.1,91.16c0.33-0.16,0.66-0.33,0.97-0.5
		C657.76,90.83,657.43,91,657.1,91.16z M652.67,92.7c0.29-0.05,0.58-0.11,0.87-0.19C653.24,92.59,652.95,92.65,652.67,92.7z
		 M653.67,92.48c0.34-0.09,0.68-0.2,1.03-0.32C654.35,92.29,654.01,92.39,653.67,92.48z M654.99,92.06c0.25-0.09,0.5-0.18,0.74-0.29
		C655.49,91.88,655.24,91.97,654.99,92.06z M656.08,91.63c0.24-0.1,0.48-0.21,0.71-0.32C656.56,91.42,656.32,91.53,656.08,91.63z
		 M658.83,98.37c-0.23,0.26-0.46,0.52-0.69,0.78C658.37,98.89,658.61,98.63,658.83,98.37z M659.75,97.28
		c-0.18,0.23-0.37,0.45-0.56,0.67C659.38,97.73,659.56,97.5,659.75,97.28z M661.47,95c-0.16,0.22-0.31,0.44-0.47,0.66
		C661.16,95.43,661.31,95.22,661.47,95z M660.62,96.16c-0.17,0.22-0.34,0.44-0.51,0.65C660.29,96.59,660.46,96.38,660.62,96.16z
		 M663.07,92.58c-0.14,0.23-0.29,0.47-0.44,0.7C662.78,93.05,662.92,92.81,663.07,92.58z M662.28,93.8
		c-0.15,0.23-0.3,0.45-0.46,0.68C661.98,94.26,662.13,94.03,662.28,93.8z M663.83,91.3c-0.15,0.25-0.29,0.5-0.44,0.75
		C663.54,91.8,663.68,91.55,663.83,91.3z M630.97,75.48c-0.03,0-0.07,0-0.11,0.01c0.03-0.01,0.07-0.02,0.1-0.02
		C630.96,75.47,630.96,75.48,630.97,75.48z M630.81,75.5c-0.07,0.02-0.14,0.05-0.22,0.08C630.67,75.54,630.75,75.52,630.81,75.5z
		 M630.54,75.61c-0.07,0.03-0.14,0.07-0.21,0.11C630.4,75.68,630.47,75.64,630.54,75.61z M630.24,75.79
		c-0.06,0.04-0.12,0.08-0.19,0.13C630.11,75.87,630.18,75.83,630.24,75.79z M629.95,76c-0.06,0.05-0.12,0.1-0.18,0.16
		C629.83,76.1,629.89,76.05,629.95,76z M629.66,76.26c-0.06,0.06-0.12,0.13-0.17,0.2C629.55,76.39,629.6,76.32,629.66,76.26z
		 M629.41,76.56c-0.08,0.1-0.15,0.21-0.22,0.33C629.25,76.77,629.33,76.66,629.41,76.56z M628.57,111.14
		c0.18,0.01,0.36,0.03,0.53,0.04C628.93,111.17,628.75,111.16,628.57,111.14z M631.44,111.26c-0.03,0-0.05,0-0.08,0
		c0.42,0,0.84-0.01,1.25-0.02C632.23,111.25,631.84,111.26,631.44,111.26z M649.87,106.07c-0.23,0.14-0.46,0.28-0.69,0.41
		C649.41,106.35,649.64,106.21,649.87,106.07z M648.66,106.78c-0.27,0.15-0.55,0.3-0.82,0.44
		C648.12,107.08,648.39,106.94,648.66,106.78z M647.43,107.45c-0.41,0.21-0.83,0.41-1.24,0.61
		C646.6,107.86,647.02,107.66,647.43,107.45z M645.77,108.24c-0.29,0.13-0.58,0.26-0.88,0.38
		C645.19,108.5,645.48,108.37,645.77,108.24z M644.36,108.83c-0.26,0.1-0.52,0.21-0.79,0.3
		C643.84,109.04,644.1,108.93,644.36,108.83z M642.99,109.34c-0.26,0.09-0.51,0.18-0.77,0.26
		C642.48,109.52,642.73,109.43,642.99,109.34z M641.62,109.78c-0.26,0.08-0.52,0.15-0.78,0.23
		C641.1,109.94,641.36,109.86,641.62,109.78z M640.22,110.17c-0.27,0.07-0.53,0.13-0.8,0.19
		C639.69,110.3,639.95,110.24,640.22,110.17z M638.8,110.5c-0.28,0.06-0.56,0.11-0.84,0.16C638.25,110.61,638.53,110.56,638.8,110.5
		z M637.36,110.77c-0.3,0.05-0.6,0.09-0.9,0.13C636.76,110.86,637.06,110.82,637.36,110.77z M635.89,110.99
		c-0.34,0.04-0.69,0.08-1.04,0.11C635.2,111.06,635.55,111.03,635.89,110.99z M634.4,111.14c-0.5,0.04-1.01,0.07-1.52,0.09
		C633.39,111.21,633.9,111.18,634.4,111.14z M652.71,104.13c0.2-0.15,0.4-0.31,0.6-0.46C653.11,103.82,652.91,103.97,652.71,104.13z
		 M653.81,103.26c0.2-0.16,0.4-0.33,0.59-0.49C654.21,102.93,654.01,103.1,653.81,103.26z M654.89,102.35
		c0.2-0.18,0.4-0.36,0.59-0.54C655.28,102,655.09,102.18,654.89,102.35z M655.92,101.41c0.21-0.2,0.43-0.41,0.64-0.62
		C656.35,101,656.14,101.21,655.92,101.41z M656.93,100.43c0.33-0.33,0.65-0.66,0.96-1C657.58,99.77,657.26,100.1,656.93,100.43z
		 M664.11,90.8c0.16-0.28,0.31-0.57,0.46-0.85C664.42,90.24,664.27,90.52,664.11,90.8z M664.8,89.53c0.22-0.43,0.44-0.86,0.65-1.3
		C665.25,88.66,665.03,89.1,664.8,89.53z"/>
	<path class="st0" d="M554.65,93.2c-1.29-2.46-3.55-4.26-6.23-4.99c-0.86-0.23-1.74-0.35-2.62-0.35c-1.85,0-3.68,0.51-5.28,1.51
		l-0.73,0.45c-2.15,1.34-4.57,2.86-6.29,2.98c-2.04-0.67-5.78-5.3-5.78-8.44c0-1.96,0.31-3.96,0.67-6.28
		c0.25-1.63,0.52-3.38,0.71-5.29c0.26,0.05,0.53,0.08,0.8,0.11c0.7,0.07,1.41,0.1,2.11,0.1c8.04,0,14.57-4.2,16.32-10.49
		c1.13-3.94,0.13-8.3-2.83-12.3c-1.6-2.16-5.98-7.19-12.17-7.19c-0.7,0-1.39,0.07-2.07,0.2c-0.39,0.07-0.76,0.15-1.12,0.24
		c1.14-2.12,1.29-4.17,1.29-5.08c0-6.24-4.98-9.39-7.38-10.81l-0.07-0.05c-2.33-1.56-6.24-4.18-12-4.18c-4,0-7.62,2.38-9.19,6.06
		l-1.08,2.52c-1.11,2.6-1.07,5.53,0.08,8.06c-1.43,1.81-3.69,4.35-7.23,7.71c-0.19,0.18-0.46,0.38-0.79,0.63
		c-1.52,1.13-4.63,3.44-5.9,8.05c-0.88,0.33-1.73,0.79-2.5,1.37l-1.8,1.35c-2.29,1.72-3.74,4.34-3.97,7.19
		c-0.19,2.31,0.43,4.59,1.72,6.47c-0.14,0.28-0.27,0.57-0.38,0.87c-0.93,2.44-1.99,4.64-2.71,6c-0.9,0.54-1.91,1.3-2.83,2.41
		c-3.66,4.38-3.29,12.05-0.66,16.17c0.42,0.67,0.91,1.28,1.44,1.83c-0.49,1-0.79,2.09-0.93,3.2c-0.19-0.1-0.37-0.2-0.56-0.28
		c-0.26-2.5-1.45-4.88-3.47-6.59c-3.11-2.64-3.83-4.68-3.97-6.93c0-0.02,0-0.05,0-0.07c-0.21-3.22-0.24-6.01-0.2-8.05
		c3.03-1.54,4.41-4.02,4.95-5.34c1.65-3.99,0.7-8.45-2.48-11.68c-0.19-0.21-0.63-0.79-0.93-1.17c-1.03-1.34-2.3-2.99-3.95-4.38
		c0.12-0.63,0.19-1.3,0.19-2.01c0-6.15-5.54-12.2-12.06-13.98c-0.94-3.43-3.2-6.31-5.09-8.74c-0.38-0.48-0.95-1.21-1.12-1.47
		c-0.12-0.19-0.25-0.37-0.38-0.54c-1.91-2.54-4.95-4.06-8.13-4.06c0,0,0,0-0.01,0c-5.1,0-8.27,3.43-10.69,6.77
		c-3.41,4.69-3.84,7.59-3.84,9.59c0,0.16,0,0.33,0.01,0.49c-6.9,0.04-11.53,6.42-11.53,12.38c0,0.57,0.04,1.13,0.12,1.69
		c-1.34,1.31-2.43,2.78-3.39,4.06c-0.32,0.43-0.8,1.07-1,1.31c-3.15,3.22-4.09,7.67-2.45,11.64c0.51,1.24,1.75,3.49,4.39,5.04
		c0.07,2.33,0.08,5.06,0,6.46c0,0.03,0,0.07-0.01,0.1c-0.2,4.2-0.98,5.58-1.14,5.81c-0.19,0.29-0.69,0.61-1.81,1.29l-0.41,0.25
		c-3.22,1.98-4.95,5.53-4.74,9.11c-0.43,0.46-0.83,0.96-1.18,1.51c-1.76,2.77-2.03,6.23-0.76,9.25l0.72,1.71
		c1.56,3.71,5.19,6.12,9.22,6.12c8.72,0,16.97-3.58,23.23-10.07c2.07-2.15,3.86-4.56,5.34-7.16c6.35,10.55,18.16,17.97,31.35,18.22
		c0.06,0,0.13,0,0.19,0c3.44,0,6.65-1.77,8.48-4.7l0.9-1.44c0.77-1.22,1.23-2.58,1.41-3.97c1.65,1.05,3.52,1.58,5.39,1.58
		c2.36,0,4.72-0.83,6.6-2.49c5.52-4.85,9.37-9.72,11.87-15.13c0.98,2.71,2.35,5.43,4.05,7.96c-2.29,0.74-4.29,2.23-5.62,4.33
		c-2.3,3.61-2.25,8.03,0.13,13.14c0.44,0.96,0.98,1.77,1.53,2.48c-1.89,1.04-3.16,2.43-3.94,3.44c-0.89,0.33-2.04,0.71-2.84,0.95
		c-0.59-0.04-1.56-0.22-2.29-0.37c-1.4-0.27-2.84-0.55-4.45-0.55c-2.79,0-4.84,0.93-6.06,1.72c-3.02,1.93-4.82,5.23-4.82,8.82
		c0,3.04,1.22,5.84,3.71,8.49c-3.39,0.55-6.46,2.74-8.25,5.99c-2.42,4.38-2.13,9.74,0.76,14.34c3.54,5.62,12.31,7.39,15.22,7.39
		c0.3,0,0.59-0.01,0.88-0.03c2.64-0.15,5.96-1.32,8.42-5.47c0.08-0.03,0.15-0.05,0.23-0.08c-2,4.35-4.67,7.78-8.08,9.16
		c-3.34,1.36-5.7,4.41-6.16,7.98c-0.46,3.58,1.04,7.13,3.92,9.29l1.08,0.81c1.74,1.31,3.85,2,5.99,2c0.66,0,1.32-0.07,1.98-0.2
		c6.66-1.35,15.97-5.69,22.54-18.74c3.63-7.2,5.35-14.91,6.34-20.12c0.03-0.14,0.06-0.27,0.09-0.41c6.87-2.77,11.17-4.73,13.93-6.33
		c4.3-2.49,6.12-7.76,4.28-12.37l-0.54-1.35c-1-2.51-2.98-4.5-5.47-5.53c-1.22-0.5-2.52-0.76-3.81-0.76c-1.35,0-2.7,0.27-3.96,0.82
		c-0.78,0.34-1.72,0.72-2.81,1.15c0.01-0.41,0.02-0.77,0.03-1.06c0-0.04,0-0.08,0-0.11c0.01-0.46,0.02-0.88,0.04-1.25
		c2.66-2.18,4.37-5.43,4.37-8.98c0-1.04-0.01-3.21-2.01-6.26c10.01-1.18,16.8-7.19,20.62-10.59c3.44-3.06,4.35-8.06,2.2-12.13
		L554.65,93.2z M449.79,90.66c-0.19-1.16-0.33-2.35-0.42-3.55c-0.06-0.8-0.1-1.61-0.11-2.42c-0.03-1.91-0.06-3.65-0.09-5.25
		c-0.02-1.06-0.04-2.06-0.05-3c0.02,0.94,0.03,1.94,0.05,3c0.03,1.6,0.06,3.34,0.09,5.25c0.02,0.81,0.05,1.62,0.11,2.42
		C449.45,88.31,449.59,89.49,449.79,90.66c0.13,0.78,0.28,1.54,0.46,2.3c0.18,0.76,0.38,1.5,0.61,2.23
		c-0.23-0.73-0.43-1.48-0.61-2.23C450.07,92.2,449.92,91.43,449.79,90.66z M437.29,70.42c0.04-0.04,0.08-0.07,0.12-0.1
		C437.37,70.35,437.33,70.38,437.29,70.42z M437.06,70.65c0.04-0.05,0.08-0.09,0.13-0.13C437.14,70.57,437.1,70.61,437.06,70.65z
		 M437.77,70.09c-0.03,0.01-0.05,0.01-0.09,0.03C437.71,70.1,437.74,70.1,437.77,70.09z M437.6,70.17c-0.03,0.02-0.07,0.04-0.1,0.07
		C437.54,70.21,437.57,70.19,437.6,70.17z M434.79,74.13c-0.02,0.08-0.03,0.15-0.03,0.21C434.76,74.28,434.77,74.21,434.79,74.13z
		 M436.94,70.79c-0.04,0.05-0.09,0.1-0.13,0.15C436.85,70.88,436.89,70.83,436.94,70.79z M436.68,71.09
		c-0.05,0.06-0.09,0.11-0.14,0.17C436.58,71.2,436.63,71.14,436.68,71.09z M436.41,71.42c-0.05,0.06-0.1,0.12-0.14,0.18
		C436.31,71.54,436.36,71.48,436.41,71.42z M436.14,71.77c-0.05,0.06-0.09,0.13-0.14,0.19C436.04,71.9,436.09,71.83,436.14,71.77z
		 M435.87,72.14c-0.05,0.07-0.09,0.13-0.14,0.2C435.78,72.27,435.83,72.21,435.87,72.14z M435.62,72.51
		c-0.04,0.07-0.09,0.13-0.13,0.2C435.53,72.65,435.58,72.58,435.62,72.51z M435.39,72.88c-0.04,0.07-0.08,0.13-0.12,0.2
		C435.31,73.01,435.35,72.95,435.39,72.88z M435.18,73.24c-0.04,0.07-0.07,0.13-0.1,0.19C435.11,73.37,435.15,73.3,435.18,73.24z
		 M435.01,73.57c-0.03,0.06-0.05,0.12-0.08,0.18C434.95,73.69,434.98,73.63,435.01,73.57z M434.88,73.87
		c-0.02,0.06-0.04,0.12-0.06,0.17C434.83,73.99,434.85,73.93,434.88,73.87z M436.94,81.4c-0.05,0.05-0.09,0.1-0.14,0.16
		C436.85,81.5,436.89,81.45,436.94,81.4z M436.68,81.7c-0.05,0.06-0.1,0.11-0.14,0.17C436.58,81.82,436.63,81.76,436.68,81.7z
		 M436.41,82.03c-0.05,0.06-0.1,0.12-0.14,0.19C436.31,82.16,436.36,82.1,436.41,82.03z M436.14,82.39c-0.05,0.07-0.1,0.13-0.14,0.2
		C436.04,82.52,436.09,82.45,436.14,82.39z M437.19,81.14c-0.04,0.04-0.09,0.09-0.13,0.14C437.1,81.23,437.14,81.19,437.19,81.14z
		 M437.41,80.93c-0.04,0.03-0.08,0.07-0.12,0.11C437.33,81,437.37,80.97,437.41,80.93z M437.77,80.71
		c-0.03,0.01-0.05,0.01-0.09,0.03C437.71,80.72,437.74,80.72,437.77,80.71z M437.61,80.79c-0.03,0.02-0.07,0.04-0.1,0.07
		C437.54,80.83,437.57,80.81,437.61,80.79z M437.82,80.69c0.04,0,0.06,0.01,0.08,0.04C437.89,80.71,437.86,80.69,437.82,80.69
		C437.82,80.7,437.82,80.69,437.82,80.69z M437.82,70.08C437.82,70.08,437.82,70.07,437.82,70.08c0.04,0,0.07,0.01,0.09,0.04
		C437.89,70.08,437.86,70.07,437.82,70.08z M437.57,38.15c0.06-0.05,0.11-0.08,0.17-0.11C437.68,38.08,437.63,38.11,437.57,38.15z
		 M437.25,38.42c0.06-0.06,0.12-0.11,0.18-0.16C437.38,38.31,437.32,38.36,437.25,38.42z M452.06,98.38
		c-0.31-0.69-0.59-1.39-0.84-2.11C451.47,96.99,451.75,97.69,452.06,98.38z M449.02,70.43c-0.01-0.68-0.02-1.31-0.02-1.9
		C449,69.12,449.01,69.75,449.02,70.43z M456.34,104.9c0.51,0.55,1.06,1.07,1.63,1.57C457.4,105.97,456.86,105.45,456.34,104.9z
		 M463.92,105.66L463.92,105.66l0.81-1.71L463.92,105.66z M438.18,37.98c-0.03-0.04-0.08-0.06-0.14-0.06c0,0,0,0,0,0
		C438.1,37.92,438.15,37.94,438.18,37.98z M437.83,37.98c0.06-0.03,0.11-0.04,0.16-0.05C437.94,37.94,437.89,37.95,437.83,37.98z
		 M437.1,38.57c-0.06,0.06-0.13,0.13-0.19,0.2C436.97,38.7,437.03,38.64,437.1,38.57z M435.33,40.71c0.07-0.1,0.14-0.2,0.21-0.29
		C435.47,40.52,435.4,40.62,435.33,40.71z M435.73,40.17c0.07-0.09,0.14-0.19,0.22-0.28C435.87,39.98,435.8,40.08,435.73,40.17z
		 M436.13,39.66c0.07-0.09,0.14-0.17,0.21-0.26C436.27,39.48,436.2,39.57,436.13,39.66z M436.52,39.19
		c0.07-0.08,0.14-0.16,0.21-0.23C436.66,39.03,436.59,39.11,436.52,39.19z M433.54,43.96c-0.03,0.12-0.05,0.23-0.05,0.32
		C433.5,44.19,433.52,44.08,433.54,43.96z M435.15,40.97c-0.07,0.1-0.14,0.2-0.2,0.3C435.01,41.17,435.08,41.07,435.15,40.97z
		 M434.77,41.53c-0.07,0.1-0.13,0.2-0.19,0.3C434.65,41.73,434.71,41.63,434.77,41.53z M434.43,42.08c-0.06,0.1-0.12,0.2-0.17,0.3
		C434.31,42.28,434.37,42.18,434.43,42.08z M434.12,42.61c-0.05,0.1-0.1,0.19-0.15,0.28C434.02,42.8,434.07,42.71,434.12,42.61z
		 M433.87,43.11c-0.05,0.09-0.08,0.18-0.12,0.27C433.79,43.3,433.82,43.21,433.87,43.11z M433.67,43.57
		c-0.04,0.09-0.06,0.18-0.08,0.26C433.61,43.74,433.63,43.66,433.67,43.57z M423.77,54.81c0.02,0.01,0.04,0.02,0.06,0.03
		C423.82,54.83,423.8,54.82,423.77,54.81z M423.61,54.78c-0.02,0-0.04,0-0.05,0c0.01,0,0.01,0,0.02,0
		C423.58,54.77,423.59,54.78,423.61,54.78z M422.99,55.02c-0.01,0-0.01,0.01-0.02,0.02C422.98,55.04,422.99,55.03,422.99,55.02z
		 M423.3,54.83c-0.02,0.01-0.03,0.02-0.05,0.02C423.26,54.85,423.28,54.84,423.3,54.83z M422.75,55.28
		c-0.01,0.02-0.03,0.03-0.04,0.05C422.72,55.31,422.73,55.3,422.75,55.28z M422.5,55.63c-0.01,0.02-0.03,0.04-0.04,0.07
		C422.47,55.67,422.48,55.65,422.5,55.63z M422.28,56.04c0,0,0,0.01-0.01,0.01C422.27,56.04,422.27,56.04,422.28,56.04z
		 M422.13,56.39c-0.01,0.02-0.02,0.04-0.02,0.06C422.12,56.44,422.13,56.42,422.13,56.39z M422.02,56.79c0,0.02-0.01,0.04-0.01,0.06
		C422.02,56.83,422.02,56.81,422.02,56.79z M434.79,84.75c-0.02,0.08-0.03,0.15-0.03,0.21C434.76,84.9,434.77,84.83,434.79,84.75z
		 M435.87,82.76c-0.05,0.07-0.09,0.13-0.14,0.2C435.78,82.89,435.83,82.82,435.87,82.76z M435.62,83.13
		c-0.04,0.07-0.09,0.14-0.13,0.2C435.53,83.27,435.58,83.2,435.62,83.13z M435.39,83.5c-0.04,0.07-0.08,0.13-0.12,0.2
		C435.31,83.63,435.35,83.57,435.39,83.5z M435.18,83.86c-0.04,0.07-0.07,0.13-0.1,0.19C435.11,83.98,435.14,83.92,435.18,83.86z
		 M435.01,84.19c-0.03,0.06-0.06,0.12-0.08,0.18C434.95,84.31,434.98,84.25,435.01,84.19z M434.88,84.49
		c-0.02,0.06-0.04,0.12-0.06,0.17C434.83,84.61,434.85,84.55,434.88,84.49z M439.35,89.48c1.16-1.14,1.97-2.68,1.97-3.35
		c0-0.25-0.09-0.55-0.24-0.88s-0.36-0.68-0.61-1.05c-0.33-0.49-0.71-1-1.1-1.49c0.38,0.49,0.77,1,1.1,1.49
		c0.25,0.37,0.46,0.72,0.61,1.05s0.24,0.62,0.24,0.88C441.33,86.81,440.52,88.34,439.35,89.48z M439.35,78.87
		c1.16-1.14,1.97-2.68,1.97-3.35c0-0.25-0.09-0.55-0.24-0.88c-0.15-0.33-0.36-0.68-0.61-1.05c-0.33-0.49-0.71-1-1.1-1.49
		c0.38,0.49,0.77,1,1.1,1.49c0.25,0.37,0.46,0.72,0.61,1.05c0.15,0.33,0.24,0.62,0.24,0.88C441.33,76.19,440.52,77.72,439.35,78.87z
		 M469.68,113.49L469.68,113.49l0.9-1.44L469.68,113.49z M488.34,158.2c0.05,0,0.11-0.01,0.17-0.01
		C488.45,158.19,488.39,158.2,488.34,158.2z M490.82,165.43c-0.08-0.01-0.16-0.02-0.24-0.03
		C490.67,165.4,490.74,165.41,490.82,165.43z M490.36,165.35c-0.09-0.02-0.17-0.03-0.26-0.05
		C490.19,165.32,490.28,165.33,490.36,165.35z M489.87,165.25c-0.09-0.02-0.18-0.04-0.28-0.07
		C489.69,165.2,489.78,165.22,489.87,165.25z M489.35,165.11c-0.09-0.03-0.19-0.05-0.28-0.08
		C489.16,165.06,489.25,165.09,489.35,165.11z M488.81,164.95c-0.1-0.03-0.2-0.06-0.29-0.09
		C488.62,164.89,488.71,164.92,488.81,164.95z M489,158.15c0.07-0.01,0.15-0.02,0.23-0.04C489.15,158.12,489.07,158.14,489,158.15z
		 M489.71,157.99c0.07-0.02,0.14-0.04,0.22-0.06C489.85,157.95,489.78,157.97,489.71,157.99z M497.83,145.24
		c-0.1-0.03-0.21-0.07-0.31-0.1C497.62,145.17,497.72,145.21,497.83,145.24z M497.1,139.63c0.13,0.01,0.26,0.01,0.39,0.02
		C497.36,139.64,497.23,139.63,497.1,139.63z M498.76,155.08c0,0.02,0,0.03,0.01,0.05C498.76,155.12,498.76,155.1,498.76,155.08z
		 M508.07,139.57c0-0.05,0-0.1,0-0.14C508.07,139.47,508.07,139.52,508.07,139.57z M507.49,141.35c0.04-0.09,0.08-0.17,0.11-0.25
		C507.57,141.18,507.54,141.25,507.49,141.35z M507.82,140.61c0.03-0.09,0.06-0.16,0.08-0.24
		C507.87,140.44,507.85,140.52,507.82,140.61z M508,140.02c0.02-0.07,0.03-0.13,0.04-0.2C508.03,139.88,508.02,139.95,508,140.02z
		 M513.08,134.26c0.15,0.04,0.3,0.09,0.45,0.13C513.38,134.35,513.23,134.31,513.08,134.26z M513.83,134.49
		c0.15,0.05,0.3,0.1,0.44,0.16C514.13,134.59,513.98,134.54,513.83,134.49z M498.88,155.28c0,0-0.01-0.01-0.02-0.01
		C498.87,155.28,498.88,155.28,498.88,155.28z M498.78,154.95c0.01-0.02,0.01-0.04,0.03-0.06
		C498.8,154.91,498.79,154.93,498.78,154.95z M500.98,155.38c-0.19,0.03-0.38,0.06-0.56,0.08
		C500.6,155.44,500.79,155.42,500.98,155.38z M500.23,155.47c-0.11,0.01-0.22,0.02-0.33,0.02
		C500,155.48,500.12,155.48,500.23,155.47z M499.51,155.47c-0.03,0-0.06-0.01-0.1-0.01C499.44,155.46,499.47,155.46,499.51,155.47z
		 M499.17,155.41c-0.03-0.01-0.06-0.01-0.08-0.02C499.11,155.39,499.14,155.4,499.17,155.41z M515.22,135.03
		c0.21,0.09,0.42,0.19,0.61,0.29C515.64,135.22,515.43,135.12,515.22,135.03z M514.55,134.75c0.16,0.06,0.31,0.12,0.46,0.19
		C514.85,134.87,514.7,134.81,514.55,134.75z M512.76,134.18c-0.15-0.04-0.3-0.07-0.45-0.1
		C512.46,134.11,512.61,134.14,512.76,134.18z M511.98,134.01c-0.15-0.03-0.3-0.05-0.45-0.07
		C511.67,133.96,511.82,133.99,511.98,134.01z M511.06,115.67c0,0.09,0.02,0.19,0.03,0.3C511.08,115.86,511.07,115.76,511.06,115.67
		z M511.19,133.9c-0.15-0.02-0.31-0.03-0.46-0.03C510.88,133.87,511.04,133.88,511.19,133.9z M511.13,116.2
		c0.02,0.12,0.06,0.26,0.09,0.39C511.18,116.46,511.15,116.32,511.13,116.2z M511.29,116.87c0.05,0.16,0.11,0.34,0.18,0.52
		C511.4,117.21,511.34,117.03,511.29,116.87z M511.56,117.66c0.11,0.29,0.24,0.59,0.39,0.92
		C511.81,118.25,511.68,117.94,511.56,117.66z M509.71,133.87c0.2-0.02,0.4-0.03,0.6-0.03c0.04,0,0.07,0,0.11,0
		C510.18,133.85,509.94,133.85,509.71,133.87z M508.03,139.25c-0.01-0.03-0.02-0.07-0.03-0.09
		C508.02,139.18,508.02,139.22,508.03,139.25z M507.91,139.04c-0.01-0.01-0.03-0.03-0.04-0.04
		C507.89,139.01,507.9,139.03,507.91,139.04z M507.69,138.95c-0.07,0-0.15,0.02-0.23,0.05
		C507.54,138.97,507.62,138.95,507.69,138.95z M490.71,140.57c0.05,0.06,0.1,0.12,0.16,0.18
		C490.81,140.69,490.76,140.63,490.71,140.57z M490.99,140.88c0.06,0.06,0.12,0.13,0.19,0.19
		C491.11,141.01,491.04,140.94,490.99,140.88z M491.3,141.2c0.08,0.08,0.16,0.15,0.24,0.23C491.46,141.35,491.37,141.27,491.3,141.2
		z M491.64,141.52c0.12,0.11,0.25,0.22,0.38,0.33C491.89,141.74,491.76,141.63,491.64,141.52z M492.12,141.93
		c0.1,0.08,0.2,0.17,0.31,0.25C492.32,142.1,492.22,142.02,492.12,141.93z M492.59,142.31c0.09,0.07,0.17,0.14,0.26,0.2
		C492.76,142.45,492.68,142.38,492.59,142.31z M493.04,142.66c0.09,0.06,0.17,0.13,0.26,0.19
		C493.22,142.79,493.13,142.72,493.04,142.66z M493.51,142.99c0.09,0.06,0.18,0.12,0.27,0.18
		C493.68,143.11,493.6,143.05,493.51,142.99z M493.99,143.32c0.09,0.06,0.18,0.12,0.27,0.17
		C494.17,143.43,494.08,143.37,493.99,143.32z M494.48,143.63c0.09,0.06,0.18,0.11,0.27,0.16
		C494.66,143.74,494.57,143.68,494.48,143.63z M494.98,143.93c0.09,0.05,0.18,0.1,0.27,0.15
		C495.16,144.03,495.07,143.98,494.98,143.93z M495.49,144.21c0.09,0.05,0.18,0.1,0.28,0.15
		C495.67,144.31,495.58,144.26,495.49,144.21z M496,144.48c0.09,0.05,0.19,0.09,0.28,0.14C496.19,144.57,496.09,144.53,496,144.48z
		 M496.51,144.72c0.1,0.04,0.19,0.09,0.29,0.13C496.7,144.81,496.6,144.77,496.51,144.72z M497.01,144.94
		c0.1,0.04,0.2,0.08,0.3,0.12C497.21,145.02,497.11,144.98,497.01,144.94z M498.01,145.3c0.14,0.04,0.29,0.08,0.43,0.12
		C498.29,145.38,498.15,145.34,498.01,145.3z M498.48,145.43c0.16,0.04,0.31,0.07,0.46,0.09
		C498.79,145.5,498.64,145.47,498.48,145.43z M499.09,145.55c0.1,0.01,0.2,0.03,0.29,0.04
		C499.29,145.57,499.19,145.56,499.09,145.55z M499.55,145.59c0.08,0,0.17,0.01,0.25,0.01c-0.01,0-0.02,0-0.04,0
		C499.69,145.6,499.62,145.59,499.55,145.59z M500.09,145.58c0.05,0,0.09-0.01,0.14-0.01C500.18,145.57,500.13,145.57,500.09,145.58
		z M511.55,114.79c0.03,0,0.04-0.02,0.07-0.02c0.05,0,0.1,0.01,0.16,0.02C511.69,114.78,511.62,114.79,511.55,114.79z
		 M511.07,115.48c0.01-0.08,0.01-0.15,0.03-0.22C511.09,115.32,511.08,115.4,511.07,115.48z M511.15,115.12
		c0.02-0.05,0.05-0.1,0.08-0.14C511.19,115.02,511.17,115.07,511.15,115.12z M511.31,114.89c0.04-0.03,0.08-0.05,0.12-0.07
		C511.39,114.84,511.35,114.86,511.31,114.89z M499.1,79.87c0.02,0,0.05-0.01,0.07-0.01c0.16,0,0.32,0.02,0.48,0.03
		C499.47,79.88,499.28,79.87,499.1,79.87z M500.59,86.32c-0.34-0.07-0.65-0.12-0.9-0.12C499.94,86.21,500.24,86.25,500.59,86.32z
		 M491.47,85.6c-0.19,0.09-0.38,0.17-0.55,0.25C491.09,85.77,491.28,85.69,491.47,85.6z M490.63,85.98
		c-0.18,0.08-0.35,0.15-0.51,0.21C490.28,86.13,490.45,86.06,490.63,85.98z M489.93,86.27c-0.21,0.08-0.41,0.16-0.58,0.22
		C489.52,86.43,489.72,86.36,489.93,86.27z M489.27,86.52c-0.15,0.05-0.28,0.09-0.4,0.13C488.99,86.61,489.13,86.56,489.27,86.52z
		 M488.74,86.68c-0.09,0.02-0.17,0.04-0.25,0.06C488.57,86.72,488.65,86.7,488.74,86.68z M488.38,86.75
		c-0.07,0.01-0.13,0.02-0.18,0.02C488.25,86.76,488.31,86.76,488.38,86.75z M488.12,86.77c-0.09,0-0.16-0.01-0.22-0.04
		C487.96,86.76,488.03,86.77,488.12,86.77z M487.88,86.72c-0.04-0.02-0.07-0.05-0.09-0.09C487.8,86.66,487.83,86.69,487.88,86.72z
		 M487.77,86.46c-0.01,0.05-0.01,0.1,0.01,0.15C487.76,86.57,487.76,86.52,487.77,86.46z M487.77,86.42
		c0.01-0.06,0.03-0.12,0.07-0.18C487.81,86.31,487.79,86.37,487.77,86.42z M492.81,84.94c0.36-0.18,0.74-0.37,1.15-0.59
		C493.55,84.57,493.17,84.76,492.81,84.94z M491.8,85.44c0.21-0.1,0.44-0.22,0.68-0.33C492.25,85.22,492.02,85.34,491.8,85.44z
		 M485.47,93.02c0.04-0.03,0.09-0.06,0.13-0.1C485.56,92.96,485.52,92.99,485.47,93.02z M506.23,53.79c0.1-0.03,0.21-0.07,0.33-0.12
		C506.44,53.72,506.33,53.76,506.23,53.79z M507.28,56.21c-0.32-0.06-0.63-0.09-0.94-0.09C506.65,56.12,506.96,56.16,507.28,56.21z
		 M505.68,53.6c0,0.02,0,0.03,0,0.04C505.67,53.63,505.67,53.61,505.68,53.6z M506.14,53.81c-0.07,0.02-0.13,0.03-0.19,0.03
		C506.01,53.84,506.07,53.83,506.14,53.81z M505.84,53.84c-0.01,0-0.03,0-0.04,0C505.82,53.84,505.83,53.84,505.84,53.84z
		 M505.7,53.77c0-0.01-0.01-0.02-0.01-0.02C505.69,53.76,505.69,53.77,505.7,53.77z M505.76,53.38c0.01-0.01,0.02-0.03,0.02-0.04
		C505.78,53.36,505.77,53.37,505.76,53.38z M505.96,53.08c0.02-0.03,0.05-0.06,0.07-0.09C506.01,53.02,505.98,53.05,505.96,53.08z
		 M508.44,53.34c0.08,0,0.15,0.01,0.23,0.01c-0.14-0.01-0.27,0-0.4,0C508.33,53.35,508.38,53.34,508.44,53.34z M507.64,53.41
		c-0.09,0.01-0.17,0.02-0.26,0.04C507.47,53.43,507.56,53.42,507.64,53.41z M513.94,55.56c-0.4-0.27-0.77-0.5-1.13-0.72
		C513.17,55.05,513.54,55.29,513.94,55.56z M512.53,54.68c-0.32-0.18-0.63-0.35-0.93-0.5C511.89,54.33,512.21,54.49,512.53,54.68z
		 M511.52,54.14c-0.32-0.15-0.61-0.27-0.9-0.37C510.91,53.87,511.2,53.99,511.52,54.14z M510.4,53.69c-0.25-0.08-0.48-0.15-0.71-0.2
		C509.92,53.54,510.16,53.61,510.4,53.69z M509.58,53.46c-0.26-0.05-0.5-0.08-0.74-0.1C509.09,53.38,509.33,53.41,509.58,53.46z
		 M526.61,60.54c0.08-0.07,0.15-0.16,0.22-0.25C526.75,60.38,526.68,60.46,526.61,60.54z M525.37,61.15c-0.06,0-0.12,0-0.18-0.01
		c0.12,0.02,0.23,0,0.35-0.02C525.48,61.13,525.43,61.15,525.37,61.15z M525.75,61.08c0.08-0.02,0.16-0.06,0.25-0.1
		C525.91,61.02,525.83,61.06,525.75,61.08z M526.19,60.88c0.08-0.05,0.16-0.12,0.23-0.18C526.35,60.76,526.27,60.82,526.19,60.88z
		 M521.42,56.16c0.01,0.05,0.02,0.1,0.03,0.15C521.44,56.26,521.42,56.21,521.42,56.16z M521.35,55.46c0-0.04,0-0.08,0-0.13
		C521.35,55.37,521.35,55.41,521.35,55.46z M521.41,54.71c0-0.02,0-0.03,0.01-0.05C521.42,54.68,521.42,54.69,521.41,54.71z
		 M521.59,54.08c0.01-0.04,0.03-0.07,0.04-0.11C521.61,54.01,521.6,54.05,521.59,54.08z M506.12,56.13c-0.07,0-0.15,0.01-0.22,0.01
		C505.97,56.13,506.05,56.13,506.12,56.13z M503.36,57.31c-0.05,0.04-0.1,0.08-0.15,0.13C503.26,57.39,503.31,57.35,503.36,57.31z
		 M498.19,76.71c0-1.46,0.11-2.43,0.54-3.09C498.29,74.27,498.19,75.24,498.19,76.71c0,1.08,0,2.16-0.09,3.24
		C498.19,78.87,498.19,77.79,498.19,76.71z M501.73,80.24c-0.29-0.08-0.58-0.15-0.88-0.2C501.15,80.09,501.44,80.16,501.73,80.24z
		 M500.66,80.01c-0.23-0.04-0.46-0.07-0.69-0.1C500.2,79.93,500.43,79.97,500.66,80.01z M502.59,80.51
		c-0.21-0.07-0.42-0.14-0.63-0.2C502.17,80.37,502.38,80.44,502.59,80.51z M507.38,56.23c0.33,0.06,0.67,0.15,1.02,0.26
		C508.05,56.38,507.71,56.29,507.38,56.23z M508.02,84.13c-0.01-0.05-0.03-0.1-0.06-0.15C507.99,84.03,508,84.08,508.02,84.13z
		 M507.88,83.86c-0.04-0.06-0.08-0.11-0.13-0.18C507.8,83.75,507.84,83.8,507.88,83.86z M507.63,83.55
		c-0.06-0.06-0.12-0.13-0.19-0.2C507.51,83.42,507.57,83.48,507.63,83.55z M507.27,83.19c-0.08-0.07-0.16-0.14-0.25-0.21
		C507.11,83.05,507.19,83.12,507.27,83.19z M506.81,82.81c-0.09-0.07-0.19-0.15-0.29-0.23C506.62,82.66,506.71,82.73,506.81,82.81z
		 M506.27,82.4c-0.11-0.08-0.22-0.15-0.34-0.23C506.04,82.25,506.16,82.33,506.27,82.4z M505.65,81.99
		c-0.12-0.08-0.25-0.15-0.38-0.23C505.39,81.84,505.52,81.91,505.65,81.99z M504.96,81.58c-0.14-0.08-0.28-0.15-0.42-0.23
		C504.68,81.43,504.82,81.51,504.96,81.58z M504.21,81.19c-0.15-0.07-0.31-0.14-0.46-0.21C503.91,81.05,504.06,81.12,504.21,81.19z
		 M503.42,80.83c-0.17-0.07-0.34-0.14-0.51-0.2C503.08,80.69,503.25,80.76,503.42,80.83z M503.64,57.06
		c0.06-0.05,0.12-0.08,0.18-0.13C503.76,56.98,503.7,57.01,503.64,57.06z M504.08,56.75c0.06-0.04,0.13-0.07,0.19-0.11
		C504.21,56.68,504.15,56.71,504.08,56.75z M504.53,56.51c0.07-0.03,0.13-0.06,0.2-0.08C504.66,56.45,504.59,56.47,504.53,56.51z
		 M504.98,56.32c0.07-0.02,0.14-0.04,0.21-0.06C505.12,56.28,505.05,56.3,504.98,56.32z M505.43,56.2c0.07-0.01,0.14-0.02,0.22-0.03
		C505.58,56.18,505.51,56.19,505.43,56.2z M510.88,57.45c-0.43-0.18-0.84-0.36-1.24-0.52C510.04,57.09,510.45,57.26,510.88,57.45z
		 M509.59,56.91c-0.38-0.15-0.76-0.29-1.12-0.4C508.84,56.63,509.21,56.76,509.59,56.91z M527.67,59.01
		c0.07-0.14,0.14-0.28,0.21-0.42C527.81,58.73,527.74,58.87,527.67,59.01z M526.99,60.1c0.07-0.1,0.14-0.2,0.21-0.3
		C527.13,59.9,527.06,60,526.99,60.1z M527.34,59.58c0.07-0.11,0.14-0.24,0.21-0.36C527.48,59.34,527.41,59.46,527.34,59.58z
		 M528.25,57.81c-0.09,0.2-0.18,0.4-0.28,0.6C528.07,58.21,528.16,58,528.25,57.81c0.05-0.13,0.13-0.26,0.22-0.4
		C528.38,57.54,528.3,57.68,528.25,57.81z M534.64,62.68c-0.12,0.03-0.24,0.06-0.37,0.08C534.4,62.74,534.52,62.71,534.64,62.68z
		 M534.02,62.81c-0.12,0.02-0.24,0.04-0.36,0.06C533.79,62.85,533.91,62.83,534.02,62.81z M534.01,53.18
		c0.08,0.03,0.15,0.06,0.24,0.1C534.16,53.24,534.09,53.21,534.01,53.18z M534.47,53.39c0.08,0.04,0.16,0.09,0.25,0.15
		C534.63,53.49,534.55,53.44,534.47,53.39z M532.93,55.38c-0.1-0.05-0.22-0.09-0.33-0.11C532.71,55.29,532.82,55.32,532.93,55.38z
		 M532.49,55.24c-0.08-0.01-0.17-0.02-0.25-0.03C532.32,55.22,532.4,55.23,532.49,55.24z M532.12,55.22c-0.16,0-0.33,0.02-0.5,0.06
		C531.79,55.24,531.95,55.22,532.12,55.22z M528.82,56.95c-0.12,0.13-0.22,0.26-0.31,0.39C528.6,57.21,528.7,57.08,528.82,56.95z
		 M528.89,56.88c0.12-0.13,0.26-0.26,0.4-0.39C529.15,56.62,529.01,56.75,528.89,56.88z M529.86,56.06c0.16-0.11,0.33-0.21,0.5-0.3
		C530.18,55.85,530.02,55.96,529.86,56.06z M529.32,56.47c0.14-0.12,0.3-0.24,0.45-0.35C529.62,56.23,529.46,56.35,529.32,56.47z
		 M531.54,55.29c-0.17,0.04-0.34,0.09-0.5,0.15C531.2,55.38,531.37,55.33,531.54,55.29z M530.98,55.46
		c-0.18,0.07-0.35,0.15-0.53,0.24C530.63,55.62,530.8,55.53,530.98,55.46z M531.88,62.99c0.08,0,0.16,0,0.24,0
		c-0.04,0-0.09,0-0.13,0C531.96,62.99,531.92,62.99,531.88,62.99z M533.4,62.9c-0.12,0.01-0.24,0.03-0.36,0.04
		C533.16,62.93,533.28,62.92,533.4,62.9z M532.77,62.96c-0.12,0.01-0.25,0.01-0.37,0.02C532.52,62.98,532.65,62.97,532.77,62.96z
		 M534.85,62.63c0.15-0.04,0.29-0.08,0.44-0.13C535.15,62.55,535,62.59,534.85,62.63z M535.41,62.47c0.18-0.06,0.35-0.12,0.52-0.19
		C535.77,62.35,535.59,62.41,535.41,62.47z M536.08,62.22c0.12-0.05,0.23-0.1,0.34-0.15C536.32,62.12,536.2,62.17,536.08,62.22z
		 M536.61,61.97c0.09-0.05,0.19-0.1,0.28-0.15C536.79,61.87,536.7,61.92,536.61,61.97z M537.06,61.71c0.08-0.05,0.16-0.1,0.24-0.16
		C537.22,61.61,537.14,61.66,537.06,61.71z M537.46,61.44c0.07-0.05,0.14-0.11,0.21-0.17C537.61,61.33,537.54,61.38,537.46,61.44z
		 M537.82,61.14c0.06-0.06,0.12-0.12,0.18-0.18C537.94,61.02,537.88,61.08,537.82,61.14z M538.69,59.79
		c-0.03,0.12-0.08,0.24-0.13,0.36C538.61,60.03,538.66,59.91,538.69,59.79c0.04-0.14,0.07-0.3,0.07-0.46
		C538.76,59.49,538.73,59.64,538.69,59.79z M538.12,60.83c0.06-0.07,0.11-0.13,0.15-0.2C538.22,60.7,538.17,60.76,538.12,60.83z
		 M538.37,60.5c0.05-0.08,0.09-0.15,0.13-0.23C538.46,60.34,538.42,60.42,538.37,60.5z M538.73,58.83c0.02,0.11,0.02,0.22,0.02,0.33
		C538.75,59.05,538.75,58.94,538.73,58.83z M536.69,55.23c-0.08-0.09-0.17-0.18-0.25-0.27C536.52,55.05,536.6,55.14,536.69,55.23z
		 M538.68,58.61c-0.02-0.11-0.04-0.21-0.08-0.32C538.64,58.4,538.66,58.51,538.68,58.61z M538.51,58.05
		c-0.04-0.1-0.08-0.21-0.12-0.31C538.44,57.84,538.47,57.94,538.51,58.05z M538.26,57.48c-0.05-0.11-0.1-0.21-0.16-0.32
		C538.16,57.27,538.21,57.37,538.26,57.48z M537.94,56.9c-0.06-0.1-0.13-0.21-0.19-0.31C537.82,56.69,537.88,56.8,537.94,56.9z
		 M537.57,56.33c-0.07-0.1-0.14-0.2-0.22-0.3C537.43,56.12,537.5,56.23,537.57,56.33z M537.14,55.77c-0.08-0.1-0.16-0.19-0.24-0.29
		C536.99,55.57,537.07,55.67,537.14,55.77z M534.95,53.69c0.09,0.06,0.17,0.12,0.26,0.18C535.12,53.81,535.03,53.75,534.95,53.69z
		 M535.45,54.06c0.09,0.07,0.17,0.14,0.26,0.22C535.62,54.2,535.53,54.13,535.45,54.06z M535.94,54.48
		c0.09,0.08,0.17,0.16,0.26,0.25C536.12,54.65,536.03,54.56,535.94,54.48z M533.8,53.11c-0.07-0.02-0.15-0.04-0.22-0.05
		C533.66,53.07,533.73,53.08,533.8,53.11z M533.31,53.02c0.03,0,0.06,0.01,0.09,0.01c-0.1-0.01-0.2-0.01-0.29,0.01
		C533.17,53.02,533.24,53.02,533.31,53.02z M523.06,52.83c-0.02-0.01-0.03-0.02-0.05-0.03C523.03,52.8,523.05,52.82,523.06,52.83z
		 M522.84,52.74c-0.01,0-0.02-0.01-0.03-0.01c0,0,0.01,0,0.01,0C522.83,52.73,522.83,52.74,522.84,52.74z M522.54,52.81
		c-0.02,0.01-0.04,0.02-0.06,0.03C522.5,52.83,522.52,52.82,522.54,52.81z M522.2,53.07c-0.01,0.01-0.03,0.03-0.04,0.04
		C522.17,53.1,522.18,53.08,522.2,53.07z M521.86,53.51c0.01-0.02,0.03-0.04,0.04-0.06C521.89,53.47,521.87,53.49,521.86,53.51z
		 M485.22,93.2c-0.05,0.03-0.11,0.05-0.16,0.08C485.11,93.25,485.16,93.23,485.22,93.2z M484.05,93.43
		c-0.07-0.01-0.14-0.04-0.21-0.06C483.91,93.4,483.98,93.42,484.05,93.43z M483.72,93.32c-0.07-0.04-0.14-0.08-0.2-0.13
		C483.58,93.24,483.65,93.29,483.72,93.32z M483.16,92.82c0.07,0.12,0.16,0.22,0.25,0.3C483.32,93.03,483.24,92.93,483.16,92.82z
		 M484.2,93.45c0.07,0.01,0.13,0.01,0.2,0c-0.03,0-0.05,0.01-0.08,0.01C484.28,93.47,484.24,93.45,484.2,93.45z M484.81,93.38
		c-0.06,0.02-0.11,0.03-0.17,0.04C484.7,93.41,484.75,93.4,484.81,93.38z M499.6,86.2c-0.13,0-0.24,0.01-0.33,0.05
		C499.36,86.21,499.47,86.2,499.6,86.2z M500.72,86.35c0.16,0.03,0.31,0.07,0.48,0.11C501.03,86.42,500.87,86.38,500.72,86.35z
		 M501.26,86.47c0.22,0.05,0.44,0.11,0.66,0.16C501.69,86.58,501.47,86.52,501.26,86.47z M502.37,86.75
		c0.05,0.01,0.1,0.03,0.16,0.04C502.48,86.78,502.42,86.76,502.37,86.75z M503.06,86.91c0.04,0.01,0.08,0.02,0.12,0.02
		C503.14,86.92,503.1,86.92,503.06,86.91z M503.58,87c0.04,0.01,0.08,0.01,0.12,0.02C503.67,87.02,503.63,87.01,503.58,87z
		 M504.13,87.05c0.02,0,0.04,0,0.07,0c-0.02,0-0.03,0.01-0.04,0.01C504.15,87.05,504.14,87.05,504.13,87.05z M504.47,87.02
		c0.03-0.01,0.05-0.01,0.08-0.02C504.52,87.01,504.49,87.01,504.47,87.02z M508,84.36c0.04-0.04,0.05-0.09,0.04-0.16
		C508.05,84.26,508.04,84.32,508,84.36z M498.27,139.63c0.12-0.01,0.24-0.01,0.36-0.02C498.51,139.63,498.39,139.63,498.27,139.63z
		 M496.3,139.56c-0.11-0.01-0.23-0.02-0.34-0.04C496.07,139.54,496.19,139.55,496.3,139.56z M491.64,138.79
		c-0.27-0.03-0.52-0.06-0.74-0.06c-0.12,0-0.22,0.01-0.31,0.02c0.09-0.01,0.2-0.02,0.31-0.02
		C491.12,138.73,491.37,138.76,491.64,138.79z M493.73,139.16c-0.29-0.06-0.56-0.11-0.82-0.16
		C493.18,139.05,493.45,139.1,493.73,139.16z M492.53,138.93c-0.21-0.04-0.41-0.07-0.61-0.1
		C492.12,138.86,492.32,138.89,492.53,138.93z M490.27,138.86c-0.04,0.02-0.07,0.04-0.1,0.06
		C490.2,138.9,490.24,138.88,490.27,138.86z M490.5,138.78c-0.06,0.01-0.11,0.02-0.16,0.04C490.39,138.8,490.45,138.79,490.5,138.78
		z M490.04,139.12c-0.01,0.03-0.02,0.06-0.02,0.1C490.02,139.19,490.03,139.16,490.04,139.12z M490.12,138.97
		c-0.02,0.03-0.04,0.05-0.06,0.08C490.08,139.02,490.1,139,490.12,138.97z M490.61,140.45c-0.05-0.06-0.09-0.11-0.13-0.17
		C490.52,140.33,490.56,140.39,490.61,140.45z M490.39,140.16c-0.04-0.05-0.07-0.1-0.1-0.15
		C490.32,140.05,490.35,140.11,490.39,140.16z M490.22,139.89c-0.03-0.05-0.05-0.09-0.07-0.14
		C490.17,139.79,490.19,139.84,490.22,139.89z M490.1,139.64c-0.02-0.04-0.03-0.09-0.04-0.13
		C490.07,139.56,490.08,139.6,490.1,139.64z M490.03,139.42c-0.01-0.04-0.01-0.08-0.01-0.11
		C490.02,139.34,490.02,139.38,490.03,139.42z M485.5,157.63c0.14,0.05,0.31,0.1,0.48,0.16
		C485.81,157.74,485.65,157.68,485.5,157.63c-0.04-0.01-0.09-0.01-0.13-0.01c0.01,0,0.02-0.01,0.03-0.01
		C485.44,157.62,485.47,157.63,485.5,157.63z M488.1,158.19c-0.19-0.01-0.37-0.02-0.55-0.04
		C487.73,158.17,487.91,158.18,488.1,158.19z M487.29,158.11c-0.16-0.03-0.31-0.05-0.45-0.09
		C486.98,158.06,487.13,158.09,487.29,158.11z M486.59,157.97c-0.15-0.04-0.29-0.08-0.43-0.12
		C486.3,157.89,486.44,157.93,486.59,157.97z M488.27,164.78c-0.1-0.03-0.2-0.07-0.29-0.1
		C488.07,164.71,488.17,164.74,488.27,164.78z M487.73,164.58c-0.1-0.04-0.19-0.07-0.28-0.11
		C487.54,164.5,487.63,164.54,487.73,164.58z M487.2,164.37c-0.09-0.04-0.18-0.08-0.27-0.12
		C487.01,164.29,487.1,164.33,487.2,164.37z M486.69,164.14c-0.09-0.04-0.18-0.08-0.26-0.13
		C486.52,164.06,486.6,164.1,486.69,164.14z M486.22,163.91c-0.08-0.04-0.16-0.09-0.24-0.13
		C486.06,163.83,486.13,163.87,486.22,163.91z M485.79,163.68c-0.08-0.05-0.15-0.09-0.22-0.14
		C485.64,163.59,485.71,163.63,485.79,163.68z M484.91,157.8c-0.03,0.02-0.07,0.05-0.1,0.07
		C484.84,157.85,484.87,157.83,484.91,157.8z M485.28,157.64c-0.03,0.01-0.06,0.01-0.09,0.02
		C485.22,157.65,485.25,157.65,485.28,157.64z M485.1,157.7c-0.03,0.01-0.07,0.03-0.1,0.05C485.03,157.73,485.07,157.71,485.1,157.7
		z M484.71,157.96c-0.03,0.03-0.07,0.06-0.1,0.1C484.64,158.02,484.67,157.99,484.71,157.96z M484.52,158.16
		c-0.03,0.04-0.06,0.08-0.1,0.12C484.45,158.24,484.48,158.2,484.52,158.16z M484.33,158.4c-0.03,0.05-0.06,0.09-0.09,0.14
		C484.28,158.49,484.3,158.44,484.33,158.4z M484.17,158.68c-0.03,0.05-0.05,0.11-0.07,0.16
		C484.12,158.79,484.14,158.73,484.17,158.68z M484.03,159c-0.02,0.06-0.04,0.12-0.06,0.19C483.99,159.13,484.01,159.06,484.03,159z
		 M483.93,159.36c-0.02,0.07-0.03,0.14-0.04,0.21C483.9,159.5,483.91,159.43,483.93,159.36z M483.86,159.76
		c-0.01,0.07-0.01,0.15-0.01,0.23C483.85,159.91,483.85,159.83,483.86,159.76z M483.84,160.18c0,0.08,0.01,0.17,0.02,0.25
		C483.85,160.35,483.84,160.26,483.84,160.18z M484.69,162.76c-0.12-0.19-0.23-0.38-0.32-0.57
		C484.46,162.38,484.57,162.57,484.69,162.76c0.04,0.07,0.09,0.15,0.16,0.22C484.78,162.91,484.73,162.83,484.69,162.76z
		 M483.87,160.64c0.01,0.09,0.03,0.18,0.05,0.27C483.91,160.82,483.89,160.73,483.87,160.64z M483.97,161.13
		c0.02,0.1,0.06,0.2,0.09,0.3C484.03,161.33,483.99,161.23,483.97,161.13z M484.13,161.65c0.04,0.12,0.1,0.24,0.16,0.36
		C484.23,161.89,484.18,161.77,484.13,161.65z M485.41,163.44c-0.07-0.05-0.13-0.09-0.19-0.14
		C485.28,163.35,485.34,163.4,485.41,163.44z M485.09,163.21c-0.06-0.05-0.11-0.1-0.16-0.15
		C484.98,163.11,485.03,163.16,485.09,163.21z M491.02,165.45c0.08,0.01,0.14,0.01,0.21,0.02
		C491.16,165.46,491.09,165.46,491.02,165.45z M491.45,165.48c-0.01,0-0.03,0-0.04,0c0.11,0,0.21,0,0.3-0.01
		C491.63,165.47,491.54,165.48,491.45,165.48z"/>
</g>
<g>
	<g>
		<path d="M906.4,79.15c1.44-0.27,4.14-2.88,9-3.69c7.65-5.13,14.04-13.68,14.13-20.43c-2.43,2.07-6.75,2.97-8.19,1.53
			c-2.88-2.61,2.97-9.54,4.95-13.41c0.81-1.71-1.98,0.18-4.05,2.25c-1.98,2.07-3.6,5.49-4.86,5.67c-1.17,0.09-6.12-5.76-6.12-6.93
			s2.07-3.33,2.88-2.43c1.53,1.8,4.77,1.44,7.2,0.18c2.34-1.35,12.24-7.92,13.5-7.56c1.17,0.27,4.32,2.52,3.51,3.06
			c-0.72,0.54-2.43,0.81-5.4,3.15c-5.58,4.41-11.25,12.78-8.91,13.86c2.07,0.9,3.96-0.18,5.4-1.53c-0.18-2.97,0.18-3.96,1.98-4.32
			c3.96-0.9,6.93,2.07,6.93,3.6c0,0.63-2.07,0.36-2.43,1.44c-4.5,10.89-10.35,18.09-16.29,21.69c8.82,1.44,19.8,16.11,34.74,16.11
			c4.05,0,11.43-1.62,15.03-4.41l0.63,1.17c-3.69,3.24-14.58,8.46-23.22,8.46c-11.07,0-21.96-18.45-31.77-18.45
			c-2.25,0-4.68,1.53-5.76,2.97c-1.08,1.53-4.05,5.13-5.13,5.13s-3.78-4.14-3.78-5.22c0-1.35,1.71-3.87,2.25-2.97
			C903.52,79.33,904.69,79.42,906.4,79.15z"/>
		<path d="M912.7,144.3c-1.8-0.99-3.78-1.8-5.13-2.16l0.9-1.44c2.25,0.09,4.14,0.27,5.76,0.63c0.72-1.53,1.17-2.79,1.35-3.51
			c0.99-4.32,1.62-7.11,0.36-6.12c-2.16,1.62-7.92,6.12-8.55,6.12c-1.89,0-4.14-1.62-4.14-4.41c0-1.71,0.81-3.06,1.53-1.98
			c0.45,0.63,2.79,1.71,3.96,1.17c1.98-0.81,7.56-5.04,8.55-5.76c0.99-0.81,5.49,0.09,5.85,0.54c0.36,0.36,0.18,2.79-0.45,2.79
			c-0.99,0-1.71,1.53-1.89,2.43c-1.17,4.77-1.71,7.02-2.79,9.63c3.6,1.26,4.77,3.06,4.77,4.05c0,1.08-2.97,3.51-3.6,3.51
			c-0.72,0-1.8-0.63-2.61-2.34c-0.18-0.36-0.45-0.63-0.72-0.99c-3.33,5.76-9.09,11.97-17.1,14.58l-1.17-1.26
			C903.97,157.8,909.55,150.15,912.7,144.3z M931.69,108.3c3.42,2.16,2.97,3.51,2.97,4.23c0,0.81-1.44,0.63-2.43,0.63
			s-1.44,1.62-2.16,4.77c-0.54,2.16-1.44,35.64-0.9,50.13c0.09,4.23,1.89,4.86,2.61,6.3c0.72,1.35,0.72,2.25,0.72,2.97
			c0,1.17-1.35,1.17-2.79,1.17c-1.62,0-2.97-1.35-4.23-3.33c-1.08-1.71-1.8-4.59-1.17-5.04c0.9-0.54,1.62,0.45,1.89,0
			c0.18-0.45,0.18-5.4,0.18-8.46c0-8.01,0.18-46.98-0.9-49.68c-1.08-2.7-3.24-4.23-6.12-7.11l0.99-0.99
			C926.83,105.33,928.45,106.32,931.69,108.3z M942.13,126.93c1.08-1.35,0.81-3.6,1.89-3.24c5.22,1.8,7.2,9.09,7.2,10.71
			c0,0.9-1.08,1.8-2.25,1.8c-0.63,0-2.07-0.45-2.07-1.17c0-0.45-0.72-2.07-2.88-1.71c-3.96,0.54-8.01,8.82-3.96,16.38
			c4.14,7.2,10.53,10.26,19.35,11.34l-0.27,1.17c-12.6,1.08-27.99-8.82-24.75-23.67C935.56,133.05,940.96,128.28,942.13,126.93z"/>
		<path class="st1" d="M853.68,40.89c12.6-1.35,11.88-7.29,13.32-7.29c3.78,0,8.73,3.51,8.73,4.86c0,1.26-1.71,3.15-2.61,3.15
			c-0.54,0-1.17-0.36-2.34-0.54c-0.81-0.18-1.98,0.36-2.52,0.9c-6.84,6.84-18.99,15.66-12.87,20.7c1.8,1.44,4.86-0.63,7.38-2.61
			c-0.36-2.7-0.18-3.42,0.45-3.69c1.08-0.54,5.94-0.18,7.65,0.45c1.71,0.63,2.43,2.97,2.43,3.87s-3.87,3.78-5.13,8.1
			c-0.9,3.06-1.98,5.85-3.15,8.46c9.45,1.26,10.26,5.67,10.26,6.48c0,0.9-4.23,3.33-4.95,3.33c-0.63,0-2.43-3.78-7.47-5.13
			c-9,17.37-21.42,25.02-23.85,21.87c-10.26-13.32,11.88-26.82,20.61-26.82h1.08c2.07-4.5,3.24-8.73,2.79-11.52
			c-0.09-0.81-0.27-1.62-0.36-2.34c-4.95,3.96-8.82,5.49-12.24,1.71c-4.68-5.13,5.49-14.31,13.41-23.4
			c-2.52,0.54-5.4,1.44-7.47,2.52c-1.44,0.72-3.24,2.88-4.59,2.88c-1.71,0-7.2-5.58-7.2-6.75c0-2.07,1.44-4.05,1.8-3.33
			C848.91,39.45,852.06,41.16,853.68,40.89z M858.54,81.39c-13.59,0.09-23.22,14.31-16.11,17.01
			C845.94,99.75,853.5,90.75,858.54,81.39z"/>
		<path d="M727,40.62c1.44,1.8-0.99,4.32-3.15,4.68c-2.61,0.36-4.23,0.27-6.93,1.26c-2.79,1.08-6.66,3.15-6.3,5.49
			c0.72,3.87,8.37-1.53,14.04-0.54c4.32,0.81,7.02,4.95,4.68,9.18c-4.14,7.29-13.86,5.94-21.78,17.64
			c-0.45,0.54-1.44,2.16-1.26,2.34c0.18,0.27,4.32-3.87,8.37-3.87c11.34,0,13.68,18,26.01,18c6.48,0,12.06-4.32,14.13-6.3l0.9,0.36
			c-0.81,1.98-8.19,12.42-18.18,12.42c-18.54,0-13.14-21.69-24.21-21.33c-7.56,0.18-11.52,10.98-11.52,17.55
			c0,1.98-1.26,2.52-1.62,2.52c-0.63,0-1.08-0.54-1.71-1.08c-2.07-1.71-3.6-4.14-3.51-5.04c0.18-0.9,1.44-1.08,1.98-2.61
			c3.06-7.92,9.36-16.11,16.92-22.5c6.66-5.58,11.25-10.53,8.28-12.33c-2.61-1.44-5.22,0-8.82,0c-3.06,0-5.49-2.25-5.49-4.41
			c0-6.21,9-6.75,10.26-11.34c0.54-1.8-4.59-5.49-6.12-6.21l0.81-1.35C719.71,35.31,725.74,39.09,727,40.62z M699.46,59.7
			c1.26,1.53,2.25,3.69,3.78,3.69c2.34,0,4.14-2.16,7.38-3.87l0.81,0.45c-1.53,1.8-3.6,3.33-4.95,6.57
			c-0.54,1.17,0.36,4.32-0.36,4.95c-2.7,2.16-4.41,0-6.57-3.51c-0.9-1.53-2.25-4.05-2.25-5.13C697.3,62.04,699.01,59.16,699.46,59.7
			z"/>
		<path d="M709.9,143.67c1.8,1.53,1.71,2.34,0,3.06c-1.44,0.54-1.71,1.62-1.71,3.96c0,1.08,0,2.16-0.09,3.24
			c4.77-0.72,10.53,3.78,9.9,4.41c-0.72,0.63-2.07,1.35-3.24,2.52c-0.63,0.72-4.5-0.99-5.49-0.63c-0.36,0.09-1.08,0.27-1.98,0.63
			c-1.44,6.93-4.77,12.24-11.43,18.09l-0.72-0.54c4.5-5.22,7.74-10.08,9.18-16.56c-2.97,0.99-6.21,2.16-7.02,2.52
			c-0.99,0.36-0.54,1.35-1.35,2.16c-0.81,1.08-2.16,1.26-2.79,0.27s-0.54-3.87-0.09-4.41c0.45-0.54,1.53-0.36,2.34-1.44
			c0.9-1.08,3.15-5.31,4.86-9.81l1.08,0.72c-1.53,4.77-3.15,7.38-3.51,8.37c-0.36,0.72,0.27,1.17,6.12-1.89
			c0.36-0.18,0.72-0.45,0.99-0.63c0.18-2.07,0.27-4.23,0.09-6.66c-0.36-5.13-3.33-7.74-5.49-9.99l1.8-1.35
			C706.48,140.61,708.73,142.68,709.9,143.67z M711.43,128.91c3.69-3.51,11.25-11.07,12.42-16.2c0.27-1.44-1.44-2.88-2.97-2.88
			l1.08-2.52c2.88,0,4.86,1.44,6.75,2.7c1.53,0.9,2.7,1.71,2.7,2.34c0,1.08-2.07,0.36-4.14,3.15c-2.7,3.69-7.74,7.83-10.89,11.07
			c-1.26,1.35-0.63,1.44,0.18,1.08c1.89-0.63,3.78-0.54,7.38,1.89c3.33,2.25,5.4,6.48,5.4,12.42c0,6.12-1.62,10.8-1.62,16.38
			c0,8.46,8.46,18.45,15.57,18.45c4.95,0,9.18-2.88,12.51-4.95l0.9,1.71c-4.05,3.6-9.45,8.28-17.46,8.28
			c-9.99,0-16.74-13.32-16.74-19.98c0-6.48,2.7-13.41,2.7-18c0-6.03-0.72-10.8-4.32-12.42c-3.33-1.44-5.76-2.25-8.1,0.45
			c-2.16,2.52-2.7,4.95-3.6,4.95c-1.62,0-1.89-1.08-1.89-2.16C707.29,131.16,709.18,131.07,711.43,128.91z"/>
		<path class="st1" d="M667.08,43.86c0,1.08-0.9,4.68-1.62,4.68c-2.07,0-3.15-0.81-4.86-1.44c-4.68-1.62-14.22,0-16.65,7.65
			c-1.08,3.33,3.51,6.21,9.27,7.83c15.84,4.5,18.9,11.79,12.24,25.65c-7.11,14.67-20.97,25.11-39.24,22.68l-0.27-2.07
			c7.56,0,18.99-1.8,26.55-10.98c2.07-2.52,3.96-4.95,5.58-7.2c-2.79,1.53-6.21,2.7-8.46,1.98c-3.15-1.08-5.4-7.11-3.51-11.7
			c2.16-5.04,8.37-8.91,14.49-7.38c1.44,0.36,2.52,1.08,3.15,1.98c-0.72-4.05-4.41-7.02-12.33-8.46
			c-9.9-1.98-14.67-8.82-12.87-14.49c3.15-10.08,14.67-12.51,14.67-13.86c0-0.99-2.25-2.43-3.42-3.78l1.62-1.08
			C660.96,36.84,667.08,42.96,667.08,43.86z M631.08,75.54c0.9,2.43,2.52,4.05,3.96,4.05c2.34,0,5.58-3.6,9.36-5.67l0.18,0.81
			c-1.44,1.8-4.41,3.96-5.76,7.2c-0.54,1.17-2.52,4.14-3.78,4.14c-1.53,0-3.96-0.54-5.31-3.78c-0.63-1.53-1.35-4.05-0.54-5.4
			C629.73,75.9,630.99,75.27,631.08,75.54z M660.06,82.29c2.07-2.7,2.07-5.49-1.53-6.57c-1.89-0.72-5.04,0.9-6.93,3.51
			c-1.35,2.07-2.97,6.39,0,7.56C653.04,87.33,657.18,86.07,660.06,82.29z"/>
		<path d="M499.9,69.69c1.8,1.53,1.71,2.34,0,3.06c-1.44,0.54-1.71,1.62-1.71,3.96c0,1.08,0,2.16-0.09,3.24
			c4.77-0.72,10.53,3.78,9.9,4.41c-0.72,0.63-2.07,1.35-3.24,2.52c-0.63,0.72-4.5-0.99-5.49-0.63c-0.36,0.09-1.08,0.27-1.98,0.63
			c-1.44,6.93-4.77,12.24-11.43,18.09l-0.72-0.54c4.5-5.22,7.74-10.08,9.18-16.56c-2.97,0.99-6.21,2.16-7.02,2.52
			c-0.99,0.36-0.54,1.35-1.35,2.16c-0.81,1.08-2.16,1.26-2.79,0.27c-0.63-0.99-0.54-3.87-0.09-4.41c0.45-0.54,1.53-0.36,2.34-1.44
			c0.9-1.08,3.15-5.31,4.86-9.81l1.08,0.72c-1.53,4.77-3.15,7.38-3.51,8.37c-0.36,0.72,0.27,1.17,6.12-1.89
			c0.36-0.18,0.72-0.45,0.99-0.63c0.18-2.07,0.27-4.23,0.09-6.66c-0.36-5.13-3.33-7.74-5.49-9.99l1.8-1.35
			C496.48,66.63,498.73,68.7,499.9,69.69z M501.43,54.93c3.69-3.51,11.25-11.07,12.42-16.2c0.27-1.44-1.44-2.88-2.97-2.88l1.08-2.52
			c2.88,0,4.86,1.44,6.75,2.7c1.53,0.9,2.7,1.71,2.7,2.34c0,1.08-2.07,0.36-4.14,3.15c-2.7,3.69-7.74,7.83-10.89,11.07
			c-1.26,1.35-0.63,1.44,0.18,1.08c1.89-0.63,3.78-0.54,7.38,1.89c3.33,2.25,5.4,6.48,5.4,12.42c0,6.12-1.62,10.8-1.62,16.38
			c0,8.46,8.46,18.45,15.57,18.45c4.95,0,9.18-2.88,12.51-4.95l0.9,1.71c-4.05,3.6-9.45,8.28-17.46,8.28
			c-9.99,0-16.74-13.32-16.74-19.98c0-6.48,2.7-13.41,2.7-18c0-6.03-0.72-10.8-4.32-12.42c-3.33-1.44-5.76-2.25-8.1,0.45
			c-2.16,2.52-2.7,4.95-3.6,4.95c-1.62,0-1.89-1.08-1.89-2.16C497.29,57.18,499.18,57.09,501.43,54.93z M523.21,53.04
			c0.63,1.8,2.7,2.34,3.78,2.34c0.9,0,2.25-1.62,6.12-2.34c1.8-0.36,6.3,4.41,5.58,6.75c-0.54,2.07-4.14,3.51-7.83,3.15l-0.63-1.62
			c2.7-0.45,6.66-3.78,2.7-5.94c-1.44-0.72-4.14,1.08-4.68,2.43c-0.72,1.62-1.71,3.51-3.06,3.33c-1.44-0.27-2.52-1.71-3.51-4.05
			C520.51,54.21,522.76,51.87,523.21,53.04z"/>
		<path d="M524.74,123.88c0,0.99-1.26,1.8-2.16,1.8c-1.26,0-2.07,0.81-2.25,8.19c-0.09,2.52-0.09,9.36-0.54,15.84
			c6.57-2.25,13.32-4.68,17.28-6.39l0.54,1.35c-3.42,1.98-10.17,4.77-18,7.83c-0.27,2.07-0.45,3.96-0.81,5.58
			c-1.62,8.64-5.94,27.99-21.06,31.05l-1.08-0.81c13.32-5.4,17.46-23.94,18.63-34.2c-7.02,2.61-14.49,5.31-20.97,7.47
			c-1.26,0.36-2.07,3.87-2.61,3.87c-1.62,0.18-6.39-1.53-7.02-2.7c-1.98-3.15,0-5.31,0.81-5.13c1.08,0.36,3.06,1.08,5.13,0
			c3.42-1.8,13.05-9.54,16.38-15.39c1.62-2.79,1.08-3.51,0.45-3.24c-1.98,0.63-4.41,1.53-5.85,2.61c-1.08,0.81-0.09,3.6-0.99,3.87
			c-3.78,1.17-13.59-6.75-9.72-6.75c1.89,0,5.76,1.44,8.82,0.72c1.35-0.36,6.48-1.98,7.29-2.88c1.17-1.17,1.53-2.52,2.7-2.7
			c2.07-0.18,4.5,0.63,6.12,1.44c-0.09-5.4-0.45-9.99-0.81-12.6c-0.09-1.08-2.61-3.15-3.06-4.14c-1.26-2.7-1.08-3.96-0.18-3.78
			C519.25,116.59,524.74,122.89,524.74,123.88z M500.98,155.38c2.07-0.36,7.92-2.07,14.58-4.32c0-0.72,0.09-1.35,0.09-1.89
			c0.18-3.87,0.27-7.74,0.18-11.34c-0.54,0.27-1.17,0.45-1.8,0.72c-1.08,0.45-9.09,10.71-15.03,16.11
			C498.19,155.38,499.45,155.65,500.98,155.38z"/>
		<path class="st1" d="M427.83,82.62c0.18-4.32-0.09-11.79-0.18-19.44c-2.61-1.8-5.67-4.41-5.67-6.03c0-0.99,1.17-3.06,2.07-2.16
			c2.07,2.07,4.77,2.79,7.56,2.79c3.24,0,16.2-5.58,17.37-5.58c3.15,0,5.85,3.33,5.85,4.5c0,0.9-3.69,3.24-5.31,3.96
			c0.81,0.9,1.44,1.71,1.44,1.98c0,0.81-1.98,0.63-1.98,2.79c0,3.6,0.09,9.09,0.27,19.26c0.27,12.96,5.94,24.84,21.33,27.36
			l-0.9,1.44c-13.95-0.27-26.46-11.97-26.46-25.56c0-14.67,0-21.69-0.36-23.22c-0.27-1.17-0.72-2.25-1.62-2.7l-3.15,0.72
			c-2.34,0.72-3.78,1.35-4.77,1.8c0.09,5.94,0.27,16.74-0.27,23.76c-0.99,13.59-11.07,24.21-23.49,24.21l-0.72-1.71
			C415.95,110.52,427.02,101.52,427.83,82.62z M419.64,87.93c0.18-3.06,0-11.16-0.36-12.69s-1.35-2.7-2.88-2.7s-2.52-0.36-1.53-1.35
			c1.53-1.53,4.14-6.03,5.58-6.03c0.99,0,5.49,4.86,5.49,5.58c0,0.81-1.62,0.63-1.62,2.79c0,3.6,0,9.09-0.27,14.31
			c-0.36,8.37-5.67,15.39-11.7,17.19l-0.81-1.71C415.05,101.16,419.1,99.09,419.64,87.93z M443.22,45.99c0,1.26-2.79,5.31-5.49,6.75
			l-0.81-0.72c0.18-0.18,0.63-0.72,0.63-1.62s-4.05-2.79-4.05-6.12c0-1.53,4.14-7.02,4.68-6.3
			C439.53,40.05,443.22,43.92,443.22,45.99z M437.91,70.11c0.9,1.44,3.42,4.05,3.42,5.4c0,0.9-1.44,3.33-3.24,4.32
			c-0.63-0.36-0.63-0.99-0.63-1.35c0-0.63-2.7-1.89-2.7-4.14C434.76,73.35,437.55,69.66,437.91,70.11z M437.91,80.73
			c0.9,1.44,3.42,4.05,3.42,5.4c0,0.9-1.44,3.33-3.24,4.32c-0.63-0.36-0.63-0.99-0.63-1.35c0-0.63-2.7-1.89-2.7-4.14
			C434.76,83.97,437.55,80.28,437.91,80.73z M457.08,65.79c1.44,0,3.78,3.96,5.31,5.49c0.99,0.99,0,1.35-1.53,1.35
			c-1.53,0-3.06,1.71-3.42,3.24c-0.36,1.53-0.63,7.38-0.18,14.13c0.36,6.03,3.24,10.35,7.47,13.95l-0.81,1.71
			c-6.75-4.41-10.89-9.63-11.34-17.82c-0.27-5.85-0.18-10.08-0.18-13.68c0-2.16-0.81-1.98-0.81-2.79
			C451.59,70.65,456.09,65.79,457.08,65.79z"/>
	</g>
</g>
</svg>
