<?xml version="1.0" encoding="utf-8"?>
<!-- Generator: Adobe Illustrator 25.4.1, SVG Export Plug-In . SVG Version: 6.00 Build 0)  -->
<svg version="1.1" id="Layer_1" xmlns="http://www.w3.org/2000/svg" xmlns:xlink="http://www.w3.org/1999/xlink" x="0px" y="0px"
	 viewBox="0 0 1365.74 364.04" style="enable-background:new 0 0 1365.74 364.04;" xml:space="preserve">
<style type="text/css">
	.st0{fill:#FFFFFF;}
	.st1{fill:#ED1C24;}
</style>
<g>
	<path class="st0" d="M696.9,87.81c2.34,1.73,5.96,3.79,9.91,3.79c5.27,0,7.96-3.63,9.4-5.58c0.44-0.6,0.98-1.33,1.67-2.18
		c0.31-0.25,0.85-0.64,1.35-0.98c2.04-0.54,7.97-1.38,15.08-1.66c-1.17,1.42-1.94,3.15-2.19,5c-0.19,1.44-0.07,2.89,0.35,4.26
		c-7.5,9.14-23.57,21.15-31.82,23.46c-3.42,0.96-6.08,3.66-6.98,7.1s0.09,7.1,2.6,9.61l1.09,1.09c1.9,1.9,4.45,2.93,7.07,2.93
		c0.79,0,1.59-0.09,2.38-0.29c2.57-0.63,5.02-1.39,7.34-2.24c0.23,1.26,0.62,2.59,1.26,3.97c-0.27,0.29-0.54,0.6-0.81,0.93
		c-0.05,0.06-0.1,0.13-0.15,0.19c-3.01,3.87-3.61,9.75-1.49,14.64c0.45,1.04,1.14,2.34,2.18,3.63c-1.31,1.07-2.37,2.48-3.02,4.16
		l-0.5,1.29c-0.16,0.41-0.27,0.82-0.38,1.24c-0.89,0.43-1.73,1-2.47,1.69l-1.58,1.48c-2.1,1.97-3.25,4.75-3.16,7.63
		c0.1,2.88,1.43,5.58,3.66,7.4c0.91,0.74,1.35,1.15,1.57,1.37c0.61,3.05,0.59,12.17,0.36,16.32c-2.03,2.98-2.22,6.39-2.12,9.15
		c0,0.04,0,0.07,0,0.11c0.27,5.94,4.99,11.78,10.4,13.67c-3.12,3.81-5.53,8.12-7.02,12.63c-2.77,8.41-2.34,17.07,1.26,25.05
		c1.12,2.48,3.2,4.4,5.76,5.31c1.09,0.39,2.22,0.58,3.35,0.58c1.54,0,3.07-0.35,4.47-1.06l1.98-0.99c3.82-1.91,6-6.03,5.44-10.26
		l-0.02-0.12c-0.87-6.54-1.02-9.87,1.27-12.12c0.04-0.04,0.07-0.07,0.11-0.11c3.68-3.73,7.45-6.46,11.1-9.1
		c8.76-6.34,18.68-13.52,18.68-31.06c0-8.86-3.35-14.37-6.17-17.44c-4.02-4.39-9.64-6.8-15.81-6.8c-2.03,0-4.08,0.21-6.12,0.62
		c-0.06-0.45-0.15-0.89-0.27-1.33c8.25-1.89,15.41-6.83,19.61-13.83c0.02-0.03,0.04-0.06,0.05-0.09c2.28-3.9,5.74-11.59,3.21-19.23
		c-0.81-2.45-2.46-5.56-5.8-8.12c0.73-0.41,1.42-0.89,2.07-1.42c0.26-0.21,0.51-0.44,0.74-0.67c2.02-2.03,3.27-4.28,3.72-6.7
		c6.97-0.91,12.39-4.94,13.96-10.61c1.16-4.03,0.11-8.52-2.95-12.67c-1.11-1.51-3.52-4.34-6.89-6.06c-0.11-2.83-1.09-5.71-2.91-8.33
		c-0.2-0.3-0.42-0.6-0.65-0.9c1.1,0.21,2.3,0.34,3.63,0.34c0.34,0,0.65-0.01,0.93-0.01l0.16,0c5.79,0,12.33-5.12,12.33-11.98
		c0-5.42-3.27-9.06-4.35-10.25c-0.19-0.22-0.4-0.42-0.61-0.62c-3.24-3.03-6.92-5.28-11.23-6.9c-1.21-0.46-2.48-0.69-3.77-0.69
		c-2,0-5.12,0.54-7.73,3.38c-0.14-0.01-0.27-0.03-0.41-0.04c4.65-4.91,6.11-8.31,6.7-11.08c0.02-0.1,0.04-0.2,0.06-0.31
		c0.88-4.82-0.58-9.44-3.21-13.36c0.94-1.52,1.79-3.64,1.79-6.44l0-0.14c0.03-2.02,0.12-7.34-3.11-11.69
		c-2.39-3.37-6.81-8.03-17.41-10.48c-0.75-0.17-1.5-0.26-2.25-0.26c-2.86,0-5.63,1.23-7.56,3.45l-1.29,1.48
		c-1.11,1.28-1.86,2.8-2.21,4.41c-4.74,2.75-8.83,6.82-9.97,11.76c-0.64,2.75-0.53,5.57,0.29,8.22c-3.14,1.12-5.65,3.56-7,6
		c-2.23,4-2.2,9.05,0.09,14.61c0.01,0.03,0.03,0.07,0.04,0.1c1.07,2.52,2.68,4.75,4.63,6.57c-0.91,0.6-1.73,1.11-2.42,1.53
		c-0.98-0.31-2.24-0.64-3.79-0.64c-3.09,0-6.04,1.32-8.32,3.71c-2.64,2.77-4.04,6.58-3.84,10.45c0,0.04,0,0.08,0.01,0.12
		C690.54,81.24,692.76,84.75,696.9,87.81z M755.29,72.89c-0.78-0.13-1.56-0.27-2.35-0.4C753.73,72.62,754.51,72.76,755.29,72.89z
		 M754.43,70.1c0.04-0.01,0.08-0.01,0.12-0.02C754.51,70.1,754.47,70.1,754.43,70.1z M754.71,70.01c0.03-0.02,0.07-0.03,0.1-0.05
		C754.78,69.98,754.74,69.99,754.71,70.01z M754.97,69.82c0.02-0.02,0.05-0.04,0.07-0.07C755.02,69.78,754.99,69.8,754.97,69.82z
		 M755.23,69.49c0,0,0.01-0.01,0.01-0.01C755.24,69.49,755.24,69.49,755.23,69.49z M759.45,114.56c-0.14,0.03-0.27,0.06-0.41,0.09
		C759.18,114.63,759.32,114.59,759.45,114.56z M758.78,114.7c-0.13,0.02-0.27,0.05-0.41,0.07
		C758.51,114.75,758.65,114.73,758.78,114.7z M758.75,104.11c0.09,0.03,0.17,0.07,0.26,0.11
		C758.93,104.18,758.84,104.14,758.75,104.11z M759.26,104.35c0.09,0.05,0.18,0.1,0.28,0.16
		C759.44,104.45,759.35,104.4,759.26,104.35z M757.76,103.96c0.07-0.01,0.15-0.02,0.23-0.02c0.03,0,0.07,0.01,0.1,0.01
		C757.98,103.94,757.86,103.94,757.76,103.96z M758.29,103.98c0.08,0.01,0.16,0.03,0.24,0.06
		C758.45,104.01,758.37,103.99,758.29,103.98z M757.57,106.53c-0.11-0.06-0.24-0.1-0.36-0.13
		C757.33,106.43,757.45,106.47,757.57,106.53z M757.08,106.38c-0.09-0.01-0.18-0.03-0.28-0.03
		C756.9,106.36,756.99,106.37,757.08,106.38z M756.67,106.36c-0.18,0-0.36,0.02-0.55,0.06C756.31,106.38,756.5,106.36,756.67,106.36
		z M756.04,106.44c-0.18,0.04-0.37,0.1-0.55,0.17C755.67,106.54,755.86,106.48,756.04,106.44z M755.43,106.63
		c-0.19,0.08-0.39,0.17-0.58,0.27C755.04,106.79,755.23,106.7,755.43,106.63z M754.73,106.95c-0.19,0.1-0.37,0.21-0.55,0.33
		C754.37,107.17,754.55,107.06,754.73,106.95z M754.1,107.35c-0.17,0.12-0.34,0.25-0.5,0.38
		C753.76,107.6,753.93,107.47,754.1,107.35z M753.57,107.75c-0.16,0.14-0.31,0.28-0.44,0.42
		C753.26,108.04,753.41,107.89,753.57,107.75z M735.74,201.72c0.09,0.01,0.19,0.03,0.28,0.03
		C735.92,201.75,735.83,201.73,735.74,201.72z M733.69,200.79c0.09,0.07,0.19,0.13,0.28,0.2
		C733.88,200.92,733.79,200.86,733.69,200.79z M734.37,201.23c0.1,0.05,0.2,0.11,0.3,0.15
		C734.56,201.33,734.47,201.28,734.37,201.23z M735.05,201.54c0.1,0.04,0.2,0.07,0.29,0.1
		C735.25,201.61,735.15,201.58,735.05,201.54z M733.05,200.26c0.09,0.08,0.18,0.15,0.26,0.23
		C733.23,200.42,733.14,200.34,733.05,200.26z M731.96,199.02c0.05,0.07,0.11,0.14,0.17,0.22
		C732.07,199.16,732.01,199.09,731.96,199.02z M732.47,199.67c0.07,0.08,0.15,0.16,0.23,0.24
		C732.62,199.82,732.54,199.75,732.47,199.67z M729.99,200.58c0-0.02,0.01-0.04,0.01-0.07C730,200.53,729.99,200.55,729.99,200.58z
		 M730.07,200.13c0.01-0.02,0.01-0.05,0.02-0.07C730.09,200.08,730.08,200.1,730.07,200.13z M730.21,199.63
		C730.21,199.63,730.21,199.63,730.21,199.63C730.21,199.63,730.21,199.63,730.21,199.63z M730.36,199.21
		c0.01-0.02,0.02-0.05,0.03-0.07C730.38,199.16,730.37,199.19,730.36,199.21z M730.56,198.77c0.01-0.02,0.02-0.04,0.03-0.06
		C730.58,198.73,730.57,198.75,730.56,198.77z M730.78,198.41C730.78,198.41,730.78,198.4,730.78,198.41
		C730.78,198.4,730.78,198.41,730.78,198.41z M730.98,198.2c0.01-0.01,0.03-0.02,0.04-0.03C731,198.17,730.99,198.19,730.98,198.2z
		 M731.2,198.09c0,0,0.01-0.01,0.01-0.01c0.01,0,0.02,0.01,0.03,0.01C731.23,198.09,731.22,198.09,731.2,198.09z M731.36,198.14
		c0.01,0.01,0.03,0.02,0.04,0.03C731.39,198.16,731.37,198.15,731.36,198.14z M722.48,195.08c0.01,0.02,0.03,0.04,0.04,0.05
		C722.51,195.11,722.49,195.09,722.48,195.08z M722.93,195.13c-0.06,0.03-0.12,0.04-0.18,0.05
		C722.81,195.17,722.87,195.16,722.93,195.13z M722.68,195.19c-0.02,0-0.03-0.01-0.05-0.01
		C722.65,195.18,722.66,195.19,722.68,195.19z M722.41,194.93c-0.01-0.03-0.02-0.05-0.03-0.08
		C722.39,194.88,722.4,194.9,722.41,194.93z M723.03,195.07c0.06-0.04,0.12-0.08,0.19-0.13
		C723.15,194.99,723.09,195.03,723.03,195.07z M723.33,194.85c0.07-0.06,0.14-0.13,0.21-0.2
		C723.47,194.72,723.4,194.79,723.33,194.85z M723.63,194.55c0.1-0.11,0.2-0.23,0.3-0.35C723.83,194.32,723.73,194.44,723.63,194.55
		z M723.92,28.55c0.05-0.06,0.11-0.12,0.17-0.18C724.03,28.43,723.97,28.49,723.92,28.55z M724.41,28.07
		c0.06-0.05,0.13-0.11,0.19-0.16C724.53,27.96,724.47,28.02,724.41,28.07z M725.04,27.6c0.06-0.04,0.11-0.08,0.17-0.12
		C725.15,27.52,725.09,27.56,725.04,27.6z M725.89,27.1c0.04-0.02,0.08-0.04,0.12-0.06C725.97,27.06,725.93,27.08,725.89,27.1z
		 M726.64,26.75c0.09-0.04,0.18-0.07,0.26-0.11C726.81,26.68,726.72,26.72,726.64,26.75z M727.43,26.45c0.1-0.04,0.2-0.07,0.3-0.1
		C727.63,26.38,727.53,26.41,727.43,26.45z M728.26,26.18c0.1-0.03,0.21-0.06,0.31-0.09C728.47,26.11,728.36,26.15,728.26,26.18z
		 M729.12,25.95c0.09-0.02,0.19-0.05,0.28-0.07C729.31,25.9,729.21,25.92,729.12,25.95z M730.05,25.75
		c0.06-0.01,0.11-0.02,0.17-0.03C730.16,25.72,730.11,25.74,730.05,25.75z M731.01,25.6c0.06-0.01,0.12-0.01,0.18-0.02
		C731.13,25.59,731.07,25.59,731.01,25.6z M731.76,25.54c0.08,0,0.16-0.01,0.25-0.01C731.92,25.53,731.84,25.53,731.76,25.54z
		 M732.4,25.53c0.18,0,0.34,0.01,0.5,0.03C732.74,25.54,732.58,25.53,732.4,25.53z M733.13,25.57c0.22,0.03,0.42,0.07,0.59,0.12
		C733.55,25.64,733.35,25.6,733.13,25.57z M723.32,29.59c0.02-0.06,0.05-0.12,0.07-0.17C723.37,29.47,723.34,29.53,723.32,29.59z
		 M723.55,29.06c0.04-0.07,0.08-0.13,0.13-0.19C723.63,28.93,723.59,28.99,723.55,29.06z M722.44,70.12
		c-0.13,0.02-0.28,0.03-0.42,0.03C722.17,70.15,722.31,70.14,722.44,70.12z M721.96,70.15c-0.12,0-0.24-0.01-0.36-0.03
		C721.71,70.14,721.83,70.15,721.96,70.15z M721.53,70.11c-0.1-0.02-0.2-0.05-0.29-0.08C721.33,70.06,721.42,70.09,721.53,70.11z
		 M720.95,69.79c-0.05-0.08-0.09-0.16-0.09-0.26C720.86,69.63,720.9,69.71,720.95,69.79z M721.2,70.01
		c-0.09-0.04-0.16-0.1-0.22-0.17C721.04,69.91,721.11,69.96,721.2,70.01z M742.73,150.98c0.01-0.11,0.02-0.23,0.02-0.35
		C742.75,150.75,742.74,150.86,742.73,150.98z M744.85,106.29c-0.01,0.12-0.01,0.24-0.01,0.36
		C744.84,106.53,744.84,106.41,744.85,106.29z M745.02,107.87c0.05,0.18,0.11,0.36,0.18,0.54
		C745.13,108.23,745.07,108.05,745.02,107.87z M744.84,106.82c0.01,0.11,0.02,0.22,0.03,0.33
		C744.86,107.04,744.85,106.93,744.84,106.82z M744.9,107.34c0.02,0.12,0.05,0.24,0.08,0.36
		C744.95,107.58,744.92,107.46,744.9,107.34z M745.07,105.18c0.03-0.08,0.06-0.17,0.09-0.24
		C745.13,105.02,745.1,105.1,745.07,105.18z M744.85,106.18c0.01-0.15,0.04-0.3,0.06-0.44
		C744.89,105.87,744.87,106.02,744.85,106.18z M744.94,105.63c0.02-0.11,0.05-0.21,0.08-0.31
		C744.99,105.42,744.97,105.52,744.94,105.63z M746.45,103.62c0.01,0,0.02,0.01,0.03,0.01c-0.01,0-0.02-0.01-0.04-0.01
		C746.45,103.62,746.45,103.62,746.45,103.62z M746.39,103.63c-0.04,0.01-0.09,0.01-0.14,0.03
		C746.3,103.64,746.35,103.63,746.39,103.63z M746.19,103.69c-0.04,0.02-0.09,0.04-0.13,0.07
		C746.1,103.73,746.14,103.71,746.19,103.69z M745.98,103.81c-0.05,0.03-0.09,0.07-0.14,0.12
		C745.89,103.88,745.93,103.84,745.98,103.81z M745.78,103.98c-0.07,0.07-0.13,0.14-0.2,0.23
		C745.64,104.13,745.71,104.05,745.78,103.98z M745.56,104.23c-0.06,0.08-0.12,0.16-0.17,0.25
		C745.45,104.39,745.5,104.31,745.56,104.23z M745.33,104.59c-0.04,0.07-0.08,0.14-0.11,0.22
		C745.26,104.73,745.29,104.66,745.33,104.59z M727.69,127.3c0.04-0.09,0.09-0.17,0.14-0.26
		C727.78,127.12,727.73,127.21,727.69,127.3z M728.16,126.47c0.06-0.09,0.13-0.18,0.2-0.26
		C728.29,126.3,728.23,126.39,728.16,126.47z M728.81,125.72c0.07-0.07,0.13-0.14,0.21-0.21
		C728.94,125.58,728.88,125.65,728.81,125.72z M735.06,122.85c0.11-0.02,0.22-0.04,0.33-0.06
		C735.28,122.81,735.17,122.83,735.06,122.85z M735.09,136.06c-0.49-0.25-0.98-0.5-1.46-0.76s-0.94-0.53-1.38-0.8
		c0.44,0.27,0.91,0.54,1.38,0.8S734.6,135.81,735.09,136.06z M732.66,123.5c0.1-0.04,0.2-0.07,0.31-0.11
		C732.87,123.42,732.76,123.46,732.66,123.5z M731.61,123.9c0.11-0.05,0.23-0.1,0.34-0.14C731.84,123.8,731.72,123.85,731.61,123.9z
		 M730.65,124.36c0.1-0.05,0.2-0.1,0.29-0.15C730.85,124.27,730.75,124.31,730.65,124.36z M730.98,133.67
		c-0.4-0.28-0.78-0.57-1.13-0.86C730.2,133.1,730.58,133.39,730.98,133.67z M728.16,151.31c-0.03,0-0.07-0.01-0.11-0.01
		c0.06,0,0.12,0,0.18,0C728.21,151.3,728.19,151.31,728.16,151.31z M730.19,150.75c0.03-0.02,0.06-0.05,0.09-0.08
		C730.25,150.7,730.22,150.73,730.19,150.75z M729.71,151.04c-0.03,0.01-0.06,0.02-0.1,0.03
		C729.65,151.06,729.68,151.05,729.71,151.04z M729.06,151.23c-0.03,0.01-0.06,0.02-0.1,0.02
		C729,151.24,729.03,151.23,729.06,151.23z M727.74,144.96c0.04,0,0.08-0.01,0.12-0.01C727.83,144.95,727.79,144.95,727.74,144.96z
		 M727.21,144.93c0.06,0.01,0.12,0.01,0.18,0.02C727.33,144.94,727.27,144.94,727.21,144.93z M725.35,143.98
		c0.06,0.05,0.12,0.11,0.19,0.16C725.47,144.09,725.41,144.04,725.35,143.98z M725.93,144.41c0.05,0.03,0.1,0.07,0.16,0.1
		C726.04,144.48,725.99,144.45,725.93,144.41z M726.66,144.78c0.03,0.01,0.07,0.02,0.1,0.03
		C726.72,144.8,726.69,144.79,726.66,144.78z M724.85,143.48c0.06,0.07,0.11,0.13,0.17,0.19
		C724.96,143.61,724.91,143.54,724.85,143.48z M724.13,142.25C724.13,142.24,724.12,142.24,724.13,142.25
		C724.12,142.24,724.13,142.24,724.13,142.25C724.13,142.25,724.13,142.25,724.13,142.25C724.13,142.25,724.13,142.25,724.13,142.25
		z M724.43,142.9c0.04,0.07,0.09,0.13,0.13,0.19C724.52,143.02,724.47,142.96,724.43,142.9z M724.06,142.13
		c-0.01-0.01-0.03-0.01-0.04-0.01C724.03,142.13,724.05,142.13,724.06,142.13z M723.93,142.1
		C723.93,142.1,723.93,142.1,723.93,142.1c0,0-0.01,0-0.01,0C723.92,142.1,723.92,142.1,723.93,142.1z M723.26,142.42
		c0,0,0.01-0.01,0.01-0.01C723.27,142.41,723.26,142.42,723.26,142.42z M723.6,142.2c0.03-0.01,0.05-0.02,0.07-0.03
		C723.65,142.18,723.63,142.19,723.6,142.2z M722.78,142.86c0.04-0.04,0.07-0.07,0.1-0.1C722.85,142.79,722.81,142.82,722.78,142.86
		z M723.16,163.43c0.04,0,0.07,0.01,0.11,0.01C723.23,163.44,723.2,163.43,723.16,163.43C723.16,163.43,723.16,163.43,723.16,163.43
		z M723.45,163.44c0.09,0,0.19-0.01,0.29-0.01C723.64,163.44,723.54,163.44,723.45,163.44z M727.17,162.96
		c-0.13,0.03-0.26,0.06-0.4,0.09C726.91,163.02,727.04,162.99,727.17,162.96z M726.27,163.15c-0.13,0.02-0.26,0.05-0.38,0.07
		C726.01,163.19,726.14,163.17,726.27,163.15z M725.39,163.29c-0.12,0.02-0.24,0.03-0.36,0.05
		C725.15,163.32,725.27,163.31,725.39,163.29z M724.55,163.38c-0.11,0.01-0.22,0.02-0.33,0.03
		C724.32,163.41,724.44,163.39,724.55,163.38z M728.1,162.74c-0.13,0.04-0.27,0.07-0.4,0.1C727.83,162.8,727.97,162.77,728.1,162.74
		z M730.01,162.16c-0.12,0.04-0.24,0.08-0.36,0.12C729.76,162.24,729.89,162.2,730.01,162.16z M729.05,162.47
		c-0.13,0.04-0.26,0.08-0.39,0.11C728.78,162.54,728.92,162.51,729.05,162.47z M730.98,161.81c-0.09,0.03-0.18,0.06-0.27,0.1
		C730.79,161.88,730.88,161.85,730.98,161.81z M732.15,161.34c-0.07,0.03-0.14,0.06-0.21,0.09
		C732.01,161.4,732.08,161.37,732.15,161.34z M742.32,148.14c0.04,0.09,0.06,0.19,0.09,0.28
		C742.38,148.33,742.36,148.23,742.32,148.14z M742.58,148.98c0.03,0.11,0.04,0.22,0.06,0.33
		C742.62,149.2,742.61,149.09,742.58,148.98z M742.72,149.81c0.01,0.11,0.02,0.23,0.02,0.34
		C742.74,150.04,742.74,149.93,742.72,149.81z M742.67,151.44c-0.02,0.11-0.04,0.23-0.06,0.34
		C742.63,151.67,742.66,151.56,742.67,151.44z M742.49,152.24c-0.03,0.11-0.07,0.22-0.1,0.33
		C742.43,152.46,742.46,152.35,742.49,152.24z M742.21,153.03c-0.04,0.11-0.09,0.21-0.14,0.32
		C742.13,153.24,742.17,153.13,742.21,153.03z M741.84,153.8c-0.05,0.1-0.1,0.2-0.16,0.29C741.74,154,741.79,153.9,741.84,153.8z
		 M741.36,154.58c-0.05,0.08-0.1,0.16-0.16,0.24C741.26,154.75,741.31,154.67,741.36,154.58z M740.72,155.46
		c-0.02,0.03-0.04,0.06-0.06,0.08C740.67,155.51,740.69,155.48,740.72,155.46z M740.03,156.23c-0.06,0.07-0.13,0.13-0.2,0.2
		C739.89,156.36,739.96,156.3,740.03,156.23z M739.34,156.9c-0.09,0.08-0.19,0.16-0.28,0.25
		C739.16,157.06,739.25,156.98,739.34,156.9z M738.6,157.54c-0.11,0.09-0.21,0.17-0.32,0.26
		C738.39,157.71,738.5,157.63,738.6,157.54z M737.81,158.16c-0.12,0.09-0.23,0.17-0.35,0.25
		C737.58,158.33,737.69,158.25,737.81,158.16z M736.97,158.75c-0.12,0.08-0.24,0.16-0.37,0.24
		C736.73,158.92,736.85,158.83,736.97,158.75z M736.1,159.32c-0.13,0.08-0.25,0.15-0.38,0.23
		C735.84,159.47,735.97,159.39,736.1,159.32z M735.18,159.85c-0.13,0.07-0.25,0.14-0.38,0.21
		C734.93,160,735.06,159.93,735.18,159.85z M734.24,160.36c-0.13,0.06-0.25,0.13-0.38,0.19
		C733.99,160.49,734.11,160.43,734.24,160.36z M733.25,160.85c-0.11,0.05-0.23,0.11-0.34,0.16
		C733.02,160.96,733.14,160.9,733.25,160.85z M735.84,136.42c0.5,0.24,1.01,0.48,1.51,0.7C736.84,136.9,736.34,136.66,735.84,136.42
		z M737.15,122.54c0.1-0.01,0.2-0.02,0.3-0.03C737.35,122.52,737.25,122.53,737.15,122.54z M736.11,122.67
		c0.12-0.02,0.24-0.03,0.35-0.05C736.34,122.64,736.22,122.66,736.11,122.67z M739.44,122.44c-0.08,0-0.15,0-0.24-0.01
		C739.28,122.44,739.36,122.44,739.44,122.44z M740.73,122.55c-0.05-0.01-0.11-0.02-0.16-0.02
		C740.62,122.54,740.68,122.54,740.73,122.55z M740.16,122.48c-0.07-0.01-0.15-0.01-0.23-0.02
		C740.02,122.47,740.09,122.47,740.16,122.48z M746.03,125.42c-0.04,0-0.07,0.01-0.11,0.01c-0.03,0-0.06-0.01-0.09-0.01
		C745.9,125.42,745.96,125.42,746.03,125.42z M745.43,125.38c-0.06-0.01-0.12-0.02-0.18-0.03
		C745.3,125.36,745.36,125.37,745.43,125.38z M746.67,103.69c0.02,0.01,0.04,0.02,0.05,0.04
		C746.71,103.71,746.69,103.7,746.67,103.69z M746.6,99.02c0.07-0.03,0.13-0.06,0.2-0.08C746.73,98.97,746.67,98.99,746.6,99.02z
		 M748.02,98.67c-0.07,0-0.14,0.01-0.21,0.01C747.88,98.68,747.95,98.68,748.02,98.67z M747.42,98.74
		c-0.07,0.01-0.14,0.03-0.22,0.05C747.28,98.77,747.35,98.76,747.42,98.74z M750.4,98.96c-0.1-0.01-0.19-0.03-0.29-0.04
		C750.21,98.93,750.3,98.95,750.4,98.96z M749.58,98.83c-0.17-0.03-0.35-0.06-0.52-0.08C749.23,98.78,749.4,98.8,749.58,98.83z
		 M748.76,98.71c-0.15-0.02-0.3-0.03-0.45-0.03C748.46,98.69,748.61,98.7,748.76,98.71z M727.58,165.61
		c0.37,0.01,0.74,0.03,1.11,0.02c-0.08,0-0.17,0.01-0.25,0.01C728.15,165.64,727.86,165.62,727.58,165.61z M740.79,162.11
		c-0.35,0.22-0.7,0.43-1.06,0.64C740.09,162.54,740.44,162.33,740.79,162.11z M739.4,162.93c-0.47,0.25-0.95,0.49-1.44,0.71
		C738.45,163.42,738.93,163.19,739.4,162.93z M737.59,163.79c-0.38,0.16-0.77,0.32-1.16,0.46
		C736.83,164.11,737.21,163.96,737.59,163.79z M735.93,164.43c-0.38,0.13-0.77,0.25-1.17,0.36
		C735.15,164.67,735.54,164.56,735.93,164.43z M734.32,164.91c-0.54,0.14-1.08,0.26-1.63,0.36
		C733.24,165.16,733.79,165.04,734.32,164.91z M732.39,165.31c-0.46,0.08-0.92,0.14-1.39,0.19
		C731.47,165.45,731.94,165.38,732.39,165.31z M730.46,165.55c-0.42,0.03-0.83,0.06-1.25,0.07
		C729.63,165.6,730.05,165.58,730.46,165.55z M743.7,159.85c-0.38,0.36-0.78,0.69-1.18,1.02
		C742.92,160.55,743.32,160.21,743.7,159.85z M742.16,161.14c-0.31,0.23-0.62,0.46-0.94,0.68
		C741.54,161.61,741.85,161.38,742.16,161.14z M738.1,137.46c0.5,0.22,1,0.43,1.49,0.64C739.1,137.9,738.6,137.68,738.1,137.46z
		 M746.58,125.36c0.05-0.01,0.09-0.01,0.14-0.02C746.67,125.35,746.62,125.35,746.58,125.36z M747.38,125.13
		c0.05-0.02,0.1-0.04,0.15-0.07C747.49,125.09,747.44,125.11,747.38,125.13z M748.04,124.82c0.06-0.03,0.11-0.06,0.17-0.1
		C748.15,124.76,748.09,124.79,748.04,124.82z M749.06,112.86c0.13,0.02,0.26,0,0.38-0.02c-0.06,0.01-0.12,0.03-0.19,0.03
		C749.19,112.87,749.12,112.87,749.06,112.86z M744.46,71.31c0.31,0.03,0.63,0.05,0.93,0.09C745.09,71.37,744.78,71.34,744.46,71.31
		z M746.6,71.53c0.3,0.04,0.59,0.07,0.89,0.11C747.2,71.6,746.9,71.57,746.6,71.53z M748.69,71.8c0.28,0.04,0.55,0.08,0.83,0.12
		C749.25,71.88,748.97,71.84,748.69,71.8z M750.76,72.12c0.25,0.04,0.5,0.08,0.74,0.12C751.26,72.2,751.01,72.16,750.76,72.12z
		 M739.95,71.09c0.34,0,0.68,0.01,1.01,0.02C740.63,71.1,740.3,71.1,739.95,71.09z M742.25,71.16c0.33,0.02,0.66,0.04,0.98,0.06
		C742.91,71.2,742.58,71.18,742.25,71.16z M742.9,30.35c0,0-0.01,0-0.01,0c0.07,0,0.13-0.02,0.19-0.03
		C743.02,30.33,742.97,30.35,742.9,30.35z M743.18,30.3c0.09-0.03,0.17-0.08,0.24-0.16C743.35,30.22,743.27,30.27,743.18,30.3z
		 M742.23,30.18c0.09,0.04,0.17,0.07,0.25,0.09C742.4,30.25,742.32,30.22,742.23,30.18z M742.59,30.3c0.09,0.02,0.17,0.04,0.25,0.04
		C742.76,30.34,742.67,30.33,742.59,30.3z M740.83,29.41c0.12,0.07,0.23,0.14,0.35,0.21C741.06,29.55,740.95,29.48,740.83,29.41z
		 M741.33,29.71c0.13,0.08,0.25,0.15,0.37,0.21C741.58,29.86,741.46,29.79,741.33,29.71z M741.76,29.95
		c0.13,0.07,0.25,0.13,0.37,0.19C742.01,30.09,741.89,30.02,741.76,29.95z M713.82,52.83c0.05,0.09,0.1,0.17,0.16,0.26
		C713.92,53,713.87,52.91,713.82,52.83z M714.67,54.05c0.01,0.01,0.02,0.02,0.02,0.03C714.69,54.07,714.68,54.06,714.67,54.05z
		 M715.48,54.89c0.07,0.06,0.14,0.13,0.21,0.19C715.62,55.02,715.55,54.96,715.48,54.89z M716.56,55.77
		c0.02,0.01,0.04,0.02,0.05,0.03C716.6,55.79,716.58,55.78,716.56,55.77z M717.49,56.33c0.08,0.04,0.15,0.08,0.23,0.12
		C717.65,56.41,717.57,56.37,717.49,56.33z M718.65,56.84c0.02,0.01,0.05,0.01,0.07,0.02C718.7,56.85,718.68,56.85,718.65,56.84z
		 M719.59,57.09c0.07,0.01,0.15,0.03,0.22,0.04C719.73,57.12,719.66,57.1,719.59,57.09z M720.69,57.21c0.12,0,0.23-0.01,0.34-0.02
		c-0.11,0.01-0.21,0.02-0.32,0.02C720.7,57.21,720.69,57.21,720.69,57.21z M721.29,57.17c0.12-0.02,0.23-0.04,0.34-0.07
		C721.52,57.13,721.41,57.16,721.29,57.17z M721.86,57.05c0.12-0.04,0.23-0.09,0.34-0.13C722.09,56.97,721.98,57.02,721.86,57.05z
		 M722.38,56.85c0.16-0.08,0.32-0.18,0.46-0.29C722.7,56.67,722.55,56.77,722.38,56.85z M743.87,159.68
		c0.32-0.31,0.63-0.62,0.92-0.95C744.5,159.05,744.19,159.37,743.87,159.68z M746.11,157.1c0.3-0.42,0.6-0.85,0.87-1.3
		C746.71,156.25,746.42,156.68,746.11,157.1z M745.12,158.36c0.25-0.29,0.48-0.58,0.71-0.88
		C745.6,157.78,745.37,158.07,745.12,158.36z M749.68,112.8c0.09-0.03,0.18-0.07,0.27-0.11
		C749.86,112.73,749.77,112.77,749.68,112.8z M750.16,112.57c0.09-0.06,0.17-0.13,0.25-0.2
		C750.33,112.45,750.25,112.52,750.16,112.57z M750.62,112.2c0.08-0.08,0.16-0.18,0.24-0.27
		C750.78,112.03,750.7,112.12,750.62,112.2z M752.12,109.86c0.11-0.22,0.21-0.44,0.3-0.66c0.06-0.14,0.14-0.29,0.24-0.44
		c-0.1,0.15-0.18,0.29-0.24,0.44C752.33,109.42,752.22,109.64,752.12,109.86z M751.04,111.72c0.08-0.1,0.15-0.22,0.23-0.33
		C751.19,111.5,751.12,111.62,751.04,111.72z M751.43,111.15c0.08-0.12,0.15-0.25,0.22-0.38
		C751.58,110.89,751.5,111.02,751.43,111.15z M751.79,110.52c0.08-0.15,0.15-0.3,0.23-0.45
		C751.94,110.22,751.87,110.37,751.79,110.52z M752.71,108.69c0.1-0.14,0.21-0.28,0.34-0.42
		C752.92,108.4,752.81,108.55,752.71,108.69z M756.42,114.9c0.09,0,0.18,0,0.27,0c-0.05,0-0.09,0-0.14,0
		C756.5,114.9,756.46,114.9,756.42,114.9z M758.09,114.8c-0.13,0.02-0.27,0.03-0.41,0.04C757.82,114.84,757.96,114.82,758.09,114.8z
		 M757.39,114.87c-0.14,0.01-0.28,0.02-0.41,0.02C757.12,114.89,757.26,114.88,757.39,114.87z M759.68,114.51
		c0.17-0.04,0.33-0.09,0.49-0.14C760.01,114.41,759.85,114.46,759.68,114.51z M760.3,114.33c0.2-0.06,0.39-0.14,0.58-0.21
		C760.69,114.19,760.49,114.26,760.3,114.33z M761.03,114.05c0.13-0.06,0.26-0.11,0.39-0.17C761.29,113.94,761.16,114,761.03,114.05
		z M761.61,113.78c0.11-0.05,0.21-0.11,0.31-0.17C761.82,113.67,761.71,113.73,761.61,113.78z M762.11,113.5
		c0.09-0.06,0.18-0.11,0.27-0.17C762.29,113.38,762.2,113.44,762.11,113.5z M762.55,113.19c0.08-0.06,0.16-0.12,0.23-0.19
		C762.71,113.07,762.63,113.13,762.55,113.19z M762.94,112.87c0.07-0.07,0.14-0.13,0.2-0.2
		C763.08,112.73,763.01,112.8,762.94,112.87z M763.9,111.38c-0.04,0.14-0.08,0.27-0.14,0.4
		C763.82,111.65,763.86,111.51,763.9,111.38c0.05-0.16,0.07-0.33,0.08-0.5C763.97,111.05,763.95,111.22,763.9,111.38z
		 M763.27,112.52c0.06-0.07,0.12-0.15,0.17-0.22C763.39,112.38,763.33,112.45,763.27,112.52z M763.55,112.16
		c0.05-0.08,0.1-0.17,0.14-0.26C763.65,111.99,763.6,112.07,763.55,112.16z M763.95,110.32c0.02,0.13,0.02,0.25,0.03,0.37
		C763.97,110.57,763.97,110.45,763.95,110.32z M763.71,109.47c-0.04-0.12-0.08-0.23-0.14-0.35
		C763.62,109.24,763.66,109.35,763.71,109.47z M763.89,110.09c-0.03-0.12-0.05-0.23-0.09-0.35
		C763.84,109.85,763.86,109.97,763.89,110.09z M761.7,106.37c-0.09-0.1-0.18-0.2-0.28-0.3C761.52,106.17,761.61,106.27,761.7,106.37
		z M763.43,108.84c-0.06-0.12-0.11-0.23-0.18-0.35C763.32,108.61,763.37,108.72,763.43,108.84z M763.08,108.2
		c-0.07-0.11-0.14-0.23-0.21-0.34C762.94,107.98,763.01,108.09,763.08,108.2z M762.67,107.58c-0.08-0.11-0.16-0.23-0.24-0.34
		C762.51,107.35,762.59,107.46,762.67,107.58z M762.21,106.96c-0.09-0.11-0.17-0.22-0.27-0.32
		C762.03,106.74,762.12,106.85,762.21,106.96z M759.79,104.67c0.1,0.06,0.19,0.13,0.29,0.21
		C759.98,104.81,759.88,104.74,759.79,104.67z M760.33,105.08c0.1,0.08,0.19,0.16,0.29,0.24
		C760.53,105.24,760.43,105.15,760.33,105.08z M760.88,105.54c0.1,0.09,0.19,0.18,0.29,0.28
		C761.07,105.73,760.98,105.63,760.88,105.54z M759.64,74.97c0.15,0.2,0.32,0.37,0.5,0.52C759.96,75.33,759.79,75.17,759.64,74.97z
		 M760.31,75.61c0.14,0.1,0.29,0.19,0.44,0.27C760.6,75.81,760.45,75.72,760.31,75.61z M760.93,75.98c0.42,0.19,0.88,0.31,1.33,0.38
		C761.81,76.29,761.35,76.17,760.93,75.98z M762.47,76.39c0.17,0.02,0.33,0.04,0.49,0.05C762.8,76.43,762.63,76.41,762.47,76.39z
		 M763.15,76.45c0.21,0.01,0.41,0.02,0.6,0.02C763.56,76.47,763.36,76.46,763.15,76.45z M763.75,76.47c0.06,0,0.11,0,0.17,0
		C763.86,76.47,763.81,76.47,763.75,76.47C763.75,76.47,763.75,76.47,763.75,76.47z M757.47,66.06c-0.1-0.04-0.18-0.05-0.27-0.05
		c0,0,0.01,0,0.01,0C757.29,66.01,757.38,66.03,757.47,66.06z M756.88,66.12c-0.04,0.03-0.08,0.05-0.12,0.09
		C756.79,66.18,756.84,66.15,756.88,66.12z M757.12,66.03c-0.05,0.01-0.11,0.02-0.16,0.04C757.01,66.05,757.07,66.04,757.12,66.03z
		 M755.43,69.15c0.02-0.04,0.03-0.08,0.05-0.11C755.46,69.08,755.44,69.12,755.43,69.15z M755.59,68.78
		c0.02-0.05,0.04-0.1,0.06-0.15C755.63,68.69,755.61,68.74,755.59,68.78z M755.75,68.39c0.02-0.06,0.04-0.12,0.06-0.18
		C755.79,68.27,755.77,68.33,755.75,68.39z M755.93,67.89c0.03-0.09,0.06-0.17,0.09-0.25C755.99,67.72,755.96,67.81,755.93,67.89z
		 M756.09,67.44c0.03-0.07,0.05-0.14,0.08-0.21C756.14,67.3,756.12,67.37,756.09,67.44z M756.24,67.07
		c0.03-0.07,0.06-0.13,0.08-0.19C756.3,66.94,756.27,67,756.24,67.07z M756.4,66.73c0.03-0.06,0.06-0.11,0.09-0.17
		C756.46,66.61,756.43,66.67,756.4,66.73z M756.57,66.44c0.03-0.05,0.07-0.09,0.11-0.13C756.64,66.35,756.6,66.39,756.57,66.44z
		 M714.73,44.39c-0.01-0.05-0.04-0.07-0.08-0.09C714.68,44.32,714.72,44.35,714.73,44.39z M714.6,44.29c-0.03-0.01-0.07-0.01-0.12,0
		c0.02,0,0.04-0.01,0.06-0.01C714.56,44.28,714.58,44.29,714.6,44.29z M713.27,45c0.07-0.06,0.14-0.12,0.21-0.18
		C713.41,44.87,713.34,44.93,713.27,45z M713.58,44.73c0.09-0.07,0.18-0.13,0.27-0.18C713.76,44.6,713.67,44.67,713.58,44.73z
		 M713.88,44.53c0.1-0.06,0.19-0.11,0.28-0.15C714.07,44.42,713.98,44.47,713.88,44.53z M714.24,44.35
		c0.06-0.02,0.12-0.04,0.17-0.05C714.35,44.31,714.3,44.33,714.24,44.35z M713.16,45.1c-0.07,0.07-0.13,0.14-0.19,0.22
		C713.03,45.24,713.1,45.17,713.16,45.1z M712.89,45.42c-0.09,0.11-0.17,0.23-0.24,0.36C712.72,45.65,712.8,45.54,712.89,45.42z"/>
	<path class="st0" d="M738.51,349.33c1.27,0.54,2.6,0.8,3.92,0.8c2.72,0,5.4-1.11,7.33-3.2l1.29-1.38c2-2.15,2.95-5.08,2.6-8
		c-0.35-2.92-1.97-5.53-4.42-7.15c-1.22-0.81-2.13-1.47-2.81-2c0.9-0.47,1.86-0.95,2.65-1.34c6.42-3.18,16.12-7.99,17.44-18.4
		c0.64-4.9-0.71-9.61-3.91-13.61c-2.98-3.73-7.16-6.29-11.19-7.96c3.37-3.8,5.92-6.71,7.35-8.48c6.64-1.04,10.1-6.09,10.1-11.09
		c0-8.92-8.88-14.01-16.62-17.45c-1.3-0.58-2.68-0.86-4.06-0.86c-2.05,0-4.09,0.63-5.81,1.86l-2.08,1.48
		c-2.32,1.66-3.82,4.22-4.13,7.05c-0.17,1.57,0.03,3.14,0.57,4.58c-0.99-0.17-2.01-0.26-3.04-0.26c-6.19,0-12.5,3.14-16.89,8.41
		c-5.55,6.45-6.73,14.17-3.49,20.22c-0.73,0.62-1.48,1.24-2.24,1.87c-1,0.17-2.76,0.49-4.65,1.62c-0.09,0.05-0.18,0.11-0.26,0.16
		c-5.53,3.56-9.58,11.18-6.21,18.31c2.49,5.31,8.62,10.78,14.59,10.78c2.06,0,4.51-0.71,6.78-2c-0.02,0.09-0.03,0.19-0.05,0.28
		C719.63,334.23,726.24,344.1,738.51,349.33z M726.93,291.02c-0.28-0.03-0.55-0.07-0.83-0.14
		C726.38,290.94,726.66,290.99,726.93,291.02z M728.63,290.94c-0.18,0.03-0.37,0.05-0.55,0.07
		C728.26,291,728.45,290.97,728.63,290.94z M727.74,291.03c-0.07,0-0.15,0.01-0.22,0.01c-0.18,0-0.37-0.01-0.55-0.02
		C727.22,291.04,727.48,291.04,727.74,291.03z M726.8,285.91c0.16,0.09,0.32,0.16,0.48,0.23C727.12,286.08,726.96,286,726.8,285.91z
		 M727.44,286.19c0.11,0.04,0.22,0.08,0.33,0.11C727.66,286.27,727.55,286.23,727.44,286.19z M727.96,286.34
		c0.1,0.02,0.2,0.04,0.3,0.05C728.16,286.38,728.06,286.36,727.96,286.34z M728.47,286.41c0.09,0.01,0.19,0.02,0.28,0.02
		C728.65,286.42,728.56,286.42,728.47,286.41z M731.45,295c0,0.07,0.02,0.11,0.06,0.15C731.48,295.11,731.45,295.06,731.45,295z
		 M740.45,294.42c-0.48-0.04-0.93-0.06-1.36-0.08C739.52,294.36,739.97,294.38,740.45,294.42z M738.67,294.33
		c-0.28-0.01-0.56-0.01-0.81-0.01c0.03,0,0.06,0,0.09,0C738.18,294.32,738.43,294.33,738.67,294.33z M737.6,294.33
		c-0.27,0-0.53,0.01-0.78,0.02C737.07,294.34,737.33,294.33,737.6,294.33z M736.51,294.37c-0.24,0.01-0.46,0.03-0.68,0.05
		C736.04,294.4,736.27,294.38,736.51,294.37z M735.58,294.44c-0.29,0.03-0.56,0.07-0.83,0.11
		C735.02,294.51,735.3,294.47,735.58,294.44z M734.62,294.58c-0.22,0.04-0.43,0.08-0.64,0.12
		C734.19,294.65,734.4,294.61,734.62,294.58z M733.74,294.75c-0.18,0.04-0.35,0.08-0.52,0.12
		C733.39,294.83,733.56,294.79,733.74,294.75z M733.01,294.92c-0.23,0.06-0.45,0.12-0.67,0.19c-0.12,0.04-0.24,0.07-0.33,0.08
		c0.1-0.02,0.21-0.05,0.33-0.08C732.56,295.05,732.78,294.98,733.01,294.92z M731.92,295.21c-0.06,0.01-0.12,0.02-0.17,0.02
		C731.8,295.23,731.86,295.22,731.92,295.21z M731.56,294.67c0.05-0.1,0.11-0.21,0.19-0.34
		C731.66,294.45,731.6,294.56,731.56,294.67z M731.74,295.22c-0.08,0-0.14-0.02-0.19-0.05C731.59,295.2,731.65,295.22,731.74,295.22
		z M731.46,294.99c0-0.07,0.03-0.15,0.07-0.24C731.49,294.84,731.46,294.92,731.46,294.99z M731.49,285.66
		c0.15-0.09,0.3-0.18,0.45-0.27C731.79,285.48,731.64,285.57,731.49,285.66z M732.05,285.3c0.16-0.11,0.31-0.22,0.45-0.34
		C732.36,285.07,732.21,285.19,732.05,285.3z M732.54,284.93c0.13-0.11,0.25-0.22,0.37-0.34
		C732.79,284.71,732.67,284.82,732.54,284.93z M733,284.5c0.12-0.12,0.23-0.24,0.33-0.37C733.23,284.25,733.12,284.38,733,284.5z
		 M733.31,277.8c0.15,0.09,0.29,0.18,0.42,0.3C733.59,277.98,733.45,277.89,733.31,277.8z M731.19,274.27
		c0.1-0.03,0.2-0.05,0.29-0.08C731.38,274.22,731.28,274.25,731.19,274.27z M731.46,277.33c-0.17,0-0.35,0.01-0.53,0.04
		C731.11,277.34,731.28,277.33,731.46,277.33z M727.65,275.88c0.08-0.06,0.17-0.11,0.26-0.16
		C727.82,275.78,727.73,275.83,727.65,275.88z M728.76,275.24c0.09-0.05,0.18-0.1,0.27-0.14
		C728.94,275.14,728.85,275.19,728.76,275.24z M730.1,274.62c0.05-0.02,0.11-0.04,0.16-0.06
		C730.21,274.59,730.15,274.6,730.1,274.62z M730.83,277.38c-0.15,0.02-0.3,0.05-0.45,0.09
		C730.53,277.43,730.68,277.4,730.83,277.38z M730.2,277.52c-0.13,0.04-0.26,0.08-0.39,0.13
		C729.95,277.6,730.07,277.55,730.2,277.52z M729.63,277.71c-0.15,0.06-0.3,0.13-0.45,0.21
		C729.33,277.85,729.48,277.78,729.63,277.71z M729.07,277.98c-0.18,0.1-0.37,0.21-0.55,0.33
		C728.71,278.19,728.89,278.08,729.07,277.98z M728.38,278.42c-0.13,0.1-0.27,0.2-0.4,0.31
		C728.12,278.61,728.25,278.51,728.38,278.42z M727.81,278.88c-0.12,0.11-0.24,0.23-0.36,0.35
		C727.57,279.11,727.69,278.99,727.81,278.88z M727.29,279.39c-0.17,0.18-0.33,0.37-0.49,0.58
		C726.96,279.77,727.12,279.58,727.29,279.39z M731.57,277.33c0.16,0,0.32,0.02,0.47,0.04
		C731.89,277.35,731.73,277.33,731.57,277.33z M732.18,277.39c0.18,0.03,0.36,0.07,0.52,0.13
		C732.54,277.46,732.36,277.42,732.18,277.39z M732.77,277.54c0.15,0.05,0.29,0.12,0.42,0.19
		C733.05,277.66,732.91,277.6,732.77,277.54z M731.42,285.7c-0.17,0.1-0.35,0.18-0.54,0.26
		C731.06,285.88,731.24,285.79,731.42,285.7z M730.74,286.02c-0.16,0.07-0.33,0.13-0.49,0.18
		C730.41,286.14,730.57,286.08,730.74,286.02z M730.14,286.23c-0.2,0.06-0.39,0.1-0.6,0.13
		C729.74,286.33,729.94,286.28,730.14,286.23z M729.4,286.38c-0.17,0.02-0.34,0.04-0.52,0.04
		C729.05,286.42,729.23,286.4,729.4,286.38z M725.99,290.85c-0.27-0.07-0.54-0.16-0.8-0.28
		C725.45,290.68,725.72,290.78,725.99,290.85z M723.33,289.38c0.26,0.24,0.53,0.44,0.8,0.62
		C723.86,289.81,723.6,289.61,723.33,289.38z M724.25,290.08c0.26,0.17,0.52,0.31,0.78,0.43
		C724.77,290.39,724.51,290.25,724.25,290.08z M729.82,290.67c0.28-0.09,0.56-0.19,0.84-0.3
		C730.38,290.48,730.1,290.58,729.82,290.67z M728.96,290.89c0.2-0.04,0.39-0.09,0.59-0.15
		C729.35,290.8,729.15,290.85,728.96,290.89z M734.41,273.96c0.11,0.01,0.22,0.02,0.33,0.04
		C734.63,273.98,734.52,273.97,734.41,273.96z M735.24,274.08c0.1,0.02,0.2,0.04,0.3,0.07
		C735.44,274.13,735.34,274.11,735.24,274.08z M736.05,274.31c0.08,0.03,0.17,0.05,0.24,0.08
		C736.21,274.37,736.13,274.34,736.05,274.31z M733.88,273.93c-0.1,0-0.21-0.01-0.32,0c0.04,0,0.08-0.01,0.11-0.01
		C733.75,273.92,733.82,273.93,733.88,273.93z M732.46,274.01c0.03,0,0.06-0.01,0.09-0.02C732.52,274,732.49,274,732.46,274.01z
		 M725.62,277.51c-0.09,0.09-0.18,0.17-0.27,0.26C725.44,277.68,725.53,277.6,725.62,277.51z M726.63,276.63
		c-0.06,0.05-0.13,0.11-0.19,0.16C726.5,276.73,726.56,276.68,726.63,276.63z"/>
	<path class="st0" d="M607.18,80.04c1.95,0,6.4,0,12.85-8.56c2.34,1.14,6.41,4.66,8.99,6.9c0.26,0.23,0.53,0.46,0.79,0.68
		c-0.72-0.16-1.44-0.24-2.15-0.24c-3.44,0-6.73,1.78-8.58,4.86l-0.89,1.48c-1.45,2.42-1.82,5.35-0.99,8.06
		c0.36,1.18,0.93,2.27,1.67,3.22c-2.99,2.41-6.06,6.04-6.58,11.51c-2.74,0.15-6.4,1.42-9.33,6.26c-2.32,3.82-2.32,6.41-2.32,7.26
		c0,2.16,0.47,4.95,3.85,10.71c0.03,0.06,0.07,0.11,0.1,0.17c0.7,1.14,1.68,2.73,3.02,4.29c-2.51,3.67-4.59,7.42-6.15,11.13
		c-1.11,1.1-2.63,2.99-3.2,5.87c-0.06,0.32-0.11,0.64-0.14,0.96c-0.7,6.95,5.75,12.83,7.33,14.16c0.05,0.04,0.09,0.08,0.14,0.12
		c1.04,0.94,3.8,3.44,8.22,3.44c5.67,0,11.78-4.88,11.78-12.77c0-2.67,1.01-5.72,2.07-7.64c0.24,0.55,0.46,1.1,0.66,1.57
		c0.94,2.26,2.14,5.14,3.93,8.02c-1.87,0.97-3.44,2.51-4.4,4.52l-1.19,2.47c-1.15,2.39-1.3,5.15-0.42,7.65
		c0.24,0.68,0.55,1.32,0.92,1.92c-1.44,1.84-3.5,4.18-6.26,6.88c-1.41,0.37-2.74,1.03-3.93,1.96c-0.04,0.03-0.07,0.06-0.11,0.08
		c-2.02,1.61-4.13,4.5-5.36,8.03c-2.65,0.36-5.08,1.76-6.76,3.91c-1.95,2.43-7.47,9.49-3.83,16.77c1.41,2.83,3.71,5.2,6.4,6.79
		c-6.6,5.08-11.26,14.34-8.47,24.29c1.06,3.76,4.21,6.56,8.07,7.17l1.88,0.3c0.52,0.08,1.04,0.12,1.56,0.12
		c2.56,0,5.04-0.98,6.91-2.77c2.26-2.16,3.37-5.24,3.02-8.35c-0.15-1.32-0.22-1.92,2.32-2.98c0.17,0.01,0.35,0.02,0.55,0.03
		c0.55,0.03,1.23,0.06,1.97,0.06c1.34,0,2.6-0.12,3.79-0.37c1.23,3.94,3.19,7.86,5.84,11.29c-0.49-0.25-1-0.5-1.52-0.75
		c-1.39-0.68-2.89-1.01-4.38-1.01c-2.13,0-4.24,0.68-6,2l-1.19,0.89c-4.06,3.05-5.19,8.65-2.64,13.04l0.3,0.5
		c1.11,1.88,2.06,3.5,2.21,6.06c0.21,4.61,0.36,10.95,0.43,18.93c-0.61-0.11-1.23-0.16-1.87-0.16c-8.43,0-13.81,9.88-13.81,15.05
		c0,5.43,3.18,9.88,5.08,12.05c1.85,2.11,5.48,5.49,10.27,6.22c-0.03,0.87-0.07,1.66-0.11,2.37c-0.07,1.22-0.15,1.94-0.2,2.32
		c-0.15,0.37-0.31,0.81-0.45,1.3c-1.81,6.37,1.31,14.22,4.35,17.53c0.01,0.02,0.03,0.03,0.04,0.05c1.86,2,5.12,4.39,10.09,4.39
		c0.22,0,0.42,0,0.6-0.01l-0.06,0c5.08-0.02,10.9-3.48,12.52-11.19c0.77-3.6-0.35-6.54-1.03-8.29c-0.06-0.15-0.12-0.31-0.18-0.47
		c-0.05-0.14-0.1-0.29-0.15-0.46c-0.4-1.18-1.33-3.94-1.7-10.85c-0.1-2.19-0.19-4.44-0.27-6.7c6.42-2.46,15.64-6.15,23.44-9.94
		c2.41-1.17,4.24-3.25,5.1-5.78c0.86-2.53,0.67-5.3-0.52-7.69l-0.59-1.19c-1.74-3.47-5.26-5.53-8.95-5.53
		c-1.17,0-2.36,0.21-3.51,0.64c-2.8,1.05-8.8,3.09-15.19,5.14c0.03-2.64,0.07-5.04,0.14-7.14c4.33-1.78,7.39-6.04,7.39-11
		c0-3.47-1.1-6.82-3.26-9.95c-0.02-0.03-0.03-0.05-0.05-0.08c-0.08-0.12-0.18-0.24-0.27-0.36c2.36,0.7,4.9,1.08,7.63,1.08
		c13.06,0,21.68-7.84,25.82-11.6c3.37-3.07,4.25-8.02,2.12-12.06l-0.99-1.88c-1.29-2.46-3.55-4.27-6.23-4.99
		c-0.86-0.23-1.74-0.35-2.62-0.35c-1.85,0-3.68,0.51-5.28,1.51l-0.8,0.5c-2.57,1.61-5.48,3.44-7.67,3.44
		c-2.03,0-7.12-2.79-7.12-9.39c0-2.28,0.37-4.85,0.75-7.58c0.48-3.38,1.03-7.21,1.03-11.42c0-8.01-2.55-14.76-7.26-19.41
		c0.93-1.01,1.82-2.03,2.62-3.06c6.4-2.63,6.92-8.26,6.92-9.98c0-0.65-0.07-1.47-0.29-2.41c14.54-1.47,24.69-14.92,26.65-19.73
		c1.01-2.47,0.99-5.23-0.05-7.69c-1.04-2.45-3.02-4.39-5.49-5.38l-0.99-0.4c-1.2-0.48-2.46-0.72-3.71-0.72
		c-2.53,0-5.02,0.96-6.91,2.77c-1.74,1.67-5.48,4.15-8.62,4.15c-1.78,0-3.54-1.88-7.09-6.39c-1.74-2.21-3.73-4.74-6.17-7.01
		c3.41-1.98,6.94-4.67,9.49-9.16c0.02-0.03,0.04-0.07,0.05-0.1c2.68-4.85,2.92-10.38,0.66-15.19c-0.77-1.63-1.8-3.11-3.04-4.41
		c0.27-0.49,0.5-1,0.7-1.52c1.51-3.95,0.93-8.24-1.52-11.59c0.87,0.11,1.76,0.18,2.67,0.18c12.2,0,26.5-6.84,32.12-11.79
		c3.5-3.07,4.41-8.15,2.21-12.25l-0.69-1.29c-1.39-2.59-3.86-4.43-6.73-5.04c-0.69-0.15-1.38-0.22-2.07-0.22
		c-2.2,0-4.36,0.73-6.13,2.1c-1.63,1.26-7.26,2.75-10.4,2.75c-6.68,0-13.19-4.55-19.49-8.94c-0.53-0.37-1.06-0.74-1.59-1.11
		c3.19-4.07,6.07-8.87,8.58-14.32c4.62-2.82,4.9-7.65,4.9-8.76c0-3.18-1.33-6.19-3.51-8.61c2.8-2.37,4.16-6.08,3.49-9.75
		c-0.56-3.08-2.39-5.7-5.59-8.04c-1.39-1.01-3.5-2.32-5.81-2.89c-0.83-0.21-1.69-0.31-2.56-0.31c-3.75,0-6.8,1.6-16.96,7.97
		c-0.54,0.34-1.09,0.68-1.57,0.98c-1.43-0.68-3.01-1.05-4.63-1.05c-6.49,0-12.63,6.27-12.63,12.91c0,3.35,1.53,6.48,5.28,10.82
		c1.7,1.97,3.54,3.86,5.68,5.14c0.85,2.37,2.24,4,3.22,4.93c0.14,0.14,0.29,0.27,0.45,0.41c-1.23,1.31-2.63,2.61-4.2,3.79
		c-2.76,0.72-5,1.74-6.68,2.63c-1.12-0.41-2.33-0.63-3.58-0.63c-7.52,0-12.14,7.85-12.14,13.47c0,1.75,0.35,4.59,3.41,9.01
		C597.58,74.97,601.09,80.04,607.18,80.04z M615.91,208.74c0.02,0,0.04-0.01,0.06-0.01C615.95,208.73,615.93,208.74,615.91,208.74z
		 M628.12,203.94c-0.08-0.01-0.18,0-0.29,0.03c0.08-0.01,0.16-0.04,0.22-0.04C628.08,203.93,628.1,203.94,628.12,203.94z
		 M622.59,209.96c-0.06,0.21-0.15,0.46-0.27,0.76C622.44,210.42,622.53,210.17,622.59,209.96c0.17-0.62,0.06-0.88-0.26-0.89
		C622.65,209.07,622.76,209.34,622.59,209.96z M622.3,209.06c-0.11,0-0.25,0.03-0.42,0.08C622.05,209.09,622.19,209.06,622.3,209.06
		z M619.84,210.22c0.28-0.17,0.55-0.33,0.8-0.47C620.39,209.89,620.12,210.05,619.84,210.22z M620.64,209.75
		c0.25-0.14,0.48-0.26,0.68-0.37C621.12,209.48,620.89,209.61,620.64,209.75z M621.33,209.38c0.21-0.1,0.39-0.18,0.56-0.24
		C621.72,209.2,621.53,209.28,621.33,209.38z M623.7,205.9c0.12-0.05,0.23-0.11,0.35-0.16C623.94,205.79,623.83,205.84,623.7,205.9z
		 M624.7,205.42c0.13-0.06,0.25-0.13,0.37-0.19C624.95,205.3,624.83,205.36,624.7,205.42z M625.66,204.93
		c0.21-0.11,0.41-0.21,0.59-0.31C626.07,204.72,625.88,204.82,625.66,204.93z M628.19,203.95c0.1,0.02,0.19,0.06,0.26,0.14
		C628.38,204.01,628.29,203.97,628.19,203.95z M626.57,204.46c0.19-0.1,0.37-0.18,0.54-0.26
		C626.94,204.28,626.77,204.37,626.57,204.46z M627.21,204.16c0.19-0.08,0.35-0.14,0.5-0.18
		C627.56,204.02,627.4,204.08,627.21,204.16z M628.29,196.53c0.06-0.05,0.13-0.09,0.19-0.14
		C628.42,196.44,628.35,196.48,628.29,196.53z M627.97,196.81c-0.05,0.05-0.1,0.09-0.15,0.14
		C627.87,196.9,627.92,196.86,627.97,196.81z M624.3,194.76c0.07,0.02,0.15,0.03,0.23,0.03
		C624.45,194.78,624.37,194.77,624.3,194.76z M624.05,194.69c0.07,0.02,0.14,0.04,0.21,0.06
		C624.19,194.73,624.12,194.71,624.05,194.69z M621.01,207.01c-0.09,0.04-0.19,0.07-0.28,0.11
		C620.82,207.09,620.92,207.05,621.01,207.01z M622.08,206.58c-0.03,0.01-0.07,0.03-0.1,0.04
		C622.01,206.61,622.04,206.6,622.08,206.58z M621.54,206.8c-0.08,0.03-0.15,0.06-0.23,0.09
		C621.39,206.86,621.46,206.83,621.54,206.8z M619.66,207.54c0.08-0.03,0.16-0.06,0.24-0.09
		C619.82,207.48,619.74,207.51,619.66,207.54z M620.2,207.33c0.09-0.03,0.17-0.07,0.26-0.1C620.37,207.26,620.28,207.3,620.2,207.33
		z M618.11,208.1c0.07-0.03,0.15-0.05,0.22-0.08C618.26,208.05,618.19,208.08,618.11,208.1z M618.61,207.93
		c0.08-0.03,0.16-0.06,0.24-0.09C618.76,207.87,618.69,207.9,618.61,207.93z M619.12,207.74c0.08-0.03,0.16-0.06,0.24-0.09
		C619.28,207.68,619.2,207.71,619.12,207.74z M615.02,208.26c0.03,0.03,0.06,0.07,0.09,0.1
		C615.08,208.33,615.05,208.3,615.02,208.26z M628.76,196.18c0.07-0.04,0.14-0.08,0.21-0.12
		C628.9,196.1,628.83,196.14,628.76,196.18z M631.52,192.81c-0.13,0.05-0.26,0.09-0.38,0.12
		C631.25,192.9,631.38,192.86,631.52,192.81z M632.53,192.54c-0.02,0-0.05,0.01-0.07,0.01
		C632.49,192.55,632.51,192.54,632.53,192.54z M633.56,192.44c0.03,0,0.06,0,0.09,0c-0.04,0-0.08,0-0.11,0
		C633.55,192.44,633.55,192.44,633.56,192.44z M638.68,194.25c-0.08-0.05-0.16-0.1-0.24-0.14
		C638.52,194.15,638.6,194.2,638.68,194.25z M637.85,193.77c-0.07-0.04-0.14-0.08-0.21-0.12
		C637.71,193.69,637.78,193.73,637.85,193.77z M636.91,193.29c-0.03-0.01-0.05-0.02-0.07-0.03
		C636.86,193.27,636.89,193.28,636.91,193.29z M636.23,193c-0.07-0.03-0.13-0.05-0.2-0.07C636.09,192.95,636.16,192.97,636.23,193z
		 M635.55,192.76c-0.06-0.02-0.11-0.04-0.17-0.05C635.44,192.73,635.49,192.75,635.55,192.76z M634.79,192.57
		c-0.03-0.01-0.07-0.01-0.1-0.02C634.73,192.56,634.76,192.56,634.79,192.57z M634.22,192.48c-0.06-0.01-0.11-0.01-0.16-0.02
		C634.11,192.47,634.17,192.48,634.22,192.48z M630.45,192.69c0,0.02,0,0.03,0,0.04C630.45,192.72,630.45,192.71,630.45,192.69z
		 M630.84,192.04c-0.03,0.04-0.06,0.07-0.08,0.1C630.78,192.11,630.81,192.07,630.84,192.04z M630.57,192.4
		c-0.01,0.02-0.03,0.04-0.04,0.06C630.55,192.44,630.56,192.42,630.57,192.4z M631.03,192.95c-0.08,0.02-0.15,0.03-0.21,0.03
		C630.88,192.98,630.95,192.97,631.03,192.95z M630.64,192.97c-0.01,0-0.01,0-0.02,0C630.63,192.97,630.63,192.97,630.64,192.97z
		 M630.49,192.89c-0.01-0.01-0.01-0.02-0.02-0.03C630.48,192.87,630.48,192.88,630.49,192.89z M630.49,195.53
		c-0.08,0.01-0.16,0.02-0.24,0.04C630.33,195.55,630.41,195.54,630.49,195.53z M631.02,195.48c-0.08,0-0.17,0.01-0.25,0.01
		C630.85,195.48,630.94,195.48,631.02,195.48z M631.6,195.48c-0.1-0.01-0.2-0.01-0.3-0.02C631.4,195.47,631.5,195.48,631.6,195.48z
		 M636.26,196.96c-0.23-0.11-0.46-0.21-0.69-0.31C635.8,196.75,636.03,196.86,636.26,196.96z M635.39,196.58
		c-0.16-0.07-0.32-0.14-0.48-0.2C635.07,196.44,635.23,196.51,635.39,196.58z M634.68,196.28c-0.14-0.06-0.28-0.11-0.42-0.16
		C634.4,196.17,634.54,196.23,634.68,196.28z M634.02,196.03c-0.13-0.04-0.25-0.09-0.38-0.13
		C633.76,195.94,633.89,195.99,634.02,196.03z M633.38,195.83c-0.12-0.04-0.24-0.07-0.35-0.1
		C633.15,195.75,633.26,195.79,633.38,195.83z M632.77,195.66c-0.11-0.03-0.22-0.05-0.33-0.07
		C632.55,195.61,632.66,195.64,632.77,195.66z M632.18,195.55c-0.11-0.02-0.21-0.03-0.31-0.04
		C631.96,195.51,632.07,195.53,632.18,195.55z M635.78,113.78c0.22,0.02,0.44,0.06,0.65,0.11C636.21,113.84,636,113.8,635.78,113.78
		c-0.22-0.02-0.45-0.03-0.67-0.03C635.33,113.75,635.56,113.76,635.78,113.78z M634.2,113.78c-0.23,0.02-0.46,0.04-0.69,0.07
		c-0.24,0.03-0.49,0.07-0.74,0.1c0.25-0.04,0.5-0.07,0.74-0.1C633.74,113.82,633.97,113.8,634.2,113.78z M634.15,109.61
		c0.04-0.01,0.08-0.02,0.13-0.03C634.24,109.59,634.2,109.6,634.15,109.61z M634.9,113.75c-0.17,0-0.34,0.01-0.51,0.02
		C634.57,113.76,634.74,113.75,634.9,113.75z M636.62,113.93c0.16,0.04,0.32,0.09,0.48,0.14
		C636.94,114.02,636.78,113.97,636.62,113.93z M637.3,114.15c0.22,0.09,0.43,0.18,0.65,0.3
		C637.73,114.33,637.51,114.23,637.3,114.15z M637.39,108.98c0.04,0,0.08-0.01,0.11-0.01C637.46,108.97,637.43,108.97,637.39,108.98
		z M635.82,109.23c0.01,0,0.03,0,0.04-0.01C635.85,109.22,635.84,109.23,635.82,109.23z M639.98,108.91
		c-0.07-0.01-0.14-0.01-0.22-0.02C639.84,108.9,639.91,108.91,639.98,108.91z M639.18,108.87c-0.05,0-0.11,0-0.16,0
		c0.01,0,0.03,0,0.04,0C639.09,108.87,639.14,108.87,639.18,108.87z M632.67,110.01c-0.47,0.13-0.92,0.26-1.36,0.38
		C631.75,110.27,632.21,110.14,632.67,110.01z M626.56,111.05c-0.06-0.02-0.12-0.04-0.18-0.06
		C626.43,111.01,626.49,111.03,626.56,111.05z M626.24,110.94c-0.06-0.03-0.11-0.06-0.16-0.09
		C626.13,110.88,626.18,110.91,626.24,110.94z M625.96,110.78c-0.05-0.04-0.1-0.08-0.14-0.12
		C625.87,110.7,625.91,110.74,625.96,110.78z M625.73,110.57c-0.04-0.05-0.08-0.1-0.12-0.16
		C625.65,110.46,625.68,110.52,625.73,110.57z M625.53,110.3c-0.04-0.07-0.07-0.14-0.1-0.21
		C625.46,110.16,625.5,110.24,625.53,110.3z M625.38,109.98c-0.04-0.12-0.08-0.24-0.1-0.38
		C625.31,109.74,625.34,109.86,625.38,109.98z M631.14,110.44c-0.46,0.13-0.91,0.25-1.34,0.35
		C630.23,110.69,630.68,110.57,631.14,110.44z M629.74,110.8c-0.42,0.1-0.81,0.18-1.18,0.24
		C628.93,110.99,629.32,110.9,629.74,110.8z M628.49,111.06c-0.37,0.06-0.72,0.09-1.04,0.09
		C627.76,111.15,628.11,111.12,628.49,111.06z M627.3,111.15c-0.08,0-0.15,0-0.22-0.01C627.15,111.14,627.22,111.15,627.3,111.15z
		 M626.91,111.12c-0.07-0.01-0.14-0.02-0.2-0.03C626.77,111.1,626.84,111.11,626.91,111.12z M632.47,114
		c-0.2,0.03-0.4,0.06-0.61,0.1C632.06,114.07,632.27,114.03,632.47,114z M629.13,114.42c0.09,0,0.17-0.01,0.26-0.02
		C629.3,114.41,629.22,114.41,629.13,114.42z M630,114.35c0.08-0.01,0.16-0.02,0.24-0.03C630.17,114.33,630.09,114.34,630,114.35z
		 M613.67,127.99c0.05,0.08,0.1,0.15,0.15,0.23C613.77,128.15,613.72,128.07,613.67,127.99z M614.29,128.93
		c0.03,0.04,0.06,0.09,0.09,0.13C614.35,129.02,614.32,128.98,614.29,128.93z M614.91,129.78c0.05,0.06,0.09,0.11,0.14,0.17
		C615,129.89,614.96,129.84,614.91,129.78z M615.49,130.46c0.04,0.04,0.08,0.09,0.12,0.13C615.57,130.55,615.53,130.5,615.49,130.46
		z M616.14,131.09c0.04,0.03,0.08,0.06,0.12,0.09C616.22,131.16,616.18,131.13,616.14,131.09z M616.71,131.5
		c0.05,0.03,0.09,0.06,0.14,0.08C616.8,131.56,616.75,131.53,616.71,131.5z M617.41,131.82c0.03,0.01,0.06,0.01,0.1,0.02
		C617.47,131.83,617.44,131.82,617.41,131.82z M618,131.91c0.06,0,0.12,0,0.18,0c-0.03,0-0.06,0.01-0.09,0.01
		C618.06,131.92,618.03,131.91,618,131.91z M618.48,131.88c0.07-0.01,0.14-0.02,0.21-0.04
		C618.62,131.86,618.55,131.87,618.48,131.88z M619.01,131.74c0.07-0.02,0.14-0.04,0.21-0.08
		C619.14,131.69,619.08,131.71,619.01,131.74z M619.58,131.47c0.06-0.03,0.12-0.06,0.18-0.1
		C619.7,131.41,619.64,131.44,619.58,131.47z M620.6,141.06c0.02,0,0.04-0.01,0.06-0.02C620.64,141.05,620.62,141.06,620.6,141.06z
		 M622.19,139.97c-0.1,0.07-0.2,0.14-0.29,0.21C621.99,140.11,622.09,140.04,622.19,139.97z M621.69,140.33
		c-0.12,0.09-0.24,0.17-0.34,0.25C621.46,140.5,621.57,140.42,621.69,140.33z M621.16,140.71c-0.06,0.04-0.11,0.08-0.16,0.11
		C621.06,140.79,621.11,140.75,621.16,140.71z M620.87,140.92c-0.04,0.03-0.07,0.05-0.11,0.07
		C620.79,140.97,620.83,140.95,620.87,140.92z M626.14,137.64c-0.14,0.06-0.28,0.12-0.42,0.18
		C625.86,137.76,626,137.7,626.14,137.64z M625.38,138c-0.13,0.07-0.27,0.13-0.4,0.2C625.11,138.13,625.25,138.06,625.38,138z
		 M624.65,138.38c-0.13,0.07-0.25,0.14-0.38,0.21C624.4,138.52,624.53,138.45,624.65,138.38z M623.96,138.78
		c-0.12,0.07-0.24,0.14-0.35,0.22C623.73,138.93,623.84,138.85,623.96,138.78z M623.32,139.19c-0.11,0.07-0.22,0.15-0.33,0.22
		C623.1,139.33,623.21,139.26,623.32,139.19z M622.73,139.59c-0.1,0.07-0.21,0.14-0.3,0.21
		C622.52,139.73,622.62,139.66,622.73,139.59z M628.64,136.9c-0.18,0.03-0.36,0.05-0.54,0.09
		C628.27,136.96,628.45,136.93,628.64,136.9z M627.76,137.08c-0.16,0.04-0.32,0.08-0.48,0.13
		C627.44,137.16,627.6,137.13,627.76,137.08z M626.94,137.34c-0.15,0.05-0.3,0.1-0.44,0.16
		C626.64,137.44,626.79,137.39,626.94,137.34z M629.73,136.81c-0.27,0-0.55,0.02-0.82,0.05
		C629.19,136.82,629.46,136.81,629.73,136.81z M629.47,140.32c-0.17-0.02-0.34-0.02-0.52-0.03
		C629.12,140.3,629.3,140.3,629.47,140.32z M633.55,142.37c-0.11-0.11-0.22-0.21-0.34-0.32
		C633.33,142.15,633.44,142.25,633.55,142.37z M632.88,141.75c-0.12-0.1-0.24-0.18-0.36-0.27
		C632.64,141.57,632.76,141.65,632.88,141.75z M632.14,141.22c-0.13-0.08-0.26-0.14-0.4-0.21
		C631.88,141.08,632.01,141.15,632.14,141.22z M631.33,140.81c-0.14-0.06-0.29-0.11-0.43-0.16
		C631.05,140.7,631.19,140.75,631.33,140.81z M630.44,140.5c-0.15-0.04-0.31-0.07-0.47-0.1
		C630.13,140.44,630.29,140.46,630.44,140.5z M642.96,159.16c0.15,0.16,0.31,0.31,0.47,0.46
		C643.27,159.47,643.11,159.32,642.96,159.16z M639,153c0.09,0.2,0.2,0.41,0.29,0.61C639.2,153.41,639.1,153.21,639,153z
		 M639.53,154.1c0.1,0.2,0.21,0.4,0.31,0.59C639.74,154.5,639.63,154.3,639.53,154.1z M640.11,155.18c0.11,0.19,0.22,0.38,0.33,0.56
		C640.32,155.56,640.21,155.37,640.11,155.18z M640.73,156.24c0.11,0.18,0.24,0.36,0.35,0.54
		C640.96,156.6,640.84,156.42,640.73,156.24z M641.4,157.26c0.12,0.17,0.26,0.34,0.39,0.51C641.66,157.6,641.53,157.43,641.4,157.26
		z M642.14,158.23c0.14,0.17,0.28,0.32,0.42,0.48C642.43,158.56,642.28,158.4,642.14,158.23z M638.78,152.52
		c-0.1-0.21-0.19-0.42-0.28-0.63C638.59,152.1,638.69,152.31,638.78,152.52z M638.3,151.44c-0.1-0.22-0.19-0.45-0.29-0.67
		C638.11,150.99,638.21,151.21,638.3,151.44z M637.89,150.46c-0.22-0.52-0.43-1.04-0.65-1.55
		C637.45,149.42,637.67,149.93,637.89,150.46z M637.16,148.72c-0.09-0.22-0.19-0.44-0.28-0.66
		C636.97,148.28,637.07,148.5,637.16,148.72z M636.7,147.63c-0.08-0.19-0.17-0.38-0.26-0.57
		C636.53,147.25,636.61,147.44,636.7,147.63z M636.24,146.61c-0.08-0.18-0.17-0.35-0.25-0.52
		C636.07,146.26,636.15,146.43,636.24,146.61z M635.76,145.63c-0.08-0.16-0.17-0.32-0.26-0.48
		C635.59,145.31,635.68,145.47,635.76,145.63z M635.26,144.72c-0.09-0.15-0.18-0.3-0.27-0.45
		C635.08,144.42,635.18,144.56,635.26,144.72z M634.74,143.86c-0.09-0.14-0.19-0.27-0.29-0.41
		C634.54,143.59,634.64,143.72,634.74,143.86z M634.17,143.07c-0.1-0.13-0.21-0.24-0.31-0.36
		C633.96,142.83,634.07,142.95,634.17,143.07z M612.88,117.94c-0.02,0-0.04,0-0.07,0.01c0.02,0,0.04-0.01,0.05-0.01
		C612.87,117.93,612.87,117.94,612.88,117.94z M612.75,117.96c-0.03,0.01-0.06,0.03-0.09,0.05
		C612.69,117.99,612.72,117.97,612.75,117.96z M612.59,118.04c-0.03,0.02-0.07,0.06-0.11,0.09
		C612.52,118.1,612.56,118.07,612.59,118.04z M612.42,118.18c-0.05,0.04-0.09,0.09-0.14,0.15
		C612.33,118.28,612.38,118.23,612.42,118.18z M610.66,121.29c-0.01,0.07-0.02,0.13-0.02,0.18
		C610.64,121.42,610.65,121.35,610.66,121.29z M612.24,118.37c-0.06,0.07-0.12,0.15-0.19,0.23
		C612.12,118.52,612.18,118.44,612.24,118.37z M611.98,118.69c-0.04,0.06-0.08,0.11-0.13,0.17
		C611.9,118.8,611.94,118.75,611.98,118.69z M611.78,118.98c-0.04,0.06-0.08,0.11-0.11,0.17
		C611.7,119.09,611.74,119.03,611.78,118.98z M611.58,119.28c-0.03,0.06-0.07,0.11-0.1,0.17
		C611.51,119.39,611.55,119.34,611.58,119.28z M611.39,119.59c-0.03,0.06-0.07,0.12-0.1,0.17
		C611.33,119.71,611.36,119.65,611.39,119.59z M611.22,119.9c-0.03,0.06-0.06,0.12-0.09,0.18
		C611.16,120.02,611.19,119.96,611.22,119.9z M611.06,120.22c-0.03,0.06-0.05,0.11-0.08,0.17
		C611.01,120.33,611.03,120.27,611.06,120.22z M610.92,120.52c-0.02,0.06-0.05,0.11-0.07,0.17
		C610.87,120.63,610.9,120.57,610.92,120.52z M610.81,120.8c-0.02,0.06-0.04,0.11-0.06,0.16
		C610.77,120.91,610.78,120.86,610.81,120.8z M610.72,121.06c-0.02,0.05-0.03,0.1-0.04,0.15
		C610.69,121.16,610.7,121.11,610.72,121.06z M629.97,195.64c-0.08,0.02-0.15,0.04-0.23,0.06
		C629.82,195.68,629.9,195.66,629.97,195.64z M629.47,195.82c-0.07,0.03-0.15,0.06-0.22,0.09
		C629.32,195.87,629.4,195.85,629.47,195.82z M625.44,194.4c0.11-0.08,0.22-0.18,0.34-0.3C625.66,194.22,625.54,194.31,625.44,194.4
		z M624.56,194.78c0.06,0,0.12-0.01,0.19-0.02C624.68,194.77,624.62,194.78,624.56,194.78z M624.81,194.74
		c0.08-0.02,0.16-0.05,0.25-0.1C624.97,194.69,624.89,194.72,624.81,194.74z M625.09,194.63c0.08-0.04,0.17-0.1,0.26-0.17
		C625.26,194.53,625.18,194.58,625.09,194.63z M623.64,194.59c-0.01,0-0.03,0-0.04,0c0,0,0.01,0,0.02,0
		C623.62,194.59,623.63,194.59,623.64,194.59z M623.86,194.63c-0.01,0-0.02-0.01-0.03-0.01
		C623.84,194.62,623.85,194.63,623.86,194.63z M623.35,194.65c0.01-0.01,0.03-0.01,0.04-0.02
		C623.37,194.64,623.36,194.64,623.35,194.65z M616.99,208.47c-0.06,0.02-0.12,0.04-0.18,0.05
		C616.87,208.51,616.93,208.49,616.99,208.47z M617.85,208.19c-0.07,0.02-0.13,0.05-0.2,0.07
		C617.72,208.24,617.79,208.22,617.85,208.19z M617.4,208.34c-0.06,0.02-0.12,0.04-0.18,0.06
		C617.28,208.38,617.34,208.36,617.4,208.34z M616.16,208.7c0.03-0.01,0.07-0.02,0.11-0.03C616.23,208.68,616.2,208.69,616.16,208.7
		z M616.47,208.62c0.05-0.01,0.1-0.03,0.15-0.04C616.56,208.6,616.51,208.61,616.47,208.62z M615.72,208.76
		c-0.06,0-0.1-0.01-0.13-0.02C615.62,208.75,615.66,208.76,615.72,208.76z M615.27,208.51c0.03,0.02,0.05,0.05,0.08,0.07
		C615.32,208.56,615.29,208.53,615.27,208.51z M614.89,208.1c-0.03-0.04-0.06-0.08-0.09-0.12
		C614.83,208.02,614.86,208.06,614.89,208.1z M614.68,207.79c-0.03-0.04-0.06-0.09-0.09-0.14
		C614.62,207.7,614.65,207.75,614.68,207.79z M614.47,207.46c-0.03-0.05-0.05-0.09-0.08-0.14
		C614.42,207.37,614.44,207.41,614.47,207.46z M614.27,207.1c-0.02-0.05-0.05-0.09-0.07-0.13
		C614.22,207.01,614.25,207.06,614.27,207.1z M614.07,206.72c-0.02-0.04-0.04-0.07-0.06-0.11
		C614.03,206.65,614.05,206.68,614.07,206.72z M613.87,206.33c-0.07-0.13-0.13-0.26-0.19-0.38
		C613.74,206.07,613.8,206.2,613.87,206.33z M613.63,205.87c-0.04-0.08-0.08-0.15-0.12-0.22
		C613.55,205.72,613.59,205.79,613.63,205.87z M613.46,205.55c-0.03-0.06-0.06-0.11-0.1-0.16
		C613.39,205.44,613.42,205.5,613.46,205.55z M613.3,205.3c-0.03-0.04-0.06-0.08-0.09-0.12C613.24,205.21,613.27,205.26,613.3,205.3
		z M613.15,205.11c-0.03-0.03-0.06-0.06-0.08-0.08C613.09,205.05,613.12,205.07,613.15,205.11z M613.01,204.98
		c-0.03-0.02-0.05-0.03-0.08-0.04C612.95,204.95,612.98,204.96,613.01,204.98z M612.87,204.92c-0.03,0-0.06,0.01-0.09,0.02
		c0.02-0.01,0.05-0.02,0.07-0.02C612.86,204.92,612.87,204.92,612.87,204.92z M612.74,204.95c-0.04,0.03-0.08,0.06-0.13,0.12
		C612.66,205.02,612.7,204.98,612.74,204.95z M619.54,230.7c0.2-0.08,0.4-0.15,0.6-0.21C619.94,230.55,619.74,230.62,619.54,230.7z
		 M620.34,230.44c0.14-0.03,0.28-0.07,0.42-0.09C620.62,230.38,620.48,230.41,620.34,230.44z M622.15,230.24
		c-0.18,0-0.36,0.01-0.53,0.02C621.79,230.25,621.97,230.25,622.15,230.24z M621.41,230.28c-0.14,0.01-0.28,0.03-0.43,0.05
		C621.13,230.3,621.27,230.29,621.41,230.28z M622.24,230.24c0.47,0,0.95,0.02,1.43,0.05C623.19,230.27,622.71,230.24,622.24,230.24
		z M625.11,230.34c0.01,0,0.02,0,0.03,0C625.13,230.34,625.12,230.34,625.11,230.34C625.11,230.34,625.11,230.34,625.11,230.34z
		 M626.05,230.3c-0.06,0.01-0.13,0.01-0.19,0.01C625.92,230.31,625.98,230.3,626.05,230.3z M626.8,230.2c0.01,0,0.01,0,0.02,0
		C626.81,230.2,626.81,230.2,626.8,230.2z M627.54,230c0.06-0.02,0.12-0.04,0.18-0.06C627.66,229.96,627.6,229.98,627.54,230z
		 M634.87,341.99c-0.09-0.01-0.19-0.03-0.29-0.04C634.67,341.97,634.77,341.98,634.87,341.99z M635.97,272.86
		c0.04-0.02,0.12-0.03,0.21-0.03C636.08,272.83,636.01,272.83,635.97,272.86z M636.21,272.82c0.09,0,0.21,0.01,0.34,0.02
		C636.42,272.83,636.3,272.83,636.21,272.82z M636.62,272.86c0.13,0.02,0.28,0.04,0.44,0.06
		C636.9,272.89,636.75,272.87,636.62,272.86z M637.14,272.93c0.17,0.03,0.34,0.06,0.52,0.09
		C637.48,272.99,637.31,272.96,637.14,272.93z M637.72,273.03c0.18,0.03,0.37,0.07,0.56,0.1
		C638.09,273.1,637.9,273.06,637.72,273.03z M638.86,273.24c0.04,0.01,0.07,0.01,0.11,0.02
		C638.94,273.25,638.9,273.24,638.86,273.24z M639.5,273.34c0.03,0,0.06,0.01,0.09,0.01C639.56,273.35,639.53,273.35,639.5,273.34z
		 M640.06,273.42c0.02,0,0.04,0,0.06,0.01C640.1,273.42,640.08,273.42,640.06,273.42z M623.21,304.53c0.08,0.08,0.16,0.15,0.25,0.22
		C623.37,304.68,623.29,304.61,623.21,304.53z M624.88,305.5c0.08,0.01,0.16,0.03,0.23,0.03
		C625.03,305.52,624.95,305.51,624.88,305.5z M622.87,304.18c-0.08-0.09-0.16-0.17-0.25-0.27
		C622.71,304,622.79,304.09,622.87,304.18z M624.57,305.42c-0.08-0.03-0.16-0.06-0.24-0.1
		C624.41,305.36,624.49,305.39,624.57,305.42z M624.02,305.16c-0.08-0.05-0.16-0.1-0.24-0.16
		C623.86,305.06,623.94,305.11,624.02,305.16z M622.26,303.44c-0.08-0.1-0.16-0.2-0.24-0.31
		C622.1,303.24,622.18,303.34,622.26,303.44z M620.73,301.15c-0.07-0.11-0.14-0.18-0.22-0.25
		C620.59,300.97,620.66,301.04,620.73,301.15z M621.6,302.52c-0.07-0.1-0.14-0.2-0.21-0.31
		C621.46,302.32,621.53,302.42,621.6,302.52z M620.47,300.87c-0.08-0.05-0.16-0.09-0.25-0.1
		C620.31,300.79,620.39,300.82,620.47,300.87z M620.17,300.76c-0.07-0.01-0.14,0-0.22,0.01c0.05-0.01,0.09-0.02,0.14-0.02
		C620.12,300.75,620.14,300.76,620.17,300.76z M619.09,301.23c-0.08,0.07-0.17,0.14-0.26,0.22
		C618.92,301.37,619.01,301.3,619.09,301.23z M619.85,300.79c-0.08,0.02-0.17,0.06-0.25,0.1
		C619.68,300.85,619.76,300.82,619.85,300.79z M619.52,300.92c-0.11,0.06-0.22,0.14-0.34,0.22
		C619.3,301.06,619.41,300.99,619.52,300.92z M616.31,305.55c-0.02,0.1-0.03,0.18-0.03,0.25
		C616.28,305.73,616.29,305.65,616.31,305.55z M618.71,301.58c-0.07,0.08-0.15,0.15-0.22,0.24
		C618.56,301.73,618.64,301.66,618.71,301.58z M618.35,301.97c-0.07,0.09-0.15,0.17-0.22,0.26
		C618.21,302.14,618.28,302.06,618.35,301.97z M618.01,302.4c-0.07,0.1-0.15,0.2-0.22,0.3C617.86,302.6,617.93,302.5,618.01,302.4z
		 M617.68,302.85c-0.09,0.13-0.18,0.27-0.27,0.4C617.5,303.12,617.59,302.99,617.68,302.85z M617.37,303.32
		c-0.1,0.16-0.19,0.32-0.28,0.47C617.18,303.64,617.27,303.48,617.37,303.32z M617.01,303.93c-0.06,0.11-0.12,0.22-0.17,0.32
		C616.89,304.15,616.95,304.04,617.01,303.93z M616.76,304.42c-0.05,0.09-0.09,0.19-0.13,0.27
		C616.67,304.6,616.71,304.51,616.76,304.42z M616.56,304.85c-0.04,0.08-0.07,0.17-0.1,0.24
		C616.49,305.01,616.52,304.93,616.56,304.85z M616.41,305.23c-0.03,0.08-0.05,0.15-0.07,0.22
		C616.36,305.38,616.38,305.31,616.41,305.23z M633.05,341.24c-0.15-0.12-0.3-0.25-0.44-0.41
		C632.75,340.98,632.9,341.12,633.05,341.24z M634.48,341.93c-0.13-0.03-0.27-0.07-0.41-0.12
		C634.21,341.87,634.35,341.9,634.48,341.93z M633.97,341.78c-0.11-0.04-0.22-0.09-0.33-0.15
		C633.75,341.68,633.86,341.73,633.97,341.78z M633.5,341.55c-0.1-0.06-0.21-0.13-0.31-0.21
		C633.29,341.41,633.39,341.49,633.5,341.55z M634.99,342.01c0.08,0.01,0.17,0.01,0.24,0.01
		C635.15,342.02,635.07,342.01,634.99,342.01z M635.33,342.02c0.08,0,0.16,0,0.23,0c-0.06,0-0.12,0-0.19,0
		C635.35,342.02,635.34,342.02,635.33,342.02z M643.85,160.02c0.17,0.15,0.35,0.29,0.53,0.43
		C644.2,160.31,644.02,160.17,643.85,160.02z M644.83,160.82c0.18,0.14,0.39,0.26,0.58,0.39
		C645.22,161.08,645.02,160.95,644.83,160.82z M645.91,161.53c0.2,0.12,0.43,0.23,0.64,0.34
		C646.34,161.76,646.12,161.66,645.91,161.53z M647.09,162.16c0.23,0.11,0.47,0.2,0.71,0.29
		C647.57,162.36,647.32,162.27,647.09,162.16z M648.39,162.7c0.25,0.09,0.53,0.16,0.79,0.24
		C648.92,162.86,648.65,162.79,648.39,162.7z M649.81,163.13c0.3,0.08,0.62,0.13,0.93,0.19
		C650.43,163.26,650.11,163.21,649.81,163.13z M651.35,163.45c0.36,0.06,0.74,0.09,1.12,0.13
		C652.09,163.54,651.71,163.51,651.35,163.45z M653.04,163.65c0.58,0.04,1.19,0.07,1.83,0.07
		C654.23,163.72,653.62,163.69,653.04,163.65z M608.27,62.35c0.14,0,0.3-0.01,0.45-0.02C608.56,62.34,608.41,62.35,608.27,62.35z
		 M605.84,61.44c0.03,0.03,0.07,0.07,0.1,0.1C605.91,61.51,605.87,61.48,605.84,61.44z M606.24,61.79c0.03,0.02,0.06,0.05,0.09,0.07
		C606.3,61.84,606.27,61.81,606.24,61.79z M606.72,62.08c0.03,0.01,0.06,0.02,0.1,0.04C606.79,62.11,606.76,62.09,606.72,62.08z
		 M607.17,62.23c0.04,0.01,0.08,0.02,0.13,0.03C607.26,62.26,607.21,62.24,607.17,62.23z M607.76,62.34c0.01,0,0.01,0,0.02,0
		C607.77,62.34,607.76,62.34,607.76,62.34z M630.19,35.32c0.18,0.02,0.36,0.06,0.54,0.06C630.55,35.37,630.37,35.34,630.19,35.32z
		 M628.68,38.15c-0.04,0-0.09,0.01-0.13,0.01c-0.03,0-0.05,0-0.08,0C628.53,38.15,628.6,38.15,628.68,38.15z M630.24,37.98
		c-0.02,0-0.04,0.01-0.06,0.01C630.2,37.99,630.22,37.98,630.24,37.98z M629.42,38.1c-0.07,0.01-0.14,0.01-0.21,0.02
		C629.28,38.12,629.35,38.11,629.42,38.1z M629.04,35.01c0.29,0.12,0.57,0.21,0.85,0.27C629.61,35.23,629.33,35.14,629.04,35.01z
		 M634.44,36.19c-0.07,0.05-0.13,0.09-0.2,0.14C634.31,36.28,634.37,36.24,634.44,36.19z M633.73,36.65
		c-0.07,0.04-0.14,0.08-0.21,0.12C633.58,36.73,633.65,36.69,633.73,36.65z M632.8,37.13c-0.01,0-0.02,0.01-0.03,0.01
		C632.78,37.14,632.79,37.14,632.8,37.13z M632,37.46c-0.08,0.03-0.15,0.05-0.23,0.08C631.85,37.52,631.93,37.49,632,37.46z
		 M631.19,37.73c-0.08,0.02-0.16,0.05-0.24,0.07C631.04,37.78,631.12,37.76,631.19,37.73z M631.44,35.31
		c0.07-0.01,0.13-0.03,0.2-0.04C631.57,35.28,631.5,35.3,631.44,35.31z M632.15,35.13c0.07-0.02,0.13-0.04,0.2-0.07
		C632.29,35.09,632.22,35.11,632.15,35.13z M632.97,34.79c0.01-0.01,0.03-0.01,0.04-0.02C633,34.78,632.98,34.78,632.97,34.79z
		 M633.64,34.39c0.06-0.04,0.12-0.08,0.18-0.12C633.76,34.31,633.7,34.35,633.64,34.39z M634.26,33.94
		c0.06-0.04,0.11-0.09,0.17-0.13C634.37,33.86,634.32,33.9,634.26,33.94z M631.65,22.25c0.01-0.05,0.02-0.11,0.02-0.15
		C631.67,22.14,631.66,22.2,631.65,22.25z M631.65,22.05c-0.01-0.03-0.02-0.06-0.04-0.08C631.63,21.99,631.64,22.02,631.65,22.05z
		 M631.56,21.94c-0.02-0.01-0.05-0.02-0.08-0.02C631.51,21.92,631.54,21.93,631.56,21.94z M631.64,22.33
		c-0.03,0.09-0.07,0.19-0.12,0.32C631.57,22.52,631.61,22.42,631.64,22.33z M627.83,38.12c-0.02,0-0.03,0-0.05,0
		C627.8,38.11,627.82,38.11,627.83,38.12z M627.18,37.99c-0.05-0.02-0.11-0.03-0.16-0.05C627.07,37.95,627.12,37.97,627.18,37.99z
		 M626.63,37.77c-0.05-0.02-0.1-0.05-0.14-0.07C626.54,37.72,626.59,37.75,626.63,37.77z M638.23,28.43
		c-0.09,0.01-0.17,0.01-0.26,0.02C638.06,28.43,638.14,28.43,638.23,28.43z M638.76,28.4c0.23,0,0.46,0.01,0.68,0.04
		c-0.23-0.02-0.46-0.03-0.7-0.03C638.75,28.4,638.76,28.4,638.76,28.4z M643.49,30.27c-0.13-0.12-0.26-0.24-0.41-0.35
		C643.23,30.03,643.36,30.15,643.49,30.27z M643.04,29.88c-0.13-0.1-0.27-0.2-0.41-0.3C642.77,29.68,642.91,29.78,643.04,29.88z
		 M642.47,29.48c-0.11-0.07-0.22-0.14-0.34-0.2C642.25,29.34,642.36,29.41,642.47,29.48z M641.93,29.17
		c-0.11-0.06-0.22-0.11-0.34-0.16C641.7,29.06,641.81,29.11,641.93,29.17z M641.36,28.91c-0.12-0.05-0.24-0.09-0.36-0.13
		C641.12,28.82,641.24,28.86,641.36,28.91z M640.75,28.69c-0.13-0.04-0.26-0.07-0.4-0.1C640.49,28.62,640.62,28.66,640.75,28.69z
		 M640.11,28.53c-0.15-0.03-0.31-0.05-0.47-0.07C639.8,28.48,639.96,28.5,640.11,28.53z M635.49,15.48
		c0.22-0.13,0.43-0.25,0.64-0.37C635.93,15.22,635.71,15.35,635.49,15.48z M636.62,14.83c0.2-0.11,0.4-0.23,0.6-0.34
		C637.03,14.6,636.82,14.71,636.62,14.83z M637.68,14.24c0.18-0.1,0.36-0.2,0.54-0.29C638.04,14.05,637.86,14.14,637.68,14.24z
		 M638.63,13.74c0.16-0.08,0.32-0.16,0.47-0.23C638.95,13.58,638.79,13.66,638.63,13.74z M631.88,17.66
		c0.25-0.15,0.5-0.31,0.75-0.46C632.38,17.35,632.13,17.51,631.88,17.66z M633.09,16.92c0.24-0.15,0.48-0.3,0.72-0.44
		C633.57,16.62,633.33,16.77,633.09,16.92z M634.31,16.18c0.23-0.14,0.46-0.28,0.69-0.41C634.77,15.9,634.54,16.04,634.31,16.18z
		 M627.63,24.57c-0.19,0.18-0.38,0.36-0.57,0.55C627.25,24.93,627.44,24.75,627.63,24.57z M627.37,20.47
		c0.16-0.1,0.34-0.21,0.51-0.32C627.71,20.26,627.53,20.38,627.37,20.47z M628.25,19.92c0.2-0.13,0.42-0.27,0.64-0.4
		C628.68,19.66,628.46,19.8,628.25,19.92z M629.49,19.15c0.27-0.17,0.53-0.33,0.81-0.51C630.03,18.81,629.76,18.98,629.49,19.15z
		 M630.66,18.42c0.26-0.16,0.51-0.32,0.78-0.49C631.18,18.09,630.92,18.26,630.66,18.42z M631.41,21.92c-0.07,0-0.14,0.02-0.23,0.05
		C631.27,21.94,631.35,21.93,631.41,21.92z M631.12,21.99c-0.11,0.04-0.23,0.1-0.37,0.17C630.89,22.09,631.01,22.03,631.12,21.99z
		 M630.65,22.23c-0.12,0.07-0.24,0.14-0.37,0.22C630.41,22.36,630.53,22.29,630.65,22.23z M630.17,22.52
		c-0.16,0.11-0.33,0.22-0.51,0.35C629.84,22.75,630.01,22.63,630.17,22.52z M629.55,22.96c-0.15,0.11-0.3,0.23-0.46,0.35
		C629.25,23.19,629.4,23.07,629.55,22.96z M628.94,23.43c-0.19,0.15-0.38,0.31-0.57,0.48C628.56,23.74,628.76,23.58,628.94,23.43z
		 M628.29,23.97c-0.17,0.15-0.34,0.3-0.51,0.46C627.95,24.27,628.12,24.12,628.29,23.97z M621.69,31.35c-0.04,0-0.09-0.02-0.14-0.03
		c0.06,0.01,0.12,0.04,0.17,0.03C621.71,31.35,621.7,31.35,621.69,31.35z M643.6,30.38c0.08,0.08,0.17,0.17,0.24,0.26
		C643.77,30.55,643.69,30.46,643.6,30.38z M643.96,30.77c0.07,0.08,0.13,0.16,0.19,0.23C644.09,30.93,644.03,30.85,643.96,30.77z
		 M644.25,31.16c0.05,0.08,0.1,0.15,0.14,0.23C644.35,31.31,644.3,31.23,644.25,31.16z M644.47,31.53c0.04,0.08,0.07,0.15,0.11,0.22
		C644.55,31.68,644.51,31.6,644.47,31.53z M644.64,31.89c0.03,0.08,0.05,0.15,0.07,0.23C644.69,32.04,644.67,31.96,644.64,31.89z
		 M644.74,32.22c0.02,0.11,0.04,0.21,0.04,0.31C644.77,32.44,644.76,32.33,644.74,32.22z M640.91,12.95c-0.06-0.02-0.17,0-0.27,0.01
		c0.04-0.01,0.1-0.02,0.14-0.02C640.83,12.93,640.88,12.94,640.91,12.95z M639.46,13.35c0.13-0.06,0.26-0.12,0.38-0.16
		C639.73,13.24,639.6,13.29,639.46,13.35z M640.14,13.08c0.1-0.04,0.2-0.07,0.29-0.09C640.35,13.02,640.25,13.05,640.14,13.08z
		 M626.95,20.73c-0.1,0.06-0.21,0.13-0.3,0.19C626.73,20.86,626.85,20.79,626.95,20.73z M625.02,21.73c0.36-0.14,0.72-0.3,1.05-0.48
		C625.74,21.43,625.38,21.59,625.02,21.73z M622.79,22.33c0.23-0.03,0.45-0.09,0.68-0.14C623.24,22.24,623.02,22.3,622.79,22.33z
		 M623.91,22.1c0.25-0.07,0.5-0.16,0.75-0.24C624.41,21.94,624.17,22.03,623.91,22.1z M622.32,22.37c-0.21,0.02-0.43,0.04-0.64,0.05
		C621.89,22.42,622.11,22.39,622.32,22.37z M621.1,22.38c-0.15-0.01-0.3-0.01-0.45-0.03C620.8,22.37,620.96,22.37,621.1,22.38z
		 M620.09,22.21c-0.13-0.03-0.27-0.06-0.39-0.1C619.83,22.15,619.97,22.18,620.09,22.21z M619.15,21.83
		c-0.09-0.05-0.2-0.09-0.29-0.15C618.95,21.75,619.06,21.78,619.15,21.83z M617.67,20.84c-0.03,0-0.05,0-0.08,0
		c0.01,0,0.02-0.01,0.03-0.01C617.64,20.83,617.65,20.83,617.67,20.84z M617.94,20.9c-0.02-0.01-0.05-0.02-0.08-0.03
		C617.89,20.88,617.91,20.89,617.94,20.9z M617.23,20.9c-0.02,0.01-0.05,0.02-0.07,0.03C617.19,20.92,617.21,20.91,617.23,20.9z
		 M616.78,21.13C616.77,21.13,616.77,21.13,616.78,21.13C616.77,21.13,616.77,21.13,616.78,21.13z M616.37,21.43
		c-0.02,0.02-0.05,0.04-0.07,0.06C616.33,21.47,616.35,21.45,616.37,21.43z M615.94,21.85c-0.02,0.02-0.04,0.05-0.06,0.07
		C615.9,21.9,615.92,21.87,615.94,21.85z M615.55,22.34C615.55,22.34,615.55,22.34,615.55,22.34
		C615.55,22.34,615.55,22.34,615.55,22.34z M615.29,22.78c-0.01,0.03-0.03,0.05-0.04,0.08C615.26,22.83,615.27,22.8,615.29,22.78z
		 M615.08,23.27c-0.01,0.02-0.01,0.05-0.02,0.07C615.06,23.32,615.07,23.29,615.08,23.27z M615.05,24.03
		c-0.04-0.12-0.06-0.22-0.06-0.3C614.99,23.81,615.01,23.91,615.05,24.03z M618.43,28.69c-0.1-0.11-0.2-0.22-0.29-0.33
		C618.23,28.46,618.33,28.58,618.43,28.69z M617.86,28.04c-0.09-0.11-0.19-0.22-0.28-0.33C617.67,27.82,617.76,27.93,617.86,28.04z
		 M617.3,27.38c-0.09-0.11-0.17-0.22-0.26-0.33C617.12,27.16,617.21,27.27,617.3,27.38z M616.77,26.72
		c-0.09-0.11-0.17-0.22-0.25-0.33C616.61,26.5,616.68,26.61,616.77,26.72z M616.29,26.08c-0.08-0.11-0.15-0.21-0.22-0.31
		C616.14,25.87,616.21,25.97,616.29,26.08z M615.86,25.47c-0.07-0.1-0.12-0.19-0.18-0.28C615.74,25.28,615.79,25.37,615.86,25.47z
		 M615.5,24.91c-0.06-0.1-0.11-0.19-0.16-0.28C615.39,24.73,615.44,24.81,615.5,24.91z M615.23,24.43c-0.05-0.1-0.08-0.18-0.12-0.27
		C615.15,24.25,615.18,24.33,615.23,24.43z M618.71,28.98c0.1,0.11,0.2,0.21,0.29,0.31C618.91,29.2,618.81,29.09,618.71,28.98z
		 M619.28,29.57c0.1,0.1,0.19,0.2,0.29,0.29C619.47,29.77,619.37,29.67,619.28,29.57z M621.41,31.28c-0.06-0.02-0.13-0.07-0.2-0.1
		C621.28,31.22,621.35,31.26,621.41,31.28z M621.04,31.09c-0.07-0.05-0.15-0.11-0.23-0.16C620.88,30.98,620.97,31.04,621.04,31.09z
		 M620.6,30.77c-0.08-0.06-0.17-0.14-0.26-0.22C620.42,30.63,620.51,30.71,620.6,30.77z M620.1,30.36
		c-0.09-0.08-0.19-0.17-0.28-0.26C619.92,30.19,620.01,30.28,620.1,30.36z M608.93,62.31c0.23-0.02,0.47-0.05,0.72-0.09
		C609.4,62.26,609.16,62.29,608.93,62.31z M605.36,60.88c-0.02-0.01-0.04-0.01-0.05-0.02C605.32,60.87,605.34,60.87,605.36,60.88z
		 M605.19,60.83c-0.02,0-0.04,0-0.05,0c0.01,0,0.02-0.01,0.03-0.01C605.17,60.82,605.18,60.83,605.19,60.83z M604.53,61.16
		c-0.02,0.01-0.03,0.03-0.05,0.04C604.5,61.19,604.52,61.18,604.53,61.16z M604.85,60.92c0,0-0.01,0.01-0.01,0.01
		C604.84,60.93,604.85,60.92,604.85,60.92z M604.18,61.56c-0.02,0.03-0.04,0.05-0.06,0.08C604.14,61.61,604.16,61.58,604.18,61.56z
		 M603.81,62.07c-0.01,0.02-0.02,0.04-0.03,0.06C603.79,62.11,603.8,62.09,603.81,62.07z M603.52,62.6
		c-0.01,0.02-0.02,0.03-0.03,0.05C603.5,62.64,603.51,62.62,603.52,62.6z M603.27,63.16c-0.01,0.03-0.02,0.07-0.04,0.1
		C603.25,63.23,603.26,63.2,603.27,63.16z M603.09,63.75c-0.01,0.03-0.01,0.05-0.02,0.08C603.08,63.8,603.09,63.78,603.09,63.75z"/>
</g>
<g>
	<g>
		<path d="M743.22,22.23c1.39,1.78,1.19,5.05,1.19,5.94c0,0.99-0.4,1.39-0.99,1.98s-1.68-0.2-3.17-1.09
			c-1.38-0.99-3.96-2.47-6.53-3.36c-2.47-0.79-10.49,1.19-10.49,4.45c0,6.23,11.28,2.37,15.53,4.85c3.46,2.08,8.01,6.83,7.22,11.18
			c-1.19,5.54-13.85,15.14-23.35,21.67c-0.79,0.49-1.78,1.48-1.78,1.68c0,0.59,0.89,0.69,1.58,0.59c11.77-1.58,22.95-1.58,31.76,0
			c1.78,0.2,1.68-4.65,3.26-4.06c3.96,1.48,6.43,3.46,7.92,4.85c0.89,0.99,1.78,2.18,1.78,3.56c0,0.99-1.78,1.98-2.37,1.98
			c-0.99,0-3.86,0.3-5.15-1.48c-0.69-0.89-3.36-1.98-4.35-2.08c-5.24-0.89-10.69-1.98-17.41-1.78c-9.7,0.1-20.48,1.38-23.15,2.77
			c-0.99,0.59-3.66,2.37-4.45,3.46c-2.18,2.67-3.07,4.25-3.46,4.25c-1.98,0-6.43-3.27-6.53-4.85c-0.1-1.98,1.29-3.66,2.18-3.66
			c0.69,0,2.77,1.09,5.05,1.09c1.68,0,13.16-7.62,21.47-14.54c7.72-6.33,10.88-13.26,9.4-17.61c-1.29-4.16-6.23-4.75-9.6-4.75
			c-4.95,0-9.5-3.76-8.41-8.31c0.79-3.56,8.61-7.92,12.96-7.92c0.99,0-1.38-2.97-2.97-3.96l1.29-1.48
			C739.36,17.38,741.84,20.25,743.22,22.23z M714.73,44.39c0.99,2.57,2.77,4.35,4.35,4.35c2.57,0,6.13-3.96,10.29-6.13l0.2,0.79
			c-1.58,1.98-4.85,4.35-6.33,7.92c-0.59,1.39,0.4,4.55-0.4,5.24c-2.28,1.78-7.62-0.2-9.6-4.85c-0.69-1.68-1.48-4.35-0.59-5.94
			C713.24,44.69,714.63,44,714.73,44.39z"/>
		<path d="M752.52,92.68c2.77,3.96,0,6.33-1.39,6.33c-1.78,0-3.36-0.99-5.14,0.4c-3.66,2.47-7.52,5.94-12.07,9.5
			c6.33,2.28,13.36,7.72,15.14,11.38c1.19,2.37,0.69,3.07-0.3,4.06c-1.09,0.89-2.87,1.48-4.06,0.79c-0.59-0.4-1.19-1.68-3.56-2.47
			c-1.88-0.69-12.57,0-13.75,5.54c-1.09,5.14,11.97,9.79,17.31,11.97c7.92,3.36,4.65,11.58,2.28,15.63
			c-4.75,7.92-15.33,11.97-26.02,8.71l0.5-1.29c6.13,1.68,25.53-6.43,20.48-15.93c-3.46-6.53-20.18-10.98-17.81-19.69
			c2.38-8.51,12.57-8.31,14.35-10.78c0.79-0.99-3.66-4.45-7.62-5.54c-7.02,5.34-15.53,10.69-26.42,13.36l-1.09-1.09
			c11.67-3.26,31.56-18.8,39.08-29.68c2.18-3.07,0.69-5.05-0.4-6.33l1.58-1.09C745.99,86.74,750.54,89.71,752.52,92.68z
			 M722.34,143.33c0.89-1.09,1.68-1.48,1.78-1.09c0.69,1.98,3.07,3.17,4.16,2.57c2.28-1.29,2.77-1.78,3.66-2.28l0.49,0.5
			c-1.19,2.08-2.08,2.97-2.67,4.45c-0.59,1.38,1.48,1.98,0.89,2.77c-0.59,0.89-1.68,1.19-3.46,0.99c-1.58-0.2-3.96-0.79-5.05-3.36
			C721.46,146.3,721.65,144.22,722.34,143.33z M746.88,103.96c0.69,1.98,2.97,2.57,4.16,2.57c0.99,0,2.47-1.78,6.73-2.57
			c1.98-0.4,6.93,4.85,6.13,7.42c-0.59,2.28-4.55,3.86-8.61,3.46l-0.69-1.78c2.97-0.49,7.32-4.16,2.97-6.53
			c-1.58-0.79-4.55,1.19-5.15,2.67c-0.79,1.78-1.88,3.86-3.36,3.66c-1.58-0.3-2.77-1.88-3.86-4.45
			C743.91,105.24,746.39,102.67,746.88,103.96z"/>
		<path d="M726.3,177.57c0,0.99-0.1,2.67-0.69,3.07c-0.59,0.49-1.78,0.2-2.77,1.68c-0.99,1.38-0.69,5.64-0.5,12.17
			c0,1.29,0.89,0.59,1.58-0.3c4.16-5.05,11.58-8.71,18.4-8.71c6.53,0,11.97,4.75,11.97,14.25c0,18.2-13.46,19.49-26.91,33.14
			c-6.13,6.04-5.05,13.95-4.16,20.68l-1.98,0.99c-5.44-12.07,0-24.73,9.3-32.06c12.27-9.6,18.3-14.94,18.3-23.45
			c0-7.22-5.14-9.4-10.49-9.4c-8.21,0-14.74,7.22-15.73,11.48c-0.49,1.78,0.59,6.43,0.59,7.52s-0.89,2.97-1.78,2.97
			c-0.99,0-3.86-2.57-3.96-4.75c-0.1-2.87,0.4-3.56,1.09-3.56c0.59,0,0.79-0.99,0.89-2.87c0.3-2.87,0.79-18.11-0.89-22.46
			c-0.89-2.18-2.38-3.56-4.55-5.34l1.58-1.48C722.64,173.81,726.3,176.48,726.3,177.57z M731.55,198.35
			c0.99,1.88,3.36,3.76,5.05,3.36c2.18-0.4,3.07-2.18,4.45-5.14l0.89,0.69c0,3.26-3.46,12.37-5.54,12.37
			c-2.67,0-6.43-6.43-6.43-8.71C729.96,199.83,730.95,197.26,731.55,198.35z"/>
		<path d="M758.85,267.51c0,1.09-1.68,1.29-2.67,1.29c-0.89,0-3.17,0.99-4.85,3.07c-3.17,4.06-18.9,21.27-19.59,22.46
			c-0.49,0.79-0.4,1.09,0.59,0.79c1.98-0.59,4.16-0.99,8.11-0.69c5.34,0.49,17.21,4.75,16.13,12.96
			c-1.19,9.6-20.78,11.38-21.87,18.9c-0.69,5.24,3.76,9,9,12.47l-1.29,1.38c-5.34-2.28-12.47-7.32-11.28-15.04
			c1.19-7.72,17.81-14.54,18.6-19.29c0.89-4.55-5.54-8.51-12.76-8.51c-6.63,0-15.43,6.73-18.4,11.28c-0.5,0.69-0.1,2.77-0.1,3.76
			c0,1.09-2.97,2.97-3.96,2.97s-4.16-2.08-5.54-5.05c-0.99-2.08,1.19-4.75,2.57-5.64c0.99-0.59,2.87,0,5.74-2.37
			c5.04-4.16,9.5-8.11,13.36-11.87c-2.38,0.99-5.05,1.09-7.32-0.99c-2.97-2.77-2.18-6.83,1.09-10.59c3.76-4.55,9.3-5.94,12.57-4.06
			c2.37,1.48,2.37,4.65,1.48,7.42c4.85-5.64,8.21-10.88,10.39-15.73c0.69-1.58-0.99-3.76-2.77-5.74l2.08-1.48
			C757.96,263.55,758.85,266.42,758.85,267.51z M733.33,284.13c1.48-2.08,1.98-4.75,0.4-6.04c-1.58-1.39-4.75-0.99-6.92,1.88
			c-1.58,1.88-2.08,4.75,0,5.94C729.27,287.3,732.14,285.62,733.33,284.13z"/>
		<path d="M609.65,62.22c1.58-0.3,4.55-3.17,9.89-4.06c8.41-5.64,15.43-15.04,15.53-22.46c-2.67,2.28-7.42,3.27-9,1.68
			c-3.17-2.87,3.26-10.49,5.44-14.74c0.89-1.88-2.18,0.2-4.45,2.47c-2.18,2.28-3.96,6.04-5.34,6.23c-1.29,0.1-6.73-6.33-6.73-7.62
			s2.28-3.66,3.17-2.67c1.68,1.98,5.24,1.58,7.92,0.2c2.57-1.48,13.46-8.71,14.84-8.31c1.29,0.3,4.75,2.77,3.86,3.36
			c-0.79,0.59-2.67,0.89-5.94,3.46c-6.13,4.85-12.37,14.05-9.79,15.24c2.28,0.99,4.35-0.2,5.94-1.68c-0.2-3.27,0.2-4.35,2.18-4.75
			c4.35-0.99,7.62,2.28,7.62,3.96c0,0.69-2.28,0.4-2.67,1.58c-4.95,11.97-11.38,19.89-17.91,23.84c9.7,1.58,21.77,17.71,38.19,17.71
			c4.45,0,12.57-1.78,16.52-4.85l0.69,1.29c-4.06,3.56-16.03,9.3-25.53,9.3c-12.17,0-24.14-20.28-34.93-20.28
			c-2.47,0-5.15,1.68-6.33,3.26c-1.19,1.68-4.45,5.64-5.64,5.64c-1.19,0-4.16-4.55-4.16-5.74c0-1.48,1.88-4.25,2.47-3.27
			C606.48,62.42,607.77,62.52,609.65,62.22z"/>
		<path d="M643.29,97.03c1.58,1.98-1.09,4.75-3.46,5.14c-2.87,0.4-4.65,0.3-7.62,1.39c-3.07,1.19-7.32,3.46-6.93,6.04
			c0.79,4.25,9.2-1.68,15.43-0.59c4.75,0.89,7.72,5.44,5.15,10.09c-4.55,8.01-15.24,6.53-23.94,19.39
			c-0.49,0.59-1.58,2.37-1.38,2.57c0.2,0.3,4.75-4.25,9.2-4.25c12.47,0,15.04,19.79,28.59,19.79c7.12,0,13.26-4.75,15.53-6.93
			l0.99,0.4c-0.89,2.18-9,13.65-19.99,13.65c-20.38,0-14.44-23.84-26.61-23.45c-8.31,0.2-12.66,12.07-12.66,19.29
			c0,2.18-1.38,2.77-1.78,2.77c-0.69,0-1.19-0.59-1.88-1.19c-2.28-1.88-3.96-4.55-3.86-5.54c0.2-0.99,1.58-1.19,2.18-2.87
			c3.36-8.71,10.29-17.71,18.6-24.73c7.32-6.13,12.37-11.58,9.1-13.55c-2.87-1.58-5.74,0-9.7,0c-3.36,0-6.04-2.47-6.04-4.85
			c0-6.83,9.89-7.42,11.28-12.47c0.59-1.98-5.05-6.04-6.73-6.83l0.89-1.48C635.28,91.2,641.9,95.35,643.29,97.03z M613.01,118.01
			c1.39,1.68,2.47,4.06,4.16,4.06c2.57,0,4.55-2.37,8.11-4.25l0.89,0.49c-1.68,1.98-3.96,3.66-5.44,7.22
			c-0.59,1.29,0.4,4.75-0.4,5.44c-2.97,2.37-4.85,0-7.22-3.86c-0.99-1.68-2.47-4.45-2.47-5.64
			C610.64,120.58,612.52,117.41,613.01,118.01z"/>
		<path d="M614.89,229.42c5.84-3.27,9.6-3.76,9.1-5.54c-0.69-2.57-5.05-4.35-4.16-7.52c0.89-2.37,1.88-4.16,2.47-5.64
			c0.99-2.37-0.2-1.88-2.47-0.49c-3.56,2.28-3.17,4.45-4.95,4.45s-4.06-1.48-5.05-3.46c-0.59-1.19,0.79-3.66,2.77-6.13
			c0.69-0.99,1.58,2.97,2.97,3.66c0.5,0.2,4.16-1.19,7.02-2.37c3.27-1.29,5.24-2.97,5.84-2.28c0.79,0.99,0.79,1.78,0.59,2.57
			c-0.3,0.89-2.38,1.48-3.27,1.78c-0.79,0.4-1.98,2.67-2.97,5.54c-0.89,2.67-1.29,4.95,3.86,7.32c5.54,2.57,4.95,6.63,1.78,8.31
			c-2.87,1.58-6.13-0.1-8.9,1.09c-6.33,2.47-9.99,6.63-9.2,13.65l-1.88-0.3C606.68,237.73,610.64,231.79,614.89,229.42z
			 M647.74,175.99c0,1.19-2.28,0.3-4.45,3.36c-2.97,4.06-8.61,8.71-12.07,12.27c-1.39,1.39-0.69,1.58,0.3,1.19
			c1.98-0.69,4.16-0.59,8.01,1.98c3.76,2.57,5.94,7.12,5.94,13.65c0,6.83-1.78,12.86-1.78,19c0,11.87,9.3,19.39,17.12,19.39
			c5.44,0,10.09-3.17,13.75-5.44l0.99,1.88c-4.35,3.96-10.29,9-19.1,9c-13.36,0-19.09-14.54-19.09-21.96
			c0-7.12,3.66-14.74,3.66-19.69c0-6.63-0.89-11.87-4.75-13.65c-3.66-1.68-6.43-2.47-8.9,0.5c-2.37,2.67-2.97,5.44-4.06,5.44
			c-1.78,0-2.87-0.59-2.87-1.78c0-2.87,1.68-5.54,2.67-6.33c0.89-0.69,1.19,0.79,2.67-0.69c4.06-3.76,12.37-12.07,13.65-17.81
			c0.4-1.48-1.48-2.37-3.76-3.46l1.19-2.47C645.66,172.23,647.74,175.2,647.74,175.99z"/>
		<path d="M640.91,267.31c0.89,1.29,1.48,2.67,1.48,4.25c0,0.99-0.79,1.88-1.88,1.88s-4.16-0.79-4.55-0.59
			c-0.3,0.3-0.69,1.68-0.79,5.44c-0.3,5.64-0.4,14.84-0.3,24.93c9.99-2.87,23.94-7.52,28.69-9.3l0.59,1.19
			c-9.79,4.75-22.46,9.6-29.29,12.07c0.1,4.65,0.3,9.5,0.5,14.05c0.49,9.3,1.98,12.76,2.37,14.05c0.5,1.39,1.09,2.57,0.89,3.46
			c-0.59,2.87-2.18,3.26-2.77,3.26c-0.59,0-1.98,0.2-3.27-1.19c-1.09-1.19-2.87-5.64-2.08-8.11c0.1-0.49,0.69-0.49,0.99-5.74
			c0.2-3.86,0.4-10.78,0.49-18.7c-0.4,0.1-0.69,0.2-0.89,0.3c-4.75,1.78-6.04,5.64-7.62,5.64c-2.67,0-7.22-5.05-7.22-8.41
			c0-1.19,3.27-6.53,4.45-4.65c1.88,3.17,3.36,4.65,4.85,4.35c1.38-0.2,3.66-0.69,6.43-1.48c0-11.38-0.1-24.04-0.49-32.55
			c-0.3-5.34-2.47-8.71-3.86-11.08l1.19-0.89C636.36,263.16,639.73,265.63,640.91,267.31z"/>
	</g>
</g>
</svg>
