<?xml version="1.0" encoding="utf-8"?>
<!-- Generator: Adobe Illustrator 25.4.1, SVG Export Plug-In . SVG Version: 6.00 Build 0)  -->
<svg version="1.1" id="Layer_1" xmlns="http://www.w3.org/2000/svg" xmlns:xlink="http://www.w3.org/1999/xlink" x="0px" y="0px"
	 viewBox="0 0 1365.74 364.04" style="enable-background:new 0 0 1365.74 364.04;" xml:space="preserve">
<style type="text/css">
	.st0{display:none;}
	.st1{writing-mode:tb;}
	.st2{display:inline;}
	.st3{font-family:'AugmentedFarEasternScript-Regular-90ms-RKSJ-H';}
	.st4{font-size:98.9434px;glyph-orientation-vertical:0;}
	.st5{fill:#FFFFFF;}
</style>
<text transform="matrix(1 0 0 1 732.34 13.5219)" class="st0 st1"><tspan x="0" y="0" class="st2 st3 st4">ようこそ</tspan><tspan x="-98.94" y="3.96" class="st2 st3 st4">クガネへ</tspan></text>
<g>
	<path class="st5" d="M787.35,67.37l-0.69-1.29c-1.39-2.59-3.86-4.43-6.73-5.04c-0.69-0.15-1.38-0.22-2.07-0.22
		c-2.2,0-4.36,0.73-6.13,2.1c-1.63,1.26-7.26,2.75-10.4,2.75c-6.68,0-13.19-4.55-19.49-8.94c-0.53-0.37-1.06-0.74-1.59-1.11
		c3.19-4.07,6.07-8.87,8.58-14.32c4.62-2.82,4.9-7.65,4.9-8.76c0-3.18-1.33-6.19-3.51-8.61c2.8-2.37,4.16-6.08,3.49-9.75
		c-0.56-3.08-2.39-5.71-5.59-8.04c-1.38-1.01-3.5-2.31-5.81-2.89c-0.83-0.21-1.69-0.32-2.56-0.32c-3.75,0-6.81,1.6-16.96,7.97
		c-0.54,0.34-1.09,0.68-1.57,0.98c-1.43-0.68-3.01-1.05-4.63-1.05c-6.49,0-12.63,6.27-12.63,12.91c0,3.35,1.53,6.48,5.28,10.82
		c1.7,1.97,3.54,3.86,5.68,5.14c0.85,2.37,2.24,4,3.22,4.93c0.14,0.14,0.29,0.27,0.45,0.41c-1.23,1.31-2.64,2.61-4.2,3.79
		c-2.76,0.72-5,1.74-6.68,2.63c-1.12-0.41-2.33-0.63-3.58-0.63c-7.52,0-12.14,7.85-12.14,13.47c0,1.75,0.35,4.59,3.41,9.01
		c1.15,1.67,4.66,6.73,10.75,6.73c1.95,0,6.4,0,12.85-8.56c2.34,1.14,6.41,4.66,8.99,6.9c0.31,0.27,0.62,0.54,0.94,0.81
		c-0.37-0.04-0.74-0.06-1.11-0.06c-2.13,0-4.24,0.68-6,2l-1.19,0.89c-4.06,3.05-5.2,8.65-2.64,13.04l0.3,0.51
		c1.11,1.88,2.06,3.5,2.21,6.05c0.21,4.62,0.36,10.96,0.43,18.93c-0.61-0.11-1.23-0.16-1.87-0.16c-8.43,0-13.81,9.88-13.81,15.05
		c0,5.43,3.18,9.88,5.08,12.05c1.85,2.11,5.48,5.49,10.27,6.22c-0.03,0.87-0.07,1.66-0.11,2.37c-0.07,1.22-0.15,1.94-0.2,2.32
		c-0.15,0.37-0.31,0.81-0.45,1.3c-1.03,3.62-0.46,7.71,0.77,11.18c-1.01,0.76-1.89,1.72-2.58,2.85l-0.89,1.48
		c-1.45,2.42-1.82,5.35-0.99,8.06c0.36,1.18,0.93,2.27,1.67,3.22c-2.99,2.41-6.06,6.04-6.58,11.51c-2.74,0.15-6.4,1.42-9.33,6.26
		c-2.32,3.82-2.32,6.41-2.32,7.26c0,2.16,0.47,4.95,3.85,10.71c0.03,0.06,0.07,0.11,0.1,0.17c0.7,1.14,1.68,2.73,3.02,4.29
		c-2.51,3.67-4.59,7.42-6.15,11.13c-1.11,1.1-2.63,2.99-3.2,5.87c-0.06,0.32-0.11,0.65-0.15,0.97c-0.69,6.94,5.75,12.82,7.33,14.15
		c0.05,0.04,0.09,0.08,0.14,0.12c1.04,0.94,3.8,3.45,8.22,3.45c5.67,0,11.78-4.88,11.78-12.77c0-2.67,1.01-5.72,2.07-7.64
		c0.24,0.55,0.46,1.1,0.66,1.57c0.94,2.26,2.14,5.14,3.93,8.02c-1.87,0.97-3.44,2.51-4.4,4.52l-1.19,2.47
		c-1.15,2.39-1.3,5.14-0.42,7.65c0.24,0.68,0.55,1.32,0.92,1.92c-1.44,1.84-3.5,4.18-6.26,6.88c-1.41,0.37-2.74,1.03-3.93,1.96
		c-0.04,0.03-0.07,0.06-0.11,0.08c-2.02,1.61-4.13,4.5-5.36,8.03c-2.65,0.36-5.09,1.76-6.76,3.91c-1.95,2.43-7.47,9.49-3.83,16.76
		c1.41,2.83,3.71,5.2,6.4,6.79c-6.6,5.08-11.26,14.34-8.47,24.29c1.06,3.76,4.21,6.56,8.07,7.17l1.88,0.3
		c0.52,0.08,1.04,0.12,1.56,0.12c2.56,0,5.04-0.98,6.91-2.77c2.26-2.16,3.37-5.24,3.03-8.35c-0.15-1.32-0.22-1.92,2.32-2.98
		c0.17,0.01,0.36,0.02,0.55,0.03c0.55,0.03,1.23,0.06,1.97,0.06c1.34,0,2.6-0.12,3.79-0.37c3.5,11.22,12.87,22.3,27.54,22.3
		c13.06,0,21.68-7.84,25.82-11.6c3.37-3.07,4.25-8.02,2.12-12.06l-0.99-1.88c-1.29-2.46-3.55-4.27-6.23-4.99
		c-0.86-0.23-1.74-0.35-2.62-0.35c-1.85,0-3.68,0.51-5.28,1.51l-0.8,0.5c-2.57,1.61-5.48,3.43-7.67,3.43
		c-2.03,0-7.12-2.79-7.12-9.39c0-2.28,0.37-4.85,0.75-7.58c0.48-3.38,1.03-7.2,1.03-11.42c0-8.01-2.55-14.76-7.26-19.41
		c0.93-1.01,1.82-2.03,2.62-3.06c6.4-2.63,6.92-8.26,6.92-9.98c0-0.65-0.07-1.47-0.29-2.41c14.54-1.47,24.68-14.92,26.65-19.73
		c1.01-2.47,0.99-5.23-0.05-7.69s-3.02-4.39-5.49-5.38l-0.99-0.4c-1.2-0.48-2.46-0.72-3.71-0.72c-2.53,0-5.02,0.96-6.91,2.77
		c-1.74,1.67-5.48,4.15-8.62,4.15c-1.78,0-3.55-1.88-7.09-6.39c-1.74-2.21-3.73-4.74-6.17-7.01c3.41-1.98,6.94-4.67,9.49-9.16
		c0.02-0.03,0.04-0.06,0.05-0.1c2.68-4.85,2.92-10.38,0.66-15.19c-0.77-1.63-1.8-3.11-3.04-4.41c0.27-0.49,0.5-1,0.7-1.52
		c1.58-4.13,0.89-8.63-1.83-12.04c-0.03-0.04-0.06-0.07-0.09-0.11c-1.12-1.36-2.93-2.84-5.16-4.31c1.16-1.6,2.07-3.57,2.57-5.96
		c0.77-3.6-0.35-6.53-1.02-8.29c-0.06-0.16-0.12-0.31-0.18-0.48c-0.05-0.14-0.1-0.29-0.15-0.46c-0.4-1.18-1.33-3.94-1.7-10.85
		c-0.09-2.1-0.19-4.38-0.27-6.7c6.43-2.46,15.64-6.15,23.44-9.94c2.41-1.17,4.24-3.25,5.1-5.78c0.86-2.53,0.67-5.3-0.52-7.69
		l-0.59-1.19c-1.74-3.47-5.26-5.53-8.95-5.53c-1.17,0-2.36,0.21-3.51,0.64c-2.8,1.05-8.8,3.09-15.19,5.14
		c0.03-2.64,0.07-5.04,0.14-7.14c4.33-1.78,7.39-6.04,7.39-11c0-3.47-1.1-6.82-3.26-9.95c-0.02-0.03-0.04-0.05-0.05-0.08
		c-0.1-0.14-0.2-0.27-0.31-0.41c1.7,0.42,3.46,0.65,5.3,0.65c12.2,0,26.5-6.84,32.12-11.79C788.64,76.56,789.55,71.47,787.35,67.37z
		 M714.85,298.78c0.02,0,0.04-0.01,0.06-0.01C714.89,298.77,714.87,298.78,714.85,298.78z M727.06,293.97
		c-0.08-0.01-0.18,0.01-0.29,0.03c0.08-0.01,0.16-0.04,0.22-0.04C727.02,293.96,727.04,293.97,727.06,293.97z M720.83,299.18
		c0.16-0.05,0.3-0.08,0.42-0.08C721.13,299.1,720.99,299.13,720.83,299.18c-0.16,0.05-0.35,0.14-0.56,0.24
		c-0.21,0.1-0.44,0.23-0.69,0.37s-0.52,0.3-0.8,0.47c0.28-0.17,0.55-0.33,0.8-0.47s0.48-0.27,0.69-0.37
		C720.48,299.32,720.66,299.24,720.83,299.18z M720.27,296.92c0.07-0.03,0.14-0.06,0.21-0.08
		C720.41,296.87,720.34,296.9,720.27,296.92z M720.91,296.66c0.04-0.01,0.07-0.03,0.11-0.04
		C720.98,296.63,720.95,296.65,720.91,296.66z M722.65,295.94c0.12-0.05,0.23-0.11,0.35-0.16
		C722.88,295.83,722.77,295.88,722.65,295.94z M723.65,295.46c0.13-0.06,0.25-0.13,0.37-0.19
		C723.9,295.33,723.78,295.39,723.65,295.46z M724.6,294.97c0.21-0.11,0.41-0.21,0.6-0.31C725.01,294.76,724.82,294.86,724.6,294.97
		z M727.13,293.99c0.1,0.02,0.19,0.06,0.26,0.14C727.32,294.05,727.23,294.01,727.13,293.99z M725.52,294.5
		c0.19-0.1,0.37-0.18,0.53-0.25C725.88,294.32,725.71,294.4,725.52,294.5z M726.15,294.2c0.19-0.08,0.35-0.14,0.5-0.18
		C726.5,294.06,726.34,294.12,726.15,294.2z M727.23,286.57c0.06-0.05,0.13-0.09,0.19-0.14
		C727.36,286.48,727.29,286.52,727.23,286.57z M726.92,286.85c-0.05,0.05-0.1,0.09-0.15,0.14
		C726.81,286.94,726.87,286.9,726.92,286.85z M723.24,284.79c0.07,0.02,0.15,0.03,0.23,0.03
		C723.39,284.82,723.32,284.81,723.24,284.79z M722.99,284.72c0.07,0.02,0.14,0.04,0.21,0.06
		C723.13,284.77,723.06,284.75,722.99,284.72z M719.95,297.05c-0.09,0.04-0.18,0.07-0.27,0.11
		C719.77,297.12,719.86,297.09,719.95,297.05z M718.6,297.57c0.08-0.03,0.16-0.06,0.24-0.09
		C718.76,297.51,718.68,297.54,718.6,297.57z M719.14,297.37c0.09-0.03,0.17-0.07,0.26-0.1
		C719.31,297.3,719.22,297.34,719.14,297.37z M717.06,298.14c0.07-0.03,0.15-0.05,0.22-0.08
		C717.2,298.09,717.13,298.11,717.06,298.14z M717.55,297.96c0.08-0.03,0.16-0.06,0.24-0.09
		C717.71,297.91,717.63,297.94,717.55,297.96z M718.06,297.78c0.08-0.03,0.16-0.06,0.24-0.09
		C718.22,297.72,718.14,297.75,718.06,297.78z M713.97,298.3c0.03,0.03,0.06,0.07,0.09,0.1C714.03,298.37,714,298.33,713.97,298.3z
		 M727.71,286.22c0.07-0.04,0.13-0.08,0.2-0.12C727.84,286.14,727.77,286.18,727.71,286.22z M729.39,282.73c0,0.02,0,0.03,0,0.04
		C729.39,282.76,729.39,282.75,729.39,282.73z M729.78,282.08c-0.03,0.03-0.05,0.07-0.08,0.1
		C729.72,282.14,729.75,282.11,729.78,282.08z M729.52,282.44c-0.01,0.02-0.03,0.04-0.04,0.06
		C729.49,282.48,729.5,282.46,729.52,282.44z M729.43,285.57c-0.08,0.01-0.16,0.02-0.23,0.04
		C729.27,285.59,729.35,285.58,729.43,285.57z M729.41,282.9c0.01,0.01,0.01,0.02,0.02,0.03
		C729.43,282.92,729.42,282.91,729.41,282.9z M729.96,285.51c-0.08,0-0.16,0.01-0.25,0.01
		C729.79,285.52,729.88,285.52,729.96,285.51z M729.56,283.01c0.01,0,0.01,0,0.02,0C729.58,283.01,729.57,283.01,729.56,283.01z
		 M729.76,283.02c0.06,0,0.14-0.01,0.22-0.03C729.9,283.01,729.82,283.02,729.76,283.02z M730.08,282.97
		c0.12-0.03,0.25-0.07,0.38-0.12C730.32,282.9,730.2,282.94,730.08,282.97z M730.54,285.52c-0.1-0.01-0.2-0.01-0.3-0.02
		C730.34,285.51,730.44,285.52,730.54,285.52z M731.48,282.58c-0.02,0-0.05,0.01-0.07,0.01
		C731.43,282.58,731.45,282.58,731.48,282.58z M732.5,282.48c0.03,0,0.06,0,0.09,0c-0.04,0-0.08,0-0.11,0
		C732.49,282.48,732.49,282.48,732.5,282.48z M737.63,284.29c-0.08-0.05-0.16-0.1-0.24-0.14
		C737.47,284.19,737.54,284.24,737.63,284.29z M736.8,283.81c-0.07-0.04-0.15-0.08-0.22-0.12
		C736.65,283.73,736.73,283.77,736.8,283.81z M735.85,283.33c-0.03-0.01-0.05-0.02-0.08-0.03
		C735.8,283.31,735.83,283.31,735.85,283.33z M735.17,283.04c-0.07-0.03-0.13-0.05-0.2-0.07
		C735.04,282.99,735.1,283.01,735.17,283.04z M734.49,282.8c-0.05-0.02-0.11-0.04-0.16-0.05
		C734.38,282.77,734.43,282.79,734.49,282.8z M733.73,282.61c-0.03-0.01-0.07-0.01-0.1-0.02C733.67,282.6,733.7,282.6,733.73,282.61
		z M733.17,282.52c-0.06-0.01-0.11-0.01-0.17-0.02C733.06,282.51,733.11,282.51,733.17,282.52z M722.15,134.15
		c0.08,0.08,0.16,0.15,0.25,0.22C722.32,134.3,722.23,134.23,722.15,134.15z M722.72,134.62c0.08,0.06,0.16,0.11,0.24,0.16
		C722.88,134.73,722.8,134.68,722.72,134.62z M723.27,134.95c0.08,0.04,0.16,0.07,0.24,0.1
		C723.43,135.02,723.35,134.98,723.27,134.95z M723.82,135.12c0.08,0.01,0.16,0.03,0.23,0.03
		C723.97,135.15,723.9,135.13,723.82,135.12z M739.06,103.05c-0.02,0-0.04,0-0.06-0.01C739.03,103.04,739.04,103.04,739.06,103.05z
		 M738.53,102.98c-0.03,0-0.06-0.01-0.09-0.01C738.47,102.97,738.5,102.97,738.53,102.98z M737.92,102.88
		c-0.04-0.01-0.07-0.01-0.11-0.02C737.84,102.86,737.88,102.87,737.92,102.88z M737.21,102.75c-0.19-0.03-0.37-0.07-0.55-0.1
		C736.84,102.68,737.03,102.72,737.21,102.75z M736.61,102.64c-0.18-0.03-0.36-0.06-0.52-0.09
		C736.25,102.58,736.42,102.61,736.61,102.64z M736,102.54c-0.16-0.03-0.31-0.05-0.44-0.06C735.69,102.49,735.84,102.51,736,102.54z
		 M735.49,102.47c-0.13-0.01-0.24-0.02-0.34-0.02C735.25,102.45,735.36,102.46,735.49,102.47z M735.12,102.45
		c-0.09,0-0.17,0.01-0.21,0.03C734.95,102.46,735.03,102.45,735.12,102.45z M729.47,162.33c0.01-0.06,0.03-0.12,0.06-0.17
		C729.5,162.22,729.48,162.27,729.47,162.33c-0.15,0.46-0.21,1-0.2,1.57C729.26,163.33,729.32,162.8,729.47,162.33z M730.95,137.9
		c-0.02,1.48-0.04,2.93-0.07,4.33C730.91,140.83,730.93,139.38,730.95,137.9L730.95,137.9z M729.62,161.97
		c0.04-0.08,0.08-0.17,0.12-0.28C729.7,161.8,729.66,161.89,729.62,161.97z M730.95,133.64L730.95,133.64
		c-0.69,0.2-1.35,0.38-1.98,0.54C729.6,134.02,730.26,133.84,730.95,133.64z M730.8,204.14c0.21-0.03,0.41-0.06,0.61-0.1
		C731.21,204.07,731,204.1,730.8,204.14z M731.71,203.99c0.25-0.04,0.5-0.07,0.74-0.1c0.23-0.03,0.46-0.05,0.69-0.07
		c-0.23,0.02-0.46,0.04-0.69,0.07C732.21,203.92,731.96,203.96,731.71,203.99z M733.34,203.81c0.17-0.01,0.34-0.02,0.51-0.02
		C733.68,203.79,733.51,203.79,733.34,203.81z M734.05,203.78c0.45,0,0.89,0.05,1.33,0.14C734.94,203.83,734.5,203.79,734.05,203.78
		z M735.56,203.97c0.16,0.04,0.32,0.09,0.48,0.14C735.89,204.06,735.73,204.01,735.56,203.97z M736.24,204.18
		c0.22,0.09,0.43,0.18,0.65,0.3C736.67,204.36,736.46,204.27,736.24,204.18z M733.1,199.65c0.04-0.01,0.08-0.02,0.13-0.03
		C733.18,199.63,733.14,199.64,733.1,199.65z M730.25,200.43c0.44-0.12,0.9-0.25,1.36-0.38C731.15,200.18,730.7,200.3,730.25,200.43
		z M728.75,200.83c0.43-0.1,0.87-0.22,1.34-0.35C729.62,200.6,729.17,200.72,728.75,200.83z M728.68,200.84
		c-0.42,0.1-0.81,0.18-1.18,0.24C727.87,201.02,728.27,200.94,728.68,200.84z M727.43,201.09c-0.37,0.06-0.72,0.09-1.04,0.09
		C726.7,201.19,727.05,201.15,727.43,201.09z M726.24,201.19c-0.08,0-0.15,0-0.22-0.01C726.09,201.18,726.16,201.18,726.24,201.19z
		 M725.85,201.16c-0.07-0.01-0.14-0.02-0.2-0.03C725.71,201.14,725.78,201.15,725.85,201.16z M725.5,201.09
		c-0.06-0.02-0.12-0.04-0.18-0.06C725.37,201.05,725.43,201.07,725.5,201.09z M725.18,200.97c-0.06-0.03-0.11-0.06-0.16-0.09
		C725.07,200.92,725.13,200.95,725.18,200.97z M724.91,200.82c-0.05-0.04-0.09-0.08-0.14-0.12
		C724.81,200.74,724.86,200.78,724.91,200.82z M724.67,200.6c-0.04-0.05-0.08-0.1-0.12-0.16
		C724.59,200.5,724.63,200.56,724.67,200.6z M724.48,200.34c-0.04-0.07-0.07-0.14-0.1-0.21
		C724.41,200.2,724.44,200.27,724.48,200.34z M724.33,200.02c-0.04-0.12-0.08-0.24-0.1-0.38
		C724.25,199.77,724.29,199.9,724.33,200.02z M729.19,204.36c-0.08,0.01-0.16,0.02-0.24,0.03
		C729.03,204.38,729.11,204.37,729.19,204.36z M728.33,204.44c-0.09,0.01-0.17,0.01-0.26,0.02
		C728.16,204.45,728.25,204.44,728.33,204.44z M736.33,199.02c0.04,0,0.08-0.01,0.11-0.01
		C736.41,199.01,736.37,199.01,736.33,199.02z M734.77,199.27c0.01,0,0.03-0.01,0.04-0.01
		C734.79,199.26,734.78,199.26,734.77,199.27z M738,198.91c0.04,0,0.08,0,0.12,0c-0.05,0-0.11,0-0.16,0
		C737.97,198.91,737.98,198.91,738,198.91z M738.92,198.95c-0.07-0.01-0.14-0.01-0.22-0.02
		C738.78,198.94,738.85,198.94,738.92,198.95z M712.61,218.03c0.05,0.08,0.1,0.15,0.15,0.23
		C712.71,218.18,712.66,218.11,712.61,218.03z M713.23,218.97c0.03,0.04,0.06,0.09,0.09,0.13
		C713.29,219.06,713.26,219.01,713.23,218.97z M713.85,219.82c0.05,0.06,0.09,0.11,0.14,0.17
		C713.94,219.93,713.9,219.88,713.85,219.82z M714.43,220.5c0.04,0.04,0.08,0.09,0.12,0.13
		C714.51,220.59,714.47,220.54,714.43,220.5z M715.08,221.13c0.04,0.03,0.08,0.06,0.12,0.09
		C715.16,221.19,715.12,221.17,715.08,221.13z M715.65,221.54c0.05,0.03,0.09,0.06,0.14,0.08
		C715.74,221.59,715.7,221.56,715.65,221.54z M716.35,221.85c0.03,0.01,0.06,0.01,0.1,0.02
		C716.41,221.86,716.38,221.86,716.35,221.85z M716.95,221.94c0.06,0,0.12,0,0.18,0c-0.03,0-0.06,0.01-0.09,0.01
		C717,221.95,716.98,221.94,716.95,221.94z M717.42,221.91c0.07-0.01,0.14-0.02,0.21-0.04C717.56,221.89,717.49,221.9,717.42,221.91
		z M717.95,221.78c0.07-0.02,0.14-0.04,0.21-0.08C718.09,221.73,718.02,221.75,717.95,221.78z M718.53,221.51
		c0.06-0.03,0.12-0.06,0.18-0.1C718.64,221.45,718.59,221.48,718.53,221.51z M719.54,231.1c0.02,0,0.04-0.01,0.06-0.02
		C719.58,231.09,719.56,231.09,719.54,231.1z M721.14,230c-0.1,0.07-0.2,0.15-0.29,0.21C720.94,230.14,721.03,230.07,721.14,230z
		 M720.64,230.36c-0.12,0.09-0.24,0.18-0.35,0.26C720.4,230.54,720.51,230.45,720.64,230.36z M720.11,230.75
		c-0.06,0.04-0.11,0.08-0.16,0.11C720,230.82,720.05,230.79,720.11,230.75z M719.81,230.96c-0.04,0.03-0.07,0.05-0.11,0.07
		C719.74,231,719.77,230.98,719.81,230.96z M725.09,227.68c-0.14,0.06-0.28,0.12-0.42,0.18C724.8,227.8,724.95,227.74,725.09,227.68
		z M724.32,228.03c-0.13,0.07-0.27,0.13-0.4,0.2C724.06,228.17,724.19,228.1,724.32,228.03z M723.6,228.42
		c-0.13,0.07-0.25,0.14-0.38,0.21C723.34,228.56,723.47,228.49,723.6,228.42z M722.91,228.82c-0.12,0.07-0.24,0.15-0.35,0.22
		C722.67,228.96,722.79,228.89,722.91,228.82z M722.27,229.22c-0.11,0.07-0.22,0.15-0.33,0.22
		C722.04,229.37,722.15,229.3,722.27,229.22z M721.67,229.62c-0.1,0.07-0.21,0.14-0.31,0.21
		C721.46,229.77,721.57,229.7,721.67,229.62z M727.58,226.94c-0.18,0.03-0.36,0.05-0.54,0.09
		C727.22,226.99,727.4,226.97,727.58,226.94z M726.7,227.12c-0.16,0.04-0.32,0.08-0.48,0.13
		C726.39,227.2,726.55,227.16,726.7,227.12z M725.88,227.37c-0.15,0.05-0.3,0.1-0.44,0.16
		C725.58,227.47,725.73,227.43,725.88,227.37z M728.68,226.84c-0.27,0-0.55,0.02-0.82,0.05
		C728.13,226.86,728.4,226.84,728.68,226.84z M728.41,230.36c-0.17-0.02-0.34-0.02-0.52-0.03
		C728.07,230.34,728.24,230.34,728.41,230.36z M732.49,232.4c-0.11-0.11-0.22-0.21-0.33-0.32
		C732.27,232.19,732.39,232.29,732.49,232.4z M731.82,231.78c-0.12-0.1-0.24-0.18-0.36-0.27
		C731.58,231.6,731.7,231.69,731.82,231.78z M731.08,231.26c-0.13-0.08-0.26-0.14-0.4-0.21
		C730.82,231.12,730.96,231.18,731.08,231.26z M730.28,230.84c-0.14-0.06-0.29-0.11-0.43-0.16
		C729.99,230.74,730.14,230.78,730.28,230.84z M729.39,230.54c-0.15-0.04-0.31-0.07-0.47-0.1
		C729.07,230.47,729.24,230.5,729.39,230.54z M741.9,249.2c0.15,0.16,0.31,0.31,0.47,0.46C742.21,249.5,742.05,249.35,741.9,249.2z
		 M737.94,243.04c0.09,0.2,0.19,0.4,0.29,0.59C738.14,243.44,738.04,243.24,737.94,243.04z M738.48,244.14
		c0.1,0.19,0.2,0.38,0.3,0.57C738.68,244.52,738.57,244.33,738.48,244.14z M739.05,245.22c0.1,0.19,0.22,0.37,0.32,0.55
		C739.26,245.59,739.15,245.41,739.05,245.22z M739.67,246.28c0.11,0.18,0.24,0.36,0.35,0.54
		C739.9,246.63,739.78,246.46,739.67,246.28z M740.35,247.3c0.12,0.17,0.26,0.34,0.38,0.51C740.6,247.64,740.47,247.47,740.35,247.3
		z M741.09,248.27c0.13,0.16,0.28,0.32,0.42,0.48C741.37,248.59,741.22,248.44,741.09,248.27z M737.72,242.54
		c-0.09-0.2-0.18-0.41-0.27-0.61C737.53,242.14,737.63,242.34,737.72,242.54z M737.24,241.46c-0.09-0.22-0.19-0.44-0.28-0.66
		C737.05,241.02,737.15,241.24,737.24,241.46z M736.81,240.44c-0.19-0.46-0.39-0.92-0.58-1.38
		C736.42,239.52,736.61,239.98,736.81,240.44z M736.1,238.75c-0.09-0.21-0.18-0.42-0.27-0.63
		C735.92,238.33,736.01,238.54,736.1,238.75z M735.64,237.67c-0.08-0.19-0.16-0.37-0.25-0.55
		C735.47,237.3,735.56,237.48,735.64,237.67z M735.18,236.64c-0.08-0.18-0.17-0.34-0.25-0.51
		C735.01,236.3,735.1,236.47,735.18,236.64z M734.7,235.67c-0.08-0.16-0.17-0.32-0.26-0.48
		C734.53,235.35,734.62,235.51,734.7,235.67z M734.21,234.75c-0.09-0.15-0.18-0.3-0.27-0.44
		C734.03,234.46,734.12,234.6,734.21,234.75z M733.68,233.9c-0.09-0.14-0.19-0.27-0.29-0.4
		C733.49,233.63,733.58,233.76,733.68,233.9z M733.11,233.11c-0.1-0.13-0.2-0.24-0.31-0.36
		C732.9,232.87,733.01,232.98,733.11,233.11z M721.81,133.8c-0.08-0.09-0.16-0.17-0.25-0.27
		C721.65,133.62,721.73,133.71,721.81,133.8z M721.2,133.06c-0.08-0.1-0.16-0.2-0.24-0.31C721.04,132.86,721.12,132.96,721.2,133.06
		z M719.67,130.77c-0.07-0.11-0.14-0.18-0.22-0.25C719.53,130.59,719.61,130.67,719.67,130.77z M720.54,132.14
		c-0.07-0.1-0.14-0.2-0.21-0.31C720.4,131.94,720.47,132.04,720.54,132.14z M719.41,130.49c-0.08-0.05-0.16-0.09-0.25-0.1
		C719.25,130.41,719.33,130.44,719.41,130.49z M719.11,130.39c-0.07-0.01-0.14,0-0.21,0.01c0.05-0.01,0.09-0.02,0.14-0.02
		C719.06,130.38,719.08,130.38,719.11,130.39z M718.03,130.85c-0.08,0.07-0.17,0.14-0.25,0.22
		C717.87,130.99,717.95,130.92,718.03,130.85z M718.79,130.42c-0.08,0.02-0.17,0.06-0.25,0.1
		C718.62,130.47,718.71,130.44,718.79,130.42z M718.47,130.55c-0.11,0.06-0.22,0.14-0.34,0.22
		C718.24,130.68,718.36,130.61,718.47,130.55z M715.26,135.17c-0.02,0.1-0.03,0.18-0.03,0.25
		C715.22,135.35,715.23,135.27,715.26,135.17z M717.65,131.2c-0.07,0.08-0.15,0.15-0.22,0.24
		C717.5,131.35,717.58,131.28,717.65,131.2z M717.29,131.59c-0.07,0.08-0.14,0.17-0.22,0.26
		C717.15,131.76,717.22,131.68,717.29,131.59z M716.95,132.02c-0.07,0.1-0.15,0.2-0.22,0.3
		C716.8,132.22,716.88,132.12,716.95,132.02z M716.62,132.47c-0.09,0.13-0.18,0.27-0.26,0.4
		C716.44,132.74,716.53,132.6,716.62,132.47z M716.31,132.94c-0.1,0.16-0.19,0.32-0.28,0.47
		C716.12,133.26,716.21,133.1,716.31,132.94z M715.95,133.55c-0.06,0.11-0.12,0.22-0.17,0.32
		C715.84,133.77,715.89,133.66,715.95,133.55z M715.7,134.04c-0.05,0.09-0.09,0.19-0.13,0.27
		C715.61,134.22,715.65,134.13,715.7,134.04z M715.5,134.47c-0.04,0.08-0.07,0.16-0.1,0.24
		C715.43,134.63,715.46,134.55,715.5,134.47z M715.35,134.85c-0.03,0.08-0.05,0.15-0.07,0.22C715.3,135,715.32,134.93,715.35,134.85
		z M711.82,207.98c-0.02,0-0.04,0-0.07,0.01c0.02,0,0.04-0.01,0.05-0.01C711.81,207.97,711.81,207.98,711.82,207.98z M711.69,208
		c-0.03,0.01-0.06,0.03-0.09,0.05C711.63,208.03,711.66,208.01,711.69,208z M711.54,208.08c-0.03,0.02-0.07,0.06-0.11,0.09
		C711.47,208.14,711.5,208.11,711.54,208.08z M711.37,208.22c-0.05,0.04-0.1,0.09-0.14,0.15
		C711.27,208.32,711.32,208.26,711.37,208.22z M709.6,211.32c-0.01,0.07-0.02,0.13-0.02,0.18
		C709.58,211.45,709.59,211.39,709.6,211.32z M711.18,208.41c-0.06,0.07-0.13,0.15-0.19,0.23
		C711.06,208.55,711.12,208.48,711.18,208.41z M710.93,208.72c-0.04,0.06-0.09,0.11-0.13,0.17
		C710.84,208.84,710.89,208.78,710.93,208.72z M710.72,209.01c-0.04,0.06-0.08,0.11-0.11,0.17
		C710.65,209.13,710.68,209.07,710.72,209.01z M710.52,209.32c-0.04,0.06-0.07,0.11-0.11,0.17
		C710.45,209.43,710.49,209.37,710.52,209.32z M710.34,209.63c-0.03,0.06-0.07,0.12-0.1,0.18
		C710.27,209.74,710.3,209.68,710.34,209.63z M710.16,209.94c-0.03,0.06-0.06,0.12-0.09,0.18C710.1,210.06,710.13,210,710.16,209.94
		z M710,210.25c-0.03,0.06-0.05,0.11-0.08,0.17C709.95,210.37,709.98,210.31,710,210.25z M709.86,210.55
		c-0.02,0.06-0.05,0.11-0.07,0.17C709.82,210.67,709.84,210.61,709.86,210.55z M709.75,210.84c-0.02,0.06-0.04,0.11-0.06,0.16
		C709.71,210.94,709.73,210.89,709.75,210.84z M709.66,211.1c-0.02,0.05-0.03,0.1-0.04,0.15
		C709.63,211.2,709.64,211.15,709.66,211.1z M728.91,285.68c-0.07,0.02-0.15,0.04-0.22,0.06
		C728.76,285.72,728.84,285.7,728.91,285.68z M728.41,285.86c-0.07,0.03-0.14,0.06-0.21,0.09
		C728.26,285.91,728.34,285.89,728.41,285.86z M724.38,284.43c0.11-0.08,0.22-0.18,0.34-0.3
		C724.6,284.25,724.49,284.35,724.38,284.43z M723.5,284.82c0.06,0,0.12-0.01,0.19-0.02C723.63,284.81,723.56,284.82,723.5,284.82z
		 M723.75,284.78c0.08-0.02,0.16-0.05,0.25-0.1C723.92,284.73,723.83,284.76,723.75,284.78z M724.03,284.67
		c0.08-0.04,0.17-0.1,0.26-0.17C724.21,284.56,724.12,284.62,724.03,284.67z M722.58,284.63c-0.01,0-0.03,0-0.04,0
		c0,0,0.01,0,0.02,0C722.56,284.63,722.57,284.63,722.58,284.63z M722.8,284.67c-0.01,0-0.02-0.01-0.03-0.01
		C722.78,284.66,722.79,284.66,722.8,284.67z M722.29,284.68c0.01-0.01,0.03-0.01,0.04-0.02
		C722.32,284.67,722.3,284.68,722.29,284.68z M715.93,298.51c-0.06,0.02-0.12,0.04-0.18,0.05
		C715.82,298.55,715.88,298.53,715.93,298.51z M716.79,298.23c-0.07,0.02-0.13,0.05-0.2,0.07
		C716.66,298.28,716.73,298.25,716.79,298.23z M716.34,298.38c-0.06,0.02-0.13,0.04-0.19,0.06
		C716.22,298.42,716.28,298.4,716.34,298.38z M715.1,298.73c0.03-0.01,0.07-0.02,0.11-0.03
		C715.18,298.72,715.14,298.73,715.1,298.73z M715.41,298.66c0.05-0.01,0.1-0.03,0.15-0.04
		C715.51,298.63,715.46,298.65,715.41,298.66z M714.66,298.79c-0.06,0-0.1-0.01-0.13-0.02
		C714.56,298.79,714.61,298.79,714.66,298.79z M714.21,298.55c0.03,0.02,0.05,0.05,0.08,0.07
		C714.26,298.6,714.24,298.57,714.21,298.55z M713.83,298.14c-0.03-0.04-0.06-0.08-0.09-0.12
		C713.77,298.05,713.8,298.1,713.83,298.14z M713.62,297.83c-0.03-0.04-0.06-0.09-0.09-0.14
		C713.56,297.74,713.59,297.79,713.62,297.83z M713.41,297.5c-0.03-0.05-0.05-0.09-0.08-0.14
		C713.36,297.4,713.39,297.45,713.41,297.5z M713.21,297.13c-0.02-0.04-0.05-0.09-0.07-0.13
		C713.16,297.05,713.19,297.09,713.21,297.13z M713.01,296.76c-0.02-0.04-0.04-0.08-0.06-0.11
		C712.97,296.68,712.99,296.72,713.01,296.76z M712.78,296.31c-0.06-0.11-0.11-0.22-0.17-0.32
		C712.67,296.09,712.73,296.2,712.78,296.31z M712.57,295.9c-0.04-0.07-0.08-0.14-0.11-0.21
		C712.49,295.76,712.53,295.83,712.57,295.9z M712.4,295.59c-0.03-0.06-0.06-0.11-0.1-0.16
		C712.33,295.48,712.37,295.53,712.4,295.59z M712.24,295.34c-0.03-0.04-0.06-0.08-0.09-0.12
		C712.18,295.25,712.21,295.29,712.24,295.34z M712.09,295.14c-0.03-0.03-0.06-0.06-0.08-0.08
		C712.04,295.08,712.07,295.11,712.09,295.14z M711.95,295.02c-0.03-0.02-0.05-0.03-0.08-0.04
		C711.9,294.99,711.92,295,711.95,295.02z M711.82,294.96c-0.03,0-0.06,0.01-0.09,0.02c0.02-0.01,0.05-0.02,0.07-0.02
		C711.8,294.96,711.81,294.96,711.82,294.96z M711.69,294.99c-0.04,0.03-0.08,0.06-0.13,0.12
		C711.6,295.06,711.64,295.02,711.69,294.99z M718.49,320.74c0.2-0.08,0.4-0.15,0.6-0.21C718.88,320.59,718.68,320.65,718.49,320.74
		z M719.28,320.48c0.14-0.03,0.28-0.07,0.42-0.09C719.56,320.42,719.42,320.45,719.28,320.48z M721.09,320.28
		c-0.18,0-0.36,0.01-0.53,0.02C720.73,320.29,720.91,320.28,721.09,320.28z M720.35,320.31c-0.14,0.01-0.28,0.03-0.43,0.05
		C720.07,320.34,720.21,320.32,720.35,320.31z M721.18,320.28c0.47,0,0.95,0.02,1.43,0.05C722.13,320.3,721.65,320.28,721.18,320.28
		z M724.05,320.38c0.01,0,0.02,0,0.03,0C724.07,320.38,724.07,320.38,724.05,320.38C724.06,320.38,724.05,320.38,724.05,320.38z
		 M724.99,320.34c-0.06,0.01-0.13,0.01-0.19,0.01C724.86,320.35,724.93,320.34,724.99,320.34z M725.74,320.24c0.01,0,0.01,0,0.02,0
		C725.76,320.23,725.75,320.24,725.74,320.24z M726.48,320.04c0.06-0.02,0.12-0.04,0.18-0.06C726.6,320,726.54,320.02,726.48,320.04
		z M734.52,286.69c0.23,0.1,0.45,0.2,0.69,0.31C734.97,286.89,734.75,286.79,734.52,286.69z M730.8,285.54
		c0.1,0.01,0.21,0.03,0.32,0.05C731.01,285.57,730.91,285.55,730.8,285.54z M731.38,285.63c0.11,0.02,0.22,0.05,0.34,0.07
		C731.6,285.68,731.49,285.65,731.38,285.63z M731.97,285.76c0.12,0.03,0.24,0.07,0.36,0.1
		C732.21,285.83,732.09,285.79,731.97,285.76z M732.58,285.94c0.13,0.04,0.26,0.09,0.39,0.13
		C732.84,286.03,732.71,285.98,732.58,285.94z M733.21,286.16c0.14,0.05,0.28,0.11,0.41,0.16
		C733.48,286.26,733.34,286.21,733.21,286.16z M733.85,286.41c0.15,0.06,0.3,0.13,0.46,0.19
		C734.16,286.54,734.01,286.47,733.85,286.41z M742.79,250.06c0.17,0.15,0.35,0.29,0.53,0.43
		C743.14,250.35,742.96,250.21,742.79,250.06z M743.77,250.85c0.18,0.14,0.38,0.26,0.58,0.39
		C744.16,251.11,743.96,250.99,743.77,250.85z M744.85,251.57c0.2,0.12,0.43,0.23,0.64,0.34
		C745.28,251.8,745.06,251.69,744.85,251.57z M746.04,252.2c0.23,0.11,0.47,0.2,0.71,0.29C746.51,252.4,746.26,252.31,746.04,252.2z
		 M747.33,252.74c0.25,0.09,0.53,0.16,0.79,0.24C747.86,252.9,747.59,252.83,747.33,252.74z M748.75,253.17
		c0.3,0.08,0.61,0.13,0.93,0.19C749.37,253.3,749.05,253.24,748.75,253.17z M750.3,253.49c0.36,0.06,0.74,0.09,1.12,0.13
		C751.04,253.58,750.65,253.55,750.3,253.49z M751.98,253.69c0.58,0.04,1.19,0.07,1.83,0.07
		C753.17,253.75,752.56,253.73,751.98,253.69z M729.13,35.32c0.18,0.02,0.36,0.06,0.54,0.06C729.49,35.37,729.31,35.34,729.13,35.32
		z M727.62,38.15c-0.04,0-0.09,0.01-0.13,0.01c-0.03,0-0.05,0-0.08,0C727.47,38.15,727.55,38.15,727.62,38.15z M729.18,37.98
		c-0.02,0-0.04,0.01-0.06,0.01C729.14,37.99,729.16,37.98,729.18,37.98z M728.36,38.1c-0.07,0.01-0.14,0.01-0.21,0.02
		C728.22,38.12,728.29,38.11,728.36,38.1z M727.98,35.01c0.29,0.12,0.57,0.21,0.85,0.27C728.56,35.23,728.27,35.14,727.98,35.01z
		 M733.38,36.19c-0.07,0.05-0.13,0.09-0.2,0.14C733.25,36.28,733.32,36.24,733.38,36.19z M732.67,36.65
		c-0.07,0.04-0.14,0.08-0.21,0.12C732.53,36.73,732.6,36.69,732.67,36.65z M731.74,37.13c-0.01,0-0.02,0.01-0.03,0.01
		C731.72,37.14,731.73,37.14,731.74,37.13z M730.94,37.46c-0.08,0.03-0.15,0.05-0.23,0.08C730.79,37.52,730.87,37.49,730.94,37.46z
		 M730.14,37.73c-0.08,0.02-0.16,0.05-0.24,0.07C729.98,37.78,730.06,37.76,730.14,37.73z M730.38,35.31
		c0.07-0.01,0.13-0.03,0.2-0.04C730.51,35.28,730.45,35.3,730.38,35.31z M731.1,35.13c0.07-0.02,0.13-0.04,0.2-0.07
		C731.23,35.09,731.16,35.11,731.1,35.13z M731.91,34.79c0.01-0.01,0.03-0.01,0.04-0.02C731.94,34.78,731.92,34.78,731.91,34.79z
		 M732.58,34.39c0.06-0.04,0.12-0.08,0.18-0.12C732.7,34.31,732.64,34.35,732.58,34.39z M733.2,33.94c0.06-0.04,0.11-0.09,0.17-0.13
		C733.32,33.86,733.26,33.9,733.2,33.94z M730.59,22.25c0.01-0.05,0.02-0.11,0.02-0.15C730.61,22.14,730.6,22.2,730.59,22.25z
		 M730.59,22.05c-0.01-0.03-0.02-0.06-0.04-0.08C730.57,21.99,730.58,22.02,730.59,22.05z M730.51,21.94
		c-0.02-0.01-0.05-0.02-0.08-0.02C730.45,21.92,730.48,21.93,730.51,21.94z M730.58,22.33c-0.03,0.09-0.07,0.19-0.12,0.32
		C730.52,22.52,730.56,22.42,730.58,22.33z M726.77,38.12c-0.02,0-0.03,0-0.05,0C726.74,38.11,726.76,38.11,726.77,38.12z
		 M726.12,37.99c-0.05-0.02-0.11-0.03-0.16-0.05C726.02,37.95,726.07,37.97,726.12,37.99z M725.58,37.77
		c-0.05-0.02-0.1-0.05-0.14-0.07C725.48,37.72,725.53,37.75,725.58,37.77z M737.17,28.43c-0.09,0.01-0.17,0.01-0.26,0.02
		C737,28.43,737.08,28.43,737.17,28.43z M737.7,28.4c0.23,0,0.46,0.01,0.68,0.04c-0.23-0.02-0.46-0.03-0.7-0.03
		C737.69,28.4,737.7,28.4,737.7,28.4z M742.43,30.27c-0.13-0.12-0.26-0.24-0.41-0.35C742.17,30.03,742.31,30.15,742.43,30.27z
		 M741.99,29.88c-0.13-0.1-0.27-0.2-0.41-0.3C741.72,29.68,741.85,29.78,741.99,29.88z M741.41,29.48c-0.11-0.07-0.22-0.14-0.34-0.2
		C741.19,29.34,741.3,29.41,741.41,29.48z M740.87,29.17c-0.11-0.06-0.22-0.11-0.34-0.16C740.64,29.06,740.76,29.11,740.87,29.17z
		 M740.3,28.91c-0.12-0.05-0.24-0.09-0.36-0.13C740.06,28.82,740.18,28.86,740.3,28.91z M739.69,28.69c-0.13-0.04-0.26-0.07-0.4-0.1
		C739.43,28.62,739.57,28.66,739.69,28.69z M739.06,28.53c-0.15-0.03-0.31-0.05-0.47-0.07C738.74,28.48,738.9,28.5,739.06,28.53z
		 M734.44,15.47c0.21-0.13,0.43-0.25,0.64-0.37C734.87,15.22,734.65,15.35,734.44,15.47z M735.57,14.82c0.2-0.11,0.4-0.23,0.6-0.33
		C735.97,14.6,735.77,14.71,735.57,14.82z M736.62,14.24c0.18-0.1,0.36-0.2,0.54-0.29C736.98,14.05,736.8,14.14,736.62,14.24z
		 M737.58,13.74c0.16-0.08,0.32-0.16,0.46-0.23C737.89,13.58,737.74,13.66,737.58,13.74z M730.79,17.68
		c0.26-0.16,0.52-0.32,0.78-0.48C731.31,17.36,731.05,17.52,730.79,17.68z M732.02,16.92c0.25-0.15,0.49-0.3,0.74-0.45
		C732.51,16.62,732.26,16.77,732.02,16.92z M733.26,16.17c0.23-0.14,0.45-0.27,0.68-0.4C733.71,15.9,733.48,16.04,733.26,16.17z
		 M726.57,24.57c-0.19,0.18-0.38,0.36-0.57,0.55C726.19,24.93,726.38,24.75,726.57,24.57z M726.31,20.47
		c0.16-0.1,0.34-0.21,0.52-0.32C726.65,20.26,726.47,20.38,726.31,20.47z M727.19,19.92c0.2-0.13,0.43-0.27,0.65-0.4
		C727.62,19.66,727.4,19.8,727.19,19.92z M728.44,19.15c0.27-0.17,0.53-0.33,0.81-0.51C728.97,18.81,728.7,18.98,728.44,19.15z
		 M729.58,18.43c0.27-0.17,0.53-0.33,0.81-0.5C730.12,18.1,729.85,18.26,729.58,18.43z M730.36,21.92c-0.07,0-0.14,0.02-0.23,0.05
		C730.21,21.94,730.29,21.93,730.36,21.92z M730.07,21.99c-0.11,0.04-0.23,0.1-0.37,0.17C729.83,22.09,729.96,22.03,730.07,21.99z
		 M729.59,22.23c-0.12,0.07-0.24,0.14-0.37,0.22C729.35,22.36,729.48,22.29,729.59,22.23z M729.11,22.52
		c-0.16,0.11-0.33,0.22-0.51,0.35C728.78,22.75,728.95,22.63,729.11,22.52z M728.49,22.96c-0.15,0.11-0.3,0.23-0.46,0.35
		C728.19,23.19,728.34,23.07,728.49,22.96z M727.89,23.43c-0.19,0.15-0.38,0.31-0.57,0.48C727.51,23.74,727.7,23.58,727.89,23.43z
		 M727.24,23.97c-0.17,0.15-0.34,0.3-0.51,0.46C726.89,24.27,727.07,24.12,727.24,23.97z M720.63,31.35c-0.04,0-0.09-0.02-0.14-0.03
		c0.06,0.01,0.12,0.04,0.17,0.03C720.65,31.35,720.64,31.35,720.63,31.35z M742.54,30.38c0.08,0.08,0.17,0.17,0.24,0.26
		C742.71,30.55,742.63,30.46,742.54,30.38z M742.9,30.77c0.06,0.08,0.13,0.16,0.18,0.23C743.03,30.93,742.97,30.85,742.9,30.77z
		 M743.19,31.16c0.05,0.08,0.1,0.15,0.14,0.23C743.29,31.31,743.24,31.23,743.19,31.16z M743.42,31.53
		c0.04,0.08,0.07,0.15,0.11,0.22C743.49,31.68,743.46,31.6,743.42,31.53z M743.58,31.89c0.03,0.08,0.05,0.15,0.07,0.23
		C743.63,32.04,743.61,31.96,743.58,31.89z M743.68,32.22c0.02,0.11,0.04,0.21,0.04,0.31C743.72,32.44,743.7,32.33,743.68,32.22z
		 M739.86,12.95c-0.06-0.02-0.17,0-0.27,0.01c0.04-0.01,0.1-0.02,0.14-0.02C739.78,12.93,739.82,12.94,739.86,12.95z M738.41,13.35
		c0.13-0.06,0.26-0.11,0.38-0.16C738.67,13.24,738.54,13.29,738.41,13.35z M739.09,13.08c0.1-0.04,0.2-0.07,0.29-0.09
		C739.29,13.02,739.19,13.05,739.09,13.08z M725.89,20.73c-0.1,0.06-0.21,0.13-0.3,0.19C725.68,20.86,725.79,20.79,725.89,20.73z
		 M723.96,21.73c0.36-0.14,0.72-0.3,1.05-0.48C724.68,21.43,724.32,21.59,723.96,21.73z M721.73,22.33
		c0.23-0.03,0.45-0.09,0.68-0.14C722.19,22.24,721.96,22.3,721.73,22.33z M722.86,22.1c0.25-0.07,0.5-0.16,0.75-0.24
		C723.35,21.94,723.11,22.03,722.86,22.1z M721.26,22.37c-0.21,0.02-0.43,0.04-0.64,0.05C720.84,22.42,721.05,22.39,721.26,22.37z
		 M720.05,22.38c-0.15-0.01-0.3-0.01-0.45-0.03C719.74,22.37,719.9,22.37,720.05,22.38z M719.04,22.21
		c-0.13-0.03-0.26-0.06-0.39-0.1C718.77,22.15,718.91,22.18,719.04,22.21z M718.09,21.83c-0.09-0.05-0.2-0.09-0.29-0.15
		C717.89,21.75,718,21.78,718.09,21.83z M716.61,20.84c-0.03,0-0.05,0-0.08,0c0.01,0,0.02-0.01,0.03-0.01
		C716.58,20.83,716.59,20.83,716.61,20.84z M716.88,20.9c-0.02-0.01-0.05-0.02-0.08-0.03C716.83,20.88,716.85,20.89,716.88,20.9z
		 M716.18,20.9c-0.02,0.01-0.05,0.02-0.07,0.03C716.13,20.92,716.15,20.91,716.18,20.9z M715.72,21.13
		C715.72,21.13,715.71,21.13,715.72,21.13C715.71,21.13,715.72,21.13,715.72,21.13z M715.32,21.43c-0.02,0.02-0.05,0.04-0.07,0.06
		C715.27,21.47,715.29,21.45,715.32,21.43z M714.89,21.85c-0.02,0.02-0.04,0.05-0.06,0.07C714.84,21.9,714.86,21.87,714.89,21.85z
		 M714.5,22.34C714.49,22.34,714.49,22.34,714.5,22.34C714.49,22.34,714.49,22.34,714.5,22.34z M714.23,22.78
		c-0.01,0.03-0.03,0.05-0.04,0.08C714.2,22.83,714.22,22.8,714.23,22.78z M714.02,23.27c-0.01,0.02-0.01,0.05-0.02,0.07
		C714.01,23.32,714.01,23.29,714.02,23.27z M714,24.03c-0.04-0.12-0.06-0.22-0.06-0.3C713.94,23.81,713.96,23.91,714,24.03z
		 M717.37,28.69c-0.1-0.11-0.2-0.22-0.29-0.33C717.18,28.46,717.27,28.58,717.37,28.69z M716.8,28.04
		c-0.09-0.11-0.19-0.22-0.28-0.33C716.61,27.82,716.7,27.93,716.8,28.04z M716.24,27.38c-0.09-0.11-0.17-0.22-0.26-0.33
		C716.07,27.16,716.15,27.27,716.24,27.38z M715.71,26.72c-0.09-0.11-0.17-0.22-0.25-0.33C715.55,26.5,715.63,26.61,715.71,26.72z
		 M715.23,26.08c-0.08-0.11-0.15-0.21-0.22-0.31C715.08,25.87,715.15,25.97,715.23,26.08z M714.8,25.47
		c-0.07-0.1-0.12-0.19-0.18-0.28C714.68,25.28,714.73,25.37,714.8,25.47z M714.44,24.91c-0.06-0.1-0.11-0.19-0.16-0.28
		C714.34,24.73,714.38,24.81,714.44,24.91z M714.17,24.43c-0.05-0.1-0.08-0.18-0.12-0.27C714.09,24.25,714.12,24.33,714.17,24.43z
		 M717.65,28.98c0.1,0.11,0.2,0.21,0.29,0.31C717.85,29.2,717.75,29.09,717.65,28.98z M718.22,29.57c0.1,0.1,0.19,0.2,0.29,0.29
		C718.41,29.77,718.32,29.67,718.22,29.57z M720.35,31.28c-0.06-0.02-0.13-0.07-0.2-0.1C720.22,31.22,720.29,31.26,720.35,31.28z
		 M719.98,31.09c-0.07-0.05-0.15-0.11-0.23-0.16C719.83,30.98,719.91,31.04,719.98,31.09z M719.54,30.77
		c-0.08-0.06-0.17-0.14-0.26-0.22C719.37,30.63,719.46,30.71,719.54,30.77z M719.04,30.36c-0.09-0.08-0.19-0.17-0.28-0.26
		C718.86,30.19,718.95,30.28,719.04,30.36z M704.78,61.44c0.03,0.03,0.07,0.07,0.1,0.1C704.85,61.51,704.82,61.48,704.78,61.44z
		 M707.21,62.35c0.14,0,0.3-0.01,0.45-0.02C707.51,62.34,707.35,62.35,707.21,62.35z M708.59,62.22c-0.25,0.04-0.49,0.07-0.72,0.09
		C708.1,62.29,708.34,62.26,708.59,62.22z M706.72,62.34c-0.01,0-0.01,0-0.02,0C706.71,62.34,706.71,62.34,706.72,62.34z
		 M706.24,62.27c-0.04-0.01-0.09-0.02-0.13-0.03C706.16,62.24,706.2,62.26,706.24,62.27z M705.76,62.12
		c-0.03-0.01-0.06-0.02-0.1-0.04C705.7,62.09,705.73,62.11,705.76,62.12z M705.27,61.86c-0.03-0.02-0.06-0.04-0.09-0.07
		C705.21,61.81,705.24,61.84,705.27,61.86z M704.3,60.88c-0.02-0.01-0.04-0.01-0.05-0.02C704.26,60.87,704.28,60.87,704.3,60.88z
		 M704.13,60.83c-0.02,0-0.04,0-0.05,0c0.01,0,0.02-0.01,0.03-0.01C704.11,60.82,704.12,60.83,704.13,60.83z M703.48,61.16
		c-0.02,0.01-0.03,0.03-0.05,0.04C703.44,61.19,703.46,61.18,703.48,61.16z M703.8,60.92c0,0-0.01,0.01-0.01,0.01
		C703.79,60.93,703.79,60.92,703.8,60.92z M703.12,61.56c-0.02,0.03-0.04,0.05-0.06,0.08C703.08,61.61,703.1,61.58,703.12,61.56z
		 M702.76,62.07c-0.01,0.02-0.02,0.04-0.03,0.06C702.73,62.11,702.75,62.09,702.76,62.07z M702.46,62.6
		c-0.01,0.02-0.02,0.03-0.03,0.05C702.44,62.64,702.45,62.62,702.46,62.6z M702.21,63.16c-0.01,0.03-0.02,0.07-0.04,0.1
		C702.19,63.23,702.2,63.2,702.21,63.16z M702.03,63.75c-0.01,0.03-0.01,0.05-0.02,0.08C702.02,63.8,702.03,63.78,702.03,63.75z"/>
	<path class="st5" d="M673.26,63.6c-3.24-3.03-6.92-5.28-11.23-6.9c-1.21-0.46-2.48-0.69-3.77-0.69c-2,0-5.12,0.54-7.73,3.38
		c-0.14-0.01-0.27-0.03-0.41-0.04c4.65-4.91,6.11-8.31,6.7-11.08c0.02-0.1,0.04-0.2,0.06-0.31c0.88-4.82-0.58-9.44-3.21-13.36
		c0.94-1.52,1.79-3.64,1.79-6.44l0-0.14c0.03-2.02,0.12-7.34-3.11-11.69c-2.39-3.37-6.81-8.03-17.41-10.48
		c-0.75-0.17-1.5-0.26-2.25-0.26c-2.86,0-5.63,1.23-7.56,3.45l-1.29,1.48c-1.11,1.28-1.86,2.8-2.21,4.41
		c-4.74,2.75-8.83,6.82-9.97,11.76c-0.65,2.75-0.53,5.58,0.28,8.22c-3.15,1.13-5.66,3.57-7.01,6.01c-1.56,2.8-2.79,7.6,0.09,14.59
		c0.01,0.04,0.03,0.07,0.05,0.11c1.07,2.52,2.68,4.75,4.63,6.57c-0.91,0.6-1.73,1.11-2.42,1.53c-0.98-0.31-2.25-0.64-3.79-0.64
		c-3.09,0-6.04,1.32-8.32,3.71c-2.64,2.77-4.04,6.58-3.85,10.45c0,0.04,0,0.08,0.01,0.13c0.24,3.87,2.46,7.38,6.6,10.44
		c2.34,1.73,5.96,3.79,9.91,3.79c5.27,0,7.96-3.63,9.4-5.58c0.44-0.6,0.98-1.33,1.67-2.18c0.31-0.25,0.85-0.64,1.35-0.98
		c2.04-0.54,7.97-1.38,15.08-1.66c-1.17,1.42-1.94,3.15-2.19,5c-0.19,1.44-0.07,2.89,0.35,4.25c-7.5,9.14-23.57,21.15-31.82,23.45
		c-3.42,0.96-6.08,3.66-6.98,7.09s0.09,7.09,2.6,9.61l1.09,1.09c1.9,1.9,4.45,2.93,7.07,2.93c0.79,0,1.59-0.09,2.38-0.29
		c2.57-0.63,5.02-1.39,7.34-2.24c0.23,1.26,0.62,2.59,1.26,3.97c-0.27,0.29-0.54,0.6-0.81,0.93c-0.05,0.06-0.1,0.13-0.15,0.19
		c-3.01,3.87-3.61,9.75-1.49,14.64c0.45,1.04,1.14,2.34,2.18,3.63c-1.31,1.07-2.37,2.48-3.02,4.16l-0.49,1.29
		c-0.16,0.4-0.27,0.82-0.38,1.23c-0.89,0.43-1.73,1-2.47,1.69l-1.58,1.48c-2.1,1.97-3.25,4.75-3.16,7.63s1.43,5.58,3.66,7.4
		c0.91,0.74,1.35,1.15,1.57,1.37c0.61,3.05,0.59,12.17,0.36,16.31c-2.03,2.98-2.22,6.39-2.13,9.15c0,0.04,0,0.07,0,0.11
		c0.27,5.93,4.99,11.78,10.4,13.66c-3.12,3.81-5.53,8.12-7.02,12.63c-2.77,8.41-2.34,17.07,1.26,25.05c1.12,2.48,3.2,4.4,5.76,5.31
		c1.09,0.39,2.22,0.58,3.35,0.58c1.54,0,3.07-0.35,4.47-1.06l1.98-0.99c3.82-1.91,6-6.03,5.44-10.26l-0.02-0.12
		c-0.87-6.54-1.02-9.86,1.27-12.12c0.04-0.04,0.07-0.07,0.11-0.11c3.68-3.73,7.45-6.46,11.1-9.1c8.76-6.34,18.68-13.52,18.68-31.06
		c0-8.86-3.35-14.37-6.17-17.44c-4.02-4.39-9.64-6.8-15.81-6.8c-2.03,0-4.08,0.21-6.12,0.62c-0.06-0.45-0.15-0.89-0.27-1.33
		c8.25-1.89,15.41-6.83,19.61-13.83c0.02-0.03,0.04-0.06,0.06-0.09c2.28-3.9,5.74-11.59,3.2-19.23c-0.81-2.45-2.46-5.56-5.8-8.12
		c0.73-0.41,1.43-0.89,2.08-1.42c0.26-0.21,0.51-0.44,0.74-0.67c2.03-2.03,3.27-4.28,3.72-6.7c6.97-0.91,12.39-4.94,13.96-10.61
		c1.15-4.03,0.11-8.52-2.95-12.66c-1.11-1.51-3.52-4.35-6.89-6.07c-0.11-2.83-1.09-5.7-2.91-8.33c-0.2-0.3-0.42-0.6-0.65-0.9
		c1.1,0.21,2.3,0.34,3.63,0.34c0.34,0,0.65-0.01,0.93-0.01l0.16,0c5.79,0,12.33-5.12,12.33-11.98c0-5.42-3.27-9.06-4.35-10.25
		C673.68,64,673.47,63.8,673.26,63.6z M660.51,114.56c-0.14,0.03-0.27,0.06-0.41,0.09C660.24,114.63,660.37,114.59,660.51,114.56z
		 M659.84,114.7c-0.13,0.02-0.27,0.05-0.4,0.07C659.57,114.75,659.7,114.73,659.84,114.7z M659.81,104.11
		c0.09,0.03,0.17,0.07,0.26,0.11C659.98,104.18,659.9,104.14,659.81,104.11z M660.32,104.35c0.09,0.05,0.18,0.1,0.28,0.16
		C660.5,104.45,660.41,104.4,660.32,104.35z M658.82,103.96c0.07-0.01,0.15-0.02,0.23-0.02c0.03,0,0.07,0.01,0.1,0.01
		C659.03,103.94,658.92,103.94,658.82,103.96z M659.35,103.98c0.08,0.01,0.16,0.03,0.24,0.06
		C659.5,104.01,659.43,103.99,659.35,103.98z M658.62,106.53c-0.11-0.06-0.24-0.1-0.36-0.13
		C658.39,106.43,658.51,106.47,658.62,106.53z M658.14,106.38c-0.09-0.02-0.18-0.03-0.28-0.03
		C657.95,106.36,658.05,106.37,658.14,106.38z M657.73,106.36c-0.18,0-0.36,0.02-0.55,0.06
		C657.37,106.38,657.55,106.36,657.73,106.36z M657.1,106.44c-0.18,0.04-0.37,0.1-0.55,0.17
		C656.73,106.54,656.91,106.48,657.1,106.44z M656.48,106.63c-0.19,0.08-0.39,0.17-0.58,0.27
		C656.1,106.79,656.29,106.7,656.48,106.63z M655.79,106.95c-0.19,0.1-0.37,0.21-0.55,0.33
		C655.42,107.17,655.61,107.06,655.79,106.95z M655.16,107.35c-0.17,0.12-0.34,0.25-0.5,0.38
		C654.82,107.6,654.98,107.47,655.16,107.35z M654.63,107.75c-0.16,0.14-0.31,0.28-0.44,0.42
		C654.32,108.04,654.47,107.89,654.63,107.75z M636.79,201.72c0.09,0.01,0.19,0.03,0.28,0.03
		C636.98,201.75,636.89,201.73,636.79,201.72z M634.75,200.79c0.09,0.07,0.19,0.13,0.28,0.2
		C634.94,200.92,634.84,200.86,634.75,200.79z M635.42,201.23c0.1,0.05,0.2,0.11,0.3,0.15
		C635.62,201.33,635.52,201.28,635.42,201.23z M636.11,201.54c0.1,0.04,0.2,0.07,0.29,0.1
		C636.31,201.61,636.21,201.58,636.11,201.54z M634.11,200.26c0.09,0.08,0.17,0.15,0.26,0.23
		C634.29,200.42,634.2,200.34,634.11,200.26z M633.02,199.02c0.05,0.07,0.11,0.14,0.17,0.22
		C633.13,199.16,633.07,199.09,633.02,199.02z M633.53,199.67c0.07,0.08,0.15,0.16,0.23,0.24
		C633.68,199.82,633.6,199.75,633.53,199.67z M631.05,200.58c0-0.02,0.01-0.04,0.01-0.07C631.05,200.53,631.05,200.55,631.05,200.58
		z M631.13,200.13c0.01-0.03,0.01-0.05,0.02-0.08C631.14,200.08,631.14,200.1,631.13,200.13z M631.27,199.63
		C631.27,199.63,631.27,199.63,631.27,199.63C631.27,199.63,631.27,199.63,631.27,199.63z M631.42,199.21
		c0.01-0.02,0.02-0.05,0.03-0.07C631.44,199.16,631.43,199.19,631.42,199.21z M631.62,198.77c0.01-0.02,0.02-0.04,0.03-0.06
		C631.64,198.73,631.63,198.75,631.62,198.77z M631.84,198.41C631.84,198.41,631.84,198.4,631.84,198.41
		C631.84,198.4,631.84,198.41,631.84,198.41z M632.03,198.2c0.01-0.01,0.02-0.02,0.04-0.03
		C632.06,198.17,632.05,198.19,632.03,198.2z M632.26,198.09c0,0,0.01-0.01,0.01-0.01c0.01,0,0.02,0.01,0.03,0.01
		C632.29,198.1,632.28,198.09,632.26,198.09z M632.42,198.14c0.01,0.01,0.03,0.02,0.04,0.03
		C632.45,198.16,632.43,198.15,632.42,198.14z M623.54,195.08c0.01,0.02,0.03,0.04,0.04,0.05
		C623.56,195.11,623.55,195.09,623.54,195.08z M623.99,195.13c-0.06,0.03-0.12,0.04-0.18,0.05
		C623.87,195.17,623.93,195.16,623.99,195.13z M623.74,195.19c-0.02,0-0.03-0.01-0.05-0.01
		C623.71,195.18,623.72,195.19,623.74,195.19z M623.46,194.93c-0.01-0.03-0.02-0.05-0.03-0.08
		C623.45,194.88,623.46,194.9,623.46,194.93z M624.09,195.07c0.06-0.04,0.12-0.08,0.19-0.13
		C624.21,194.99,624.15,195.03,624.09,195.07z M624.38,194.85c0.07-0.06,0.14-0.13,0.21-0.2
		C624.52,194.72,624.45,194.79,624.38,194.85z M624.69,194.55c0.1-0.11,0.2-0.23,0.3-0.35
		C624.89,194.32,624.79,194.44,624.69,194.55z M642.02,71.11c-0.34-0.01-0.67-0.02-1.01-0.02C641.35,71.1,641.69,71.1,642.02,71.11z
		 M624.97,28.55c0.05-0.06,0.11-0.12,0.17-0.18C625.08,28.43,625.03,28.49,624.97,28.55z M625.46,28.07
		c0.06-0.05,0.13-0.11,0.19-0.16C625.59,27.96,625.53,28.02,625.46,28.07z M626.09,27.6c0.06-0.04,0.11-0.08,0.17-0.11
		C626.2,27.52,626.15,27.56,626.09,27.6z M626.95,27.1c0.04-0.02,0.08-0.04,0.12-0.05C627.03,27.06,626.98,27.08,626.95,27.1z
		 M627.7,26.75c0.09-0.04,0.18-0.07,0.26-0.11C627.87,26.68,627.78,26.72,627.7,26.75z M628.49,26.44c0.1-0.04,0.2-0.07,0.3-0.1
		C628.69,26.38,628.59,26.41,628.49,26.44z M629.32,26.18c0.1-0.03,0.2-0.06,0.31-0.09C629.52,26.11,629.42,26.15,629.32,26.18z
		 M630.18,25.95c0.09-0.02,0.19-0.05,0.28-0.07C630.36,25.9,630.27,25.92,630.18,25.95z M631.11,25.75
		c0.06-0.01,0.11-0.02,0.17-0.03C631.22,25.72,631.16,25.74,631.11,25.75z M632.07,25.6c0.06-0.01,0.12-0.01,0.18-0.02
		C632.19,25.59,632.13,25.59,632.07,25.6z M632.81,25.54c0.08,0,0.16-0.01,0.25-0.01C632.98,25.53,632.9,25.53,632.81,25.54z
		 M633.46,25.53c0.18,0,0.34,0.01,0.5,0.03C633.8,25.54,633.64,25.53,633.46,25.53z M634.19,25.57c0.22,0.03,0.42,0.07,0.59,0.12
		C634.61,25.64,634.41,25.6,634.19,25.57z M624.38,29.59c0.02-0.06,0.05-0.12,0.07-0.17C624.42,29.47,624.39,29.53,624.38,29.59z
		 M624.61,29.06c0.04-0.07,0.08-0.13,0.13-0.19C624.69,28.93,624.65,28.99,624.61,29.06z M623.5,70.12
		c-0.13,0.02-0.28,0.03-0.42,0.03C623.22,70.15,623.37,70.14,623.5,70.12z M623.01,70.15c-0.12,0-0.24-0.01-0.36-0.03
		C622.77,70.14,622.89,70.15,623.01,70.15z M622.58,70.11c-0.1-0.02-0.2-0.05-0.29-0.08C622.38,70.06,622.48,70.09,622.58,70.11z
		 M643.96,30.35c0,0-0.01,0-0.01,0c0.07,0,0.13-0.02,0.19-0.03C644.08,30.33,644.02,30.35,643.96,30.35z M644.23,30.3
		c0.09-0.03,0.17-0.08,0.24-0.16C644.4,30.22,644.32,30.27,644.23,30.3z M643.29,30.18c0.09,0.04,0.17,0.07,0.25,0.09
		C643.46,30.25,643.38,30.22,643.29,30.18z M643.64,30.3c0.09,0.02,0.17,0.04,0.25,0.04C643.82,30.34,643.73,30.33,643.64,30.3z
		 M641.89,29.41c0.12,0.07,0.23,0.14,0.35,0.21C642.12,29.55,642.01,29.48,641.89,29.41z M642.39,29.71
		c0.13,0.08,0.25,0.15,0.37,0.21C642.64,29.86,642.52,29.79,642.39,29.71z M642.81,29.95c0.13,0.07,0.25,0.13,0.37,0.19
		C643.07,30.09,642.94,30.02,642.81,29.95z M614.88,52.83c0.05,0.09,0.1,0.17,0.16,0.26C614.98,53,614.93,52.91,614.88,52.83z
		 M615.73,54.05c0.01,0.01,0.02,0.02,0.02,0.03C615.75,54.07,615.74,54.06,615.73,54.05z M616.54,54.89
		c0.07,0.06,0.14,0.13,0.21,0.19C616.68,55.02,616.61,54.96,616.54,54.89z M617.62,55.77c0.02,0.01,0.04,0.02,0.05,0.03
		C617.66,55.79,617.64,55.78,617.62,55.77z M618.55,56.33c0.08,0.04,0.15,0.08,0.23,0.12C618.7,56.41,618.63,56.37,618.55,56.33z
		 M619.71,56.84c0.02,0.01,0.05,0.01,0.07,0.02C619.76,56.85,619.73,56.85,619.71,56.84z M620.64,57.09
		c0.07,0.01,0.15,0.03,0.22,0.04C620.79,57.12,620.72,57.1,620.64,57.09z M621.74,57.21c0.12,0,0.23-0.01,0.34-0.02
		c-0.11,0.01-0.21,0.02-0.32,0.02C621.76,57.21,621.75,57.21,621.74,57.21z M622.35,57.17c0.12-0.02,0.23-0.04,0.34-0.07
		C622.58,57.13,622.47,57.16,622.35,57.17z M622.92,57.05c0.12-0.04,0.23-0.09,0.34-0.13C623.15,56.97,623.04,57.02,622.92,57.05z
		 M623.44,56.85c0.16-0.08,0.32-0.18,0.46-0.29C623.76,56.67,623.6,56.77,623.44,56.85z M622,69.79c-0.05-0.08-0.09-0.16-0.09-0.26
		C621.92,69.63,621.95,69.71,622,69.79z M622.26,70.01c-0.09-0.04-0.16-0.1-0.22-0.17C622.09,69.91,622.17,69.96,622.26,70.01z
		 M643.31,71.16c0.33,0.02,0.66,0.04,0.98,0.06C643.96,71.2,643.64,71.18,643.31,71.16z M643.79,150.98
		c0.01-0.12,0.02-0.23,0.02-0.35C643.81,150.75,643.8,150.87,643.79,150.98z M645.9,106.29c-0.01,0.12-0.01,0.24-0.01,0.36
		C645.89,106.53,645.9,106.41,645.9,106.29z M646.07,107.87c0.05,0.18,0.11,0.36,0.18,0.54
		C646.18,108.23,646.12,108.05,646.07,107.87z M645.9,106.82c0.01,0.11,0.02,0.22,0.03,0.33
		C645.92,107.04,645.91,106.93,645.9,106.82z M645.96,107.34c0.02,0.12,0.05,0.24,0.08,0.36C646,107.58,645.98,107.46,645.96,107.34
		z M646.13,105.18c0.03-0.08,0.06-0.17,0.09-0.24C646.19,105.02,646.16,105.1,646.13,105.18z M645.91,106.18
		c0.01-0.15,0.04-0.3,0.06-0.44C645.95,105.87,645.92,106.02,645.91,106.18z M646,105.63c0.02-0.11,0.05-0.21,0.08-0.31
		C646.05,105.42,646.02,105.52,646,105.63z M647.51,103.62c0.01,0,0.02,0.01,0.03,0.01c-0.01,0-0.02-0.01-0.04-0.01
		C647.5,103.62,647.51,103.62,647.51,103.62z M647.45,103.63c-0.04,0.01-0.09,0.01-0.14,0.03
		C647.36,103.64,647.4,103.63,647.45,103.63z M647.24,103.69c-0.04,0.02-0.09,0.04-0.13,0.07
		C647.16,103.73,647.2,103.71,647.24,103.69z M647.04,103.81c-0.05,0.03-0.09,0.07-0.14,0.12
		C646.95,103.88,646.99,103.84,647.04,103.81z M646.83,103.98c-0.07,0.07-0.13,0.14-0.2,0.23
		C646.7,104.13,646.77,104.05,646.83,103.98z M646.62,104.23c-0.06,0.08-0.12,0.16-0.17,0.26
		C646.5,104.4,646.56,104.31,646.62,104.23z M646.39,104.59c-0.04,0.07-0.08,0.14-0.11,0.22
		C646.31,104.73,646.35,104.66,646.39,104.59z M628.75,127.3c0.04-0.09,0.09-0.17,0.14-0.26
		C628.84,127.12,628.79,127.21,628.75,127.3z M629.22,126.47c0.06-0.09,0.13-0.18,0.2-0.26
		C629.35,126.3,629.28,126.39,629.22,126.47z M629.86,125.72c0.07-0.07,0.13-0.14,0.21-0.21C630,125.58,629.93,125.65,629.86,125.72
		z M636.12,122.85c0.11-0.02,0.22-0.04,0.33-0.06C636.33,122.81,636.23,122.83,636.12,122.85z M636.15,136.06
		c-0.49-0.25-0.98-0.5-1.46-0.76s-0.94-0.53-1.38-0.8c0.44,0.27,0.91,0.54,1.38,0.8S635.66,135.81,636.15,136.06z M633.72,123.5
		c0.1-0.04,0.21-0.07,0.31-0.11C633.92,123.42,633.82,123.46,633.72,123.5z M632.67,123.9c0.11-0.05,0.23-0.1,0.34-0.14
		C632.89,123.8,632.78,123.85,632.67,123.9z M631.71,124.36c0.1-0.05,0.2-0.1,0.29-0.15C631.9,124.27,631.8,124.31,631.71,124.36z
		 M632.04,133.67c-0.4-0.28-0.78-0.57-1.13-0.86C631.26,133.1,631.64,133.39,632.04,133.67z M629.22,151.31
		c-0.03,0-0.07-0.01-0.11-0.01c0.06,0,0.12,0,0.18,0C629.27,151.3,629.25,151.31,629.22,151.31z M631.25,150.75
		c0.03-0.02,0.06-0.05,0.09-0.08C631.31,150.7,631.28,150.73,631.25,150.75z M630.77,151.04c-0.03,0.01-0.06,0.02-0.1,0.03
		C630.71,151.06,630.74,151.05,630.77,151.04z M630.12,151.23c-0.03,0.01-0.06,0.02-0.1,0.02
		C630.06,151.24,630.09,151.23,630.12,151.23z M628.8,144.96c0.04,0,0.08-0.01,0.12-0.01C628.88,144.95,628.84,144.95,628.8,144.96z
		 M628.27,144.93c0.06,0.01,0.12,0.01,0.18,0.02C628.38,144.94,628.33,144.94,628.27,144.93z M626.41,143.98
		c0.06,0.05,0.12,0.11,0.19,0.16C626.53,144.09,626.47,144.04,626.41,143.98z M626.99,144.41c0.05,0.03,0.1,0.07,0.16,0.1
		C627.09,144.48,627.04,144.45,626.99,144.41z M627.71,144.78c0.03,0.01,0.07,0.02,0.1,0.03
		C627.78,144.8,627.75,144.79,627.71,144.78z M625.91,143.48c0.06,0.07,0.11,0.13,0.17,0.19
		C626.02,143.61,625.96,143.54,625.91,143.48z M625.18,142.25C625.18,142.24,625.18,142.24,625.18,142.25
		C625.18,142.24,625.18,142.24,625.18,142.25C625.18,142.25,625.18,142.25,625.18,142.25C625.18,142.25,625.18,142.25,625.18,142.25
		z M625.49,142.9c0.04,0.07,0.09,0.13,0.13,0.19C625.58,143.02,625.53,142.96,625.49,142.9z M625.11,142.13
		c-0.01-0.01-0.03-0.01-0.04-0.01C625.08,142.13,625.1,142.13,625.11,142.13z M624.98,142.1C624.98,142.1,624.98,142.1,624.98,142.1
		c0,0-0.01,0-0.01,0C624.98,142.1,624.98,142.1,624.98,142.1z M624.32,142.42c0,0,0.01-0.01,0.01-0.01
		C624.32,142.41,624.32,142.42,624.32,142.42z M624.66,142.2c0.03-0.01,0.05-0.02,0.07-0.03
		C624.71,142.18,624.69,142.19,624.66,142.2z M623.84,142.86c0.04-0.04,0.07-0.07,0.1-0.1C623.9,142.79,623.87,142.82,623.84,142.86
		z M624.21,163.43c0.04,0,0.07,0.01,0.11,0.01C624.29,163.44,624.26,163.43,624.21,163.43
		C624.22,163.43,624.22,163.43,624.21,163.43z M624.51,163.44c0.09,0,0.19-0.01,0.29-0.01C624.7,163.44,624.6,163.44,624.51,163.44z
		 M628.23,162.96c-0.13,0.03-0.26,0.06-0.39,0.08C627.96,163.02,628.1,162.99,628.23,162.96z M627.32,163.15
		c-0.13,0.02-0.26,0.05-0.38,0.07C627.07,163.19,627.2,163.17,627.32,163.15z M626.45,163.29c-0.12,0.02-0.24,0.03-0.36,0.05
		C626.21,163.32,626.33,163.31,626.45,163.29z M625.6,163.38c-0.11,0.01-0.22,0.02-0.33,0.03
		C625.38,163.41,625.49,163.39,625.6,163.38z M629.16,162.74c-0.13,0.04-0.27,0.07-0.4,0.1
		C628.89,162.8,629.02,162.77,629.16,162.74z M631.06,162.16c-0.12,0.04-0.24,0.08-0.36,0.12
		C630.82,162.24,630.94,162.2,631.06,162.16z M630.1,162.47c-0.13,0.04-0.26,0.08-0.39,0.11
		C629.84,162.54,629.97,162.51,630.1,162.47z M632.03,161.81c-0.09,0.03-0.18,0.06-0.27,0.1
		C631.85,161.88,631.94,161.85,632.03,161.81z M633.2,161.34c-0.07,0.03-0.13,0.06-0.2,0.09
		C633.07,161.4,633.14,161.37,633.2,161.34z M643.38,148.14c0.04,0.09,0.06,0.19,0.09,0.28
		C643.44,148.33,643.41,148.23,643.38,148.14z M643.64,148.98c0.03,0.11,0.04,0.22,0.06,0.33
		C643.68,149.2,643.67,149.09,643.64,148.98z M643.78,149.81c0.01,0.11,0.02,0.23,0.02,0.34
		C643.8,150.04,643.79,149.93,643.78,149.81z M643.73,151.44c-0.02,0.11-0.04,0.23-0.06,0.34
		C643.69,151.67,643.71,151.56,643.73,151.44z M643.55,152.24c-0.03,0.11-0.07,0.22-0.1,0.33
		C643.49,152.46,643.52,152.35,643.55,152.24z M643.27,153.03c-0.04,0.11-0.09,0.21-0.14,0.32
		C643.18,153.24,643.23,153.13,643.27,153.03z M642.9,153.8c-0.05,0.1-0.1,0.2-0.16,0.29C642.79,154,642.84,153.9,642.9,153.8z
		 M642.42,154.58c-0.05,0.08-0.1,0.16-0.16,0.24C642.32,154.75,642.37,154.66,642.42,154.58z M641.77,155.46
		c-0.02,0.03-0.04,0.06-0.07,0.08C641.73,155.51,641.75,155.48,641.77,155.46z M641.08,156.23c-0.06,0.06-0.13,0.13-0.19,0.19
		C640.95,156.36,641.02,156.3,641.08,156.23z M640.4,156.9c-0.09,0.08-0.18,0.16-0.28,0.24C640.21,157.06,640.31,156.98,640.4,156.9
		z M639.66,157.54c-0.1,0.09-0.21,0.17-0.32,0.25C639.44,157.71,639.55,157.63,639.66,157.54z M638.87,158.16
		c-0.11,0.09-0.23,0.17-0.35,0.25C638.63,158.33,638.75,158.25,638.87,158.16z M638.03,158.75c-0.12,0.08-0.25,0.16-0.37,0.24
		C637.78,158.92,637.91,158.83,638.03,158.75z M637.15,159.32c-0.13,0.08-0.25,0.15-0.38,0.23
		C636.9,159.47,637.03,159.39,637.15,159.32z M636.24,159.85c-0.13,0.07-0.25,0.14-0.38,0.21
		C635.99,160,636.11,159.93,636.24,159.85z M635.29,160.36c-0.12,0.06-0.25,0.13-0.37,0.19
		C635.04,160.49,635.17,160.43,635.29,160.36z M634.3,160.85c-0.11,0.05-0.22,0.11-0.34,0.16
		C634.08,160.96,634.19,160.9,634.3,160.85z M636.9,136.42c0.5,0.24,1.01,0.48,1.51,0.7C637.9,136.9,637.4,136.66,636.9,136.42z
		 M638.21,122.54c0.1-0.01,0.2-0.02,0.3-0.03C638.41,122.52,638.31,122.53,638.21,122.54z M637.16,122.67
		c0.12-0.02,0.24-0.03,0.35-0.05C637.4,122.64,637.28,122.66,637.16,122.67z M640.49,122.44c-0.08,0-0.15,0-0.24-0.01
		C640.34,122.44,640.42,122.44,640.49,122.44z M641.79,122.55c-0.05-0.01-0.11-0.02-0.16-0.02
		C641.68,122.54,641.74,122.54,641.79,122.55z M641.22,122.48c-0.07-0.01-0.15-0.01-0.23-0.02
		C641.07,122.47,641.15,122.47,641.22,122.48z M647.09,125.42c-0.04,0-0.07,0.01-0.11,0.01c-0.03,0-0.06-0.01-0.09-0.01
		C646.95,125.42,647.02,125.42,647.09,125.42z M646.48,125.38c-0.06-0.01-0.12-0.02-0.18-0.03
		C646.36,125.36,646.42,125.37,646.48,125.38z M647.73,103.69c0.02,0.01,0.04,0.02,0.05,0.04
		C647.76,103.71,647.75,103.7,647.73,103.69z M647.66,99.02c0.07-0.03,0.13-0.06,0.19-0.08C647.79,98.97,647.73,98.99,647.66,99.02z
		 M649.08,98.67c-0.07,0-0.14,0.01-0.21,0.01C648.94,98.68,649.01,98.68,649.08,98.67z M648.48,98.74
		c-0.07,0.01-0.14,0.03-0.22,0.05C648.34,98.77,648.41,98.76,648.48,98.74z M651.46,98.96c-0.1-0.01-0.19-0.03-0.29-0.04
		C651.26,98.93,651.36,98.95,651.46,98.96z M650.64,98.83c-0.17-0.03-0.35-0.06-0.52-0.08C650.29,98.78,650.46,98.8,650.64,98.83z
		 M649.82,98.71c-0.15-0.02-0.3-0.03-0.45-0.03C649.52,98.69,649.67,98.7,649.82,98.71z M628.63,165.61
		c0.37,0.01,0.74,0.03,1.11,0.02c-0.08,0-0.17,0.01-0.25,0.01C629.21,165.64,628.92,165.62,628.63,165.61z M641.84,162.11
		c-0.35,0.22-0.7,0.43-1.06,0.64C641.14,162.54,641.5,162.33,641.84,162.11z M640.46,162.93c-0.47,0.25-0.95,0.49-1.44,0.71
		C639.51,163.42,639.99,163.19,640.46,162.93z M638.65,163.79c-0.38,0.16-0.77,0.32-1.16,0.46
		C637.88,164.11,638.27,163.96,638.65,163.79z M636.99,164.43c-0.38,0.13-0.77,0.25-1.17,0.36
		C636.21,164.67,636.6,164.56,636.99,164.43z M635.38,164.91c-0.54,0.14-1.08,0.26-1.63,0.36
		C634.3,165.16,634.84,165.04,635.38,164.91z M633.45,165.31c-0.46,0.08-0.92,0.14-1.39,0.19
		C632.53,165.45,632.99,165.38,633.45,165.31z M631.52,165.55c-0.42,0.03-0.83,0.06-1.25,0.07
		C630.68,165.6,631.1,165.58,631.52,165.55z M644.76,159.85c-0.38,0.36-0.78,0.69-1.18,1.02
		C643.98,160.55,644.38,160.21,644.76,159.85z M643.22,161.14c-0.31,0.23-0.62,0.46-0.94,0.68
		C642.6,161.6,642.91,161.38,643.22,161.14z M639.16,137.46c0.5,0.22,1,0.43,1.49,0.64C640.16,137.9,639.66,137.68,639.16,137.46z
		 M647.64,125.36c0.05-0.01,0.09-0.01,0.14-0.02C647.73,125.35,647.68,125.35,647.64,125.36z M648.44,125.13
		c0.05-0.02,0.1-0.04,0.15-0.07C648.54,125.09,648.49,125.11,648.44,125.13z M649.09,124.82c0.06-0.03,0.11-0.06,0.17-0.1
		C649.21,124.76,649.15,124.79,649.09,124.82z M650.12,112.86c0.13,0.02,0.26,0,0.38-0.02c-0.06,0.01-0.12,0.03-0.19,0.03
		C650.25,112.87,650.18,112.87,650.12,112.86z M645.52,71.31c0.31,0.03,0.63,0.05,0.93,0.09C646.15,71.37,645.83,71.34,645.52,71.31
		z M654.01,72.49c0.79,0.14,1.57,0.27,2.34,0.4C655.57,72.76,654.79,72.62,654.01,72.49z M647.66,71.53c0.3,0.04,0.6,0.07,0.89,0.11
		C648.26,71.6,647.96,71.57,647.66,71.53z M649.75,71.8c0.28,0.04,0.55,0.08,0.83,0.12C650.31,71.88,650.03,71.84,649.75,71.8z
		 M651.82,72.12c0.25,0.04,0.5,0.08,0.74,0.12C652.32,72.2,652.07,72.16,651.82,72.12z M655.48,70.1c0.04-0.01,0.08-0.01,0.12-0.02
		C655.57,70.1,655.53,70.1,655.48,70.1z M655.77,70.01c0.03-0.02,0.07-0.03,0.1-0.05C655.84,69.98,655.8,69.99,655.77,70.01z
		 M656.02,69.82c0.02-0.02,0.05-0.04,0.07-0.07C656.07,69.78,656.05,69.8,656.02,69.82z M656.29,69.5c0-0.01,0.01-0.01,0.01-0.02
		C656.3,69.49,656.29,69.49,656.29,69.5z M658.53,66.06c-0.1-0.04-0.18-0.05-0.27-0.05c0,0,0.01,0,0.01,0
		C658.35,66.01,658.43,66.03,658.53,66.06z M657.94,66.12c-0.04,0.03-0.08,0.05-0.12,0.09C657.85,66.18,657.89,66.15,657.94,66.12z
		 M658.18,66.03c-0.05,0.01-0.11,0.02-0.16,0.04C658.07,66.05,658.12,66.04,658.18,66.03z M656.48,69.15
		c0.02-0.03,0.03-0.07,0.05-0.11C656.52,69.08,656.5,69.12,656.48,69.15z M656.65,68.78c0.02-0.05,0.04-0.09,0.06-0.14
		C656.69,68.69,656.67,68.74,656.65,68.78z M656.81,68.38c0.02-0.05,0.04-0.11,0.06-0.16C656.85,68.27,656.83,68.33,656.81,68.38z
		 M656.99,67.88c0.03-0.08,0.06-0.16,0.09-0.25C657.05,67.72,657.02,67.8,656.99,67.88z M657.15,67.45
		c0.03-0.07,0.05-0.14,0.08-0.21C657.2,67.3,657.17,67.37,657.15,67.45z M657.3,67.07c0.03-0.07,0.06-0.13,0.09-0.19
		C657.35,66.94,657.33,67,657.3,67.07z M657.45,66.73c0.03-0.06,0.06-0.11,0.09-0.17C657.52,66.61,657.48,66.67,657.45,66.73z
		 M657.62,66.44c0.03-0.05,0.07-0.09,0.11-0.13C657.69,66.35,657.66,66.39,657.62,66.44z M615.78,44.39
		c-0.01-0.05-0.04-0.07-0.08-0.09C615.74,44.32,615.77,44.35,615.78,44.39z M615.65,44.29c-0.03-0.01-0.07-0.01-0.12,0
		c0.02,0,0.04-0.01,0.06-0.01C615.62,44.28,615.64,44.29,615.65,44.29z M614.33,45c0.07-0.06,0.14-0.12,0.21-0.18
		C614.46,44.87,614.4,44.93,614.33,45z M614.63,44.73c0.09-0.07,0.18-0.13,0.27-0.18C614.81,44.6,614.72,44.67,614.63,44.73z
		 M614.94,44.53c0.1-0.06,0.19-0.11,0.28-0.15C615.13,44.42,615.03,44.47,614.94,44.53z M615.29,44.35
		c0.06-0.02,0.12-0.04,0.17-0.05C615.41,44.31,615.35,44.33,615.29,44.35z M614.22,45.1c-0.07,0.07-0.13,0.14-0.19,0.22
		C614.09,45.24,614.15,45.17,614.22,45.1z M613.94,45.42c-0.09,0.11-0.17,0.23-0.24,0.36C613.77,45.65,613.86,45.53,613.94,45.42z
		 M644.93,159.68c0.32-0.31,0.63-0.62,0.92-0.95C645.56,159.05,645.25,159.37,644.93,159.68z M647.17,157.1
		c0.3-0.42,0.6-0.85,0.87-1.3C647.77,156.25,647.48,156.68,647.17,157.1z M646.18,158.36c0.25-0.29,0.48-0.58,0.71-0.88
		C646.66,157.78,646.42,158.07,646.18,158.36z M650.73,112.8c0.09-0.03,0.18-0.07,0.27-0.11
		C650.91,112.73,650.83,112.77,650.73,112.8z M651.22,112.57c0.09-0.06,0.17-0.13,0.25-0.2
		C651.39,112.45,651.31,112.52,651.22,112.57z M651.67,112.2c0.08-0.08,0.16-0.18,0.24-0.27
		C651.83,112.03,651.76,112.12,651.67,112.2z M653.18,109.86c0.11-0.22,0.21-0.44,0.3-0.66c0.06-0.14,0.14-0.29,0.24-0.44
		c-0.1,0.15-0.18,0.29-0.24,0.44C653.38,109.42,653.28,109.64,653.18,109.86z M652.09,111.72c0.08-0.1,0.15-0.22,0.23-0.33
		C652.25,111.5,652.17,111.61,652.09,111.72z M652.49,111.15c0.08-0.12,0.15-0.26,0.22-0.39
		C652.63,110.89,652.56,111.02,652.49,111.15z M652.85,110.52c0.08-0.15,0.15-0.3,0.23-0.45C653,110.22,652.92,110.37,652.85,110.52
		z M653.77,108.69c0.1-0.14,0.21-0.28,0.34-0.43C653.98,108.4,653.87,108.55,653.77,108.69z M657.48,114.9c0.09,0,0.18,0,0.27,0
		c-0.05,0-0.09,0-0.14,0C657.56,114.9,657.52,114.9,657.48,114.9z M659.15,114.8c-0.13,0.02-0.27,0.03-0.41,0.04
		C658.88,114.84,659.02,114.82,659.15,114.8z M658.45,114.87c-0.14,0.01-0.28,0.02-0.41,0.02
		C658.18,114.89,658.31,114.88,658.45,114.87z M660.74,114.51c0.17-0.04,0.33-0.09,0.49-0.14
		C661.07,114.41,660.91,114.46,660.74,114.51z M661.35,114.33c0.2-0.06,0.39-0.14,0.58-0.21
		C661.74,114.19,661.55,114.26,661.35,114.33z M662.09,114.05c0.13-0.06,0.26-0.11,0.39-0.17
		C662.35,113.94,662.22,114,662.09,114.05z M662.66,113.78c0.11-0.05,0.21-0.11,0.31-0.17
		C662.87,113.67,662.77,113.73,662.66,113.78z M663.17,113.5c0.09-0.06,0.18-0.11,0.27-0.17
		C663.35,113.38,663.26,113.44,663.17,113.5z M663.61,113.19c0.08-0.06,0.16-0.12,0.23-0.19
		C663.77,113.07,663.69,113.13,663.61,113.19z M664,112.87c0.07-0.07,0.14-0.13,0.2-0.2C664.13,112.74,664.07,112.8,664,112.87z
		 M664.96,111.38c-0.04,0.14-0.08,0.27-0.14,0.4C664.87,111.65,664.92,111.51,664.96,111.38c0.05-0.16,0.07-0.33,0.08-0.5
		C665.03,111.05,665,111.22,664.96,111.38z M664.33,112.52c0.06-0.07,0.12-0.15,0.17-0.22
		C664.45,112.38,664.39,112.45,664.33,112.52z M664.6,112.16c0.05-0.08,0.1-0.17,0.14-0.26C664.7,111.99,664.66,112.07,664.6,112.16
		z M665,110.32c0.02,0.13,0.02,0.25,0.03,0.37C665.02,110.57,665.02,110.45,665,110.32z M664.76,109.47
		c-0.04-0.12-0.08-0.23-0.14-0.35C664.68,109.24,664.72,109.35,664.76,109.47z M664.95,110.09c-0.03-0.12-0.05-0.23-0.09-0.35
		C664.9,109.85,664.92,109.97,664.95,110.09z M662.76,106.37c-0.09-0.1-0.18-0.2-0.28-0.3
		C662.57,106.17,662.67,106.27,662.76,106.37z M664.49,108.84c-0.06-0.12-0.11-0.23-0.18-0.35
		C664.38,108.61,664.43,108.72,664.49,108.84z M664.14,108.2c-0.07-0.11-0.14-0.23-0.21-0.34C664,107.98,664.07,108.09,664.14,108.2
		z M663.73,107.58c-0.08-0.11-0.16-0.23-0.24-0.34C663.57,107.35,663.65,107.46,663.73,107.58z M663.26,106.96
		c-0.09-0.11-0.17-0.22-0.27-0.32C663.09,106.74,663.18,106.85,663.26,106.96z M660.84,104.67c0.1,0.06,0.19,0.13,0.29,0.21
		C661.04,104.81,660.94,104.74,660.84,104.67z M661.39,105.07c0.1,0.08,0.19,0.16,0.29,0.24
		C661.58,105.24,661.49,105.15,661.39,105.07z M661.94,105.54c0.1,0.09,0.19,0.18,0.29,0.28
		C662.13,105.73,662.04,105.63,661.94,105.54z M660.7,74.97c0.15,0.2,0.32,0.37,0.5,0.52C661.02,75.33,660.85,75.17,660.7,74.97z
		 M661.37,75.61c0.14,0.1,0.29,0.19,0.44,0.27C661.65,75.81,661.51,75.72,661.37,75.61z M661.99,75.98
		c0.42,0.19,0.88,0.31,1.33,0.38C662.87,76.29,662.41,76.17,661.99,75.98z M663.53,76.39c0.17,0.02,0.33,0.04,0.49,0.05
		C663.86,76.43,663.69,76.41,663.53,76.39z M664.21,76.45c0.21,0.01,0.41,0.02,0.6,0.02C664.62,76.47,664.41,76.46,664.21,76.45z
		 M664.81,76.47c0.06,0,0.11,0,0.17,0C664.92,76.47,664.87,76.47,664.81,76.47C664.81,76.47,664.81,76.47,664.81,76.47z"/>
	<path class="st5" d="M669.91,267.51c0-8.92-8.88-14.01-16.62-17.45c-1.3-0.58-2.68-0.86-4.06-0.86c-2.05,0-4.09,0.63-5.81,1.86
		l-2.08,1.48c-2.32,1.66-3.82,4.22-4.13,7.05c-0.17,1.57,0.03,3.14,0.57,4.58c-0.99-0.17-2.01-0.26-3.04-0.26
		c-6.19,0-12.5,3.14-16.89,8.41c-5.55,6.45-6.73,14.17-3.49,20.22c-0.73,0.62-1.48,1.24-2.24,1.87c-1,0.17-2.76,0.49-4.65,1.62
		c-0.09,0.05-0.18,0.11-0.26,0.16c-5.53,3.56-9.58,11.18-6.21,18.31c2.49,5.31,8.62,10.79,14.59,10.79c2.06,0,4.51-0.71,6.78-2
		c-0.02,0.09-0.03,0.19-0.05,0.28c-1.64,10.66,4.97,20.53,17.24,25.76c1.27,0.54,2.6,0.8,3.92,0.8c2.72,0,5.4-1.11,7.33-3.2
		l1.29-1.38c2-2.15,2.95-5.08,2.6-8c-0.35-2.92-1.97-5.53-4.42-7.15c-1.22-0.81-2.13-1.47-2.81-2c0.9-0.47,1.86-0.95,2.65-1.34
		c6.42-3.18,16.12-7.99,17.44-18.41c0.64-4.9-0.71-9.6-3.91-13.61c-2.98-3.73-7.17-6.29-11.19-7.96c3.37-3.8,5.92-6.71,7.35-8.48
		C666.45,277.57,669.91,272.51,669.91,267.51z M627.99,291.02c-0.28-0.03-0.55-0.07-0.83-0.14
		C627.44,290.94,627.71,290.99,627.99,291.02z M629.69,290.94c-0.18,0.03-0.37,0.05-0.55,0.07
		C629.32,291,629.5,290.97,629.69,290.94z M628.8,291.03c-0.07,0-0.15,0.01-0.22,0.01c-0.18,0-0.37-0.01-0.55-0.02
		C628.28,291.04,628.54,291.04,628.8,291.03z M627.85,285.91c0.16,0.09,0.32,0.16,0.48,0.23C628.17,286.08,628.01,286,627.85,285.91
		z M628.49,286.19c0.11,0.04,0.22,0.08,0.33,0.11C628.71,286.27,628.6,286.23,628.49,286.19z M629.02,286.34
		c0.1,0.02,0.2,0.04,0.3,0.05C629.21,286.38,629.11,286.36,629.02,286.34z M629.52,286.41c0.09,0.01,0.19,0.02,0.28,0.02
		C629.71,286.42,629.62,286.42,629.52,286.41z M632.51,295c0,0.07,0.02,0.12,0.06,0.15C632.53,295.11,632.51,295.06,632.51,295z
		 M639,294.32c0.23,0,0.48,0.01,0.73,0.02c-0.28-0.01-0.56-0.01-0.81-0.01C638.95,294.32,638.97,294.32,639,294.32z M638.65,294.33
		c-0.27,0-0.53,0.01-0.78,0.02C638.12,294.34,638.39,294.33,638.65,294.33z M637.56,294.37c-0.24,0.01-0.46,0.03-0.68,0.05
		C637.1,294.4,637.33,294.38,637.56,294.37z M636.64,294.44c-0.29,0.03-0.56,0.07-0.83,0.11
		C636.08,294.51,636.35,294.47,636.64,294.44z M635.67,294.58c-0.22,0.04-0.43,0.08-0.64,0.12
		C635.24,294.65,635.46,294.61,635.67,294.58z M634.8,294.75c-0.18,0.04-0.35,0.08-0.52,0.12
		C634.45,294.83,634.62,294.79,634.8,294.75z M634.07,294.92c-0.23,0.06-0.45,0.12-0.67,0.19c-0.12,0.04-0.24,0.07-0.33,0.08
		c0.1-0.02,0.21-0.05,0.33-0.08C633.62,295.05,633.84,294.98,634.07,294.92z M632.98,295.21c-0.06,0.01-0.12,0.02-0.17,0.02
		C632.86,295.23,632.92,295.22,632.98,295.21z M632.61,294.67c0.05-0.1,0.11-0.22,0.19-0.35
		C632.72,294.45,632.66,294.56,632.61,294.67z M632.79,295.22c-0.08,0-0.14-0.02-0.19-0.05
		C632.65,295.2,632.71,295.22,632.79,295.22z M632.51,294.99c0-0.07,0.03-0.15,0.07-0.24C632.54,294.84,632.52,294.92,632.51,294.99
		z M632.54,285.66c0.15-0.09,0.3-0.18,0.44-0.27C632.84,285.48,632.7,285.57,632.54,285.66z M633.11,285.3
		c0.16-0.11,0.31-0.22,0.45-0.34C633.42,285.07,633.27,285.19,633.11,285.3z M633.6,284.93c0.13-0.11,0.25-0.22,0.37-0.34
		C633.85,284.7,633.73,284.82,633.6,284.93z M634.06,284.5c0.12-0.12,0.23-0.24,0.33-0.37C634.29,284.25,634.18,284.38,634.06,284.5
		z M634.36,277.8c0.15,0.09,0.29,0.18,0.42,0.3C634.65,277.98,634.51,277.89,634.36,277.8z M632.24,274.27
		c0.1-0.03,0.2-0.05,0.29-0.08C632.44,274.22,632.34,274.25,632.24,274.27z M632.52,277.33c-0.17,0-0.35,0.01-0.53,0.04
		C632.17,277.34,632.34,277.33,632.52,277.33z M628.71,275.88c0.08-0.06,0.17-0.11,0.25-0.16
		C628.88,275.78,628.79,275.83,628.71,275.88z M629.81,275.24c0.09-0.05,0.18-0.1,0.27-0.14
		C629.99,275.14,629.9,275.19,629.81,275.24z M631.15,274.62c0.05-0.02,0.11-0.04,0.16-0.06
		C631.26,274.59,631.21,274.6,631.15,274.62z M631.89,277.38c-0.15,0.02-0.3,0.05-0.45,0.09
		C631.59,277.43,631.74,277.4,631.89,277.38z M631.26,277.52c-0.13,0.04-0.26,0.08-0.39,0.13C631,277.6,631.13,277.55,631.26,277.52
		z M630.69,277.71c-0.15,0.06-0.3,0.13-0.45,0.21C630.39,277.85,630.54,277.78,630.69,277.71z M630.13,277.98
		c-0.18,0.1-0.37,0.21-0.55,0.33C629.77,278.19,629.95,278.08,630.13,277.98z M629.44,278.42c-0.13,0.1-0.27,0.2-0.4,0.31
		C629.18,278.61,629.31,278.51,629.44,278.42z M628.87,278.88c-0.12,0.11-0.24,0.23-0.36,0.35
		C628.62,279.11,628.74,278.99,628.87,278.88z M628.34,279.39c-0.17,0.18-0.33,0.37-0.49,0.58
		C628.01,279.77,628.18,279.58,628.34,279.39z M632.63,277.33c0.16,0,0.32,0.02,0.47,0.04
		C632.95,277.35,632.79,277.33,632.63,277.33z M633.24,277.39c0.18,0.03,0.36,0.07,0.52,0.13
		C633.59,277.46,633.42,277.42,633.24,277.39z M633.82,277.54c0.15,0.05,0.29,0.12,0.42,0.19
		C634.11,277.66,633.97,277.6,633.82,277.54z M632.47,285.7c-0.17,0.1-0.36,0.18-0.54,0.26C632.12,285.88,632.3,285.79,632.47,285.7
		z M631.79,286.02c-0.16,0.07-0.33,0.13-0.49,0.18C631.47,286.14,631.63,286.08,631.79,286.02z M631.2,286.23
		c-0.2,0.06-0.39,0.1-0.6,0.13C630.8,286.33,631,286.28,631.2,286.23z M630.45,286.38c-0.17,0.02-0.34,0.04-0.52,0.04
		C630.11,286.42,630.28,286.4,630.45,286.38z M627.04,290.85c-0.27-0.07-0.54-0.16-0.8-0.28
		C626.51,290.68,626.77,290.78,627.04,290.85z M624.39,289.38c0.26,0.24,0.53,0.44,0.8,0.62
		C624.92,289.81,624.65,289.61,624.39,289.38z M625.31,290.08c0.26,0.17,0.52,0.31,0.78,0.43
		C625.83,290.39,625.57,290.25,625.31,290.08z M630.87,290.67c0.28-0.09,0.56-0.19,0.84-0.3
		C631.44,290.48,631.16,290.58,630.87,290.67z M630.01,290.89c0.2-0.04,0.39-0.09,0.59-0.15
		C630.41,290.8,630.21,290.85,630.01,290.89z M640.15,294.34c0.43,0.02,0.88,0.04,1.36,0.08
		C641.03,294.38,640.58,294.36,640.15,294.34z M635.46,273.96c0.11,0.01,0.22,0.02,0.33,0.04
		C635.68,273.98,635.57,273.97,635.46,273.96z M636.29,274.08c0.1,0.02,0.2,0.04,0.3,0.07C636.5,274.13,636.39,274.11,636.29,274.08
		z M637.1,274.31c0.08,0.03,0.17,0.05,0.24,0.08C637.27,274.37,637.19,274.34,637.1,274.31z M634.94,273.93c-0.1,0-0.21-0.01-0.32,0
		c0.04,0,0.08-0.01,0.11-0.01C634.81,273.92,634.87,273.93,634.94,273.93z M633.51,274.01c0.03,0,0.06-0.01,0.09-0.02
		C633.57,274,633.54,274,633.51,274.01z M626.68,277.51c-0.09,0.08-0.18,0.17-0.26,0.26C626.5,277.68,626.59,277.6,626.68,277.51z
		 M627.68,276.63c-0.06,0.05-0.13,0.11-0.19,0.16C627.56,276.73,627.62,276.68,627.68,276.63z"/>
</g>
<g>
	<path d="M708.59,62.22c1.58-0.3,4.55-3.17,9.89-4.06c8.41-5.64,15.43-15.04,15.53-22.46c-2.67,2.28-7.42,3.27-9,1.68
		c-3.17-2.87,3.26-10.49,5.44-14.74c0.89-1.88-2.18,0.2-4.45,2.47c-2.18,2.28-3.96,6.04-5.34,6.23c-1.29,0.1-6.73-6.33-6.73-7.62
		s2.28-3.66,3.17-2.67c1.68,1.98,5.24,1.58,7.92,0.2c2.57-1.48,13.46-8.71,14.84-8.31c1.29,0.3,4.75,2.77,3.86,3.36
		c-0.79,0.59-2.67,0.89-5.94,3.46c-6.13,4.85-12.37,14.05-9.79,15.24c2.28,0.99,4.35-0.2,5.94-1.68c-0.2-3.27,0.2-4.35,2.18-4.75
		c4.35-0.99,7.62,2.28,7.62,3.96c0,0.69-2.28,0.4-2.67,1.58c-4.95,11.97-11.38,19.89-17.91,23.84c9.7,1.58,21.77,17.71,38.19,17.71
		c4.45,0,12.56-1.78,16.52-4.85l0.69,1.29c-4.06,3.56-16.03,9.3-25.53,9.3c-12.17,0-24.14-20.28-34.92-20.28
		c-2.47,0-5.14,1.68-6.33,3.26c-1.19,1.68-4.45,5.64-5.64,5.64s-4.16-4.55-4.16-5.74c0-1.48,1.88-4.25,2.47-3.27
		C705.43,62.42,706.71,62.52,708.59,62.22z"/>
	<path d="M739.86,96.94c0.89,1.29,1.48,2.67,1.48,4.25c0,0.99-0.79,1.88-1.88,1.88c-1.09,0-4.16-0.79-4.55-0.59
		c-0.3,0.3-0.69,1.68-0.79,5.44c-0.3,5.64-0.4,14.84-0.3,24.93c9.99-2.87,23.94-7.52,28.69-9.3l0.59,1.19
		c-9.79,4.75-22.46,9.6-29.29,12.07c0.1,4.65,0.3,9.5,0.49,14.05c0.5,9.3,1.98,12.76,2.38,14.05c0.49,1.39,1.09,2.57,0.89,3.46
		c-0.59,2.87-2.18,3.26-2.77,3.26s-1.98,0.2-3.27-1.19c-1.09-1.19-2.87-5.64-2.08-8.11c0.1-0.49,0.69-0.49,0.99-5.74
		c0.2-3.86,0.4-10.78,0.5-18.7c-0.4,0.1-0.69,0.2-0.89,0.3c-4.75,1.78-6.04,5.64-7.62,5.64c-2.67,0-7.22-5.05-7.22-8.41
		c0-1.19,3.26-6.53,4.45-4.65c1.88,3.17,3.36,4.65,4.85,4.35c1.39-0.2,3.66-0.69,6.43-1.48c0-11.38-0.1-24.04-0.5-32.55
		c-0.3-5.34-2.47-8.71-3.86-11.08l1.19-0.89C735.31,92.78,738.67,95.25,739.86,96.94z"/>
	<path d="M742.23,187.07c1.58,1.98-1.09,4.75-3.46,5.14c-2.87,0.4-4.65,0.3-7.62,1.39c-3.07,1.19-7.32,3.46-6.93,6.04
		c0.79,4.25,9.2-1.68,15.43-0.59c4.75,0.89,7.72,5.44,5.14,10.09c-4.55,8.01-15.24,6.53-23.94,19.39c-0.5,0.59-1.58,2.37-1.39,2.57
		c0.2,0.3,4.75-4.25,9.2-4.25c12.47,0,15.04,19.79,28.59,19.79c7.12,0,13.26-4.75,15.53-6.93l0.99,0.4
		c-0.89,2.18-9,13.65-19.99,13.65c-20.38,0-14.45-23.84-26.61-23.45c-8.31,0.2-12.66,12.07-12.66,19.29c0,2.18-1.39,2.77-1.78,2.77
		c-0.69,0-1.19-0.59-1.88-1.19c-2.28-1.88-3.96-4.55-3.86-5.54c0.2-0.99,1.58-1.19,2.18-2.87c3.36-8.71,10.29-17.71,18.6-24.73
		c7.32-6.13,12.37-11.58,9.1-13.55c-2.87-1.58-5.74,0-9.7,0c-3.36,0-6.04-2.47-6.04-4.85c0-6.83,9.89-7.42,11.28-12.47
		c0.59-1.98-5.05-6.04-6.73-6.83l0.89-1.48C734.22,181.23,740.85,185.39,742.23,187.07z M711.96,208.04
		c1.38,1.68,2.47,4.06,4.16,4.06c2.57,0,4.55-2.37,8.11-4.25l0.89,0.49c-1.68,1.98-3.96,3.66-5.44,7.22
		c-0.59,1.29,0.4,4.75-0.4,5.44c-2.97,2.37-4.85,0-7.22-3.86c-0.99-1.68-2.47-4.45-2.47-5.64
		C709.58,210.62,711.46,207.45,711.96,208.04z"/>
	<path d="M713.84,319.45c5.84-3.26,9.6-3.76,9.1-5.54c-0.69-2.57-5.05-4.35-4.16-7.52c0.89-2.37,1.88-4.16,2.47-5.64
		c0.99-2.37-0.2-1.88-2.47-0.49c-3.56,2.28-3.17,4.45-4.95,4.45c-1.78,0-4.06-1.48-5.05-3.46c-0.59-1.19,0.79-3.66,2.77-6.13
		c0.69-0.99,1.58,2.97,2.97,3.66c0.49,0.2,4.16-1.19,7.02-2.37c3.26-1.29,5.24-2.97,5.84-2.28c0.79,0.99,0.79,1.78,0.59,2.57
		c-0.3,0.89-2.37,1.48-3.26,1.78c-0.79,0.4-1.98,2.67-2.97,5.54c-0.89,2.67-1.29,4.95,3.86,7.32c5.54,2.57,4.95,6.63,1.78,8.31
		c-2.87,1.58-6.13-0.1-8.9,1.09c-6.33,2.47-9.99,6.63-9.2,13.65l-1.88-0.3C705.62,327.76,709.58,321.83,713.84,319.45z
		 M746.68,266.03c0,1.19-2.28,0.3-4.45,3.36c-2.97,4.06-8.61,8.71-12.07,12.27c-1.38,1.38-0.69,1.58,0.3,1.19
		c1.98-0.69,4.16-0.59,8.01,1.98c3.76,2.57,5.94,7.12,5.94,13.65c0,6.83-1.78,12.86-1.78,19c0,11.87,9.3,19.39,17.12,19.39
		c5.44,0,10.09-3.17,13.75-5.44l0.99,1.88c-4.35,3.96-10.29,9-19.09,9c-13.36,0-19.09-14.54-19.09-21.96
		c0-7.12,3.66-14.74,3.66-19.69c0-6.63-0.89-11.87-4.75-13.65c-3.66-1.68-6.43-2.47-8.9,0.49c-2.38,2.67-2.97,5.44-4.06,5.44
		c-1.78,0-2.87-0.59-2.87-1.78c0-2.87,1.68-5.54,2.67-6.33c0.89-0.69,1.19,0.79,2.67-0.69c4.06-3.76,12.37-12.07,13.65-17.81
		c0.4-1.48-1.48-2.37-3.76-3.46l1.19-2.47C744.61,262.27,746.68,265.23,746.68,266.03z"/>
	<path d="M644.28,22.23c1.38,1.78,1.19,5.05,1.19,5.94c0,0.99-0.4,1.39-0.99,1.98s-1.68-0.2-3.17-1.09
		c-1.39-0.99-3.96-2.47-6.53-3.36c-2.47-0.79-10.49,1.19-10.49,4.45c0,6.23,11.28,2.37,15.53,4.85c3.46,2.08,8.01,6.83,7.22,11.18
		c-1.19,5.54-13.85,15.14-23.35,21.67c-0.79,0.49-1.78,1.48-1.78,1.68c0,0.59,0.89,0.69,1.58,0.59c11.77-1.58,22.95-1.58,31.76,0
		c1.78,0.2,1.68-4.65,3.26-4.06c3.96,1.48,6.43,3.46,7.92,4.85c0.89,0.99,1.78,2.18,1.78,3.56c0,0.99-1.78,1.98-2.38,1.98
		c-0.99,0-3.86,0.3-5.14-1.48c-0.69-0.89-3.36-1.98-4.35-2.08c-5.24-0.89-10.69-1.98-17.41-1.78c-9.7,0.1-20.48,1.38-23.15,2.77
		c-0.99,0.59-3.66,2.37-4.45,3.46c-2.18,2.67-3.07,4.25-3.46,4.25c-1.98,0-6.43-3.27-6.53-4.85c-0.1-1.98,1.29-3.66,2.18-3.66
		c0.69,0,2.77,1.09,5.05,1.09c1.68,0,13.16-7.62,21.47-14.54c7.72-6.33,10.88-13.26,9.4-17.61c-1.29-4.16-6.23-4.75-9.6-4.75
		c-4.95,0-9.5-3.76-8.41-8.31c0.79-3.56,8.61-7.92,12.96-7.92c0.99,0-1.39-2.97-2.97-3.96l1.29-1.48
		C640.42,17.38,642.89,20.25,644.28,22.23z M615.78,44.39c0.99,2.57,2.77,4.35,4.35,4.35c2.57,0,6.13-3.96,10.29-6.13l0.2,0.79
		c-1.58,1.98-4.85,4.35-6.33,7.92c-0.59,1.39,0.4,4.55-0.4,5.24c-2.28,1.78-7.62-0.2-9.6-4.85c-0.69-1.68-1.48-4.35-0.59-5.94
		C614.3,44.69,615.69,44,615.78,44.39z"/>
	<path d="M653.58,92.68c2.77,3.96,0,6.33-1.38,6.33c-1.78,0-3.36-0.99-5.15,0.4c-3.66,2.47-7.52,5.94-12.07,9.5
		c6.33,2.28,13.36,7.72,15.14,11.38c1.19,2.37,0.69,3.07-0.3,4.06c-1.09,0.89-2.87,1.48-4.06,0.79c-0.59-0.4-1.19-1.68-3.56-2.47
		c-1.88-0.69-12.57,0-13.75,5.54c-1.09,5.14,11.97,9.79,17.31,11.97c7.92,3.36,4.65,11.58,2.28,15.63
		c-4.75,7.92-15.34,11.97-26.02,8.71l0.49-1.29c6.13,1.68,25.53-6.43,20.48-15.93c-3.46-6.53-20.18-10.98-17.81-19.69
		c2.37-8.51,12.56-8.31,14.35-10.78c0.79-0.99-3.66-4.45-7.62-5.54c-7.02,5.34-15.53,10.69-26.42,13.36l-1.09-1.09
		c11.67-3.26,31.56-18.8,39.08-29.68c2.18-3.07,0.69-5.05-0.4-6.33l1.58-1.09C647.05,86.74,651.6,89.71,653.58,92.68z M623.4,143.33
		c0.89-1.09,1.68-1.48,1.78-1.09c0.69,1.98,3.07,3.17,4.16,2.57c2.28-1.29,2.77-1.78,3.66-2.28l0.5,0.5
		c-1.19,2.08-2.08,2.97-2.67,4.45c-0.59,1.38,1.48,1.98,0.89,2.77c-0.59,0.89-1.68,1.19-3.46,0.99c-1.58-0.2-3.96-0.79-5.05-3.36
		C622.51,146.3,622.71,144.22,623.4,143.33z M647.94,103.96c0.69,1.98,2.97,2.57,4.16,2.57c0.99,0,2.47-1.78,6.73-2.57
		c1.98-0.4,6.93,4.85,6.13,7.42c-0.59,2.28-4.55,3.86-8.61,3.46l-0.69-1.78c2.97-0.49,7.32-4.16,2.97-6.53
		c-1.58-0.79-4.55,1.19-5.14,2.67c-0.79,1.78-1.88,3.86-3.36,3.66c-1.58-0.3-2.77-1.88-3.86-4.45
		C644.97,105.24,647.44,102.67,647.94,103.96z"/>
	<path d="M627.36,177.57c0,0.99-0.1,2.67-0.69,3.07c-0.59,0.49-1.78,0.2-2.77,1.68c-0.99,1.38-0.69,5.64-0.49,12.17
		c0,1.29,0.89,0.59,1.58-0.3c4.16-5.05,11.58-8.71,18.4-8.71c6.53,0,11.97,4.75,11.97,14.25c0,18.2-13.46,19.49-26.91,33.14
		c-6.13,6.04-5.05,13.95-4.16,20.68l-1.98,0.99c-5.44-12.07,0-24.73,9.3-32.06c12.27-9.6,18.3-14.94,18.3-23.45
		c0-7.22-5.14-9.4-10.49-9.4c-8.21,0-14.74,7.22-15.73,11.48c-0.49,1.78,0.59,6.43,0.59,7.52s-0.89,2.97-1.78,2.97
		c-0.99,0-3.86-2.57-3.96-4.75c-0.1-2.87,0.4-3.56,1.09-3.56c0.59,0,0.79-0.99,0.89-2.87c0.3-2.87,0.79-18.11-0.89-22.46
		c-0.89-2.18-2.37-3.56-4.55-5.34l1.58-1.48C623.7,173.81,627.36,176.48,627.36,177.57z M632.6,198.35
		c0.99,1.88,3.36,3.76,5.05,3.36c2.18-0.4,3.07-2.18,4.45-5.14l0.89,0.69c0,3.26-3.46,12.37-5.54,12.37c-2.67,0-6.43-6.43-6.43-8.71
		C631.02,199.83,632.01,197.26,632.6,198.35z"/>
	<path d="M659.91,267.51c0,1.09-1.68,1.29-2.67,1.29c-0.89,0-3.17,0.99-4.85,3.07c-3.17,4.06-18.9,21.27-19.59,22.46
		c-0.49,0.79-0.4,1.09,0.59,0.79c1.98-0.59,4.16-0.99,8.11-0.69c5.34,0.49,17.22,4.75,16.13,12.96c-1.19,9.6-20.78,11.38-21.87,18.9
		c-0.69,5.24,3.76,9,9,12.47l-1.29,1.38c-5.34-2.28-12.47-7.32-11.28-15.04c1.19-7.72,17.81-14.54,18.6-19.29
		c0.89-4.55-5.54-8.51-12.76-8.51c-6.63,0-15.43,6.73-18.4,11.28c-0.49,0.69-0.1,2.77-0.1,3.76c0,1.09-2.97,2.97-3.96,2.97
		c-0.99,0-4.16-2.08-5.54-5.05c-0.99-2.08,1.19-4.75,2.57-5.64c0.99-0.59,2.87,0,5.74-2.37c5.05-4.16,9.5-8.11,13.36-11.87
		c-2.37,0.99-5.05,1.09-7.32-0.99c-2.97-2.77-2.18-6.83,1.09-10.59c3.76-4.55,9.3-5.94,12.56-4.06c2.37,1.48,2.37,4.65,1.48,7.42
		c4.85-5.64,8.21-10.88,10.39-15.73c0.69-1.58-0.99-3.76-2.77-5.74l2.08-1.48C659.02,263.55,659.91,266.42,659.91,267.51z
		 M634.38,284.13c1.48-2.08,1.98-4.75,0.4-6.04c-1.58-1.39-4.75-0.99-6.93,1.88c-1.58,1.88-2.08,4.75,0,5.94
		C630.33,287.3,633.2,285.62,634.38,284.13z"/>
</g>
</svg>
